<svg id="ab2bef69-abcb-4b79-8a49-f4306ee5f81d" data-name="Layer 1" xmlns="http://www.w3.org/2000/svg" viewBox="0 0 215.092 215.092">
  <defs>
    <style>
      .f996dc67-b871-45bb-8f37-ea1f9d68c786 {
        opacity: 0.3;
      }

      .bc641509-93de-4bc8-8e7f-4b84230eb176 {
        stroke: #000;
      }

      .bc641509-93de-4bc8-8e7f-4b84230eb176, .bc9c6226-dbfb-40da-be7d-94a6a36440df {
        stroke-miterlimit: 10;
        stroke-width: 2px;
      }

      .a9837188-aa2c-4f3f-af0a-aed0006fbc60 {
        fill: #fff;
      }

      .bc9c6226-dbfb-40da-be7d-94a6a36440df {
        fill: #0037ff;
        stroke: #0037ff;
      }
    </style>
  </defs>
  <g class="f996dc67-b871-45bb-8f37-ea1f9d68c786">
    <polygon class="bc641509-93de-4bc8-8e7f-4b84230eb176" points="200.436 119.356 84 180 13.432 143.246 131.564 97.491 200.436 119.356"/>
    <g>
      <path class="a9837188-aa2c-4f3f-af0a-aed0006fbc60" d="M92.222,158.388c3.454,1.616,4.212,3.761.157,5.775l-4.193,2.082-11.914-5.813,4.193-1.982A13.912,13.912,0,0,1,92.222,158.388Zm-2.2,4.642c2.167-1.066,1.829-2.2-.531-3.318a7.635,7.635,0,0,0-6.75-.173l-1.49.71,7.281,3.513Z"/>
      <path class="a9837188-aa2c-4f3f-af0a-aed0006fbc60" d="M105.538,155.685l2.054.924-.309.154a6.846,6.846,0,0,1-3.856.716c.281.8-.272,1.431-1.377,1.98a6.111,6.111,0,0,1-5.236.213c-1.735-.809-1.377-1.844.774-3.032l1.519-.849-.351-.159a2.719,2.719,0,0,0-2.61-.114c-.742.358-.866.792-.151,1.122l-2.356,1.141c-1.809-.841-1.495-2.066.658-3.095a7.682,7.682,0,0,1,7.044-.136l2.6,1.173a1.4,1.4,0,0,0,1.4.061Zm-4.234,1.108-.891-.406-.969.553c-1.132.632-1.419,1-.577,1.385a2.587,2.587,0,0,0,2.22-.078C101.875,157.859,102.042,157.294,101.3,156.793Z"/>
      <path class="a9837188-aa2c-4f3f-af0a-aed0006fbc60" d="M107.118,150.519l-2.313,1.116,3.488,1.544a2.642,2.642,0,0,0,2.458.082,3.855,3.855,0,0,0,.917-.609l1.915.84a8.625,8.625,0,0,1-1.558,1,6.366,6.366,0,0,1-5.862-.046l-3.726-1.665-1.572.759-1.933-.87,1.572-.753-3.188-1.425,2.369-1.119,3.188,1.41,2.314-1.108Z"/>
      <path class="a9837188-aa2c-4f3f-af0a-aed0006fbc60" d="M120.36,148.389l2.046.865-.289.144a6.583,6.583,0,0,1-3.686.67c.323.748-.171,1.339-1.206,1.853a6.049,6.049,0,0,1-5.049.2c-1.73-.756-1.451-1.725.552-2.837l1.415-.794-.349-.15a2.734,2.734,0,0,0-2.534-.107c-.694.335-.786.743-.073,1.051l-2.2,1.068c-1.8-.788-1.581-1.934.435-2.9a7.624,7.624,0,0,1,6.809-.127l2.59,1.1a1.4,1.4,0,0,0,1.356.056Zm-4.027,1.038-.888-.381-.9.517c-1.054.592-1.308.933-.469,1.3a2.568,2.568,0,0,0,2.143-.073C116.954,150.424,117.08,149.9,116.333,149.427Z"/>
    </g>
  </g>
  <g>
    <polygon class="bc9c6226-dbfb-40da-be7d-94a6a36440df" points="199.436 93.356 83 154 12.432 117.246 130.564 71.491 199.436 93.356"/>
    <g>
      <path class="a9837188-aa2c-4f3f-af0a-aed0006fbc60" d="M94.623,136.552l-8.426-.459.082,1.067L89.89,138.9l-2.7,1.343-11.914-5.813,2.7-1.278,4.877,2.353-.469-4.436L85.7,129.5l.372,4.849,11.827.571Z"/>
      <path class="a9837188-aa2c-4f3f-af0a-aed0006fbc60" d="M100.942,128.009l5.712,2.57-2.39,1.186-5.03-2.285a3.369,3.369,0,0,0-3.067-.2c-.834.4-.8,1.012-.156,1.518l5.3,2.438-2.446,1.215L90.147,130.4l2.448-1.173,1.57.722c-.454-.684-.349-1.522,1.078-2.2A6.687,6.687,0,0,1,100.942,128.009Z"/>
      <path class="a9837188-aa2c-4f3f-af0a-aed0006fbc60" d="M103.358,128.068c-2.7-1.208-2.92-2.814-.412-4.013a10.951,10.951,0,0,1,8.6.021c2.722,1.179,3.015,2.8.569,4.015A10.831,10.831,0,0,1,103.358,128.068Zm5.832-2.843a5.286,5.286,0,0,0-4.314-.321c-1.2.577-.685,1.283.9,1.986a5.134,5.134,0,0,0,4.355.326C111.3,126.638,110.851,125.951,109.19,125.225Z"/>
      <path class="a9837188-aa2c-4f3f-af0a-aed0006fbc60" d="M117.674,117.215l2.285-1.094,6.607,4.572-2.772,1.376-7.871-2.1,5.31,3.374-2.84,1.41-10.842-2.688,2.39-1.145,7.97,2.2-5.285-3.486,2.437-1.167,7.974,2.129Z"/>
      <path class="a9837188-aa2c-4f3f-af0a-aed0006fbc60" d="M129.515,119.228,116.959,114.1l2.158-1.017,12.546,5.082Z"/>
      <path class="a9837188-aa2c-4f3f-af0a-aed0006fbc60" d="M135.829,112.72l-4.78,2.336a5.087,5.087,0,0,0,3.742.08c.808-.4.582-.763-.042-1.093l1.979-.971c1.541.675,2.015,1.784-.093,2.832a10.749,10.749,0,0,1-8.256-.034c-2.547-1.027-3.183-2.458-.882-3.559a9.779,9.779,0,0,1,7.52.091Zm-6.183,1.739,2.842-1.38a4.339,4.339,0,0,0-3.173-.046C128.474,113.439,128.656,113.931,129.646,114.459Z"/>
      <path class="a9837188-aa2c-4f3f-af0a-aed0006fbc60" d="M132.794,106.637l2-.94,12.46,4.726-1.983.984-1.291-.493c.481.57.4,1.144-.489,1.585-1.876.932-4.895.644-7.46-.357-2.539-.991-3.493-2.24-1.608-3.142a6.527,6.527,0,0,1,3.36-.457Zm8.14,3.113a5.455,5.455,0,0,0-3.99-.309c-.995.48-.332,1.1,1.17,1.684a5.406,5.406,0,0,0,4.025.315C143.088,110.971,142.409,110.315,140.934,109.75Z"/>
      <path class="a9837188-aa2c-4f3f-af0a-aed0006fbc60" d="M144.418,104.41l1.92-.919,7.251,2.662c2.857,1.049,3.459,2.227,1.291,3.319a8.153,8.153,0,0,1-6.167.429l1.877-.933a3.325,3.325,0,0,0,2.433-.188c.976-.487.775-.9-.78-1.473l-1.1-.407c.395.524.278,1.045-.576,1.468-1.8.89-4.611.682-6.9-.181-2.315-.874-3.211-2.077-1.433-2.928a6.514,6.514,0,0,1,3.25-.452Zm3.917,1.45a5.022,5.022,0,0,0-3.6-.176c-.934.45-.335,1.044.881,1.5a4.984,4.984,0,0,0,3.693.2C150.176,106.962,149.786,106.4,148.335,105.86Z"/>
      <path class="a9837188-aa2c-4f3f-af0a-aed0006fbc60" d="M158.253,101.764l-4.288,2.095a5.072,5.072,0,0,0,3.551.072c.725-.358.473-.684-.152-.98l1.776-.871c1.529.605,2.09,1.6.2,2.54-2.091,1.039-5.277.9-7.819-.03-2.519-.922-3.271-2.2-1.2-3.194a9.745,9.745,0,0,1,7.135.082Zm-5.679,1.56,2.55-1.239a4.316,4.316,0,0,0-3.011-.04C151.359,102.408,151.582,102.85,152.574,103.324Z"/>
    </g>
  </g>
  <g class="f996dc67-b871-45bb-8f37-ea1f9d68c786">
    <polygon class="bc641509-93de-4bc8-8e7f-4b84230eb176" points="199.436 67.356 83 128 12.432 91.246 130.564 45.491 199.436 67.356"/>
    <g>
      <path class="a9837188-aa2c-4f3f-af0a-aed0006fbc60" d="M91.222,106.388c3.454,1.616,4.212,3.761.157,5.775l-4.193,2.082-11.914-5.813,4.193-1.982A13.912,13.912,0,0,1,91.222,106.388Zm-2.2,4.642c2.167-1.066,1.829-2.2-.531-3.318a7.635,7.635,0,0,0-6.75-.173l-1.49.71,7.281,3.513Z"/>
      <path class="a9837188-aa2c-4f3f-af0a-aed0006fbc60" d="M102.475,103.018l-5.56,2.716a5.081,5.081,0,0,0,4.023.094c.941-.465.759-.888.143-1.272l2.3-1.129c1.546.784,1.867,2.075-.588,3.3a10.8,10.8,0,0,1-8.905-.04c-2.568-1.2-3-2.861-.326-4.141a9.8,9.8,0,0,1,8.09.106ZM95.5,105.04l3.306-1.606a4.368,4.368,0,0,0-3.413-.053C94.419,103.853,94.53,104.425,95.5,105.04Z"/>
      <path class="a9837188-aa2c-4f3f-af0a-aed0006fbc60" d="M102.789,102.346c-2.566-1.152-3.086-2.74-.388-4.031a9.078,9.078,0,0,1,7.175-.232l-2.2,1.069a4.132,4.132,0,0,0-3.058.022c-1.23.593-.606,1.323.9,1.99a5.468,5.468,0,0,0,4.358.328c.967-.476.644-1.025-.262-1.533l2.2-1.077c2.03.937,2.576,2.23.064,3.479A10.749,10.749,0,0,1,102.789,102.346Z"/>
      <path class="a9837188-aa2c-4f3f-af0a-aed0006fbc60" d="M103.534,94.419l2.29-1.078,2.764,1.183L106.3,95.615Zm12.6,5.45-8.692-3.758,2.288-1.095,8.687,3.72Z"/>
      <path class="a9837188-aa2c-4f3f-af0a-aed0006fbc60" d="M113.531,95.452c-1.719-.732-1.467-1.744.573-2.719a7.632,7.632,0,0,1,5.925-.454l-2.094,1.013a3.052,3.052,0,0,0-2.288.18c-.648.313-.775.612-.3.814,1.66.7,5.012-2.021,8.445-.6,1.869.774,1.6,1.8-.525,2.858a8.12,8.12,0,0,1-6.467.422l2.149-1.055a3.43,3.43,0,0,0,2.568-.141c.674-.333.825-.7.254-.938C120.1,94.133,116.718,96.81,113.531,95.452Z"/>
      <path class="a9837188-aa2c-4f3f-af0a-aed0006fbc60" d="M114.891,89.07l2.179-1.026,2.756,1.126-2.177,1.037Zm12.565,5.181-8.663-3.572,2.176-1.042,8.656,3.537Z"/>
      <path class="a9837188-aa2c-4f3f-af0a-aed0006fbc60" d="M126.333,90.868c-2.681-1.091-3.05-2.541-.783-3.625a10.9,10.9,0,0,1,8.18.019c2.7,1.065,3.133,2.529.925,3.626A10.781,10.781,0,0,1,126.333,90.868ZM131.6,88.3a5.354,5.354,0,0,0-4.132-.291c-1.082.522-.527,1.16,1.047,1.794,1.651.666,3.09.827,4.17.3C133.745,89.577,133.249,88.957,131.6,88.3Z"/>
      <path class="a9837188-aa2c-4f3f-af0a-aed0006fbc60" d="M139.968,83.089l5.634,2.152-2,.992-4.964-1.912a3.4,3.4,0,0,0-2.84-.171c-.7.336-.569.847.1,1.27l5.235,2.038L139.1,88.471l-8.621-3.384,2.049-.982,1.553.6c-.525-.573-.565-1.275.631-1.847C135.987,82.25,137.79,82.257,139.968,83.089Z"/>
      <path class="a9837188-aa2c-4f3f-af0a-aed0006fbc60" d="M140.55,82.381c-1.7-.647-1.583-1.542.221-2.405a7.441,7.441,0,0,1,5.52-.4l-1.852.9a2.969,2.969,0,0,0-2.13.159c-.574.277-.658.541-.184.72,1.643.62,4.48-1.787,7.872-.529,1.846.684,1.713,1.591-.167,2.525a7.935,7.935,0,0,1-6.028.372l1.9-.931a3.341,3.341,0,0,0,2.4-.125c.595-.294.7-.618.131-.829C146.573,81.214,143.7,83.579,140.55,82.381Z"/>
    </g>
  </g>
</svg>
