<svg xmlns="http://www.w3.org/2000/svg" viewBox="0 0 1195.152 684.369">
  <defs>
    <style>
      .cls-1, .cls-3 {
        fill: #fff;
      }

      .cls-2, .cls-4, .cls-5, .cls-6 {
        fill: none;
      }

      .cls-2, .cls-3 {
        stroke: #afafaf;
      }

      .cls-2, .cls-3, .cls-4, .cls-5, .cls-6 {
        stroke-miterlimit: 10;
      }

      .cls-4, .cls-5, .cls-6 {
        stroke: #494949;
        stroke-linecap: round;
        stroke-width: 3px;
      }

      .cls-4 {
        stroke-dasharray: 0 10;
      }

      .cls-6 {
        stroke-dasharray: 0 9.509;
      }
    </style>
  </defs>
  <g id="R_plugin_data_flow" data-name="R plugin data flow">
    <g id="overbg2_step3" data-name="overbg2 step3">
      <g id="overbg">
        <rect class="cls-1" x="844.322" y="188.316" width="299.287" height="292.717"/>
        <rect class="cls-2" x="844.322" y="188.316" width="299.287" height="292.717"/>
      </g>
      <g>
        <path d="M916.863,355.251l-6.451-13h-4.8v13h-8.1V319.5h13c9.1,0,13.9,4.1,13.9,11.4a10.4,10.4,0,0,1-6.251,9.851l7.551,14.5Zm-11.251-28.8v9.6h4.7c3.6,0,6.2-1.35,6.2-5,0-3.4-2.6-4.6-6.5-4.6Z"/>
        <path d="M928.161,343.8v-6.2h15.551v6.2Z"/>
        <path d="M948.262,343.951h7.9c.3,3.3,3.151,5.45,7.451,5.45,3.7,0,5.8-1.5,5.8-3.95,0-2.7-1.95-3.7-9-5.551-6.9-1.85-11.3-4.649-11.3-10.55,0-6.4,5.3-10.551,13.651-10.551s13.551,4.4,13.551,11.151h-7.751c-.35-3.05-2.4-4.9-6.25-4.9-3.45,0-5.351,1.5-5.351,3.651,0,2.45,2.1,3.3,8.251,4.95,8.1,2.15,12.25,4.45,12.25,10.9,0,7.3-4.95,11.4-13.85,11.4C954.262,355.952,948.262,351.2,948.262,343.951Z"/>
        <path d="M1006.012,343.9H988.261c.4,3.95,2.25,6.45,5.851,6.45,3,0,4.149-1.6,4.5-3.75h7.4c-.3,4.85-4.2,9.351-12.051,9.351-8.6,0-13.451-6-13.451-13.7s4.851-13.7,13.3-13.7c7.751,0,12.2,5.1,12.2,12.9Zm-17.6-4.351h10.5c-.5-3.7-2.2-5.45-5.1-5.45C990.711,334.1,988.961,336.1,988.41,339.55Z"/>
        <path d="M1027.411,328.9v7.3c-1-.1-2.35-.1-3.2-.1-3.8,0-5.85,1.7-6.5,4.7v14.451h-7.7v-26h7.7V335.5c1.351-3.8,4.5-6.7,8.3-6.7A6.311,6.311,0,0,1,1027.411,328.9Z"/>
        <path d="M1046.911,329.25h8.1l-8.3,26h-9.751l-8.3-26h8.1l5.1,20.951Z"/>
        <path d="M1081.562,343.9h-17.751c.4,3.95,2.25,6.45,5.85,6.45,3,0,4.15-1.6,4.5-3.75h7.4c-.3,4.85-4.2,9.351-12.051,9.351-8.6,0-13.451-6-13.451-13.7s4.85-13.7,13.3-13.7c7.751,0,12.2,5.1,12.2,12.9Zm-17.6-4.351h10.5c-.5-3.7-2.2-5.45-5.1-5.45C1066.261,334.1,1064.511,336.1,1063.96,339.55Z"/>
      </g>
    </g>
    <g id="overbg2_step1" data-name="overbg2 step1">
      <rect id="overbg-2" data-name="overbg" class="cls-3" x="75.154" y="190.311" width="291.306" height="290.308"/>
      <g>
        <path d="M144.962,356.007l-6.45-13h-4.8v13h-8.1V320.255h13c9.1,0,13.9,4.1,13.9,11.4a10.4,10.4,0,0,1-6.251,9.85l7.551,14.5Zm-11.251-28.8v9.6h4.7c3.6,0,6.2-1.349,6.2-5,0-3.4-2.6-4.6-6.5-4.6Z"/>
        <path d="M156.261,344.556v-6.2h15.551v6.2Z"/>
        <path d="M203.913,343.006c0,7.7-3.85,13.7-11,13.7a8.668,8.668,0,0,1-7.751-4.151v12.451h-7.7v-35h7.7v3.9a8.883,8.883,0,0,1,7.751-4.6C200.063,329.306,203.913,335.306,203.913,343.006Zm-7.951,0c0-4.549-1.6-7.85-5.4-7.85-3.65,0-5.4,3.4-5.4,7.85,0,4.551,1.651,7.851,5.4,7.851C194.363,350.857,195.962,347.557,195.962,343.006Z"/>
        <path d="M207.761,356.007v-38h7.75v38Z"/>
        <path d="M237.461,330.005h7.7v26h-7.7v-4.8a10.1,10.1,0,0,1-9.151,5.5c-4.9,0-7.95-3.1-7.95-9.751V330.005h7.751v14.9c0,4.1,1.45,5.4,4,5.4,2.65,0,4.65-2,5.35-4.6Z"/>
        <path d="M267.659,330.005h7.7v22.1c0,8.551-4.452,13.6-13.152,13.6-8.65,0-12.15-4.35-12.4-9h7.4c.25,2.049,1.85,3.5,5,3.5,3.9,0,5.45-1.75,5.45-6.4v-3.3a9.148,9.148,0,0,1-7.75,4.1c-7.1,0-10.951-5.5-10.951-12.4,0-7.051,3.95-12.9,10.951-12.9a8.931,8.931,0,0,1,7.75,4Zm0,12c0-3.85-1.8-6.85-5.4-6.85-3.7,0-5.4,3.15-5.4,6.85,0,4.1,1.7,7.051,5.4,7.051C265.709,349.057,267.659,346.407,267.659,342.006Z"/>
        <path d="M280.408,318.005h7.751v8.5h-7.751Zm0,38v-26h7.751v26Z"/>
        <path d="M318.01,339.056v16.951h-7.7v-14.9c0-4.1-1.5-5.4-4.051-5.4-2.65,0-4.65,2-5.351,4.6v15.7h-7.7v-26h7.7v4.751a10.159,10.159,0,0,1,9.152-5.45C314.96,329.306,318.01,332.406,318.01,339.056Z"/>
      </g>
    </g>
    <g id="overbg2_step2" data-name="overbg2 step2">
      <rect id="overbg-3" data-name="overbg" class="cls-3" x="458.242" y="190.311" width="291.306" height="290.308"/>
      <g>
        <path d="M549.351,332.729l-6.45-13h-4.8v13H530V296.977h13c9.1,0,13.9,4.1,13.9,11.4a10.4,10.4,0,0,1-6.251,9.851l7.55,14.5Zm-11.251-28.8v9.6h4.7c3.6,0,6.2-1.35,6.2-5,0-3.4-2.6-4.6-6.5-4.6Z"/>
        <path d="M590,303.927H572v7.45h15v6.651H572v7.751h18v6.95H563.9V296.977H590Z"/>
        <path d="M620.351,332.729h-8.7l-5.3-8.1-5.051,8.1h-8.15l8.85-13.3-8.35-12.7h8.5l4.8,7.6,4.5-7.6h7.8l-7.95,12.551Z"/>
        <path d="M646.1,321.378H628.35c.4,3.951,2.25,6.451,5.85,6.451,3,0,4.15-1.6,4.5-3.75h7.4c-.3,4.85-4.2,9.35-12.051,9.35-8.6,0-13.451-6-13.451-13.7s4.85-13.7,13.3-13.7c7.751,0,12.2,5.1,12.2,12.9Zm-17.6-4.35H639c-.5-3.7-2.2-5.45-5.1-5.45C630.8,311.578,629.05,313.578,628.5,317.028Z"/>
        <path d="M648.9,319.728c0-7.7,4.751-13.7,13.6-13.7,7.95,0,12.05,4.649,12.2,10.6h-7.35c-.45-2.8-1.9-4.751-4.9-4.751-4.049,0-5.65,3.351-5.65,7.851,0,4.3,1.7,7.851,5.65,7.851,3.2,0,4.651-2.25,5.051-5.3h7.351c-.2,6.2-4,11.15-12.351,11.15C653.65,333.429,648.9,327.428,648.9,319.728Z"/>
      </g>
      <g>
        <path d="M543.177,371.878H540l-4.619-8.819h-4.17v8.819h-2.88V350.429h6.63c4.98,0,7.619,2.34,7.619,6.33a5.775,5.775,0,0,1-4.409,5.909Zm-11.97-18.989v7.92h4.02c3.059,0,4.5-1.47,4.5-4.02,0-2.37-1.441-3.9-4.89-3.9Z"/>
        <path d="M545.848,365.039h2.819c.09,2.849,2.28,4.71,5.731,4.71,3.119,0,4.859-1.38,4.859-3.571,0-2.249-1.26-3.149-5.76-4.26-4.95-1.2-6.929-2.909-6.929-5.969,0-3.6,2.879-5.88,7.469-5.88,4.5,0,7.44,2.551,7.44,6.42h-2.76c-.12-2.369-1.62-3.93-4.859-3.93-3.031,0-4.531,1.35-4.531,3.12,0,1.95,1.29,2.76,5.64,3.93,5.04,1.35,7.17,2.85,7.17,6.33,0,3.96-2.79,6.3-7.77,6.3C549.178,372.239,545.848,369.418,545.848,365.039Z"/>
        <path d="M578.877,364.8h-11.49c.181,3.09,1.71,5.281,4.86,5.281a3.55,3.55,0,0,0,3.93-3.12h2.7c-.39,2.73-2.37,5.28-6.69,5.28-4.949,0-7.619-3.6-7.619-8.16s2.729-8.16,7.439-8.16c4.53,0,6.87,3.33,6.87,7.62Zm-11.43-2.1h8.79c-.24-2.76-1.5-4.62-4.23-4.62S567.807,359.939,567.447,362.7Z"/>
        <path d="M591.057,356.159v2.58a12.1,12.1,0,0,0-1.71-.09,4.521,4.521,0,0,0-4.65,3.57v9.659h-2.791v-15.6H584.7v3.45a5.67,5.67,0,0,1,5.189-3.66A5.828,5.828,0,0,1,591.057,356.159Z"/>
        <path d="M603.777,356.279h2.879l-5.43,15.6h-3.6l-5.429-15.6h2.879l4.35,13.949Z"/>
        <path d="M622.2,364.8H610.706c.181,3.09,1.71,5.281,4.861,5.281a3.549,3.549,0,0,0,3.929-3.12h2.7c-.391,2.73-2.371,5.28-6.691,5.28-4.949,0-7.619-3.6-7.619-8.16s2.729-8.16,7.439-8.16c4.53,0,6.871,3.33,6.871,7.62Zm-11.43-2.1h8.789c-.239-2.76-1.5-4.62-4.23-4.62S611.126,359.939,610.767,362.7Z"/>
        <path d="M625.346,364.258v-2.279h8.76v2.279Z"/>
        <path d="M656.875,364.649c-.389,4.109-3.6,7.59-9.179,7.59-6.419,0-10.29-4.651-10.29-11.1,0-6.27,3.69-11.07,10.26-11.07,5.7,0,8.789,3.6,9.09,7.74h-2.881c-.269-2.91-2.55-5.25-6.3-5.25-4.53,0-7.17,3.51-7.17,8.55,0,5.13,2.64,8.64,7.2,8.64,3.719,0,6-2.25,6.36-5.1Z"/>
        <path d="M663.687,369.418h9.63v2.46h-12.51V350.429h2.88Z"/>
        <path d="M676.947,371.878V350.429h2.879v21.449Z"/>
      </g>
    </g>
    <polyline class="cls-4" points="602.564 190.311 602.564 138.435 1002.279 138.435 1002.279 188.316"/>
    <polyline class="cls-4" points="602.564 480.619 602.564 532.496 1002.279 532.496 1002.279 482.615"/>
  </g>
  <g id="Python_Data_Flow" data-name="Python Data Flow">
    <g id="over-lines">
      <g>
        <line class="cls-5" x1="373.651" y1="337.634" x2="373.651" y2="337.634"/>
        <line class="cls-6" x1="383.16" y1="337.634" x2="444.966" y2="337.634"/>
        <line class="cls-5" x1="449.72" y1="337.634" x2="449.72" y2="337.634"/>
      </g>
    </g>
  </g>
</svg>
