<svg xmlns="http://www.w3.org/2000/svg" xmlns:xlink="http://www.w3.org/1999/xlink" viewBox="0 0 2098.999 699.666">
  <defs>
    <style>
      .cls-1, .cls-2, .cls-3, .cls-8 {
        fill: none;
      }

      .cls-1, .cls-2, .cls-3 {
        stroke: #494949;
        stroke-linecap: round;
        stroke-width: 3px;
      }

      .cls-1, .cls-2, .cls-3, .cls-4, .cls-8 {
        stroke-miterlimit: 10;
      }

      .cls-2 {
        stroke-dasharray: 0 9.509;
      }

      .cls-3 {
        stroke-dasharray: 0 10;
      }

      .cls-4, .cls-7 {
        fill: #fff;
      }

      .cls-4, .cls-8 {
        stroke: #afafaf;
      }

      .cls-5 {
        fill: url(#linear-gradient);
      }

      .cls-6 {
        fill: url(#linear-gradient-2);
      }

      .cls-10, .cls-11, .cls-12, .cls-13, .cls-14, .cls-15, .cls-16, .cls-9 {
        fill-rule: evenodd;
      }

      .cls-10 {
        fill: #1f1917;
      }

      .cls-11 {
        fill: #6cf;
      }

      .cls-12 {
        fill: #ff0;
        stroke: #1f1917;
        stroke-miterlimit: 12.5;
        stroke-width: 0.27px;
      }

      .cls-13 {
        fill: #ffc;
      }

      .cls-14 {
        fill: #cc0;
      }

      .cls-15 {
        fill: #e25a1c;
      }

      .cls-16, .cls-17 {
        fill: #3c3a3e;
      }
    </style>
    <linearGradient id="linear-gradient" x1="605.024" y1="-5558.028" x2="653.908" y2="-5607.076" gradientTransform="matrix(1, 0, 0, -1, -44.938, -5303.957)" gradientUnits="userSpaceOnUse">
      <stop offset="0" stop-color="#387eb8"/>
      <stop offset="1" stop-color="#366994"/>
    </linearGradient>
    <linearGradient id="linear-gradient-2" x1="635.085" y1="-5589.252" x2="687.586" y2="-5639.551" gradientTransform="matrix(1, 0, 0, -1, -44.938, -5303.957)" gradientUnits="userSpaceOnUse">
      <stop offset="0" stop-color="#ffe052"/>
      <stop offset="1" stop-color="#ffc331"/>
    </linearGradient>
  </defs>
  <g id="Python_Data_Flow" data-name="Python Data Flow">
    <g id="over-lines">
      <g>
        <line class="cls-1" x1="369.661" y1="354.829" x2="369.661" y2="354.829"/>
        <line class="cls-2" x1="379.169" y1="354.829" x2="440.975" y2="354.829"/>
        <line class="cls-1" x1="445.73" y1="354.829" x2="445.73" y2="354.829"/>
      </g>
      <g>
        <line class="cls-1" x1="753.192" y1="354.829" x2="753.192" y2="354.829"/>
        <line class="cls-2" x1="762.7" y1="354.829" x2="824.506" y2="354.829"/>
        <line class="cls-1" x1="829.26" y1="354.829" x2="829.26" y2="354.829"/>
      </g>
      <line class="cls-3" x1="1144.606" y1="363.135" x2="1262.326" y2="480.854"/>
      <line class="cls-3" x1="1262.326" y1="245.415" x2="1144.606" y2="363.135"/>
      <line class="cls-3" x1="1721.232" y1="363.135" x2="1603.513" y2="480.854"/>
      <line class="cls-3" x1="1603.513" y1="245.415" x2="1721.232" y2="363.135"/>
    </g>
    <g id="overbg_step1" data-name="overbg step1">
      <rect id="overbg" class="cls-4" x="71.164" y="207.506" width="291.306" height="290.308"/>
      <g>
        <path d="M150.491,410.409l4.7,3.905-3.37,3.27-6.04-6.04a8.232,8.232,0,0,1-.9.033c-7.642,0-11.647-5.305-11.647-12.48,0-7.008,4-12.314,11.647-12.314,7.742,0,11.58,5.306,11.58,12.314C156.465,404.27,154.463,408.441,150.491,410.409Zm-5.606-3.469c3.771,0,5.94-2.837,5.94-7.843,0-4.839-2.169-7.675-5.94-7.675-3.671,0-6.007,2.836-6.007,7.675C138.878,404.1,141.214,406.94,144.885,406.94Z"/>
        <path d="M170.586,393.758h5.139V411.11h-5.139v-3.2a6.744,6.744,0,0,1-6.108,3.67c-3.27,0-5.305-2.068-5.305-6.507V393.758h5.172V403.7c0,2.737.967,3.6,2.67,3.6a3.82,3.82,0,0,0,3.571-3.07Z"/>
        <path d="M195.282,403.535H183.435c.267,2.637,1.5,4.3,3.905,4.3a2.688,2.688,0,0,0,3-2.5h4.938c-.2,3.237-2.8,6.24-8.042,6.24-5.74,0-8.977-4-8.977-9.143s3.237-9.144,8.877-9.144c5.172,0,8.142,3.4,8.142,8.611Zm-11.746-2.9h7.008c-.334-2.47-1.469-3.638-3.4-3.638C185.071,396.994,183.9,398.329,183.536,400.632Z"/>
        <path d="M209.568,393.524V398.4c-.667-.068-1.568-.068-2.135-.068-2.537,0-3.905,1.135-4.338,3.137v9.644h-5.139V393.758H203.1v4.171c.9-2.536,3-4.472,5.54-4.472A4.226,4.226,0,0,1,209.568,393.524Z"/>
        <path d="M223.653,393.758h5.406l-9.644,23.359h-5.506l3.271-7.375-6.775-15.984h5.44l4.172,10.644Z"/>
        <path d="M255.727,391.889h-11.58V397.3h9.578v4.639h-9.578v9.176h-5.406V387.25h16.986Z"/>
        <path d="M258.7,385.748h5.172v5.674H258.7Zm0,25.362V393.758h5.172V411.11Z"/>
        <path d="M267.312,411.11V385.748h5.173V411.11Z"/>
        <path d="M292.107,403.535H280.261c.266,2.637,1.5,4.3,3.9,4.3a2.688,2.688,0,0,0,3-2.5h4.938c-.2,3.237-2.8,6.24-8.042,6.24-5.74,0-8.977-4-8.977-9.143s3.237-9.144,8.877-9.144c5.173,0,8.142,3.4,8.142,8.611Zm-11.746-2.9h7.008c-.334-2.47-1.469-3.638-3.4-3.638C281.9,396.994,280.728,398.329,280.361,400.632Z"/>
        <path d="M294.381,398.8c0-3.471,2.836-5.474,7.541-5.474,5.54,0,7.609,2.871,7.609,5.407h-4.906c-.167-1.035-.834-2.069-2.937-2.069-1.5,0-2.4.533-2.4,1.5,0,3.337,10.646.9,10.646,7.776,0,3.7-2.938,5.639-7.91,5.639-5.54,0-7.942-2.969-7.942-5.972h4.938c.134,1.668,1.57,2.435,3.1,2.435,1.568,0,2.67-.634,2.67-1.768C304.792,402.935,294.381,405.17,294.381,398.8Z"/>
        <path d="M144.017,441.619v-2.736h10.712v9.844a16.551,16.551,0,0,1-9.51,2.837c-7.409,0-11.747-4.973-11.747-12.381,0-7.208,4.338-12.281,11.413-12.281,5.773,0,9.578,3.3,9.944,8.009h-3.2c-.4-3.036-3-5.239-6.808-5.239-4.839,0-8.009,3.671-8.009,9.478,0,6.24,3.3,9.644,8.676,9.644a11.17,11.17,0,0,0,6.04-1.4v-5.774Z"/>
        <path d="M174.69,443.287H161.909c.2,3.438,1.9,5.874,5.406,5.874,2.869,0,3.905-1.468,4.371-3.47h3c-.434,3.036-2.636,5.873-7.442,5.873-5.506,0-8.476-4-8.476-9.078s3.037-9.076,8.276-9.076c5.039,0,7.642,3.7,7.642,8.476Zm-12.715-2.336h9.779c-.268-3.069-1.669-5.138-4.706-5.138S162.376,437.882,161.975,440.951Z"/>
        <path d="M192.88,439.917v11.246h-3.1V440.652c0-3.5-1.335-4.672-3.637-4.672a5.367,5.367,0,0,0-4.972,4.1v11.079h-3.1V433.811h3.1v3.37a6.92,6.92,0,0,1,6.207-3.771C190.777,433.41,192.88,435.312,192.88,439.917Z"/>
        <path d="M211.838,443.287H199.057c.2,3.438,1.9,5.874,5.406,5.874,2.869,0,3.9-1.468,4.371-3.47h3c-.435,3.036-2.637,5.873-7.443,5.873-5.505,0-8.475-4-8.475-9.078s3.036-9.076,8.275-9.076c5.039,0,7.643,3.7,7.643,8.476Zm-12.715-2.336H208.9c-.267-3.069-1.669-5.138-4.706-5.138S199.523,437.882,199.123,440.951Z"/>
        <path d="M225.389,433.677v2.87a13.335,13.335,0,0,0-1.9-.1,5.03,5.03,0,0,0-5.172,3.972v10.745h-3.1V433.811h3.1v3.837a6.309,6.309,0,0,1,5.774-4.072A6.419,6.419,0,0,1,225.389,433.677Z"/>
        <path d="M243.346,448.694v2.469h-.668c-2.336,0-3.771-.834-4.272-2.569a7,7,0,0,1-6.007,2.836c-3.5,0-5.706-1.8-5.706-4.905,0-3.4,2.6-5.373,7.675-5.64l3.838-.2v-.6c0-2.269-.1-4.2-3.671-4.2-2.268,0-4.1.935-4.1,3h-2.97c0-3.4,2.97-5.406,6.974-5.406,5.006,0,6.874,1.935,6.874,6.774v6.107c0,1.735.334,2.336,1.5,2.336Zm-5.14-3.905v-1.935l-3.17.167c-3.638.167-5.272.868-5.272,3.2,0,1.835,1.2,2.869,3.37,2.869A4.961,4.961,0,0,0,238.206,444.789Z"/>
        <path d="M256.664,436.213h-5.907v9.845c0,2.2.934,2.869,2.87,2.869a12.5,12.5,0,0,0,2.7-.333v2.336a16.865,16.865,0,0,1-3.471.4c-3.47,0-5.206-1.368-5.206-5.006V436.213h-3.97v-2.4h3.97V427.3h3.1v6.508h5.907Z"/>
        <path d="M258.336,442.486c0-5.305,3.2-9.076,8.442-9.076s8.409,3.771,8.409,9.076c0,5.273-3.3,9.078-8.409,9.078C261.539,451.564,258.336,447.759,258.336,442.486Zm13.715,0c0-3.871-1.7-6.673-5.273-6.673-3.6,0-5.305,2.8-5.305,6.673,0,3.905,1.7,6.675,5.305,6.675C270.35,449.161,272.051,446.391,272.051,442.486Z"/>
        <path d="M288.572,433.677v2.87a13.322,13.322,0,0,0-1.9-.1,5.029,5.029,0,0,0-5.172,3.972v10.745h-3.1V433.811h3.1v3.837a6.307,6.307,0,0,1,5.773-4.072A6.419,6.419,0,0,1,288.572,433.677Z"/>
      </g>
      <g>
        <path d="M256.5,249.77H210.878v10.5h15.4V270.59l-15.4,0v10.084H226.12v10.164H210.878v10.16H226.12v10.159H210.878v10.16H226.12v10.159l-15.242,0v10.576h45.613c2.344,0,3.324-1.056,3.324-3.49V253.255c0-2.434-.98-3.485-3.32-3.485Zm-4.97,81.706H231.2V321.317h20.323Zm0-20.319H231.2V301h20.323Zm0-20.323H231.2V280.67h20.323Zm0-20.324H231.2V260.351h20.323Z"/>
        <path d="M201.005,280.231H173.922a4.928,4.928,0,0,1,0-9.855h27.083"/>
        <path d="M201.005,300.836H166.258a4.928,4.928,0,1,1,0-9.855h34.747"/>
        <path d="M201.148,259.625H185.955a4.928,4.928,0,1,1,0-9.856h15.188"/>
        <path d="M201.005,321.446H173.922a4.928,4.928,0,0,1,0-9.855h27.083"/>
        <path d="M201.148,342.051H185.955a4.93,4.93,0,1,1,0-9.859h15.188"/>
      </g>
    </g>
    <g id="overbg_step2" data-name="overbg step2">
      <rect id="overbg-2" data-name="overbg" class="cls-4" x="454.251" y="207.506" width="291.306" height="290.308"/>
      <g>
        <path d="M568.457,395.126c0,4.772-3.069,7.875-9.076,7.875h-4.2v8.109h-5.407V387.25h9.612C565.388,387.25,568.457,390.354,568.457,395.126Zm-9.511,3.5c2.67,0,4.2-1.068,4.2-3.437s-1.535-3.3-4.2-3.3h-3.77v6.741Z"/>
        <path d="M583.044,393.758h5.406l-9.644,23.359H573.3l3.27-7.375L569.8,393.758h5.439l4.172,10.644Z"/>
        <path d="M602.7,397.662H597.6v6.975c0,1.969.7,2.736,2.369,2.736a8.9,8.9,0,0,0,2.4-.334v3.771a18.666,18.666,0,0,1-3.972.467c-3.97,0-5.973-1.735-5.973-6.173v-7.442h-3.4v-3.9h3.4V387.25H597.6v6.508H602.7Z"/>
        <path d="M621.826,399.8V411.11h-5.172v-9.944c0-2.736-.968-3.6-2.67-3.6a3.82,3.82,0,0,0-3.57,3.07V411.11h-5.173V385.748h5.173v11.18a6.775,6.775,0,0,1,6.106-3.638C619.791,393.29,621.826,395.36,621.826,399.8Z"/>
        <path d="M624.2,402.434c0-5.407,3.538-9.144,9.044-9.144,5.473,0,9.044,3.737,9.044,9.144s-3.6,9.143-9.044,9.143C627.737,411.577,624.2,407.84,624.2,402.434Zm12.815,0c0-3.17-1.168-5.24-3.771-5.24-2.637,0-3.77,2.07-3.77,5.24,0,3.3,1.133,5.239,3.77,5.239C635.846,407.673,637.014,405.737,637.014,402.434Z"/>
        <path d="M661.379,399.8V411.11h-5.14v-9.944c0-2.736-1-3.6-2.7-3.6a3.819,3.819,0,0,0-3.57,3.07V411.11h-5.139V393.758h5.139v3.17a6.778,6.778,0,0,1,6.107-3.638C659.343,393.29,661.379,395.36,661.379,399.8Z"/>
        <path d="M566.889,434.544c0,4.472-2.77,7.275-8.376,7.275h-5.039v9.344h-3.2V427.3h8.243C564.119,427.3,566.889,430.107,566.889,434.544Zm-8.543,4.639c3.938,0,5.373-1.8,5.373-4.605,0-2.77-1.435-4.539-5.373-4.539h-4.872v9.144Z"/>
        <path d="M570.3,451.163V425.8h3.1v25.362Z"/>
        <path d="M589.385,433.811h3.07v17.352h-3.07v-3.37a7.077,7.077,0,0,1-6.241,3.771c-3.37,0-5.5-1.9-5.5-6.507V433.811h3.1v10.511c0,3.5,1.335,4.639,3.638,4.639a5.411,5.411,0,0,0,5-4.071Z"/>
        <path d="M609.045,433.811h3.069V448.66c0,5.774-2.736,8.91-8.509,8.91-5.439,0-7.508-2.769-7.942-5.305h3c.434,1.535,1.8,3.036,4.939,3.036,3.9,0,5.44-1.868,5.44-6.24v-1.969a6.618,6.618,0,0,1-5.874,3.437c-4.772,0-7.508-3.67-7.508-8.376,0-4.805,2.836-8.743,7.508-8.743a6.406,6.406,0,0,1,5.874,3.437Zm0,8.275c0-3.4-1.7-6.273-5.107-6.273-3.37,0-5.105,2.9-5.105,6.273,0,3.471,1.735,6.04,5.105,6.04C607.109,448.126,609.045,445.557,609.045,442.086Z"/>
        <path d="M616.422,425.8h3.1v5.239h-3.1Zm0,25.362V433.811h3.1v17.352Z"/>
        <path d="M638.648,439.917v11.246h-3.1V440.652c0-3.5-1.335-4.672-3.638-4.672a5.369,5.369,0,0,0-4.972,4.1v11.079h-3.1V433.811h3.1v3.37a6.922,6.922,0,0,1,6.207-3.771C636.546,433.41,638.648,435.312,638.648,439.917Z"/>
      </g>
      <g id="python">
        <g id="g1894">
          <path id="path8615" class="cls-5" d="M599.892,245.244c-25.1,0-23.53,10.884-23.53,10.884l.028,11.275h23.949v3.385H566.877s-16.059-1.821-16.059,23.5,14.017,24.425,14.017,24.425H573.2V306.964s-.451-14.017,13.794-14.017h23.753s13.346.216,13.346-12.9V258.366S626.119,245.244,599.892,245.244Zm-13.206,7.582a4.309,4.309,0,1,1-4.309,4.309A4.3,4.3,0,0,1,586.686,252.826Z"/>
          <path id="path8620" class="cls-6" d="M600.6,343.59c25.1,0,23.53-10.883,23.53-10.883l-.028-11.276H600.157v-3.385h33.462s16.06,1.821,16.06-23.5-14.018-24.425-14.018-24.425H627.3V281.87s.451,14.017-13.793,14.017H589.749s-13.346-.216-13.346,12.9v21.683S574.377,343.59,600.6,343.59Zm13.206-7.582a4.309,4.309,0,1,1,4.309-4.309A4.3,4.3,0,0,1,613.81,336.008Z"/>
        </g>
      </g>
    </g>
    <g id="overbg_step3" data-name="overbg step3">
      <g id="overbg-3" data-name="overbg">
        <rect class="cls-7" x="840.331" y="205.51" width="299.287" height="292.717"/>
        <rect class="cls-8" x="840.331" y="205.51" width="299.287" height="292.717"/>
      </g>
      <g>
        <path d="M935.489,310.584c0,7.151-4.6,11.8-13.6,11.8h-6.3v12.15h-8.1V298.783h14.4C930.889,298.783,935.489,303.434,935.489,310.584Zm-14.251,5.25c4,0,6.3-1.6,6.3-5.15s-2.3-4.95-6.3-4.95h-5.65v10.1Z"/>
        <path d="M957.338,308.534h8.1l-14.451,35h-8.25l4.9-11.051-10.152-23.951h8.152l6.25,15.951Z"/>
        <path d="M995.687,305.734h-18v7.451h15v6.65h-15v7.75h18v6.95h-26.1V298.783h26.1Z"/>
        <path d="M1026.038,334.535h-8.7l-5.3-8.1-5.051,8.1h-8.15l8.85-13.3-8.35-12.7h8.5l4.8,7.6,4.5-7.6h7.8l-7.95,12.551Z"/>
        <path d="M1051.788,323.185h-17.751c.4,3.95,2.25,6.45,5.851,6.45,3,0,4.149-1.6,4.5-3.75h7.4c-.3,4.85-4.2,9.35-12.051,9.35-8.6,0-13.451-6-13.451-13.7s4.851-13.7,13.3-13.7c7.751,0,12.2,5.1,12.2,12.9Zm-17.6-4.351h10.5c-.5-3.7-2.2-5.45-5.1-5.45C1036.487,313.384,1034.737,315.384,1034.186,318.834Z"/>
        <path d="M1054.586,321.534c0-7.7,4.751-13.7,13.6-13.7,7.951,0,12.05,4.651,12.2,10.6h-7.351c-.45-2.8-1.9-4.75-4.9-4.75-4.05,0-5.651,3.349-5.651,7.849,0,4.3,1.7,7.851,5.651,7.851,3.2,0,4.65-2.25,5.05-5.3h7.351c-.2,6.2-4,11.15-12.351,11.15C1059.337,335.235,1054.586,329.235,1054.586,321.534Z"/>
      </g>
      <g>
        <path d="M917.684,359.882h2.91v21.449h-2.91v-9.87h-10.29v9.87h-2.879V359.882h2.879V369h10.29Z"/>
        <path d="M936.074,358.532h2.76v22.8h-2.76v-3.12a5.824,5.824,0,0,1-5.28,3.481c-4.35,0-6.749-3.6-6.749-8.161s2.4-8.16,6.749-8.16a5.659,5.659,0,0,1,5.28,3.211Zm0,15c0-3.33-1.5-6-4.59-6-3.12,0-4.62,2.67-4.62,6s1.5,6,4.62,6C934.394,379.531,936.074,376.741,936.074,373.531Z"/>
        <path d="M956.654,381.331l-1.86-5.849h-8.34l-1.83,5.849h-2.909l6.959-21.449h3.87l7.109,21.449Zm-9.45-8.309h6.81l-3.42-10.86Z"/>
        <path d="M961.544,373.711v-2.279h8.76v2.279Z"/>
        <path d="M993.072,374.1c-.389,4.109-3.6,7.59-9.18,7.59-6.418,0-10.289-4.651-10.289-11.1,0-6.27,3.69-11.07,10.26-11.07,5.7,0,8.789,3.6,9.089,7.74h-2.879c-.27-2.91-2.551-5.25-6.3-5.25-4.53,0-7.17,3.51-7.17,8.55,0,5.13,2.64,8.639,7.2,8.639,3.719,0,6-2.25,6.36-5.1Z"/>
        <path d="M996.494,381.331v-22.8h2.789v22.8Z"/>
        <path d="M1003.333,358.532h2.79v4.71h-2.79Zm0,22.8v-15.6h2.79v15.6Z"/>
        <path d="M1023.4,374.252h-11.49c.181,3.09,1.71,5.279,4.86,5.279a3.549,3.549,0,0,0,3.93-3.12h2.7c-.39,2.73-2.37,5.281-6.69,5.281-4.949,0-7.619-3.6-7.619-8.161s2.729-8.16,7.439-8.16c4.53,0,6.87,3.33,6.87,7.62Zm-11.429-2.1h8.789c-.24-2.76-1.5-4.621-4.23-4.621S1012.333,369.392,1011.974,372.152Z"/>
        <path d="M1039.752,371.222v10.109h-2.789v-9.45c0-3.149-1.2-4.2-3.271-4.2a4.825,4.825,0,0,0-4.469,3.689v9.96h-2.79v-15.6h2.79v3.03a6.218,6.218,0,0,1,5.58-3.391C1037.862,365.371,1039.752,367.082,1039.752,371.222Z"/>
        <path d="M1053.311,367.892H1048v8.849c0,1.98.84,2.58,2.58,2.58a11.28,11.28,0,0,0,2.43-.3v2.1a15.109,15.109,0,0,1-3.12.36c-3.12,0-4.68-1.23-4.68-4.5v-9.09h-3.57v-2.16h3.57v-5.85H1048v5.85h5.309Z"/>
        <path d="M907.394,414.871h9.63v2.46H904.515V395.882h2.879Z"/>
        <path d="M920.054,394.532h2.79v4.71h-2.79Zm0,22.8v-15.6h2.79v15.6Z"/>
        <path d="M937.034,401.732h2.88l-5.431,15.6h-3.6l-5.43-15.6h2.88l4.35,13.95Z"/>
        <path d="M953.624,401.732h2.909l-8.849,21h-2.94l2.85-6.539-6.39-14.46h2.91l4.98,11.639Z"/>
        <path d="M979.6,417.331l-1.86-5.849H969.4l-1.83,5.849h-2.909l6.959-21.449h3.87l7.109,21.449Zm-9.45-8.309h6.81l-3.42-10.86Z"/>
        <path d="M1000.9,402.392c0,4.02-2.49,6.54-7.53,6.54h-4.529v8.4h-2.88V395.882h7.409C998.413,395.882,1000.9,398.4,1000.9,402.392Zm-7.679,4.17c3.54,0,4.829-1.62,4.829-4.14,0-2.49-1.289-4.08-4.829-4.08h-4.38v8.22Z"/>
        <path d="M1004.474,417.331V395.882h2.879v21.449Z"/>
      </g>
    </g>
    <g id="overbg_step4" data-name="overbg step4">
      <g id="overbg-4" data-name="overbg">
        <rect class="cls-7" x="1267.26" y="109.954" width="334.505" height="208.745"/>
        <rect class="cls-8" x="1267.26" y="109.954" width="334.505" height="208.745"/>
      </g>
      <g>
        <path d="M1352.857,198.233h8.1v35.752h-8.1V218.934h-13v15.051h-8.1V198.233h8.1v13.8h13Z"/>
        <path d="M1384.157,195.983h7.7v38h-7.7v-3.85a8.934,8.934,0,0,1-7.75,4.55c-7.15,0-10.951-6-10.951-13.7s3.8-13.7,10.951-13.7a8.73,8.73,0,0,1,7.75,4.1Zm0,25c0-4.55-1.649-7.85-5.4-7.85-3.8,0-5.4,3.3-5.4,7.85s1.6,7.85,5.4,7.85C1382.407,228.834,1384.157,225.435,1384.157,220.984Z"/>
        <path d="M1419.707,233.985l-2.25-7.9h-11.751l-2.25,7.9h-8.1l10.8-35.752h10.851l11.2,35.752Zm-12.3-13.951h8.3l-4.15-14.5Z"/>
        <path d="M1448.257,207.984h7.7v22.1c0,8.551-4.451,13.6-13.151,13.6-8.651,0-12.151-4.351-12.4-9h7.4c.25,2.05,1.849,3.5,5,3.5,3.9,0,5.45-1.75,5.45-6.4v-3.3a9.149,9.149,0,0,1-7.75,4.1c-7.1,0-10.951-5.5-10.951-12.4,0-7.05,3.95-12.9,10.951-12.9a8.933,8.933,0,0,1,7.75,4Zm0,12c0-3.85-1.8-6.85-5.4-6.85-3.7,0-5.4,3.149-5.4,6.85,0,4.1,1.7,7.05,5.4,7.05C1446.307,227.034,1448.257,224.384,1448.257,219.984Z"/>
        <path d="M1485.257,222.634h-17.751c.4,3.95,2.25,6.45,5.85,6.45,3,0,4.15-1.6,4.5-3.75h7.4c-.3,4.851-4.2,9.351-12.051,9.351-8.6,0-13.451-6-13.451-13.7s4.85-13.7,13.3-13.7c7.751,0,12.2,5.1,12.2,12.9Zm-17.6-4.351h10.5c-.5-3.7-2.2-5.45-5.1-5.45C1469.956,212.833,1468.206,214.833,1467.655,218.283Z"/>
        <path d="M1514.057,217.033v16.952h-7.7v-14.9c0-4.1-1.5-5.4-4.05-5.4-2.651,0-4.651,2-5.351,4.6v15.7h-7.7v-26h7.7v4.75a10.157,10.157,0,0,1,9.151-5.451C1511.007,207.283,1514.057,210.383,1514.057,217.033Z"/>
        <path d="M1537.055,213.833H1529.4v10.451c0,2.951,1.05,4.1,3.551,4.1a13.28,13.28,0,0,0,3.6-.5v5.65a27.867,27.867,0,0,1-5.951.7c-5.95,0-8.95-2.6-8.95-9.25V213.833h-5.1v-5.849h5.1v-9.751h7.75v9.751h7.651Z"/>
      </g>
    </g>
    <g id="overbg_step5" data-name="overbg step5">
      <g id="overbg-5" data-name="overbg">
        <rect class="cls-7" x="1722.14" y="279.766" width="344.27" height="160.119"/>
        <rect class="cls-8" x="1722.14" y="279.766" width="344.27" height="160.119"/>
      </g>
      <g id="g10">
        <path id="path20" class="cls-9" d="M1980.449,393.113h15.5l1.92-8.735c4.424,0,8.991.029,13.415.029a10.131,10.131,0,0,0,5.773-1.819,9.913,9.913,0,0,0,4.157-6.129q1.458-6.648,2.929-13.293c.558-2.529,1.284-5.385-.53-7.67-1.668-2.1-3.882-2.265-6.312-2.265q-26.255.029-52.508,0A10.173,10.173,0,0,0,1960,354.6a7.15,7.15,0,0,0-4.532-1.368h-24.024l1.968-8.855h-15.526l-1.92,8.639h-13.655a9.771,9.771,0,0,0-5.279,1.608,7.692,7.692,0,0,0-4.532-1.368h-45.069q1.032-4.487,2.063-8.975l-15.5-.024-8.937,39.973,15.487,0,4.659-20.458h5.241c.623,0,.5.355.4.825q-2.2,9.816-4.406,19.633h102.674a9.6,9.6,0,0,0,4.674-1.16,7.726,7.726,0,0,0,4.8,1.359l23.78-.2Q1981.4,388.673,1980.449,393.113ZM1913.39,363.8h-4.57c-.8,0-1.018.365-1.178,1.084l-1.716,7.7c-.163.738.21.859.856.859h4.448l2.16-9.642Zm26.217.186h4.882c.939,0,.888.492.719,1.253q-.84,3.771-1.678,7.542c-.195.878-.742.863-1.5.863h-4.968c-.729,0-.736-.431-.606-1.021q.836-3.771,1.67-7.541C1938.336,364.155,1938.7,363.99,1939.607,363.99Zm32.135,0h4.882c.939,0,.888.492.719,1.253q-.839,3.771-1.677,7.542c-.195.878-.742.863-1.5.863H1969.2c-.73,0-.737-.431-.607-1.021q.835-3.771,1.671-7.541c.206-.931.572-1.1,1.476-1.1Zm28.658,9.731h4.57c.8,0,1.018-.366,1.177-1.085q.86-3.849,1.717-7.7c.163-.738-.21-.858-.856-.858h-4.448l-2.16,9.642"/>
        <path id="path22" class="cls-10" d="M1936.032,355.477H1955.5a4.306,4.306,0,0,1,4.3,5.524l-3.47,15.66a7.309,7.309,0,0,1-6.748,5.525h-19.471a4.307,4.307,0,0,1-4.3-5.525l3.469-15.66a7.308,7.308,0,0,1,6.748-5.524Zm3.53,6.287h9.627a2.278,2.278,0,0,1,2.276,2.923l-1.836,8.289a3.867,3.867,0,0,1-3.571,2.923h-9.627a2.279,2.279,0,0,1-2.277-2.923l1.837-8.289a3.865,3.865,0,0,1,3.571-2.923"/>
        <path id="path24" class="cls-10" d="M1968.13,355.477H1987.6a4.306,4.306,0,0,1,4.3,5.524l-3.469,15.66a7.309,7.309,0,0,1-6.749,5.525h-19.471a4.307,4.307,0,0,1-4.3-5.525l3.469-15.66A7.309,7.309,0,0,1,1968.13,355.477Zm3.529,6.287h9.627a2.279,2.279,0,0,1,2.277,2.923l-1.837,8.289a3.867,3.867,0,0,1-3.571,2.923h-9.627a2.279,2.279,0,0,1-2.277-2.923l1.837-8.289a3.865,3.865,0,0,1,3.571-2.923"/>
        <path id="path26" class="cls-10" d="M1994.719,355.477h23.37a4.307,4.307,0,0,1,4.3,5.524l-3.47,15.66a7.309,7.309,0,0,1-6.748,5.525l-23.369-.012Zm6.109,6.287h10.946a2.279,2.279,0,0,1,2.276,2.923l-1.836,8.289a3.869,3.869,0,0,1-3.571,2.923h-10.956"/>
        <path id="path30" class="cls-10" d="M1922.99,381.976h-23.37a4.307,4.307,0,0,1-4.3-5.525l3.469-15.66a7.305,7.305,0,0,1,6.748-5.524l23.369.011-5.916,26.7Zm-6.11-6.288h-10.945a2.279,2.279,0,0,1-2.276-2.923l1.836-8.289a3.869,3.869,0,0,1,3.571-2.923h10.956"/>
        <path id="path34" class="cls-10" d="M1842.96,355.477h17.862a4.306,4.306,0,0,1,4.3,5.524l-2.537,11.449h-7.522l1.719-7.763a2.278,2.278,0,0,0-2.276-2.923H1843.44c-1.607,0-.166,1.316-.522,2.923l-1.7,7.659H1833.7L1836.212,361a7.307,7.307,0,0,1,6.748-5.524"/>
        <path id="path36" class="cls-10" d="M1831.576,381.976l5.135-23.112h7.5l-5.142,23.112"/>
        <path id="path42" class="cls-10" d="M1892.5,381.976h-24.979a4.307,4.307,0,0,1-4.3-5.525l1.007-4.544h0l.193-.874a7.306,7.306,0,0,1,6.748-5.524l17.478.008.258-1.161a2.264,2.264,0,0,0-2.182-2.8H1866.5l1.393-6.284,25.108.007a4.3,4.3,0,0,1,4.193,5.523l-.473,2.133h0l-.573,2.588h.005l-2.946,13.294h-.006l-.7,3.162Zm-19.416-6.288h13.307l.865-3.893h-13.079c-.063-.006-.128-.01-.194-.01h0a2.573,2.573,0,0,0-2.377,1.948h0a1.517,1.517,0,0,0,1.48,1.947l0,.008"/>
        <path id="path44" class="cls-11" d="M1936.032,355.477H1955.5a4.306,4.306,0,0,1,4.3,5.524l-3.47,15.66a7.309,7.309,0,0,1-6.748,5.525h-19.471a4.307,4.307,0,0,1-4.3-5.525l3.469-15.66a7.308,7.308,0,0,1,6.748-5.524Zm3.53,6.287h9.627a2.278,2.278,0,0,1,2.276,2.923l-1.836,8.289a3.867,3.867,0,0,1-3.571,2.923h-9.627a2.279,2.279,0,0,1-2.277-2.923l1.837-8.289a3.865,3.865,0,0,1,3.571-2.923"/>
        <path id="path46" class="cls-11" d="M1968.13,355.477H1987.6a4.306,4.306,0,0,1,4.3,5.524l-3.469,15.66a7.309,7.309,0,0,1-6.749,5.525h-19.471a4.307,4.307,0,0,1-4.3-5.525l3.469-15.66A7.309,7.309,0,0,1,1968.13,355.477Zm3.529,6.287h9.627a2.279,2.279,0,0,1,2.277,2.923l-1.837,8.289a3.867,3.867,0,0,1-3.571,2.923h-9.627a2.279,2.279,0,0,1-2.277-2.923l1.837-8.289a3.865,3.865,0,0,1,3.571-2.923"/>
        <path id="path48" class="cls-11" d="M1994.724,355.472l-4.88,21.985-1.04,4.713-1.978,8.951h7.487l1.99-8.951,15.873.013a7.3,7.3,0,0,0,6.742-5.522l3.468-15.654a4.316,4.316,0,0,0-4.3-5.535Zm6.1,6.292h10.954a2.281,2.281,0,0,1,2.273,2.928l-1.836,8.283a3.872,3.872,0,0,1-3.57,2.928H1997.69Z"/>
        <path id="path52" class="cls-11" d="M1923.4,346.328l-1.99,8.951-15.873-.013a7.3,7.3,0,0,0-6.742,5.522l-3.48,15.668a4.305,4.305,0,0,0,4.3,5.522h23.372l5.92-26.7,1.978-8.951Zm-14.332,15.231h10.955l-3.147,14.126h-10.941a2.271,2.271,0,0,1-2.273-2.915l1.836-8.3A3.859,3.859,0,0,1,1909.067,361.559Z"/>
        <path id="path56" class="cls-11" d="M1839.464,346.328l-3.031,13.664h.038l-.128.539c-.048.157-.093.316-.128.476l-2.517,11.339h.025l-2.144,9.632h7.487l2.144-9.632h.013l1.695-7.654c0-.012,0-.026,0-.038l.655-2.89H1854.5a2.289,2.289,0,0,1,2.286,2.928l-1.721,7.757-2.106,9.529h7.5l2.119-9.529h.013l2.53-11.442a4.315,4.315,0,0,0-4.3-5.535h-15.886l2.029-9.144Z"/>
        <path id="path64" class="cls-11" d="M1892.5,381.976h-24.979a4.307,4.307,0,0,1-4.3-5.525l1.007-4.544h0l.193-.874a7.306,7.306,0,0,1,6.748-5.524l17.478.008.258-1.161a2.264,2.264,0,0,0-2.182-2.8H1866.5l1.393-6.284,25.108.007a4.3,4.3,0,0,1,4.193,5.523l-.473,2.133h0l-.573,2.588h.005l-2.946,13.294h-.006l-.7,3.162Zm-19.416-6.288h13.307l.865-3.893h-13.079c-.063-.006-.128-.01-.194-.01h0a2.573,2.573,0,0,0-2.377,1.948h0a1.517,1.517,0,0,0,1.48,1.947l0,.008"/>
        <path id="path66" class="cls-9" d="M1768.481,365.581q-.462,1.254-.923,2.51l-2.282,2.26c-.832.824-1.011.819-.816,1.985a7.371,7.371,0,0,0,2.1,4c1.274,1.278,3.951,3.086,5.877,2.234a13.541,13.541,0,0,1-.719,1.989c-1.292,2.832,1.855,3.386,4.058,3.982,1.83.5,6.323,1.814,6.971-.592a6.347,6.347,0,0,0,.233-2.7,10.327,10.327,0,0,1,1.223-2.173,2.821,2.821,0,0,0,.459-2.516c-.028-.229-.061-.48-.1-.743a23.24,23.24,0,0,0,6.412.059c-.648.378-1.3.709-2.157,1.15-2.036,1.047-.117,4.134.76,5.486,1.842,2.838,3.493,4.791,6.6,3.107,1.045-.565,1.126-1.168,1.778-2.142.36-.2,2.217-1.776,3.321-2.668.418.5,1.219.594,2.434.682.612.044,3.009.029,3.644.033,1.907.012,3.051-.186,3.2-2.263a2.707,2.707,0,0,0-.457-2.056l-.087-3.261a7.64,7.64,0,0,0-.747-3.118c-.437-1.039-.682-1.925-1.192-2.933.07-.394.126-.8.164-1.228l1.944,1.874c1.235,1.19,2.256,2.162,4.14,2.073a5.613,5.613,0,0,0,4.783-3.529q.288-.947.574-1.892a14.247,14.247,0,0,0,8.993-.944c3.788-2.022,5.561-6.087,6-10.387.353-3.479-.326-9.328-1.984-12.5-.488-.934-2.69-2.115-3.655-1.136-.728.737-1.227,1.86-2.013,2.531A7.123,7.123,0,0,1,1825,343.8a11.632,11.632,0,0,0-2.145-3.524,8.676,8.676,0,0,0-2.333-1.867,48.266,48.266,0,0,1-5.006-4.039c-5.132-4.231-9.539-4.1-15.933-1.41-3.051,1.284-4.522,3.027-6.393,5.53a4.4,4.4,0,0,0-3.1,1.332c-.882.779-1.7,1.58-2.5,2.41-5.977.953-9.689,2.092-13.617,5.573a15.923,15.923,0,0,0-3.665,4.752,7.943,7.943,0,0,1-2.789,2.31c-.782.3-.767.3-1.043-.436.93-.7.915-2.013,1-3.2.587.028.807.686,1.206,1.189.235-1.052.371-2.687-.736-3.261.18-.481.384-.967.57-1.5-1.634.284-7.236,4.06-4.247,6.94a9.384,9.384,0,0,0,.612,1.891,2.659,2.659,0,0,0,3.562,1.144,19.811,19.811,0,0,0-.221,6.087,18.079,18.079,0,0,0,.262,1.862"/>
        <path id="path68" d="M1768.836,365.711q-.186.5-.371,1.009l-.71-.26q.184-.5.371-1.009Zm-.371,1.009-.552,1.5-.71-.261.552-1.5Zm-.552,1.5-.088.137-.267-.267Zm-.088.137-1.21,1.2-.532-.535,1.209-1.2Zm-1.21,1.2-1.073,1.063-.532-.535,1.073-1.063Zm-1.073,1.063c-.164.162-.219.215-.268.263l-.524-.548.26-.25Zm-.268.263c-.485.466-.58.558-.441,1.391l-.745.125c-.206-1.228-.063-1.366.662-2.064Zm-.441,1.391a6.743,6.743,0,0,0,.686,2.022l-.672.352a7.475,7.475,0,0,1-.759-2.249Zm.686,2.022a7.364,7.364,0,0,0,1.309,1.771l-.535.533a8.119,8.119,0,0,1-1.446-1.952Zm1.309,1.771a9.4,9.4,0,0,0,3.06,2.042l-.266.707a10.208,10.208,0,0,1-3.329-2.216Zm3.06,2.042a3.179,3.179,0,0,0,2.4.112l.3.692a3.89,3.89,0,0,1-2.968-.1Zm2.4.112.731-.323-.213.77-.365-.1Zm.518.447c-.1.343-.206.7-.334,1.049l-.713-.258c.121-.335.227-.668.316-.993Zm-.334,1.049c-.119.329-.254.663-.406,1l-.689-.314c.141-.309.268-.624.382-.94Zm-.406,1c-.639,1.4.031,2.141,1.07,2.615l-.314.689c-1.421-.648-2.335-1.667-1.445-3.618Zm1.07,2.615a13.968,13.968,0,0,0,2.214.706l-.189.731a14.681,14.681,0,0,1-2.339-.748Zm2.214.706c.2.052.389.1.526.139l-.192.73-.523-.138Zm.526.139a20.551,20.551,0,0,0,3.856.778l-.047.757a21.082,21.082,0,0,1-4-.805Zm3.856.778c1.265.08,2.393-.133,2.653-1.1l.731.192c-.387,1.437-1.83,1.768-3.431,1.666Zm2.653-1.1a7.185,7.185,0,0,0,.252-1.3l.757.062a8.04,8.04,0,0,1-.278,1.432Zm.252-1.3a6.664,6.664,0,0,0-.029-1.264l.751-.071a7.388,7.388,0,0,1,.035,1.4Zm-.029-1.264.03-.189.346.153Zm.03-.189a10.022,10.022,0,0,1,1.09-1.988l.624.426a9.467,9.467,0,0,0-1.022,1.869Zm1.09-1.988c.038-.055.07-.1.165-.244l.627.423-.168.247Zm.165-.244a2.435,2.435,0,0,0,.465-1.011l.748.1a3.083,3.083,0,0,1-.586,1.331Zm.465-1.011a5.276,5.276,0,0,0-.068-1.25l.751-.086a5.565,5.565,0,0,1,.065,1.439Zm-.068-1.25c-.018-.155-.034-.278-.044-.358l.748-.094c.023.17.038.29.047.366Zm-.044-.358c-.009-.064-.028-.193-.054-.373l.749-.109c.011.08.029.206.053.388Zm-.054-.373-.074-.5.5.076-.057.374Zm.431-.429a22.23,22.23,0,0,0,3.167.248l0,.757a23.064,23.064,0,0,1-3.277-.256Zm3.167.248a24.418,24.418,0,0,0,3.144-.19l.088.751a24.956,24.956,0,0,1-3.235.2Zm3.144-.19.233.7-.189-.329Zm.233.7c-.611.356-1.221.669-2,1.069l-.346-.674c.768-.4,1.37-.705,1.967-1.052l.378.657Zm-2,1.069-.174.089-.346-.674.174-.089Zm-.174.089c-.8.412-.807,1.275-.524,2.179l-.722.225c-.387-1.239-.335-2.443.9-3.078Zm-.524,2.179a12.247,12.247,0,0,0,1.428,2.765l-.633.411a12.939,12.939,0,0,1-1.517-2.951Zm1.428,2.765a10.055,10.055,0,0,0,2.706,3.132l-.393.645a10.627,10.627,0,0,1-2.946-3.366Zm2.706,3.132a3.171,3.171,0,0,0,3.4-.154l.358.669a3.857,3.857,0,0,1-4.153.13Zm3.4-.154a2.752,2.752,0,0,0,1.2-1.287l.66.373a3.375,3.375,0,0,1-1.5,1.583Zm1.2-1.287c.121-.211.253-.442.446-.731l.627.42c-.155.231-.29.468-.413.684Zm.446-.731.132-.123.182.333Zm.132-.123c.221-.121,1.165-.9,2.084-1.66l.482.583c-.95.785-1.927,1.592-2.2,1.743Zm2.084-1.66c.472-.39.939-.776,1.181-.971l.476.591c-.443.358-.807.659-1.175.963Zm1.181-.971.29-.234.239.287-.291.243Zm.529.053a1.281,1.281,0,0,0,.715.371l-.175.736a1.971,1.971,0,0,1-1.122-.622Zm.715.371a9.7,9.7,0,0,0,1.455.175l-.053.757a10.03,10.03,0,0,1-1.577-.2Zm1.455.175c.465.034,1.951.033,2.91.033v.757c-.98,0-2.5,0-2.963-.033Zm2.91.033h.709l0,.757h-.706v-.757Zm.709,0a4.427,4.427,0,0,0,2.071-.3l.372.66a4.965,4.965,0,0,1-2.446.4l0-.757Zm2.071-.3c.427-.242.684-.719.748-1.612l.757.053a2.478,2.478,0,0,1-1.133,2.219Zm.748-1.612a3.464,3.464,0,0,0-.011-.966l.739-.163a3.99,3.99,0,0,1,.029,1.182Zm-.011-.966a3.378,3.378,0,0,0-.4-.878l.663-.37a3.868,3.868,0,0,1,.474,1.085l-.739.163Zm-.4-.878-.047-.176.378-.009Zm-.047-.176q-.022-.816-.044-1.631l.757-.017q.021.815.044,1.63l-.757.018Zm-.044-1.631q-.021-.815-.043-1.63l.757-.017q.021.814.043,1.63l-.757.017Zm-.043-1.63a6.65,6.65,0,0,0-.195-1.506l.734-.184a7.434,7.434,0,0,1,.218,1.673Zm-.195-1.506a10.421,10.421,0,0,0-.523-1.475l.7-.293a11.092,11.092,0,0,1,.559,1.584Zm-.523-1.475c-.166-.394-.308-.777-.447-1.152l.71-.26c.133.357.268.722.435,1.119Zm.263-1.414v0l-.355.13Zm-.71.264a16,16,0,0,0-.734-1.758l.677-.341a16.891,16.891,0,0,1,.767,1.835Zm-.734-1.758-.034-.236.372.065Zm-.034-.236c.037-.211.068-.407.092-.584l.748.094c-.031.231-.062.437-.1.621l-.745-.131Zm.092-.584c.021-.161.043-.363.065-.61l.757.062c-.016.179-.041.395-.074.642l-.748-.094Zm.065-.61.07-.791.57.549-.261.273Zm.64-.242,1.113,1.072-.524.547-1.112-1.072Zm1.113,1.072.832.8-.524.547-.832-.8.524-.547Zm.832.8a10.025,10.025,0,0,0,1.757,1.463l-.385.654a10.6,10.6,0,0,1-1.9-1.57l.524-.547Zm1.757,1.463a3.621,3.621,0,0,0,2.1.5l.036.757a4.346,4.346,0,0,1-2.524-.608Zm2.1.5a5.226,5.226,0,0,0,2.756-1.054l.45.61a6,6,0,0,1-3.17,1.2Zm2.756-1.054a4.5,4.5,0,0,0,1.682-2.205l.725.219a5.266,5.266,0,0,1-1.957,2.6Zm1.682-2.205q.134-.438.266-.875l.725.219c-.089.291-.177.583-.266.875Zm.266-.875.309-1.018.725.219-.309,1.018Zm.309-1.018.1-.325.333.063-.07.372Zm.432-.262a16.837,16.837,0,0,0,4.807.223l.074.751a17.585,17.585,0,0,1-5.02-.231Zm4.807.223a10.79,10.79,0,0,0,3.938-1.129l.355.669a11.542,11.542,0,0,1-4.219,1.211Zm3.938-1.129a9.9,9.9,0,0,0,3.923-3.866l.657.375a10.652,10.652,0,0,1-4.225,4.16Zm3.923-3.866v0l.328.189-.328-.188Zm0,0a15.622,15.622,0,0,0,1.876-6.221l.751.071a16.4,16.4,0,0,1-1.97,6.529Zm1.876-6.221a27.722,27.722,0,0,0-.3-6.683l.745-.118a28.466,28.466,0,0,1,.3,6.872l-.751-.071Zm-.3-6.683a19.231,19.231,0,0,0-1.647-5.609l.672-.349a19.986,19.986,0,0,1,1.72,5.84Zm-1.647-5.609a1.5,1.5,0,0,0-.286-.364l.53-.542a2.348,2.348,0,0,1,.428.557l-.672.349Zm-.286-.364a3.6,3.6,0,0,0-1.306-.8l.246-.716a4.405,4.405,0,0,1,1.59.969l-.53.542Zm-1.306-.8a1.663,1.663,0,0,0-1.264-.03l-.349-.671a2.382,2.382,0,0,1,1.859-.015l-.246.716Zm-1.264-.03a.8.8,0,0,0-.193.143l-.541-.529a1.543,1.543,0,0,1,.385-.285l.349.671Zm-.193.143a8.112,8.112,0,0,0-.853,1.109l-.624-.427a8.769,8.769,0,0,1,.936-1.211Zm-.853,1.109a7.183,7.183,0,0,1-1.184,1.446l-.491-.577a6.587,6.587,0,0,0,1.051-1.3l.624.427Zm-1.184,1.446a6.34,6.34,0,0,1-1.845,1l-.281-.7a5.758,5.758,0,0,0,1.635-.872l.491.577Zm-1.845,1-.279.112-.287-.7.285-.115Zm-.279.112-.361.149-.137-.369.355-.13.143.35Zm-.5-.22a9.807,9.807,0,0,0-.893-1.807l.642-.4a10.492,10.492,0,0,1,.961,1.949l-.71.26Zm-.893-1.807a14.529,14.529,0,0,0-1.187-1.605l.579-.485a15.123,15.123,0,0,1,1.25,1.688Zm-1.187-1.605a6.183,6.183,0,0,0-1.02-.973l.458-.6a6.955,6.955,0,0,1,1.141,1.089l-.579.485Zm-1.02-.973c-.354-.269-.755-.522-1.224-.815l.4-.642c.475.3.882.553,1.28.856l-.458.6Zm-1.224-.815a27.53,27.53,0,0,1-3.555-2.788l.5-.57a27.176,27.176,0,0,0,3.461,2.716Zm-3.555-2.788c-.476-.416-.955-.837-1.491-1.279l.482-.586c.5.409,1,.854,1.506,1.3l-.5.57Zm-1.491-1.279a12.462,12.462,0,0,0-7.276-3.215l.048-.758a13.187,13.187,0,0,1,7.71,3.387l-.482.586ZM1808,331.448a18.581,18.581,0,0,0-8.27,1.861l-.293-.7c3.25-1.368,6-2.085,8.611-1.921Zm-8.27,1.861a11.678,11.678,0,0,0-3.529,2.237l-.512-.556a12.415,12.415,0,0,1,3.748-2.379Zm-3.529,2.237a22.759,22.759,0,0,0-2.707,3.17l-.606-.453a23.435,23.435,0,0,1,2.8-3.273Zm-2.707,3.17-.107.143-.177.009-.019-.378Zm-.284.152a4.276,4.276,0,0,0-1.406.266l-.281-.7a4.914,4.914,0,0,1,1.649-.32Zm-1.406.266a5.115,5.115,0,0,0-1.466.972l-.5-.568a5.824,5.824,0,0,1,1.685-1.107Zm-1.466.972c-.433.382-.854.773-1.269,1.174l-.526-.544q.622-.6,1.3-1.2Zm-1.269,1.174v0l-.262-.274.263.272Zm0,0q-.615.594-1.205,1.212l-.547-.524q.6-.627,1.228-1.236Zm-1.205,1.212-.214.111-.059-.373.273.262Zm-.214.111a36.578,36.578,0,0,0-7.5,1.819l-.272-.707a37.333,37.333,0,0,1,7.653-1.858Zm-7.5,1.819a19.015,19.015,0,0,0-5.926,3.665l-.5-.568a19.765,19.765,0,0,1,6.154-3.8Zm-5.926,3.665a15.415,15.415,0,0,0-2.042,2.191l-.6-.459a16.217,16.217,0,0,1,2.142-2.3Zm-2.042,2.191a16.1,16.1,0,0,0-1.536,2.448l-.675-.343a17.067,17.067,0,0,1,1.611-2.564Zm-1.536,2.448-.056.082-.282-.253Zm-.056.082c-.431.475-.861.958-1.322,1.373l-.5-.565a18.1,18.1,0,0,0,1.264-1.314Zm-1.322,1.373a5.242,5.242,0,0,1-1.612,1.037l-.272-.707a4.526,4.526,0,0,0,1.379-.895Zm-1.612,1.037h0l-.135-.353Zm0,0c-.486.187-.723.281-.993.167l.293-.7c.013,0,.135-.062.431-.176Zm-.993.167v0l.148-.347-.147.349Zm0,0c-.284-.12-.363-.353-.539-.822l.71-.263c.1.266.1.379.125.39Zm-.539-.822-.1-.264.227-.171.226.3Zm.129-.435c.7-.523.762-1.564.825-2.566l.757.047c-.074,1.173-.151,2.39-1.129,3.125Zm.825-2.566c.008-.132.017-.262.024-.361l.757.053c-.01.137-.017.246-.024.355Zm.024-.361.027-.37.369.018-.018.378Zm.4-.352c.625.029.909.47,1.216.945l-.636.409c-.2-.3-.378-.586-.615-.6l.035-.757Zm1.216.945c.086.133.174.269.267.387l-.591.471c-.118-.149-.216-.3-.312-.45l.636-.408Zm.341.7-.173.775-.492-.621.3-.236Zm-.739-.163a4.706,4.706,0,0,0,.087-1.935l.737-.166a5.427,5.427,0,0,1-.085,2.264Zm.087-1.935a1.271,1.271,0,0,0-.626-.907l.346-.675a2,2,0,0,1,1.017,1.416l-.737.166Zm-.626-.907-.3-.156.118-.313.355.131Zm-.182-.469c.055-.15.137-.358.221-.571l.7.275c-.065.167-.131.335-.214.559Zm.221-.571c.111-.285.226-.577.346-.92l.716.249c-.108.306-.235.631-.359.946Zm.641-1.168.635-.111-.214.608-.358-.125-.063-.372Zm.127.745a8.414,8.414,0,0,0-3.52,2.25l-.547-.524a9.275,9.275,0,0,1,3.94-2.471Zm-3.52,2.25a5.378,5.378,0,0,0-1.012,1.4l-.686-.316a6.129,6.129,0,0,1,1.151-1.61Zm-1.012,1.4a2.34,2.34,0,0,0-.236,1.4l-.746.128a3.066,3.066,0,0,1,.3-1.84Zm-.236,1.4a2.269,2.269,0,0,0,.719,1.245l-.524.548a3.024,3.024,0,0,1-.941-1.665Zm.719,1.245.105.184-.367.09Zm.105.184c.1.391.182.721.276,1.02l-.722.225c-.1-.311-.187-.657-.288-1.065Zm.276,1.02a5.957,5.957,0,0,0,.31.8l-.683.326a6.639,6.639,0,0,1-.349-.9Zm.31.8a1.985,1.985,0,0,0,1.2,1.071l-.231.722a2.728,2.728,0,0,1-1.652-1.467Zm1.2,1.071a2.856,2.856,0,0,0,1.883-.116l.275.7a3.615,3.615,0,0,1-2.389.134Zm1.883-.116.657-.257-.15.688-.369-.079Zm.507.431a14.885,14.885,0,0,0-.322,2.644l-.757-.026a15.579,15.579,0,0,1,.34-2.777Zm-.322,2.644a27.215,27.215,0,0,0,.111,3.333l-.758.062a27.849,27.849,0,0,1-.11-3.421Zm.111,3.333q.042.487.1.9l-.748.1c-.048-.339-.084-.652-.109-.936Zm.1.9q.065.453.155.924l-.743.142c-.06-.317-.114-.639-.16-.966Zm.155.924-.016.2-.355-.13"/>
        <path id="path70" class="cls-12" d="M1787.793,342.835l-4.984.81-4.549,1.994-3.863,2.43-3.676,4.486-2.077,2.2-2.008.74-.531-1.3.928-1.341.209-1.89.622.025.68.62-.184-1.926-.753-.5.023-.734-1.785,1.01-1.616,1.906-.337,1.7.691,1.364.645,2.319,1.311.62,1.379-.067,1.307-.76-.872,4.424.872,4.922-.96,2.273-3.145,3.388.559,2.025,1.49,2.346,2.809,1.977,1.49.2,1.657.056-1.034,4.243,3.8,1.558,4.736.623,1.62-1.059.124-2.867,1.807-2.99.125-2.368,4.362.311,4.05-.374-4.05,2.431.685,2.928,2.555,3.988,2.492,1.059,1.994-.81.81-1.62,4.175-3.178.81.686,6.542.249,1.309-1.059.124-1.87-.436-.81-.312-5.047-2.18-4.361.373-1.932,1.309.686,3.676,3.427,1.807.124,1.994-.81,1.994-1.495,1-3.24,5.857.374,3.551-1.371,2.867-2.679,2.056-3.864.5-4.548-.436-5.3-1.121-4.736-1.122-1.5-1.558-.5-2.741,2.991-2.493.872-2.18-3.614-2.181-1.993-1.184-.748-4.736-3.926-3.8-2.056-3.8-.311-4.424.747-3.863,1.433-2.68,2.181-2.118,2.555-2.181.623-3.8,3.614Z"/>
        <path id="path72" class="cls-13" d="M1773.336,354.08c-4.269,4.981-3.321,11.021-2.138,16.938q-.947-2.394-1.894-4.787l-.7-4.388q.1-2.243.2-4.487l1.795-4.288q1.347-2,2.693-3.989l4.188-3.491,4.587-1.894,5.386-.7q-2.495,2.841-4.987,5.684c-4,1.3-6.364,2.173-9.131,5.4"/>
        <path id="path74" class="cls-13" d="M1793.437,338.907a32.951,32.951,0,0,0-6.479,8.471c-1.351,2.426-2.867,4.762-4.287,7.154a8.893,8.893,0,0,0-1,3.622l-2.094-2.493q.5-1.5,1-2.992l3.39-6.083,7.18-7.081,2.294-.6"/>
        <path id="path76" class="cls-13" d="M1808.1,331.727c-2.377.891-6.325,1.185-6.6,3.914-.2,1.937.146,2.911,1.314,4.961-2.885-2.985-3.6-2.523-9.175-1.595l2.394-3.391,4.188-2.593,5.385-1.2,2.493-.1"/>
        <path id="path78" class="cls-14" d="M1814.656,368.637c.792.489.775.843.643,1.177l1.873-.749,1.213-1.629q.45-1.161.9-2.322l-1.151-.865-5.03.642-.375,1.017q.054.723.107,1.445l.482.856.749.375.588.053"/>
        <path id="path80" class="cls-14" d="M1814.188,360.034c-2.521.728-2.5.929-3.246,3.43a9.945,9.945,0,0,1,3.246-3.43"/>
        <path id="path82" class="cls-14" d="M1830.954,341.315a2.431,2.431,0,0,0-1.165.717,6.88,6.88,0,0,1-2.118,2.244,6.605,6.605,0,0,1-1.554.68c-.442.138-.708.015-1.084.285l.67.118h1.476l1.819-1.124q.535-.562,1.07-1.124.444-.9.886-1.8"/>
        <path id="path84" class="cls-14" d="M1790.789,346.91a39.536,39.536,0,0,1-3.361,7.5,22.483,22.483,0,0,0,4.195-6.184c.429-.911.51-1.98,1.7-1.582.054.91.246,1.819.3,2.729.644-4.622,2.462-6.554,6.689-8.348l-3.586.428-3.371.749-1.659,2.408-.91,2.3"/>
        <path id="path86" class="cls-14" d="M1798.977,346.8c.911,4.29,2.223,8.407,2.794,12.765.37,2.831.41,4.192-1.015,6.635a9.381,9.381,0,0,0-4.029.568c-6,1.966-9.435,4.856-13.475-.967l3.869,1.823,2.759-.542,4.869-2.836,3.8-.749q.615-2.57,1.231-5.138-.456-3.4-.91-6.8-.054-1.6-.107-3.211.107-.775.214-1.552"/>
        <path id="path88" class="cls-14" d="M1809.305,373.346c-.5,3.486,1.16,5.359.471,6.321-.2.273-.459.748-.754.879-1.054.465-2.5-.087-2.607.185h-3.478l-1.391-.588,2.14-2.516,2.087-4.548,1.338-4.6h.7q.748,2.435,1.5,4.869"/>
        <path id="path90" class="cls-14" d="M1803.459,363.214c.282,1.583.773,1.959,1.517,3.491a40.527,40.527,0,0,1-2.249,7.675,6.1,6.1,0,0,1-1.442,2.162,37.128,37.128,0,0,1-3.782,3.324c-.981.756-1.666.377-2.877.205-.515.934-.657,1.453-1.605,1.927-1.458.729-2.763-.842-3.907-1.766l2.478,3.871,1.712,1.605,1.445.214,1.927-1.177,1.017-1.927,2.14-1.6,2.622-2.248,1.659-2.354q.75-1.392,1.5-2.783l1.926-5.78q.081-1.1.161-2.194l-2.408-1.07c-.589-.553-1.245-1.017-1.833-1.57"/>
        <path id="path92" class="cls-14" d="M1784.261,374.363a19.277,19.277,0,0,0,8.027-1.284,22,22,0,0,1,2.247-2.836,9.653,9.653,0,0,0-1.231,3.96q-.4.588-.8,1.177l-6.1.16-1.98-.214c-.071-.071-.143-.142-.214-.214l.054-.749"/>
        <path id="path94" class="cls-14" d="M1783.886,372.49l-.21-1.9c-.461,2.778-.35,4.639-1.629,7.127a9.386,9.386,0,0,1-3.477,2.652,5.066,5.066,0,0,1,.082,1.609c-.237,1.8-3.836,1-5.316.932l7.125,1.835,1.605-.642q.268-1.553.536-3.1l1.5-2.783q.134-.857.268-1.712-.241-2.007-.482-4.014"/>
        <path id="path96" class="cls-14" d="M1779.872,356.811a4.912,4.912,0,0,0,.434,3.106c.757,1.516,1.687,2.94,2.51,4.439l.267-3-3.211-4.548"/>
        <path id="path98" class="cls-14" d="M1768.887,367.013l-.695,1.479a18.363,18.363,0,0,0,2.418,5.384,4,4,0,0,1-.856,1.712,19.227,19.227,0,0,0-3.1-.208q1.794,1.391,3.586,2.783l1.766-.322,1.766-1.765-2.515-3.907-2.37-5.156"/>
        <path id="path100" class="cls-14" d="M1830.962,340.6c.728,3.275,1.666,6.3,1.579,9.651-.107,4.115-.909,9.312-4.721,11.794-4.27,2.778-9.282,1.464-13.966.273l5.726,2.355,5.351.268,3.639-1.071,2.836-2.354q1.071-2.248,2.141-4.5.4-2.6.8-5.191-.322-2.542-.643-5.084-.588-2.516-1.177-5.03l-1.568-1.116"/>
        <path id="path102" class="cls-14" d="M1767.245,350.364c-1.939,1.262-2.7,1.816-2.487,4.154l.579,2.1.821.555,1.014.338,1.836-.434.942-2.922-2.608,1.28h-.6l-.676-1.039.821-1.207q.217-1.147.434-2.294l.556.169.676.531q-.048-.6-.1-1.207l-.459-.773-.458-.387q-.145.569-.29,1.135"/>
        <path id="path104" class="cls-14" d="M1810.732,331.94c1.72,1.6,3.831,2.986,5.207,4.939.533.755,1.124,1.142-.009,2.209a5.21,5.21,0,0,1,2.6-.189c1.743.211,3.377,2.69,3.482,4.466-.021.166-.485.543-1.833.915-.026.052-.761-.1-.742-.051.14.384.327.443.613.622a4.066,4.066,0,0,0,.392,1.55,11.732,11.732,0,0,1,2.508.242,2.258,2.258,0,0,1,.214,1.391l.963-.16-.267-2.194.856-1.445q-.615-1.392-1.231-2.783-1.178-1.124-2.354-2.248l-.227-.011-2.648-1.625-4.319-3.534-3.206-2.094"/>
        <path id="path106" class="cls-14" d="M1813.629,345.126a2.787,2.787,0,0,1-.4.588,3.881,3.881,0,0,1,1.326,2.09l-2.43,1.206-2.056,1.971a3.047,3.047,0,0,1-1.564-1.784,2.415,2.415,0,0,1-1.41.11,1.153,1.153,0,0,0,.7-.229l1.309-1.359,2.311-1.75,1.512-.493c.193-.08.517-.271.709-.35"/>
        <path id="path108" class="cls-14" d="M1815.865,347.543c-2.577,1.387-5.045,2.783-6.363,5.418,0-3.345,3.359-4.817,6.363-5.418"/>
        <path id="path110" class="cls-14" d="M1808.991,340.963a7.587,7.587,0,0,0-3.1,6.5c-.623-2.222-.4-4.322,1.512-5.856l.968-.471.617-.177"/>
        <path id="path136" class="cls-9" d="M1812.648,360.771c.4-.215,1.114-.511,1.509-.726-.407.069-1.136.218-1.543.287-1.086.183-1.214.444-1.383,1.514-.079.5-.189,1.129-.268,1.633.213-.57.469-1.232.717-1.775.263-.575.411-.629.968-.933Zm-20.163-27.555a6.9,6.9,0,0,1,2.66-2.509C1793.361,331.136,1793.021,331.467,1792.485,333.216Zm-.281,2.822a10.011,10.011,0,0,1,5.755-5.586C1794.42,331.319,1793.38,331.936,1792.2,336.038Zm-32,15.637a6.913,6.913,0,0,1,1.561-3.307C1760.259,349.419,1760.063,349.851,1760.2,351.675Zm33.5,25.178q-.068-.548-.136-1.1a8.6,8.6,0,0,1-.026-1.864q.075-.967.152-1.933c-.188.654-.563,1.309-.751,1.964-.075.263-.137.475-.172.67a22.048,22.048,0,0,1-8.381.109c-.179-1.037-.4-2.118-.579-2.892-.055.867-.02,3.266-.024,4.608a3.442,3.442,0,0,1-.584,2.282,22.1,22.1,0,0,0-1.418,2.417,6.109,6.109,0,0,1-.175,2.306c-.391,1.393-4.328.313-5.367.029-1.279-.35-3.923-.87-3.258-2.576a21.957,21.957,0,0,0,1.242-5.183c-2.343-3.375-4.523-8-4.941-12.1a15.2,15.2,0,0,1,.559-7.089,18.138,18.138,0,0,1,5.068-7.9c3.3-2.9,6.393-4.065,11.23-4.8-1.163,1.3-2.314,2.679-3.568,4.155a21.068,21.068,0,0,0-2.83,4.639c-1.114,2.258-1.09,3.117.386,5.1a13.286,13.286,0,0,1,2.515,4.148,8.63,8.63,0,0,0-.78,3.037c1.558,1.7,2.715,2.869,4.228,3.229a5.5,5.5,0,0,0,4.05-.394c2.948-1.508,5.676-3.454,9-3.534,1.539-3.783,1.384-6.943.645-10.6a52.911,52.911,0,0,1-.864-7.413,17.7,17.7,0,0,0-.278,7.545c.558,3.15.992,6.63-.56,9.4-3.007.231-5.584,2.06-8.3,3.464a4.546,4.546,0,0,1-3.429.288c-1.12-.307-1.875-1.048-3.081-2.438a6,6,0,0,1,.938-3.306c1.03-2.03,2.167-3.92,3.415-5.919a57.491,57.491,0,0,0-4.178,5.24,12.642,12.642,0,0,0-2.206-3.449c-1.064-1.441-1.175-2.071-.38-3.738a16.837,16.837,0,0,1,2.839-4.617c2.351-2.539,4.505-5.365,7.077-7.866,1.4-1.358,1.963-1.311,3.815-1.592,1.674-.253,3.308-.574,5.015-.97-1.651.154-3.247.21-4.854.25h-.05c1.581-2.019,2.5-3.145,5.068-4.261,6.323-2.746,10.341-3.043,15.308,1.133,1.287,1.082,2.412,2.132,3.717,3.066a4.683,4.683,0,0,0-1.42.337,5.97,5.97,0,0,1,2.1.124q.287.186.589.364a5.514,5.514,0,0,1,2.067,1.711,18.44,18.44,0,0,1,1.692,2.845c-.317-.113-.583-.209-.82-.28a1.743,1.743,0,0,0-.565-.152,1.772,1.772,0,0,0-1.1.255l-.038.018a7.774,7.774,0,0,1-1.828.617,2.187,2.187,0,0,0,1.147.017.767.767,0,0,1,.115-.036,1.772,1.772,0,0,0-.047,1.706l0,0a.966.966,0,0,0,.187.291c-.242.089-.488.19-.742.3a11.628,11.628,0,0,1,3.391-.059c.076.363.152.747.223,1.137l-.427.034-.035,0a2.143,2.143,0,0,0-1.979-.173c-2.519.574-1.927,1.988-3.086,4.118,1.2-1.471,1.115-3.01,3.075-3.474a3.131,3.131,0,0,1,1.077-.2,2.458,2.458,0,0,0-1.229,1.283c-.538,1.519-.2,2.8-.795,4.219.733-1.269.777-2.507,1.432-3.842a2.681,2.681,0,0,1,1.643-1.259l.441-.01a11.171,11.171,0,0,1,.158,2.379,26.618,26.618,0,0,1-.618,3.875c.663-.853.965-2.659,1.256-3.93a11.13,11.13,0,0,0-.038-4.335c-.365-1.951,1.645-1.634,2.812-2.554.857-.676,1.448-1.755,2.234-2.52s2.008.356,2.315,1.1a27.347,27.347,0,0,1,1.585,11.526c-.395,3.64-2.153,7.615-5.364,9.407-4.093,2.284-8.919.889-12.986-.481a10,10,0,0,1-2.235-1.2,5.714,5.714,0,0,1,.026,2.86c-.438,1.482-1.147,3.907.865,4.355a2.6,2.6,0,0,0,2.195-.413,4.054,4.054,0,0,1-1.918.039,1.248,1.248,0,0,1-.986-.856,3.24,3.24,0,0,0,1.031.341,2.6,2.6,0,0,0,3.192-1.393,9.271,9.271,0,0,1,.478-1.746q.464.143.955.261-.276.9-.554,1.808a4.386,4.386,0,0,1-4,2.8c-1.525-.027-2.492-.983-3.544-1.919-.726-.645-1.424-1.263-2.115-1.874a16.336,16.336,0,0,1-5.181-2.6,9.164,9.164,0,0,0,3.852,3.022c-.254,2.593-1.155,4.484-1.924,6.966-.347,1.122-3.093,5.618-3.854,6.057-.542.312-3.94,3.175-4.579,3.552-.476.632-.894,1.506-1.61,1.884-2.181,1.153-3.582-1.055-4.756-2.92-.535-.849-2.019-3.3-.725-3.982a34.348,34.348,0,0,0,3.156-1.93c.183.334.5.656.7.99Zm7.582,3.954c-1.1.892-2.961,2.471-3.321,2.668-.652.974-.733,1.577-1.778,2.142-3.111,1.684-4.762-.269-6.6-3.107-.877-1.352-2.8-4.439-.76-5.486.858-.441,1.508-.771,2.157-1.149a23.24,23.24,0,0,1-6.412-.06c.039.263.072.513.1.743a2.821,2.821,0,0,1-.459,2.516,10.327,10.327,0,0,0-1.223,2.173,6.363,6.363,0,0,1-.233,2.7c-.648,2.406-5.141,1.087-6.971.592-2.2-.6-5.35-1.15-4.058-3.982a13.541,13.541,0,0,0,.719-1.989c-1.926.852-4.6-.956-5.877-2.234a7.371,7.371,0,0,1-2.1-4c-.195-1.166-.016-1.161.816-1.985l2.282-2.26q.462-1.255.923-2.508a18.116,18.116,0,0,1-.262-1.864,19.812,19.812,0,0,1,.221-6.087,2.658,2.658,0,0,1-3.562-1.144,9.325,9.325,0,0,1-.611-1.891c-2.99-2.88,2.612-6.656,4.246-6.94-.187.531-.391,1.017-.571,1.5,1.108.574.972,2.209.737,3.261-.4-.5-.619-1.161-1.206-1.189-.086,1.19-.071,2.506-1,3.2.275.736.26.737,1.042.436a7.923,7.923,0,0,0,2.789-2.31,15.926,15.926,0,0,1,3.666-4.752c3.926-3.481,7.638-4.62,13.614-5.573.8-.83,1.618-1.631,2.5-2.41a4.4,4.4,0,0,1,3.1-1.333c1.871-2.5,3.343-4.245,6.393-5.529,6.394-2.691,10.8-2.821,15.933,1.41a48.266,48.266,0,0,0,5.006,4.039,8.676,8.676,0,0,1,2.333,1.867A11.647,11.647,0,0,1,1825,343.8a7.12,7.12,0,0,0,2.021-1.048c.786-.671,1.285-1.794,2.013-2.531.965-.979,3.167.2,3.655,1.136,1.658,3.174,2.337,9.023,1.984,12.5-.435,4.3-2.208,8.365-6,10.387a14.24,14.24,0,0,1-8.993.943q-.287.947-.574,1.893a5.614,5.614,0,0,1-4.783,3.529c-1.884.089-2.9-.883-4.14-2.073l-1.945-1.873c-.038.425-.093.833-.163,1.228.51,1.007.755,1.893,1.192,2.932a7.643,7.643,0,0,1,.747,3.118l.087,3.261a2.707,2.707,0,0,1,.457,2.056c-.149,2.077-1.293,2.275-3.2,2.263-.635,0-3.032.011-3.644-.033C1802.5,381.4,1801.7,381.308,1801.281,380.807Zm6.429-11.331c-.384,1.37-.9,2.663-1.37,4.145-.445,1.4-2.729,5.476-4.074,6.463a3.471,3.471,0,0,0,1.6.345c.605.052,2.992.063,3.591.074,1.319.023,1.82-.076,1.953-1.578a1.917,1.917,0,0,0-.36-1.518q-.049-1.725-.1-3.449a6.608,6.608,0,0,0-.668-2.734A17.062,17.062,0,0,1,1807.71,369.476Zm-40.183-18.815c.3-.034.48.122.709.351-.043-.547-.144-.953-.528-1.176-.026.089-.052.178-.076.268a4.661,4.661,0,0,0-.105.557Zm1.861,3.952q-.32.826-.6,1.707c-.031.1-.06.195-.089.292-1.127.478-2.608.782-3.175-.4a10.819,10.819,0,0,1-.631-1.865c-1.855-1.922.918-4.459,2.428-5.369a8.3,8.3,0,0,0-.48,1.192c-.459,1.587.208,3-1.232,4.154.677,1.366.645,1.911,2.22,1.28A5.157,5.157,0,0,0,1769.388,354.613Zm-.434,12.933a31.158,31.158,0,0,0,3.92,8.293v.043a3.116,3.116,0,0,1-.463,1.156c-1.152,1.542-4.083-.721-4.932-1.587a5.845,5.845,0,0,1-1.7-3.12c-.107-.768,0-.786.533-1.329l2.164-2.191Zm54.561-23.7a1.785,1.785,0,0,1,.388.57,1.835,1.835,0,0,1,.159-.13q-.1-.228-.206-.45Zm-14.114,5.312a2.315,2.315,0,0,1-.225-.976,7.07,7.07,0,0,1-1.778,1.1c.861-.769,2.032-2.583,2.879-3.156.963-.65,2.268-.524,3.39-1.043a6.777,6.777,0,0,1-1.373.9,2.312,2.312,0,0,1,1.508,1.919,6.677,6.677,0,0,1,2.119-.355,13.182,13.182,0,0,0-6.255,4.04,5.219,5.219,0,0,1,.752-1.374,2.3,2.3,0,0,1-1.017-1.053Zm-10.369-8.09a28.951,28.951,0,0,1-3.565,1.146c-1.1,1.444-1.768,2.191-2.02,4.126-.3-1.9-.36-2.256.487-3.677a4.147,4.147,0,0,0-.8.576c-1.183,1.012-2.726,4.989-3.343,6.411.392-1.712,1.617-5.989,2.878-7.236a2.529,2.529,0,0,1,2.187-.912q2.091-.2,4.177-.434Zm25.773,4.15a3.861,3.861,0,0,0,2.471-.194,8.177,8.177,0,0,0,3.7-3.794,5.6,5.6,0,0,1-3.507,4.292c-1,.356-1.645-.012-2.664-.3Zm-19.224.188a5.921,5.921,0,0,1,3.643-4.527C1805.784,341.738,1805.138,343.183,1805.581,345.4Zm-44.611,9a10.007,10.007,0,0,1,3.32-7.3c-2.978,2.1-3.722,3.052-3.32,7.3"/>
        <path id="path138" class="cls-13" d="M1809.85,349.694a.969.969,0,0,1,1.75-.833.9.9,0,0,1,.053.139,6.136,6.136,0,0,0-1.236,1.211,1.056,1.056,0,0,1-.567-.517"/>
        <path id="path140" class="cls-13" d="M1820.621,345.527a.713.713,0,0,1,.776-.654.729.729,0,0,1,.654.793.7.7,0,0,1-.066.238,6.239,6.239,0,0,0-1.1.307.966.966,0,0,1-.26-.684"/>
      </g>
    </g>
    <g id="overbg_step_6" data-name="overbg step 6">
      <g id="overbg-6" data-name="overbg">
        <rect class="cls-7" x="1267.26" y="387.61" width="334.505" height="208.745"/>
        <rect class="cls-8" x="1267.26" y="387.61" width="334.505" height="208.745"/>
      </g>
      <g id="g4163">
        <g id="g4165">
          <path id="path4167" class="cls-15" d="M1523.554,484.88c-.177-.378-.256-.568-.353-.751q-3.848-7.316-7.713-14.624a.892.892,0,0,1,.128-1.2q6.121-7.15,12.2-14.334a1.3,1.3,0,0,0,.326-.645c-1.189.31-2.377.617-3.564.931q-7.4,1.961-14.789,3.934a.679.679,0,0,1-.9-.392q-4.2-7.016-8.427-14.012a1.91,1.91,0,0,0-.612-.682c-.226,1.246-.456,2.491-.678,3.738q-1.175,6.6-2.345,13.2c-.085.475-.2.948-.243,1.427-.039.454-.272.622-.683.751q-8.717,2.736-17.421,5.506a1.928,1.928,0,0,0-.777.434l14.32,5.691c-.175.139-.289.246-.418.33q-4.454,2.881-8.9,5.766a.947.947,0,0,1-1.034.084c-3.546-1.6-7.106-3.164-10.658-4.75a11,11,0,0,1-4.146-3.024c-2.525-3.09-2.027-6.6,1.338-8.751a15.9,15.9,0,0,1,3.6-1.636c5.691-1.854,11.4-3.642,17.113-5.436a.973.973,0,0,0,.79-.882c.76-4.4,1.55-8.805,2.343-13.2.425-2.352.65-4.764,1.795-6.919a11.554,11.554,0,0,1,1.593-2.335,5.079,5.079,0,0,1,7.826-.216,14.883,14.883,0,0,1,2.106,2.741q3.96,6.457,7.821,12.977a.849.849,0,0,0,1.146.465q9.551-2.56,19.114-5.071a8.983,8.983,0,0,1,3.993-.222c2.938.55,4.222,2.786,3.228,5.623a10.861,10.861,0,0,1-2.11,3.417q-6.672,7.844-13.35,15.682a.915.915,0,0,0-.12,1.211q3.993,7.525,7.949,15.072a8.368,8.368,0,0,1,1.132,3.831,6.177,6.177,0,0,1-5.387,6.17,11.174,11.174,0,0,1-5.011-.623q-5.988-1.851-11.992-3.651a.684.684,0,0,1-.578-.655c-.46-2.816-.962-5.626-1.448-8.438a1.872,1.872,0,0,1,.021-.333l13.773,3.8"/>
          <path id="path4169" class="cls-16" d="M1515.771,525.892c-3.6-.007-7.2-.023-10.8-.009a1.045,1.045,0,0,1-1.01-.541q-6.393-9.739-12.822-19.455c-.137-.206-.282-.4-.524-.752-.921,7-1.821,13.846-2.723,20.708h-9.429c.11-.918.207-1.806.323-2.69q1.381-10.545,2.769-21.089,1.323-10.074,2.658-20.148a.865.865,0,0,1,.323-.56q4.866-3.173,9.755-6.311a1.473,1.473,0,0,1,.281-.082c-.984,7.51-1.962,14.961-2.939,22.413.039.026.077.052.116.08,5.107-5.662,10.215-11.324,15.433-17.106.151.87.281,1.615.409,2.361.366,2.134.717,4.272,1.109,6.4a1.012,1.012,0,0,1-.321,1q-4.954,5.185-9.886,10.39c-.144.151-.282.308-.446.488.105.168.195.329.3.479q8.522,11.959,17.046,23.914a3.355,3.355,0,0,0,.378.386v.127"/>
          <path id="path4171" class="cls-16" d="M1404.012,505.166a22.168,22.168,0,0,0-.573-2.822,9.746,9.746,0,0,0-11.752-6.339,13.1,13.1,0,0,0-10.319,11.575,9.4,9.4,0,0,0,6.162,9.961,11.124,11.124,0,0,0,9.872-1.127A13.094,13.094,0,0,0,1404.012,505.166Zm-24.926,18.108c-.28,2.1-.547,4.071-.807,6.048q-.517,3.94-1.02,7.884c-.039.307-.132.442-.461.44-2.59-.01-5.18-.008-7.77-.012a1.343,1.343,0,0,1-.258-.072c.156-1.24.309-2.484.472-3.727q.857-6.537,1.721-13.074c.663-4.983,1.188-9.989,2.038-14.94,1.5-8.766,8.94-16.32,17.667-18.2,5.059-1.091,9.9-.586,14.317,2.261a15.973,15.973,0,0,1,7.508,12.141c.814,7.327-1.883,13.41-7.088,18.442a21.99,21.99,0,0,1-12.223,6.112,18.062,18.062,0,0,1-13.526-2.942c-.151-.105-.312-.2-.57-.36"/>
          <path id="path4173" class="cls-16" d="M1374.866,481.62l-8.517,6.339c-.453-.715-.859-1.427-1.333-2.09a6.553,6.553,0,0,0-4.939-3.133,5.524,5.524,0,0,0-4.649,1.826,3.251,3.251,0,0,0-.219,4.292c1.148,1.5,2.4,2.928,3.688,4.319,2.126,2.306,4.349,4.523,6.462,6.841a14.419,14.419,0,0,1,3.929,7.358,14.994,14.994,0,0,1-1.742,9.7,19.473,19.473,0,0,1-22.154,9.388,12.062,12.062,0,0,1-7.647-6.69c-.564-1.167-1-2.4-1.508-3.649l9.236-4.943c.107.257.182.47.282.67a27.662,27.662,0,0,0,1.6,3.134,6.27,6.27,0,0,0,8.2,2.322,9.042,9.042,0,0,0,2.259-1.468,4.807,4.807,0,0,0,.911-6.6,32.091,32.091,0,0,0-3-3.649c-2.519-2.8-5.141-5.507-7.6-8.355a13.2,13.2,0,0,1-3.215-6.883,11.8,11.8,0,0,1,1.67-8c3.715-6.009,9.113-9.135,16.252-8.876a12.8,12.8,0,0,1,9.828,5.214c.744.935,1.442,1.908,2.2,2.923"/>
          <path id="path4175" class="cls-16" d="M1443.833,513.877c-.473,3.62-.92,7.06-1.384,10.5a.7.7,0,0,1-.309.48c-7.027,3.255-16.282,2.8-22.053-3.754a16.944,16.944,0,0,1-4.208-12.35c.45-10.763,9.374-20.159,20.045-21.472,6.235-.767,11.7.917,15.928,5.76a16.051,16.051,0,0,1,4.011,11.588c-.129,2.872-.58,5.732-.937,8.591-.507,4.049-1.06,8.094-1.6,12.14-.019.144-.048.286-.08.469h-8.408c.112-.93.214-1.84.332-2.748.609-4.674,1.279-9.34,1.812-14.022a14.986,14.986,0,0,0-1.21-8.51,8.225,8.225,0,0,0-6.925-4.72,13.126,13.126,0,0,0-14.014,10.184,9.738,9.738,0,0,0,3.875,10.465c3.264,2.172,6.76,2.179,10.318.771a13.5,13.5,0,0,0,4.8-3.369"/>
          <path id="path4177" class="cls-16" d="M1479.235,488.1c-.383,2.915-.761,5.787-1.148,8.718-1.777,0-3.52-.011-5.263,0a3.317,3.317,0,0,0-3.125,2.241,9.129,9.129,0,0,0-.3,1.609q-1.328,10.039-2.64,20.081c-.222,1.688-.438,3.377-.659,5.09h-8.751c.163-1.287.318-2.533.481-3.776q.853-6.509,1.714-13.012c.5-3.753.942-7.514,1.528-11.253a12.163,12.163,0,0,1,10.831-9.683c2.413-.105,4.835-.018,7.33-.018"/>
          <path id="path4179" class="cls-17" d="M1526.087,525.837v-3.694h-.021l-1.449,3.694h-.463l-1.449-3.694h-.022v3.694h-.73v-4.425h1.127l1.321,3.362,1.3-3.362h1.117v4.425ZM1519.665,522v3.833h-.73V522h-1.386v-.592h3.5V522h-1.386"/>
          <path id="path4181" class="cls-17" d="M1386.589,475.407h2.169l-.511-3.285Zm2.51,2.122h-3.61l-1.147,2.246h-2.556l5.639-10.534h2.464l1.92,10.534h-2.37l-.34-2.246"/>
          <path id="path4183" class="cls-17" d="M1402.014,471.362h-1.286l-.433,2.432h1.285a1.347,1.347,0,0,0,1.4-1.471A.881.881,0,0,0,1402.014,471.362Zm-3.114-2.121h3.379a2.745,2.745,0,0,1,3,2.865,3.676,3.676,0,0,1-3.9,3.811h-1.456l-.682,3.858h-2.2l1.858-10.534"/>
          <path id="path4185" class="cls-17" d="M1412.756,475.407h2.169l-.511-3.285Zm2.51,2.122h-3.61l-1.147,2.246h-2.556l5.639-10.534h2.464l1.92,10.534h-2.369l-.341-2.246"/>
          <path id="path4187" class="cls-17" d="M1429.537,479.4a5.783,5.783,0,0,1-2.385.543,4.447,4.447,0,0,1-4.54-4.711,6.244,6.244,0,0,1,6.167-6.166,4.592,4.592,0,0,1,2.215.542l-.31,2.526a2.84,2.84,0,0,0-2.138-.868,3.781,3.781,0,0,0-3.625,3.75,2.5,2.5,0,0,0,2.479,2.727,3.945,3.945,0,0,0,2.432-.852l-.3,2.509"/>
          <path id="path4189" class="cls-17" d="M1442.981,475.53H1438.4l-.745,4.245h-2.2l1.859-10.534h2.2l-.743,4.167h4.585l.743-4.167h2.2l-1.858,10.534h-2.2l.743-4.245"/>
          <path id="path4191" class="cls-17" d="M1451.049,479.775l1.858-10.534h5.841l-.372,2.121h-3.641l-.371,2.046h3.345l-.37,2.122h-3.347l-.372,2.123h3.641l-.372,2.122h-5.84"/>
        </g>
      </g>
    </g>
  </g>
</svg>
