<svg id="f140b562-eaaf-4be4-9c15-b9cd437d03c1" data-name="bbcc1fbf-19ca-4526-b805-ea33fac35a1d" xmlns="http://www.w3.org/2000/svg" xmlns:xlink="http://www.w3.org/1999/xlink" viewBox="0 0 4461.371 3427.833">
  <defs>
    <style>
      .ab4ae931-79fe-44fe-ab7c-98d401774cdc, .b069a405-64cc-4d7a-8887-3a839937711a, .b87a2a29-29ec-4d66-943e-c1f6f5da4eff, .e8e26e60-6f94-4f77-8595-616de3bee474 {
        fill: none;
      }

      .ec3aa39f-d4f8-4bf4-9f9e-92f755276607 {
        fill: #a5a5a5;
      }

      .b42b1a87-d25f-4d76-80b8-f3cfb1a67107 {
        fill: #0089d6;
      }

      .e8eb1ba1-d319-4d81-b750-751413c5180b {
        fill: url(#ea90a550-eb8b-47a0-873e-224c837219da);
      }

      .e5d8700c-4216-4f3c-a4f2-4f0d7d21dae8 {
        clip-path: url(#b2818621-1bcd-41cf-9397-50aa3a0fcdc7);
      }

      .bbe9f6b7-8967-42f5-b912-120058f085f9 {
        opacity: 0.07;
      }

      .b0d34849-074c-4428-b146-fdd6d015b1b7, .bbe9f6b7-8967-42f5-b912-120058f085f9, .ffbd39b4-d531-45dc-b7d6-a4d103a5afec {
        isolation: isolate;
      }

      .e5860003-a141-4674-9f0c-1fa0fb80009b {
        fill: #fff;
      }

      .e8111a3d-78d8-4d0c-aa0c-9a12f4c4fc20 {
        fill: #205b97;
      }

      .afd489fa-e6e2-402d-b018-3ccaca5f4b26 {
        fill: #5193ce;
      }

      .ad0174fd-cca0-451a-8cc7-7ce277c071e6 {
        fill: #2e73b7;
      }

      .ad016240-a363-4179-8ab6-ef745de92afa {
        fill: #21a366;
      }

      .f62164c7-28b3-4f06-836d-99b3d6160352 {
        fill: #107c41;
      }

      .a5b10d5a-e10c-415c-b56d-a28117d06a59 {
        fill: #33c481;
      }

      .b293a22a-8911-44f9-8a11-a8d3a417b4be {
        fill: #185c37;
      }

      .ffbd39b4-d531-45dc-b7d6-a4d103a5afec {
        opacity: 0.1;
      }

      .b0d34849-074c-4428-b146-fdd6d015b1b7 {
        opacity: 0.2;
      }

      .bac681da-aecb-410b-97d7-867616621542 {
        fill: #ea1b22;
      }

      .a718f10a-d746-44e4-8885-81b636e28c1d {
        fill: #293f81;
      }

      .b069a405-64cc-4d7a-8887-3a839937711a, .b87a2a29-29ec-4d66-943e-c1f6f5da4eff, .e8e26e60-6f94-4f77-8595-616de3bee474 {
        stroke: #000;
      }

      .b069a405-64cc-4d7a-8887-3a839937711a, .e8e26e60-6f94-4f77-8595-616de3bee474 {
        stroke-miterlimit: 10;
      }

      .e8e26e60-6f94-4f77-8595-616de3bee474 {
        stroke-width: 4px;
      }

      .b87a2a29-29ec-4d66-943e-c1f6f5da4eff {
        stroke-miterlimit: 29.126;
        stroke-width: 9px;
      }

      .b069a405-64cc-4d7a-8887-3a839937711a {
        stroke-width: 10px;
        stroke-dasharray: 10 10;
      }
    </style>
    <linearGradient id="ea90a550-eb8b-47a0-873e-224c837219da" x1="3887.333" y1="-4527.782" x2="3887.333" y2="-4754.345" gradientTransform="matrix(1, 0, 0, -1, 0, -2746.421)" gradientUnits="userSpaceOnUse">
      <stop offset="0" stop-color="#4387fd"/>
      <stop offset="1" stop-color="#4683ea"/>
    </linearGradient>
    <clipPath id="b2818621-1bcd-41cf-9397-50aa3a0fcdc7">
      <path class="ab4ae931-79fe-44fe-ab7c-98d401774cdc" d="M3815.217,1996.825l-52.282-90.555a22.9,22.9,0,0,1,0-22.9l52.282-90.556a22.9,22.9,0,0,1,19.834-11.451h104.564a22.9,22.9,0,0,1,19.834,11.451l52.282,90.556a22.9,22.9,0,0,1,0,22.9l-52.282,90.555a22.9,22.9,0,0,1-19.834,11.451H3835.051A22.9,22.9,0,0,1,3815.217,1996.825Z"/>
    </clipPath>
  </defs>
  <path class="ec3aa39f-d4f8-4bf4-9f9e-92f755276607" d="M2844.916,1478.152l0-6c3.326,0,6.673-.033,9.946-.091l.107,6C2851.657,1478.119,2848.276,1478.15,2844.916,1478.152Zm-10,0h-10v-6h10Zm-20,0h-10v-6h10Zm-20,0h-10v-6h10Zm-20,0h-10v-6h10Zm-20,0h-10v-6h10Zm-20,0h-10v-6h10Zm-20,0h-10v-6h10Zm-20,0h-10v-6h10Zm-20,0h-10v-6h10Zm-20,0h-10v-6h10Zm-20,0h-10v-6h10Zm-20,0h-10v-6h10Zm-20,0h-10v-6h10Zm-20,0h-10v-6h10Zm-20,0h-10v-6h10Zm-20,0h-10v-6h10Zm-20,0h-10v-6h10Zm-20,0h-10v-6h10Zm-20,0h-10v-6h10Zm-20,0h-10v-6h10Zm-20,0h-10v-6h10Zm-20,0h-10v-6h10Zm-20,0h-10v-6h10Zm-20,0h-10v-6h10Zm-20,0h-10v-6h10Zm-20,0h-10v-6h10Zm-20,0h-10v-6h10Zm-20,0h-10v-6h10Zm-20,0h-10v-6h10Zm-20,0h-10v-6h10Zm-20,0h-10v-6h10Zm-20,0h-10v-6h10Zm-20,0h-10v-6h10Zm-20,0h-10v-6h10Zm-20,0h-10v-6h10Zm-20,0h-10v-6h10Zm-20,0h-10v-6h10Zm-20,0h-10v-6h10Zm-20,0h-10v-6h10Zm-20,0h-10v-6h10Zm-20,0h-10v-6h10Zm-20,0h-10v-6h10Zm-20,0h-10v-6h10Zm-20,0h-10v-6h10Zm-20,0h-10v-6h10Zm-20,0h-10v-6h10Zm-20,0h-10v-6h10Zm-20,0h-10v-6h10Zm-20,0h-10v-6h10Zm-20,0h-10v-6h10Zm-20,0h-10v-6h10Zm-20,0h-10v-6h10Zm-20,0h-10v-6h10Zm-20,0h-10v-6h10Zm-20,0h-10v-6h10Zm-20,0h-10v-6h10Zm-20,0h-10v-6h10Zm-20,0h-10v-6h10Zm-20,0h-10v-6h10Zm-20,0h-10v-6h10Zm-20,0h-10v-6h10Zm-20,0h-10v-6h10Zm-20,0h-10v-6h10Zm-20,0h-10v-6h10Zm-20,0h-10v-6h10Zm-20,0h-10v-6h10Zm-20,0h-10v-6h10Zm-20,0h-10v-6h10Zm-20,0h-10v-6h10Zm-20,0h-10v-6h10Zm-20,0h-10v-6h10Zm-20,0h-10v-6h10Zm-20,0h-10v-6h10Zm-20,0h-10v-6h10Zm-20,0h-10v-6h10Zm-20,0h-10v-6h10Zm-20,0h-10v-6h10Zm-20,0h-10v-6h10Zm-20,0h-10v-6h10Zm-20,0h-6.3q-1.865,0-3.725-.017l.053-6q1.834.016,3.672.017h6.3Zm-20.085-.225c-3.324-.106-6.708-.256-10.061-.446l.338-5.99c3.305.186,6.641.335,9.916.439Zm1630.183-.134-.213-6c3.325-.117,6.668-.264,9.938-.438l.316,5.992C2871.751,1477.525,2868.372,1477.673,2865.013,1477.793Zm-1650.29-1c-3.314-.266-6.688-.578-10.027-.928l.625-5.967c3.291.345,6.615.652,9.881.914Zm1670.364-.059-.422-5.985c3.278-.232,6.614-.5,9.916-.787l.525,5.977C2891.77,1476.233,2888.4,1476.5,2885.087,1476.734Zm20.024-1.764-.632-5.966c3.307-.35,6.631-.732,9.88-1.135l.738,5.955C2911.813,1474.23,2908.453,1474.617,2905.111,1474.97Zm-1710.417-.276c-3.3-.426-6.651-.9-9.972-1.412l.914-5.93c3.271.5,6.578.972,9.826,1.391ZM2925.06,1472.5l-.842-5.942c3.29-.466,6.6-.966,9.834-1.483L2935,1471C2931.73,1471.524,2928.386,1472.029,2925.06,1472.5Zm-1750.271-.873c-3.275-.585-6.6-1.224-9.892-1.9l1.2-5.879c3.241.663,6.522,1.291,9.747,1.868Zm1770.122-2.3-1.053-5.906c3.267-.583,6.555-1.2,9.773-1.834l1.161,5.886C2951.538,1468.111,2948.214,1468.734,2944.911,1469.323Zm-1789.857-1.73c-3.252-.747-6.544-1.547-9.787-2.378l1.488-5.812c3.2.818,6.44,1.606,9.643,2.343Zm1809.582-2.154-1.263-5.865c3.25-.7,6.513-1.435,9.7-2.184l1.371,5.842C2971.222,1463.988,2967.922,1464.731,2964.636,1465.439ZM1135.543,1462.6c-3.227-.91-6.477-1.871-9.661-2.856l1.774-5.733c3.136.971,6.338,1.918,9.516,2.815Zm1848.668-1.745-1.475-5.816c3.22-.817,6.456-1.667,9.619-2.531l1.578,5.79C2990.736,1459.166,2987.464,1460.026,2984.211,1460.851ZM1116.3,1456.643c-3.168-1.065-6.366-2.186-9.5-3.331l2.054-5.637c3.092,1.127,6.242,2.232,9.365,3.282Zm1887.31-1.081-1.684-5.76c3.167-.925,6.371-1.892,9.521-2.876l1.787,5.729C3010.047,1453.648,3006.808,1454.626,3003.607,1455.562Zm-1906.236-5.817c-3.114-1.224-6.251-2.5-9.328-3.8l2.334-5.527c3.03,1.279,6.122,2.539,9.189,3.744Zm1925.43-.172-1.89-5.694c3.113-1.034,6.279-2.117,9.41-3.219l1.992,5.66C3029.149,1447.433,3025.949,1448.528,3022.8,1449.573Zm18.963-6.679-2.1-5.621c3.11-1.16,6.234-2.357,9.286-3.559l2.2,5.583C3048.068,1440.511,3044.91,1441.722,3041.764,1442.894Zm-1962.951-.983c-3.029-1.367-6.1-2.8-9.129-4.263l2.608-5.4c2.982,1.439,6.006,2.851,8.99,4.2Zm1981.661-6.383-2.3-5.541c3.039-1.261,6.118-2.572,9.152-3.9l2.4,5.5C3066.657,1432.928,3063.545,1434.254,3060.474,1435.528Zm-1999.808-2.371c-2.988-1.535-5.983-3.122-8.9-4.717l2.877-5.266c2.875,1.571,5.824,3.134,8.767,4.647Zm2018.234-5.673-2.5-5.454c3.01-1.381,6.037-2.8,9-4.229l2.6,5.407C3085.005,1424.65,3081.944,1426.088,3078.9,1427.484ZM1042.983,1423.5c-2.882-1.67-5.793-3.407-8.651-5.162l3.138-5.113c2.816,1.729,5.683,3.439,8.521,5.083Zm2054.038-4.732-2.7-5.358c2.935-1.479,5.909-3.011,8.84-4.556l2.8,5.309C3103,1415.724,3099.989,1417.274,3097.021,1418.768Zm-2071.178-5.791c-2.8-1.819-5.608-3.694-8.348-5.575l3.394-4.947c2.7,1.852,5.466,3.7,8.224,5.491Zm2089-3.6-2.894-5.256c2.883-1.588,5.808-3.237,8.7-4.9l2.994,5.2C3120.718,1406.1,3117.759,1407.766,3114.843,1409.373Zm-2105.555-7.761c-2.694-1.952-5.4-3.97-8.057-6l3.645-4.768c2.612,2,5.281,3.985,7.933,5.907Zm2123.05-2.311-3.09-5.142c2.853-1.715,5.716-3.471,8.507-5.22l3.185,5.085C3138.117,1395.793,3135.223,1397.568,3132.338,1399.3ZM993.33,1389.41c-2.59-2.089-5.194-4.245-7.739-6.409l3.887-4.571c2.5,2.13,5.069,4.252,7.619,6.31Zm2156.111-.822-3.281-5.023c2.774-1.811,5.568-3.673,8.3-5.533l3.373,4.962C3155.071,1384.875,3152.246,1386.757,3149.441,1388.588Zm16.685-11.344-3.467-4.9c2.692-1.906,5.413-3.871,8.087-5.84l3.558,4.83C3171.6,1373.33,3168.848,1375.317,3166.126,1377.244Zm-2188.107-.852c-2.491-2.233-4.979-4.523-7.395-6.805l4.121-4.362c2.378,2.247,4.827,4.5,7.279,6.7Zm2204.349-11.113-3.651-4.762c2.609-2,5.253-4.065,7.859-6.14l3.738,4.693C3187.679,1361.169,3185.005,1363.257,3182.368,1365.279Zm-2218.959-2.693c-2.372-2.363-4.737-4.782-7.029-7.19l4.345-4.137c2.256,2.37,4.584,4.75,6.918,7.077Zm2234.731-9.876-3.828-4.622c2.54-2.1,5.1-4.268,7.615-6.433l3.916,4.545C3203.3,1348.39,3200.71,1350.58,3198.14,1352.71Zm-2248.6-4.689c-2.249-2.493-4.482-5.036-6.638-7.559l4.56-3.9c2.123,2.482,4.32,4.984,6.533,7.438Zm2263.878-8.473-4-4.47c2.464-2.207,4.941-4.468,7.36-6.719l4.088,4.392C3218.419,1335.028,3215.914,1337.315,3213.42,1339.548Zm-2276.95-6.823c-2.1-2.6-4.2-5.26-6.222-7.909l4.765-3.645c1.993,2.606,4.053,5.224,6.121,7.781Zm2291.706-6.914-4.171-4.312c2.385-2.308,4.771-4.662,7.091-7l4.256,4.23C3233.005,1321.094,3230.589,1323.476,3228.176,1325.811Zm-2303.935-9.075c-1.959-2.713-3.9-5.486-5.781-8.242l4.959-3.377c1.845,2.71,3.758,5.437,5.686,8.107Zm2318.144-5.22-4.338-4.146c2.3-2.407,4.592-4.852,6.811-7.266l4.419,4.059C3247.032,1306.607,3244.714,1309.081,3242.385,1311.516ZM912.907,1300.093c-1.794-2.8-3.583-5.675-5.319-8.557l5.14-3.1c1.706,2.834,3.466,5.664,5.229,8.413Zm2343.113-3.415-4.5-3.972c2.194-2.485,4.387-5.017,6.518-7.527l4.574,3.883C3260.461,1291.6,3258.241,1294.165,3256.02,1296.678ZM902.51,1282.831c-1.641-2.908-3.266-5.885-4.831-8.848l5.307-2.8c1.538,2.913,3.136,5.841,4.749,8.7Zm2366.545-1.512-4.65-3.791c2.095-2.57,4.184-5.187,6.211-7.775l4.724,3.7C3273.291,1276.071,3271.175,1278.717,3269.055,1281.319Zm12.412-15.861-4.8-3.6c1.979-2.638,3.961-5.335,5.892-8.016l4.869,3.506C3285.477,1260.059,3283.47,1262.789,3281.467,1265.458ZM893.1,1265c-1.483-3.017-2.937-6.083-4.321-9.116l5.459-2.491c1.359,2.98,2.789,5.993,4.247,8.958Zm2400.125-15.882-4.94-3.4c1.865-2.707,3.736-5.48,5.56-8.245l5.008,3.305C3297.006,1243.569,3295.113,1246.377,3293.225,1249.115Zm-2408.5-2.474c-1.3-3.081-2.577-6.229-3.791-9.356l5.594-2.172c1.192,3.073,2.446,6.167,3.725,9.194Zm2419.584-14.324-5.074-3.2c1.756-2.784,3.511-5.631,5.216-8.459l5.139,3.1C3307.861,1226.617,3306.085,1229.5,3304.306,1232.317Zm-2426.891-4.5c-1.127-3.176-2.217-6.395-3.241-9.568l5.711-1.841c1,3.118,2.077,6.281,3.184,9.4Zm2437.271-12.728-5.2-2.991c1.638-2.849,3.272-5.763,4.858-8.66l5.264,2.881C3318,1209.251,3316.345,1212.2,3314.686,1215.087Zm-2443.472-6.506c-.935-3.227-1.834-6.507-2.672-9.752l5.808-1.5c.824,3.188,1.708,6.412,2.627,9.581Zm2453.128-11.131-5.322-2.772c1.521-2.92,3.032-5.9,4.492-8.85l5.379,2.66C3327.412,1191.477,3325.881,1194.493,3324.342,1197.45ZM866.157,1189c-.738-3.253-1.441-6.574-2.087-9.867l5.888-1.155c.635,3.236,1.325,6.5,2.05,9.694Zm2467.094-9.562-5.434-2.545c1.39-2.967,2.774-6,4.115-9.026l5.485,2.433C3336.059,1173.357,3334.658,1176.431,3333.251,1179.434ZM862.276,1169.2c-.546-3.3-1.05-6.652-1.5-9.974l5.945-.8c.442,3.263.937,6.559,1.473,9.8Zm2479.111-8.13-5.535-2.315c1.261-3.014,2.515-6.1,3.728-9.184l5.582,2.2C3343.934,1154.892,3342.664,1158.021,3341.387,1161.074ZM859.574,1149.216c-.351-3.33-.655-6.709-.906-10.043l5.982-.451c.247,3.276.547,6.6.891,9.867Zm2489.163-6.82-5.629-2.078c1.133-3.067,2.254-6.2,3.331-9.326l5.672,1.958C3351.019,1136.111,3349.884,1139.29,3348.737,1142.4Zm-2490.68-13.288c-.153-3.343-.259-6.733-.315-10.079l6-.1c.055,3.287.158,6.619.309,9.9Zm2497.224-5.671-5.713-1.836c1.011-3.145,2-6.326,2.928-9.453l5.75,1.713C3357.3,1117.029,3356.3,1120.251,3355.281,1123.437Zm-2491.56-14.42-6-.074c.041-3.33.133-6.719.274-10.07l5.994.25C863.851,1102.417,863.761,1105.745,863.721,1109.017Zm2497.292-4.829-5.785-1.588c.873-3.179,1.723-6.411,2.527-9.606l5.818,1.463C3362.759,1097.694,3361.9,1100.968,3361.013,1104.188ZM864.548,1089.229l-5.984-.426c.237-3.336.528-6.716.865-10.048l5.969.6C865.068,1082.63,864.782,1085.952,864.548,1089.229Zm2501.374-4.557-5.849-1.337c.736-3.22,1.446-6.486,2.109-9.706l5.877,1.21C3367.387,1078.1,3366.669,1081.41,3365.922,1084.672ZM866.541,1069.515l-5.95-.777c.433-3.315.923-6.672,1.456-9.98l5.924.955C867.448,1062.962,866.966,1066.26,866.541,1069.515Zm2503.44-4.553-5.9-1.082c.588-3.206,1.155-6.5,1.686-9.789l5.924.957C3371.152,1058.38,3370.578,1061.715,3369.981,1064.962ZM869.692,1049.956l-5.893-1.129c.628-3.281,1.317-6.605,2.044-9.875l5.858,1.3C870.985,1043.468,870.309,1046.732,869.692,1049.956Zm2503.49-4.861-5.943-.826c.451-3.244.875-6.559,1.262-9.853l5.959.7C3374.069,1038.451,3373.638,1041.808,3373.182,1045.1ZM874,1030.615l-5.817-1.475c.824-3.242,1.706-6.518,2.624-9.737l5.77,1.646C875.671,1024.212,874.8,1027.43,874,1030.615Zm2501.524-5.506-5.973-.568c.314-3.288.594-6.619.834-9.9l5.985.44C3376.122,1018.4,3375.838,1021.778,3375.52,1025.109ZM879.422,1011.6l-5.719-1.814c1.01-3.183,2.08-6.392,3.179-9.537l5.665,1.98C881.465,1005.315,880.414,1008.468,879.422,1011.6Zm2497.572-6.555-5.992-.311c.17-3.284.306-6.624.408-9.926l6,.182C3377.3,998.33,3377.166,1001.712,3376.994,1005.04Zm-2491.048-12.1-5.6-2.145c1.2-3.12,2.451-6.263,3.733-9.344l5.539,2.306C888.354,986.787,887.12,989.876,885.946,992.942ZM3377.6,984.933l-6-.054q.019-2.062.019-4.127,0-2.907-.036-5.806l6-.076q.036,2.937.036,5.882Q3377.621,982.843,3377.6,984.933ZM893.548,974.68l-5.47-2.465c1.368-3.036,2.8-6.1,4.268-9.12l5.4,2.621C896.3,968.68,894.893,971.7,893.548,974.68Zm2477.805-9.666c-.111-3.285-.262-6.623-.444-9.922l5.99-.334c.186,3.343.338,6.725.45,10.053ZM902.194,956.871l-5.32-2.774c1.541-2.956,3.15-5.94,4.785-8.868l5.238,2.924C905.292,951.031,903.709,953.964,902.194,956.871Zm2468.057-11.69c-.253-3.275-.546-6.6-.872-9.893l5.97-.592c.33,3.333.628,6.7.884,10.024Zm-2458.4-5.614L906.7,936.5c1.718-2.884,3.494-5.774,5.278-8.589l5.069,3.213C915.286,933.889,913.539,936.731,911.849,939.567Zm2456.444-14.152c-.4-3.277-.834-6.589-1.3-9.846l5.939-.851c.473,3.3.916,6.657,1.319,9.976ZM922.468,922.82l-4.976-3.352c1.858-2.759,3.794-5.547,5.753-8.287l4.881,3.49C926.2,917.366,924.3,920.107,922.468,922.82Zm11.54-16.143-4.783-3.622c2.009-2.652,4.1-5.33,6.2-7.96l4.684,3.751C938.037,901.433,935.984,904.068,934.008,906.677Zm2431.471-.924c-.541-3.275-1.122-6.565-1.726-9.78l5.9-1.109c.613,3.258,1.2,6.593,1.75,9.91ZM946.423,891.183l-4.58-3.877c2.158-2.548,4.387-5.109,6.627-7.614l4.473,4C950.739,886.157,948.545,888.676,946.423,891.183Zm2415.393-4.953c-.685-3.252-1.41-6.526-2.158-9.734l5.844-1.363c.757,3.25,1.493,6.569,2.185,9.863ZM959.665,876.375l-4.364-4.12c2.3-2.433,4.663-4.872,7.028-7.248l4.252,4.233C964.253,871.579,961.925,873.979,959.665,876.375Zm2397.625-9.559c-.824-3.215-1.691-6.452-2.576-9.623l5.778-1.615c.9,3.212,1.776,6.493,2.61,9.75Zm-2383.6-4.526-4.139-4.344c2.413-2.3,4.9-4.609,7.4-6.868l4.022,4.451C978.512,857.754,976.061,860.028,973.687,862.29Zm14.754-13.329-3.9-4.557c2.543-2.179,5.153-4.357,7.756-6.472l3.784,4.656C993.513,844.671,990.944,846.815,988.441,848.961Zm2363.49-1.332c-.955-3.154-1.961-6.349-2.988-9.5l5.7-1.863c1.041,3.189,2.06,6.425,3.027,9.621ZM1003.879,836.418l-3.663-4.754c2.654-2.043,5.373-4.082,8.084-6.062l3.538,4.847C1009.168,832.4,1006.49,834.406,1003.879,836.418Zm2341.874-7.712c-1.1-3.135-2.241-6.283-3.392-9.354l5.617-2.107c1.168,3.112,2.324,6.3,3.437,9.476Zm-2325.8-4.019-3.41-4.937c2.763-1.909,5.586-3.806,8.386-5.637l3.284,5.021C1025.452,820.938,1022.673,822.806,1019.951,824.687ZM1036.61,813.8l-3.152-5.106c2.868-1.771,5.784-3.521,8.667-5.2l3.021,5.183C1042.308,810.327,1039.436,812.05,1036.61,813.8Zm2302.162-3.721c-1.233-3.091-2.508-6.184-3.786-9.2l5.523-2.345c1.3,3.051,2.585,6.184,3.835,9.315Zm-2284.96-6.31-2.889-5.259c2.952-1.622,5.954-3.221,8.922-4.756l2.756,5.33C1059.675,800.591,1056.719,802.168,1053.812,803.765Zm17.661-9.133-2.621-5.4c3-1.458,6.07-2.9,9.116-4.285l2.485,5.461C1077.452,791.776,1074.43,793.2,1071.473,794.632Zm2259.534-2.865c-1.36-3.027-2.763-6.063-4.169-9.023l5.419-2.574c1.424,3,2.845,6.073,4.223,9.138Zm-2241.47-5.352-2.348-5.522c3.072-1.306,6.208-2.594,9.32-3.824l2.207,5.579C1095.652,783.86,1092.563,785.128,1089.537,786.415Zm18.453-7.3-2.07-5.632c3.127-1.148,6.322-2.277,9.5-3.355l1.927,5.681C1114.217,776.866,1111.07,777.978,1107.99,779.11Zm2214.49-5.3c-1.479-2.954-3.008-5.927-4.542-8.837l5.307-2.8c1.554,2.948,3.1,5.957,4.6,8.949Zm-2195.7-1.082L1125,767c3.184-.993,6.431-1.962,9.65-2.88l1.647,5.769C1133.121,770.8,1129.922,771.754,1126.784,772.732Zm19.086-5.443-1.5-5.809c3.235-.836,6.526-1.643,9.781-2.4l1.359,5.843C1152.3,765.669,1149.057,766.465,1145.87,767.289Zm19.332-4.5-1.213-5.877c3.305-.682,6.63-1.327,9.885-1.917l1.072,5.9C1171.738,761.485,1168.46,762.121,1165.2,762.794Zm19.529-3.546-.926-5.928c3.318-.518,6.671-1,9.967-1.436l.783,5.95C1191.307,758.261,1188,758.737,1184.731,759.248Zm19.681-2.591-.639-5.966c3.336-.356,6.708-.677,10.024-.95l.495,5.978C1211.024,755.99,1207.7,756.305,1204.412,756.657Zm2108.8-.417c-1.6-2.888-3.249-5.793-4.9-8.636l5.186-3.017c1.675,2.879,3.346,5.821,4.966,8.745Zm-2089.02-1.221-.352-5.99c3.326-.194,6.709-.353,10.058-.469l.209,6C1230.807,754.671,1227.471,754.827,1224.194,755.019Zm19.838-.688-.065-6q2.319-.026,4.646-.026H1254v6h-5.387Q1246.32,754.305,1244.032,754.331Zm19.409-6.584h-6v-.669c0-3.128.039-6.291.115-9.4l6,.147c-.075,3.062-.113,6.177-.113,9.256Zm2039.79-8.675c-1.723-2.827-3.49-5.661-5.253-8.425l5.059-3.226c1.785,2.8,3.574,5.666,5.317,8.528Zm-2039.3-11.165-5.992-.3c.167-3.312.384-6.7.644-10.057l5.982.463C1264.307,721.319,1264.093,724.648,1263.929,727.907Zm2028.626-5.574c-1.832-2.747-3.713-5.507-5.591-8.2l4.924-3.429c1.9,2.729,3.805,5.522,5.659,8.3Zm-2027.094-14.2-5.969-.619c.344-3.309.739-6.677,1.177-10.008l5.949.781C1266.188,701.565,1265.8,704.879,1265.461,708.134Zm2015.751-2.088c-1.943-2.672-3.933-5.353-5.915-7.967l4.781-3.625c2.007,2.646,4.02,5.359,5.987,8.063Zm-11.988-15.814c-2.039-2.581-4.135-5.18-6.226-7.724l4.633-3.811c2.118,2.574,4.238,5.2,6.3,7.816Zm-2001.187-1.761-5.926-.937c.523-3.31,1.1-6.652,1.707-9.931l5.9,1.1C1269.118,681.926,1268.552,685.213,1268.037,688.471Zm1988.584-13.558c-2.147-2.506-4.342-5.019-6.527-7.469l4.479-3.992c2.211,2.479,4.432,5.022,6.6,7.558Zm-1984.964-5.942-5.869-1.25c.7-3.267,1.447-6.573,2.231-9.826l5.833,1.406C1273.081,662.5,1272.341,665.756,1271.657,668.971Zm1971.768-8.866c-2.227-2.4-4.519-4.828-6.812-7.206l4.32-4.164c2.321,2.406,4.639,4.859,6.893,7.292ZM1276.3,649.693l-5.793-1.562c.875-3.246,1.8-6.507,2.75-9.694l5.75,1.715C1278.077,643.288,1277.166,646.5,1276.3,649.693Zm1953.36-3.864c-2.327-2.323-4.711-4.657-7.085-6.938l4.156-4.327c2.4,2.308,4.813,4.668,7.167,7.017Zm-14.3-13.733c-2.4-2.214-4.867-4.454-7.345-6.656l3.987-4.484c2.505,2.228,5.005,4.494,7.43,6.734Zm-1933.4-1.379-5.7-1.865c1.04-3.178,2.131-6.376,3.246-9.5l5.652,2.013C1284.056,624.44,1282.981,627.588,1281.959,630.717Zm1918.589-11.791c-2.513-2.15-5.068-4.293-7.592-6.371l3.812-4.633c2.554,2.1,5.138,4.27,7.681,6.444Zm-1911.955-6.842-5.6-2.163c1.207-3.125,2.466-6.263,3.741-9.329l5.54,2.305C1291.021,605.915,1289.782,609.005,1288.593,612.084Zm1896.653-5.753c-2.568-2.033-5.2-4.077-7.826-6.077l3.634-4.773c2.656,2.022,5.32,4.09,7.916,6.146Zm-15.766-12c-2.63-1.926-5.338-3.87-8.049-5.779l3.455-4.906c2.741,1.93,5.479,3.9,8.138,5.843ZM1296.2,593.8l-5.478-2.448c1.362-3.048,2.783-6.12,4.221-9.13l5.414,2.586C1298.939,587.779,1297.541,590.8,1296.2,593.8Zm1857.079-10.879c-2.728-1.844-5.5-3.685-8.257-5.47l3.267-5.034c2.783,1.807,5.592,3.668,8.351,5.534Zm-1848.535-7L1299.4,573.2c1.521-2.982,3.1-5.978,4.688-8.908l5.273,2.861C1307.8,570.042,1306.241,572.994,1304.743,575.929Zm1831.923-3.79c-2.8-1.745-5.656-3.488-8.489-5.18l3.078-5.151c2.865,1.712,5.753,3.475,8.584,5.239Zm-17.07-10.2c-2.867-1.642-5.786-3.279-8.674-4.863l2.885-5.26c2.921,1.6,5.872,3.256,8.772,4.916ZM1314.2,558.5l-5.2-3c1.668-2.895,3.395-5.81,5.135-8.664l5.123,3.125C1317.546,552.776,1315.843,555.647,1314.2,558.5Zm1787.959-6.127c-2.912-1.528-5.889-3.055-8.848-4.539L3096,542.47c2.991,1.5,6,3.045,8.944,4.59Zm-17.778-8.913c-2.979-1.426-6.009-2.842-9.009-4.21l2.49-5.459c3.032,1.382,6.1,2.815,9.109,4.256Zm-1759.847-1.9-5.041-3.254c1.807-2.8,3.68-5.626,5.567-8.4l4.959,3.377C1328.162,536.016,1326.316,538.8,1324.535,541.56Zm1741.755-6.355c-3.023-1.314-6.1-2.618-9.158-3.878l2.29-5.546c3.087,1.274,6.2,2.593,9.258,3.92Zm-18.384-7.587c-3.059-1.2-6.185-2.39-9.293-3.541l2.086-5.626c3.141,1.164,6.3,2.369,9.394,3.58ZM1335.714,525.15l-4.875-3.5c1.942-2.7,3.954-5.435,5.981-8.115l4.785,3.619C1339.609,519.795,1337.627,522.485,1335.714,525.15Zm1693.543-4.444c-3.13-1.1-6.3-2.173-9.416-3.2l1.881-5.7c3.15,1.039,6.352,2.128,9.518,3.236Zm-18.886-6.232c-3.148-.974-6.352-1.936-9.526-2.858l1.672-5.762c3.209.931,6.448,1.9,9.63,2.89ZM1347.7,509.3,1343,505.568c2.075-2.609,4.219-5.239,6.373-7.815l4.6,3.849C1351.853,504.14,1349.74,506.731,1347.7,509.3Zm1643.575-.371c-3.168-.857-6.405-1.7-9.623-2.512l1.465-5.819c3.251.819,6.524,1.673,9.727,2.54Zm-19.288-4.85c-3.208-.746-6.474-1.475-9.706-2.165l1.254-5.868c3.267.7,6.567,1.434,9.811,2.189Zm-19.449-4.155c-3.212-.626-6.5-1.237-9.779-1.816l1.044-5.908c3.311.585,6.636,1.2,9.883,1.836Zm-19.586-3.457c-3.251-.513-6.561-1.007-9.837-1.465l.832-5.942c3.312.463,6.656.962,9.942,1.482Zm-1572.5-2.416-4.508-3.959c2.2-2.506,4.471-5.029,6.747-7.5l4.412,4.069C1364.852,489.1,1362.615,491.584,1360.446,494.053Zm1552.8-.341c-3.272-.4-6.6-.773-9.883-1.116l.621-5.967c3.321.346,6.681.725,9.987,1.128Zm-19.784-2.055c-3.281-.282-6.617-.54-9.917-.767l.411-5.986c3.334.229,6.706.489,10.02.774Zm-78.67-1.327-.335-5.991c3.292-.184,6.673-.337,10.051-.456l.211,6C2821.385,490,2818.046,490.148,2814.8,490.33Zm58.826-.033c-3.309-.168-6.653-.309-9.939-.418l.2-6c3.322.111,6.7.253,10.044.423Zm-19.863-.662c-3.021-.048-6.091-.073-9.125-.073l-1.082-.016c-3.025,0-6.01.032-8.889.08l-.1-6c3.247-.053,6.628-.08,10.049-.08l1.084.017c2.718,0,5.457.029,8.157.072Zm-51.844-1.648c-.3-3.29-.645-6.614-1.016-9.881l5.961-.678c.377,3.309.723,6.677,1.029,10.01Zm-1427.987-8.554-4.312-4.172c2.326-2.4,4.716-4.815,7.1-7.167l4.211,4.274C1378.576,474.686,1376.22,477.063,1373.927,479.433Zm1425.747-11.184c-.443-3.276-.925-6.582-1.435-9.83l5.928-.93c.516,3.289,1.005,6.639,1.453,9.956ZM1388.1,465.469l-4.107-4.374c2.446-2.3,4.948-4.591,7.436-6.821l4,4.469C1392.978,460.941,1390.511,463.205,1388.1,465.469Zm14.824-13.281-3.9-4.562c2.538-2.168,5.147-4.344,7.752-6.466l3.789,4.652C1408,447.905,1405.424,450.049,1402.922,452.188Zm1393.67-3.565c-.585-3.269-1.209-6.552-1.854-9.757l5.882-1.186c.654,3.248,1.286,6.574,1.879,9.886Zm-1378.234-9.008-3.68-4.739c2.655-2.061,5.362-4.113,8.047-6.1l3.569,4.824C1423.645,435.559,1420.975,437.583,1418.358,439.615Zm1374.317-10.466c-.713-3.192-1.478-6.446-2.271-9.671l5.826-1.433c.8,3.265,1.577,6.561,2.3,9.793Zm-1358.3-1.379-3.455-4.906c2.752-1.938,5.551-3.861,8.322-5.72l3.342,4.984C1439.846,423.961,1437.085,425.859,1434.371,427.77Zm16.547-11.1-3.227-5.058c2.82-1.8,5.706-3.592,8.579-5.333l3.11,5.133C1456.546,413.131,1453.7,414.9,1450.918,416.673Zm1337-6.85c-.866-3.211-1.773-6.441-2.7-9.6l5.758-1.685c.937,3.2,1.856,6.468,2.732,9.721Zm-1319.952-3.474-2.991-5.2c2.907-1.671,5.872-3.332,8.815-4.936l2.873,5.267C1473.755,403.062,1470.83,404.7,1467.962,406.349Zm17.471-9.524-2.754-5.331c2.953-1.525,5.981-3.044,9-4.516l2.631,5.393C1491.331,393.823,1488.345,395.321,1485.433,396.825Zm1296.884-6.133c-.988-3.127-2.032-6.313-3.1-9.467l5.681-1.929c1.085,3.194,2.143,6.42,3.144,9.587Zm-1279.034-2.573-2.508-5.451c3.035-1.4,6.128-2.778,9.19-4.106l2.387,5.506C1509.33,385.378,1506.278,386.741,1503.283,388.119Zm18.226-7.9-2.263-5.556c3.079-1.254,6.23-2.5,9.366-3.691l2.137,5.608C1527.655,377.761,1524.547,378.986,1521.509,380.222Zm18.561-7.072-2.012-5.652c3.142-1.119,6.344-2.217,9.521-3.269l1.885,5.7C1546.33,370.962,1543.169,372.047,1540.07,373.15Zm1235.836-1.317c-1.138-3.127-2.317-6.262-3.506-9.319l5.592-2.174c1.2,3.1,2.4,6.273,3.552,9.44Zm-1216.981-4.919-1.757-5.737c3.165-.97,6.414-1.926,9.656-2.841l1.631,5.774C1565.255,365.012,1562.049,365.957,1558.925,366.914Zm19.118-5.4-1.5-5.808c3.237-.838,6.525-1.649,9.773-2.412l1.371,5.841C1584.482,359.89,1581.238,360.691,1578.043,361.517Zm19.336-4.545-1.246-5.869c3.249-.689,6.57-1.355,9.869-1.979l1.115,5.894C1603.862,355.634,1600.585,356.293,1597.379,356.972Zm187.425-.6c-3.206-.658-6.487-1.294-9.752-1.89l1.078-5.9c3.308.6,6.632,1.248,9.881,1.915ZM1616.9,353.28l-.988-5.918c3.275-.547,6.622-1.067,9.946-1.547l.856,5.939C1623.432,352.227,1620.13,352.741,1616.9,353.28Zm1151.8,0c-1.267-3.065-2.578-6.145-3.9-9.154l5.495-2.41c1.337,3.047,2.667,6.167,3.949,9.273Zm-1003.435-.466c-3.25-.52-6.556-1.012-9.826-1.462l.818-5.943c3.313.455,6.663.954,9.956,1.479Zm-128.7-2.367-.726-5.955c3.307-.4,6.672-.778,10-1.112l.6,5.97C1643.145,349.675,1639.824,350.045,1636.558,350.443Zm109.024-.343c-3.239-.375-6.563-.723-9.881-1.036l.562-5.973c3.361.316,6.728.668,10.008,1.048Zm-89.257-1.636-.469-5.982c3.321-.26,6.7-.488,10.04-.678l.34,5.991C1662.938,347.982,1659.6,348.208,1656.325,348.464Zm69.476-.219c-3.283-.237-6.62-.442-9.916-.609l.3-5.992c3.338.169,6.718.377,10.044.616Zm-49.642-.907-.211-6c3.327-.117,6.712-.2,10.058-.248l.084,6C1682.786,347.14,1679.445,347.222,1676.159,347.338Zm29.8-.1c-3.292-.1-6.634-.156-9.933-.181l.043-6c3.343.025,6.729.086,10.063.183Zm86.986-.121-5.506-2.385c1.336-3.085,2.712-6.175,4.091-9.185l5.455,2.5C1795.623,341.023,1794.263,344.075,1792.944,347.122Zm967.766-12.067c-1.394-3-2.834-6.021-4.284-8.977l5.389-2.641c1.467,2.994,2.926,6.053,4.337,9.092Zm-959.5-5.978-5.4-2.612c1.442-2.981,2.944-6,4.463-8.987l5.346,2.725C1804.114,323.148,1802.631,326.133,1801.209,329.077Zm950.749-11.88c-1.5-2.912-3.07-5.868-4.654-8.783l5.272-2.866c1.6,2.954,3.19,5.947,4.714,8.9Zm-941.751-5.776-5.287-2.836c1.578-2.944,3.2-5.9,4.835-8.8l5.228,2.945C1813.373,305.59,1811.766,308.513,1810.207,311.421Zm932.263-11.689c-1.623-2.845-3.311-5.73-5.015-8.578l5.148-3.082c1.726,2.883,3.434,5.806,5.078,8.685Zm-922.532-5.59-5.166-3.053c1.711-2.893,3.46-5.785,5.2-8.593l5.1,3.16C1823.355,288.429,1821.628,291.285,1819.938,294.142Zm912.324-11.456c-1.751-2.792-3.556-5.6-5.366-8.359l5.016-3.293c1.832,2.789,3.66,5.637,5.432,8.463Zm-901.881-5.413-5.035-3.264c1.81-2.791,3.677-5.609,5.551-8.375l4.967,3.366C1834.013,271.732,1832.169,274.515,1830.381,277.273Zm890.982-11.189c-1.853-2.7-3.772-5.433-5.7-8.128l4.877-3.5c1.956,2.728,3.9,5.5,5.772,8.227Zm-879.849-5.244-4.9-3.466c1.92-2.712,3.9-5.453,5.89-8.145l4.827,3.567C1845.37,255.455,1843.411,258.162,1841.514,260.84Zm868.279-10.891c-1.975-2.638-4-5.291-6.03-7.887l4.731-3.691c2.05,2.627,4.1,5.312,6.1,7.982Zm-856.476-5.079-4.751-3.664c2.052-2.66,4.145-5.319,6.22-7.9l4.678,3.758C1857.413,239.615,1855.345,242.242,1853.317,244.87ZM2697.58,234.3c-2.078-2.553-4.211-5.122-6.34-7.632l4.576-3.881c2.155,2.542,4.314,5.141,6.418,7.726Zm-831.817-4.92-4.6-3.852c2.144-2.561,4.342-5.133,6.535-7.647l4.521,3.944C1870.054,224.311,1867.882,226.853,1865.763,229.383Zm818.985-10.214c-2.169-2.457-4.4-4.937-6.639-7.372l4.418-4.058c2.264,2.463,4.523,4.973,6.719,7.459ZM1878.829,214.4l-4.442-4.033c2.245-2.473,4.546-4.956,6.838-7.381l4.362,4.121C1883.321,209.507,1881.047,211.962,1878.829,214.4Zm792.5-9.841c-2.279-2.385-4.61-4.773-6.924-7.1l4.252-4.232c2.344,2.354,4.7,4.771,7.009,7.185Zm-778.837-4.61-4.277-4.207c2.348-2.388,4.746-4.779,7.127-7.106l4.193,4.291C1897.178,195.23,1894.808,197.593,1892.487,199.953Zm764.851-9.449c-2.365-2.284-4.787-4.579-7.2-6.819l4.084-4.4c2.441,2.266,4.891,4.588,7.282,6.9Zm-750.627-4.454-4.108-4.373c2.443-2.294,4.933-4.589,7.4-6.82l4.023,4.451C1911.588,181.514,1909.126,183.783,1906.711,186.05Zm736.1-9.043c-2.46-2.2-4.968-4.4-7.456-6.531l3.909-4.553c2.518,2.163,5.056,4.386,7.545,6.61Zm-721.338-4.3-3.933-4.53c2.51-2.181,5.09-4.378,7.664-6.528l3.846,4.605C1926.505,168.383,1923.957,170.554,1921.473,172.711Zm706.3-8.619c-2.531-2.09-5.122-4.189-7.7-6.237l3.73-4.7c2.611,2.072,5.232,4.195,7.793,6.31Zm-691.028-4.139-3.754-4.68c2.632-2.111,5.294-4.207,7.912-6.227l3.666,4.75C1941.982,155.794,1939.349,157.865,1936.747,159.953Zm675.506-8.184c-2.623-2-5.291-4-7.934-5.934l3.547-4.84c2.674,1.96,5.375,3.98,8.027,6Zm-659.742-3.979-3.574-4.82c2.693-2,5.435-3.989,8.148-5.921l3.48,4.887C1957.883,143.846,1955.174,145.815,1952.511,147.79Zm643.765-7.736c-2.689-1.893-5.433-3.787-8.153-5.628l3.361-4.968c2.752,1.861,5.526,3.776,8.246,5.69Zm-627.546-3.817-3.389-4.951c2.746-1.879,5.561-3.766,8.369-5.609l3.293,5.016C1974.227,132.515,1971.444,134.379,1968.73,136.237Zm611.136-7.279c-2.762-1.792-5.573-3.58-8.359-5.314l3.17-5.094c2.818,1.754,5.662,3.562,8.454,5.374Zm-594.486-3.653-3.2-5.077c2.82-1.774,5.7-3.554,8.575-5.288l3.1,5.137C1991.02,121.791,1988.168,123.55,1985.38,125.305Zm577.638-6.836c-2.824-1.685-5.714-3.372-8.586-5.014l2.978-5.209c2.905,1.661,5.826,3.367,8.682,5.071Zm-560.583-3.462-3-5.193c2.9-1.678,5.85-3.348,8.769-4.964l2.906,5.248C2008.22,111.7,2005.3,113.348,2002.435,115.007Zm543.319-6.405c-2.9-1.585-5.848-3.162-8.768-4.688l2.779-5.319c2.954,1.545,5.938,3.141,8.867,4.743Zm-525.886-3.25-2.809-5.3c2.938-1.556,5.948-3.115,8.948-4.633l2.709,5.353C2025.751,102.272,2022.773,103.813,2019.868,105.352Zm508.265-5.965c-2.927-1.461-5.934-2.927-8.937-4.359l2.581-5.416c3.036,1.446,6.076,2.93,9.036,4.408Zm-490.484-3.036-2.609-5.4c3.03-1.464,6.1-2.91,9.115-4.3l2.51,5.449C2043.679,93.473,2040.646,94.9,2037.649,96.351Zm472.53-5.515c-3.014-1.369-6.073-2.723-9.091-4.025l2.376-5.51c3.053,1.318,6.147,2.688,9.2,4.072Zm-454.423-2.823-2.409-5.5c3.075-1.346,6.194-2.68,9.271-3.962l2.306,5.539C2061.881,85.362,2058.8,86.68,2055.756,88.013Zm436.167-5.059c-3.043-1.248-6.15-2.49-9.236-3.69l2.176-5.592c3.118,1.213,6.26,2.468,9.336,3.73Zm-417.761-2.611-2.2-5.58c3.114-1.23,6.28-2.449,9.409-3.62l2.1,5.619C2080.375,77.921,2077.243,79.126,2074.162,80.343Zm399.225-4.6c-3.071-1.13-6.221-2.257-9.364-3.349l1.971-5.668c3.176,1.105,6.361,2.243,9.466,3.386ZM2092.84,73.351l-2-5.656c3.156-1.116,6.365-2.218,9.536-3.275l1.9,5.691C2099.136,71.157,2095.963,72.248,2092.84,73.351ZM2454.6,69.219c-3.152-1.031-6.341-2.043-9.478-3.006l1.759-5.736c3.174.974,6.4,2,9.584,3.039Zm-342.838-2.176-1.8-5.725c3.2-1,6.443-1.987,9.652-2.929l1.689,5.758C2118.136,65.079,2114.924,66.052,2111.764,67.043Zm323.825-3.663c-3.14-.9-6.365-1.8-9.583-2.662l1.555-5.8c3.253.873,6.511,1.779,9.685,2.69Zm-304.681-1.956-1.586-5.787c3.215-.881,6.495-1.748,9.751-2.577l1.48,5.815C2137.333,59.7,2134.088,60.552,2130.908,61.424Zm285.471-3.194c-3.218-.8-6.472-1.58-9.672-2.315l1.343-5.848c3.236.744,6.525,1.531,9.778,2.341ZM2150.245,56.5l-1.377-5.84c3.267-.771,6.578-1.52,9.84-2.226l1.271,5.863C2156.753,55,2153.477,55.738,2150.245,56.5ZM2397,53.774c-3.2-.675-6.476-1.337-9.75-1.97l1.136-5.89c3.31.638,6.624,1.307,9.854,1.989Zm-227.244-1.5-1.166-5.886c3.266-.646,6.6-1.276,9.915-1.871l1.06,5.907C2176.283,51.007,2172.983,51.63,2169.752,52.27Zm207.712-2.26c-3.229-.562-6.531-1.108-9.812-1.621l.926-5.927c3.316.517,6.653,1.069,9.918,1.638Zm-188.1-1.26-.955-5.924c3.273-.529,6.617-1.036,9.938-1.512l.85,5.94C2195.914,47.723,2192.605,48.227,2189.366,48.75Zm168.447-1.807c-3.242-.447-6.56-.877-9.864-1.274l.718-5.957c3.337.4,6.691.835,9.966,1.288Zm-148.757-1.01-.744-5.953c3.289-.411,6.65-.8,9.985-1.159l.639,5.967C2215.635,45.141,2212.311,45.526,2209.056,45.933Zm129.008-1.365c-3.312-.34-6.644-.651-9.9-.928l.507-5.978c3.294.279,6.66.594,10.007.937Zm-109.228-.752-.534-5.977c3.3-.293,6.67-.565,10.02-.8l.428,5.984C2235.435,43.256,2232.1,43.524,2228.836,43.816Zm89.407-.932c-3.268-.219-6.61-.417-9.931-.584l.3-5.992c3.356.169,6.732.367,10.034.59Zm-69.568-.487-.322-5.991c3.343-.181,6.722-.333,10.041-.453l.219,6C2255.327,42.068,2251.984,42.219,2248.675,42.4Zm49.7-.51c-3.286-.108-6.625-.189-9.926-.241l.095-6c3.335.053,6.709.136,10.028.245Zm-29.821-.212-.113-6c3.311-.062,6.692-.1,10.052-.1l.009,6C2275.176,41.581,2271.83,41.614,2268.554,41.675Z"/>
  <g>
    <path d="M848.829,3064.238c0-24.68,14.1-43.366,41.015-43.366,27.266,0,40.782,18.686,40.782,43.366,0,25.267-13.516,43.954-40.782,43.954C862.932,3108.192,848.829,3089.505,848.829,3064.238Zm61.935,0c0-17.041-7.639-27.03-20.92-27.03-12.926,0-21.154,9.989-21.154,27.03,0,17.629,8.228,27.618,21.154,27.618C903.125,3091.856,910.764,3081.867,910.764,3064.238Z"/>
    <path d="M999.023,3066.706v39.84h-18.1v-35.021c0-9.638-3.526-12.693-9.519-12.693-6.229,0-10.93,4.7-12.575,10.812v36.9h-18.1v-61.112h18.1V3056.6a23.87,23.87,0,0,1,21.507-12.81C991.854,3043.789,999.023,3051.076,999.023,3066.706Z"/>
    <path d="M1096.68,3075.991c0,18.1-9.049,32.2-25.855,32.2-8.344,0-14.338-3.644-18.216-9.755V3127.7h-18.1v-82.267h18.1v9.167c4-6.581,10.225-10.812,18.216-10.812C1087.631,3043.789,1096.68,3057.892,1096.68,3075.991Zm-18.686,0c0-10.7-3.761-18.451-12.693-18.451-8.579,0-12.692,7.991-12.692,18.451,0,10.694,3.878,18.451,12.692,18.451C1074.233,3094.442,1077.994,3086.685,1077.994,3075.991Z"/>
    <path d="M1146.392,3044.612v17.158c-2.35-.235-5.523-.235-7.521-.235-8.932,0-13.75,4-15.279,11.048v33.963h-18.1v-61.112h18.1v14.691c3.173-8.932,10.578-15.748,19.509-15.748A14.978,14.978,0,0,1,1146.392,3044.612Z"/>
    <path d="M1209.5,3079.869h-41.721c.94,9.284,5.289,15.16,13.75,15.16,7.052,0,9.755-3.761,10.577-8.814H1209.5c-.7,11.4-9.872,21.977-28.324,21.977-20.214,0-31.613-14.1-31.613-32.2s11.4-32.2,31.261-32.2c18.217,0,28.676,11.988,28.676,30.321Zm-41.369-10.225h24.68c-1.175-8.7-5.171-12.809-11.987-12.809C1173.54,3056.835,1169.426,3061.535,1168.133,3069.644Z"/>
    <path d="M1314.449,3067.412v39.134h-18.217v-34.434c0-9.754-2.7-13.28-8.7-13.28-5.642,0-10.225,4.7-11.87,10.812v36.9h-18.1v-34.434c0-9.754-2.82-13.28-8.7-13.28-5.642,0-10.225,4.7-11.87,10.812v36.9h-18.1v-61.112H1237V3056.6c3.76-6.816,10.812-12.81,20.8-12.81,8.932,0,14.926,4.7,17.041,14.456,3.526-7.522,10.93-14.456,21.624-14.456C1307.985,3043.789,1314.449,3051.31,1314.449,3067.412Z"/>
    <path d="M1343.83,3017.229v19.979h-18.216v-19.979Zm-18.216,28.205h18.216v61.112h-18.216Z"/>
    <path d="M1354.288,3063.18c0-12.222,9.989-19.273,26.56-19.273,19.509,0,26.8,10.106,26.8,19.038h-17.275c-.588-3.643-2.939-7.286-10.343-7.286-5.288,0-8.461,1.881-8.461,5.289,0,11.752,37.489,3.173,37.489,27.383,0,13.045-10.341,19.861-27.852,19.861-19.509,0-27.971-10.46-27.971-21.037h17.394c.469,5.876,5.523,8.579,10.929,8.579,5.524,0,9.4-2.232,9.4-6.229C1390.955,3077.754,1354.288,3085.628,1354.288,3063.18Z"/>
    <path d="M1474.748,3079.869h-41.721c.94,9.284,5.289,15.16,13.75,15.16,7.052,0,9.755-3.761,10.577-8.814h17.394c-.705,11.4-9.872,21.977-28.324,21.977-20.213,0-31.613-14.1-31.613-32.2s11.4-32.2,31.261-32.2c18.217,0,28.676,11.988,28.676,30.321Zm-41.368-10.225h24.679c-1.175-8.7-5.171-12.809-11.987-12.809C1438.786,3056.835,1434.672,3061.535,1433.38,3069.644Z"/>
  </g>
  <g>
    <path d="M3339.909,3121.1c-26.325,0-42.073-17.511-42.073-43.6,0-24.915,14.337-43.719,41.838-43.719,24.8,0,37.725,15.161,38.313,33.141h-19.039c-.822-9.4-7.639-16.8-19.509-16.8-13.515,0-21.742,10.224-21.742,27.148,0,17.276,8.345,27.5,21.977,27.5,11.635,0,18.452-7.052,19.391-16.336H3378.1C3377.4,3106.174,3364.354,3121.1,3339.909,3121.1Z"/>
    <path d="M3388.915,3030.137h18.215v89.318h-18.215Z"/>
    <path d="M3416.3,3088.9c0-19.039,12.457-32.2,31.848-32.2,19.274,0,31.849,13.163,31.849,32.2s-12.693,32.2-31.849,32.2C3428.754,3121.1,3416.3,3107.937,3416.3,3088.9Zm45.128,0c0-11.165-4.113-18.451-13.28-18.451-9.284,0-13.28,7.286-13.28,18.451,0,11.635,4,18.451,13.28,18.451C3457.312,3107.35,3461.425,3100.534,3461.425,3088.9Z"/>
    <path d="M3546.629,3058.342v61.113h-18.1v-11.283c-3.761,6.934-10.813,12.928-21.507,12.928-11.518,0-18.686-7.286-18.686-22.917v-39.841h18.216v35.023c0,9.637,3.409,12.692,9.4,12.692,6.228,0,10.929-4.7,12.575-10.812v-36.9Z"/>
    <path d="M3617.61,3030.137v89.318h-18.1v-9.049c-3.995,6.463-10.223,10.694-18.215,10.694-16.806,0-25.738-14.1-25.738-32.2s8.932-32.2,25.738-32.2c8.344,0,14.337,3.643,18.215,9.638v-36.2Zm-18.1,58.762c0-10.695-3.878-18.451-12.692-18.451-8.932,0-12.692,7.756-12.692,18.451s3.76,18.451,12.692,18.451C3595.4,3107.35,3599.511,3099.358,3599.511,3088.9Z"/>
    <path d="M3716.446,3088.9c0,18.1-9.05,32.2-25.738,32.2-8.344,0-14.337-3.643-18.216-9.637v7.992h-18.216v-89.318h18.216v37.255c4-6.464,10.224-10.695,18.216-10.695C3707.4,3056.7,3716.446,3070.8,3716.446,3088.9Zm-18.569,0c0-10.695-3.761-18.451-12.693-18.451-8.579,0-12.692,7.991-12.692,18.451,0,10.694,3.761,18.451,12.692,18.451S3697.877,3099.593,3697.877,3088.9Z"/>
    <path d="M3784.607,3105.234v14.221h-2.35c-9.519,0-16.335-3.056-19.627-8.7-5.288,6.816-12.222,9.4-20.449,9.4-12.692,0-20.331-6.346-20.331-17.158,0-12.106,9.284-18.452,26.325-19.509l12.223-.823V3080.2c0-6.346-1.176-10.342-8.579-10.342-5.524,0-9.4,2.82-9.4,7.874h-17.394c0-12.811,10.694-20.919,26.678-20.919,17.981,0,26.8,6.934,26.8,24.68v18.216c0,4.348,1.175,5.523,4.583,5.523Zm-24.209-7.169v-6.228l-7.874.587c-9.05.588-12.928,2.233-12.928,8.11,0,4.7,3.173,7.4,8.579,7.4A11.989,11.989,0,0,0,3760.4,3098.065Z"/>
    <path d="M3791.306,3076.088c0-12.222,9.99-19.273,26.561-19.273,19.509,0,26.795,10.106,26.795,19.038h-17.276c-.588-3.642-2.938-7.286-10.342-7.286-5.289,0-8.461,1.881-8.461,5.289,0,11.752,37.489,3.173,37.489,27.383,0,13.045-10.342,19.861-27.853,19.861-19.508,0-27.97-10.46-27.97-21.037h17.393c.47,5.876,5.524,8.579,10.93,8.579,5.523,0,9.4-2.232,9.4-6.228C3827.973,3090.662,3791.306,3098.536,3791.306,3076.088Z"/>
    <path d="M3911.766,3092.777h-41.72c.94,9.284,5.289,15.16,13.75,15.16,7.051,0,9.754-3.761,10.577-8.813h17.393c-.7,11.4-9.872,21.976-28.323,21.976-20.214,0-31.613-14.1-31.613-32.2s11.4-32.2,31.26-32.2c18.217,0,28.676,11.988,28.676,30.321Zm-41.368-10.225h24.68c-1.175-8.7-5.171-12.809-11.988-12.809C3875.8,3069.743,3871.691,3074.443,3870.4,3082.552Z"/>
    <path d="M3980.4,3030.137v89.318h-18.1v-9.049c-4,6.463-10.223,10.694-18.215,10.694-16.806,0-25.738-14.1-25.738-32.2s8.932-32.2,25.738-32.2c8.344,0,14.337,3.643,18.215,9.638v-36.2Zm-18.1,58.762c0-10.695-3.878-18.451-12.692-18.451-8.932,0-12.692,7.756-12.692,18.451s3.76,18.451,12.692,18.451C3958.187,3107.35,3962.3,3099.358,3962.3,3088.9Z"/>
  </g>
  <g>
    <g id="a06a4fde-e4e9-44c3-97cc-5055013f35bb" data-name="azure logo">
      <g id="af3f3051-d0d3-4980-83fb-6f5a8876ead4" data-name="layer1-1">
        <path id="faf1abe3-a9aa-48cb-9fd8-bafeea339f24" data-name="path21" class="b42b1a87-d25f-4d76-80b8-f3cfb1a67107" d="M3497.941,1986.277c33.969-6,62.025-10.966,62.347-11.035l.586-.124-32.07-38.146c-17.638-20.98-32.07-38.227-32.07-38.327,0-.188,33.115-91.379,33.3-91.7.062-.108,22.6,38.8,54.628,94.313,29.987,51.974,54.71,94.827,54.939,95.228l.418.73-101.92-.013-101.92-.013Zm-122.316-11.633c0-.053,15.111-26.285,33.58-58.292l33.581-58.2,39.133-32.841c21.524-18.062,39.192-32.863,39.263-32.89a6.857,6.857,0,0,1-.629,1.584c-.417.9-19.539,41.913-42.494,91.144l-41.736,89.513-30.349.038C3389.282,1974.725,3375.625,1974.7,3375.625,1974.644Z"/>
      </g>
    </g>
    <g>
      <g id="eb37be13-2500-4368-bb12-fca9f974304f" data-name="BASE">
        <path class="e8eb1ba1-d319-4d81-b750-751413c5180b" d="M3815.216,1996.825l-52.282-90.555a22.9,22.9,0,0,1,0-22.9l52.282-90.556a22.9,22.9,0,0,1,19.834-11.451h104.565a22.9,22.9,0,0,1,19.834,11.451l52.282,90.556a22.9,22.9,0,0,1,0,22.9l-52.282,90.555a22.9,22.9,0,0,1-19.834,11.451H3835.05A22.9,22.9,0,0,1,3815.216,1996.825Z"/>
      </g>
      <g id="b5343f84-3898-44b2-b7b6-6050616acaff" data-name="shadow">
        <g class="e5d8700c-4216-4f3c-a4f2-4f0d7d21dae8">
          <polygon class="bbe9f6b7-8967-42f5-b912-120058f085f9" points="3997.331 1939.59 3920.444 1862.703 3887.333 1853.842 3857.591 1864.894 3846.107 1894.819 3855.342 1928.138 3936.875 2009.671 3954.178 2008.904 3997.331 1939.59"/>
        </g>
      </g>
      <g id="ae0829ce-80ab-4b69-99c6-799debe74a85" data-name="art">
        <g>
          <path class="e5860003-a141-4674-9f0c-1fa0fb80009b" d="M3887.333,1848.621a46.2,46.2,0,1,0,46.2,46.2,46.2,46.2,0,0,0-46.2-46.2m0,81.249a35.053,35.053,0,1,1,35.053-35.051,35.051,35.051,0,0,1-35.053,35.051"/>
          <path class="e5860003-a141-4674-9f0c-1fa0fb80009b" d="M3865.405,1893.035v14.358a25.476,25.476,0,0,0,8.725,8.913v-23.271Z"/>
          <path class="e5860003-a141-4674-9f0c-1fa0fb80009b" d="M3882.7,1880.93v38.66a23.6,23.6,0,0,0,8.728.061V1880.93Z"/>
          <path class="e5860003-a141-4674-9f0c-1fa0fb80009b" d="M3900.808,1899v17.052a25.467,25.467,0,0,0,8.728-9.361V1899Z"/>
          <path class="e5860003-a141-4674-9f0c-1fa0fb80009b" d="M3920.577,1923.274l-4.786,4.789a2.168,2.168,0,0,0,0,3.062l18.153,18.148a2.167,2.167,0,0,0,3.061,0l4.786-4.783a2.175,2.175,0,0,0,0-3.06l-18.155-18.156a2.17,2.17,0,0,0-3.059,0"/>
        </g>
      </g>
    </g>
    <g>
      <path class="e8111a3d-78d8-4d0c-aa0c-9a12f4c4fc20" d="M4235.535,1951.571l81.565,19.42V1818.213l-81.565,19.421Z"/>
      <path class="afd489fa-e6e2-402d-b018-3ccaca5f4b26" d="M4317.1,1818.213l15.537,7.769v137.241l-15.537,7.768Zm-81.565,133.358-81.566,19.42V1818.213l81.566,19.421Z"/>
      <path class="e8111a3d-78d8-4d0c-aa0c-9a12f4c4fc20" d="M4153.969,1818.213l-15.536,7.769v137.241l15.536,7.768Z"/>
      <path class="afd489fa-e6e2-402d-b018-3ccaca5f4b26" d="M4256.254,2002.064l31.072-15.536V1803.11l-31.072-15.536-9.5,101.852Z"/>
      <path class="e8111a3d-78d8-4d0c-aa0c-9a12f4c4fc20" d="M4214.815,2002.064l-31.072-15.536V1803.11l31.072-15.536,9.5,101.852Z"/>
      <path class="ad0174fd-cca0-451a-8cc7-7ce277c071e6" d="M4214.815,1787.574h41.86v214.057h-41.86Z"/>
    </g>
    <g>
      <path class="ad016240-a363-4179-8ab6-ef745de92afa" d="M2187.337,1791.232h-78.926a9.863,9.863,0,0,0-9.863,9.863h0v41.931l88.789,51.793,44.394,18.734,44.394-18.734v-51.793Z"/>
      <path class="f62164c7-28b3-4f06-836d-99b3d6160352" d="M2098.548,1843.026h88.789v51.793h-88.789Z"/>
      <path class="a5b10d5a-e10c-415c-b56d-a28117d06a59" d="M2266.262,1791.232h-78.925v51.794h88.788V1801.1a9.863,9.863,0,0,0-9.863-9.863Z"/>
      <path class="b293a22a-8911-44f9-8a11-a8d3a417b4be" d="M2187.337,1894.819h-88.789v93.723a9.863,9.863,0,0,0,9.863,9.863h157.851a9.863,9.863,0,0,0,9.863-9.863h0v-41.93Z"/>
      <path class="f62164c7-28b3-4f06-836d-99b3d6160352" d="M2187.337,1894.819h88.788v51.793h-88.788Z"/>
      <path class="ffbd39b4-d531-45dc-b7d6-a4d103a5afec" d="M2162.676,1828.227h-64.128v140.582h64.128a9.893,9.893,0,0,0,9.863-9.863V1838.09A9.894,9.894,0,0,0,2162.676,1828.227Z"/>
      <path class="b0d34849-074c-4428-b146-fdd6d015b1b7" d="M2155.277,1835.627h-56.729v140.581h56.729a9.893,9.893,0,0,0,9.863-9.863V1845.489A9.893,9.893,0,0,0,2155.277,1835.627Z"/>
      <path class="b0d34849-074c-4428-b146-fdd6d015b1b7" d="M2155.277,1835.627h-56.729V1961.41h56.729a9.893,9.893,0,0,0,9.863-9.863V1845.489A9.893,9.893,0,0,0,2155.277,1835.627Z"/>
      <path class="b0d34849-074c-4428-b146-fdd6d015b1b7" d="M2147.878,1835.627h-49.33V1961.41h49.33a9.893,9.893,0,0,0,9.863-9.863V1845.489A9.893,9.893,0,0,0,2147.878,1835.627Z"/>
      <path class="f62164c7-28b3-4f06-836d-99b3d6160352" d="M2049.219,1835.627h98.659a9.862,9.862,0,0,1,9.863,9.862h0v98.659a9.863,9.863,0,0,1-9.863,9.863h-98.659a9.863,9.863,0,0,1-9.863-9.863h0v-98.659a9.862,9.862,0,0,1,9.863-9.862Z"/>
      <path class="e5860003-a141-4674-9f0c-1fa0fb80009b" d="M2065.5,1931.814l23.943-37.1-21.931-36.891h17.647l11.972,23.58q1.65,3.352,2.271,5h.156q1.184-2.679,2.478-5.209l12.793-23.373h16.2l-22.493,36.684,23.062,37.306h-17.239l-13.829-25.9a21.575,21.575,0,0,1-1.65-3.462h-.207a16.309,16.309,0,0,1-1.6,3.351l-14.228,26.008Z"/>
      <path class="ab4ae931-79fe-44fe-ab7c-98d401774cdc" d="M2039.356,1776.434h236.769V2013.2H2039.356Z"/>
    </g>
    <path class="bac681da-aecb-410b-97d7-867616621542" d="M1122.753,1911.565h56.528l-29.89-48.087-54.858,86.944h-24.965l66.724-104.44a15.765,15.765,0,0,1,13.1-6.768,15.472,15.472,0,0,1,12.835,6.593l66.989,104.615h-24.966l-11.779-19.428h-57.231l-12.484-19.429Zm259.341,19.427v-90.724h-21.186v99.605a10.383,10.383,0,0,0,3.076,7.385,10.825,10.825,0,0,0,7.735,3.164h96.616l12.484-19.428h-98.727Zm-350.506-16.264a37.231,37.231,0,1,0,0-74.462H938.9v110.158h21.179V1859.7h70.1a17.846,17.846,0,0,1,0,35.692l-59.727-.087,63.242,55.121h30.77l-42.549-35.692h9.671Zm-223.057,35.694a55.076,55.076,0,1,1,0-110.152h64.026a55.076,55.076,0,1,1,0,110.152Zm62.6-19.428a35.648,35.648,0,1,0,0-71.3H809.948a35.648,35.648,0,1,0,0,71.3h61.187Zm402.3,19.428a55.076,55.076,0,1,1,0-110.152h76.046l-12.4,19.428h-62.241a35.648,35.648,0,1,0,0,71.3h76.395l-12.485,19.428Zm259.078-19.428a35.6,35.6,0,0,1-34.285-25.935h90.548l12.483-19.428H1498.228a35.7,35.7,0,0,1,34.285-25.933h62.155l12.567-19.432H1531.1a55.078,55.078,0,1,0,0,110.155h65.32l12.482-19.427h-76.393Z"/>
    <g>
      <path class="a718f10a-d746-44e4-8885-81b636e28c1d" d="M332.243,1865.358c-.153.407-.2,6.462-.153,13.433l.153,12.72,2.8-.1c12.517-.306,16.944-2.036,19.59-7.531,2.849-6,.763-13.637-4.529-16.384-2.748-1.425-6.208-2.188-11.856-2.493-4.681-.306-5.749-.2-6,.356Zm-74.8,15.315a18.836,18.836,0,0,1-1.017,3.46c-.356.967-1.069,3.155-1.527,4.834a41.189,41.189,0,0,1-1.577,4.682,7.4,7.4,0,0,0-.712,2.289,36.067,36.067,0,0,1-1.476,4.834,50.808,50.808,0,0,0-1.832,6.157c-.305,1.883-.254,2.035,1.374,2.7,1.17.509,3.765.712,8.294.712,5.546,0,6.92-.153,8.039-.916,1.476-.967,1.476-1.781.1-5.19a68.383,68.383,0,0,1-2.544-8.243,4.1,4.1,0,0,0-.814-1.933,2.481,2.481,0,0,1-.458-1.629,9.135,9.135,0,0,0-.662-2.849c-.407-.916-1.068-2.9-1.526-4.427s-1.018-3.511-1.272-4.325c-.611-2.188-1.985-2.239-2.392-.153Z"/>
      <path class="a718f10a-d746-44e4-8885-81b636e28c1d" d="M439,1847.559l.339-.07c3.268-3.43,8.295-8.528,15.482-15.714,11.347-11.347,20.658-20.811,20.658-21.065,0-.2-76.833-.357-170.712-.357H134.055v168.931H307.463l14.553-14.6c7.937-8.09,14.807-15.011,15.214-15.418,9.941-10.265,78.5-78.346,91.271-90.687Zm-66.813,59.217c-7.836,6.055-15.672,8.345-29.766,8.7-5.038.1-9.465.2-9.77.2-.509,0-.661,3.46-.661,15.723,0,11.7-.153,15.875-.611,16.129-.967.611-49.814.255-50.577-.356a4.041,4.041,0,0,1-.865-1.882,45.6,45.6,0,0,0-1.527-4.936c-.712-1.985-1.425-4.274-1.628-5.19-.153-.865-.611-1.73-.967-1.832a13.731,13.731,0,0,0-4.172.56c-5.19,1.272-20.862,1.221-26.358-.1-3.256-.763-4.07-.814-4.426-.254-.2.356-1.12,3-1.985,5.8-2.035,6.462-2.849,8.4-3.663,8.447-.662.051-29.309,0-30.123-.051-.611,0,.1-3.46,1.018-4.885.966-1.425.051-2.188-1.222-1.068-1.221,1.119-8.751,4.833-11.652,5.749a79.433,79.433,0,0,1-16.842,2.239,87.282,87.282,0,0,1-17.4-1.882c-8.039-1.934-20.607-7.073-21.218-8.651-.153-.305,1.577-4.223,3.765-8.65,4.224-8.446,6.513-12.364,7.175-12.364a38.747,38.747,0,0,1,4.681,2.188,54.605,54.605,0,0,0,11.7,4.528,45.244,45.244,0,0,0,9.413.662c7.989-.051,9.872-.56,12.518-3.46,1.221-1.323,1.475-2.035,1.475-4.223,0-2.392-.152-2.8-1.933-4.376a16.049,16.049,0,0,0-3.664-2.392c-.967-.356-2.34-.916-3.053-1.272a36.786,36.786,0,0,0-4.325-1.577c-21.472-6.31-32.514-13.79-36.534-24.678-1.984-5.343-1.933-14.2.051-20.1,2.188-6.462,5.852-11.042,12.11-15.316a45.587,45.587,0,0,1,16.232-6.818c5.343-1.221,18.521-1.323,24.932-.255h0a90.157,90.157,0,0,1,24.679,7.378c1.628.763,1.017,2.645-3.766,10.888-2.7,4.631-4.884,8.651-4.884,8.854a3,3,0,0,1-.967,1.323c-1.069.967-1.832.865-5.394-.712a51.976,51.976,0,0,0-17-4.631c-7.836-.865-14.094.458-16.842,3.664-3.562,4.07,2.188,8.955,16.283,13.687,14.043,4.732,19.488,7.226,24.983,11.5,4.071,3.155,8.6,9.006,8.6,11.194a2.92,2.92,0,0,0,.967,1.425c.916.865.967.814,1.323-.814a23.419,23.419,0,0,1,1.018-3.206c.661-1.476,1.526-3.765,3-7.785,1.119-3,2.442-6.31,3.154-8.09a7.6,7.6,0,0,0,.713-2.341,1.517,1.517,0,0,1,.458-1.119,3.849,3.849,0,0,0,.814-1.832,14.116,14.116,0,0,1,1.068-2.9,5.983,5.983,0,0,0,.713-2.187,2.274,2.274,0,0,1,.458-1.273,16.767,16.767,0,0,0,1.272-3.256c.509-1.527,1.17-3.511,1.526-4.325.356-.865,1.171-2.9,1.781-4.58.662-1.679,1.476-3.918,1.883-4.986.407-1.018,1.017-2.748,1.425-3.816,1.323-3.613,2.238-5.954,3.256-8.5l1.069-2.544,14.756-.152,14.756-.1.966,1.882a41.733,41.733,0,0,1,2.036,4.987c.61,1.679,1.577,4.325,2.137,5.851a44.13,44.13,0,0,1,1.475,4.325,12.167,12.167,0,0,0,.967,2.545,38.929,38.929,0,0,1,1.679,4.325c1.832,5.495,2.493,7.327,2.951,8.395.713,1.679,1.883,4.783,3.613,9.668.916,2.493,2.137,5.953,2.8,7.632,1.475,3.715,2.442,6.513,4.07,11.246a36.728,36.728,0,0,0,1.73,4.579c.255.56.967,2.391,1.527,4.122a28.291,28.291,0,0,0,2.086,4.833l1.018,1.68.1-37.908.153-37.908h22.134c22.846.051,27.273.356,34.855,2.493,3.154.865,8.9,3.308,9.973,4.224a2.678,2.678,0,0,0,1.323.661c1.119,0,7.785,7.327,9.311,10.228,3.206,6.207,3.766,8.955,3.816,18.775,0,10.279-.712,13.383-4.375,19.59A24.468,24.468,0,0,1,372.186,1906.776Z"/>
    </g>
    <path class="a718f10a-d746-44e4-8885-81b636e28c1d" d="M346.8,1885.352a7.076,7.076,0,1,1-7.01-6.885A6.935,6.935,0,0,1,346.8,1885.352Zm-12.383,0a5.358,5.358,0,0,0,5.373,5.5,5.271,5.271,0,0,0,5.248-5.457,5.315,5.315,0,1,0-10.621-.041Zm4.24,3.569h-1.595v-6.885a18.59,18.59,0,0,1,2.644-.211,3.662,3.662,0,0,1,2.351.547,1.73,1.73,0,0,1,.714,1.468,1.777,1.777,0,0,1-1.428,1.637v.084c.672.211,1.008.756,1.218,1.68a6.155,6.155,0,0,0,.5,1.68h-1.68a5.418,5.418,0,0,1-.545-1.68c-.126-.713-.546-1.049-1.427-1.049h-.756Zm.042-3.864h.756c.881,0,1.594-.293,1.594-1.006,0-.63-.461-1.05-1.468-1.05a3.88,3.88,0,0,0-.882.084Z"/>
    <g>
      <g>
        <path d="M2778.286,2012.182c-14.246,0-22.835-10.319-22.835-24.633,0-13.913,8.189-24.565,22.768-24.565,12.65,0,19.507,7.989,20.172,17.176H2792c-.6-6.457-5.66-11.651-13.981-11.651-10.053,0-15.911,7.789-15.911,18.974,0,11.385,5.858,19.174,15.978,19.174,8.254,0,13.314-4.993,14.113-11.318h6.458C2797.793,2004.46,2790.669,2012.182,2778.286,2012.182Z"/>
        <path d="M2835.069,1976.765v34.618h-6.125v-6.723a14.117,14.117,0,0,1-12.449,7.522c-6.724,0-10.985-3.8-10.985-12.981v-22.436h6.192v20.971c0,6.99,2.663,9.254,7.257,9.254,5.126,0,8.854-4.062,9.985-8.122v-22.1Z"/>
        <path d="M2842.92,1985.952c0-6.324,5.326-9.853,13.381-9.853,10.252,0,13.648,5.726,13.648,10.119h-5.925c-.333-3.062-2.53-5.326-7.989-5.326-3.994,0-7.123,1.2-7.123,4.395,0,8.454,21.969,3.261,21.969,16.643,0,6.591-5.592,10.252-14.047,10.252-10.385,0-15.245-5.792-15.245-11.783h5.924c.333,5.658,5.593,6.99,9.321,6.99,4.128,0,8.055-1.6,8.055-5.193C2864.889,1993.741,2842.92,1998.868,2842.92,1985.952Z"/>
        <path d="M2887.654,1981.558v19.64c0,4.393,1.864,5.724,5.726,5.724a24.856,24.856,0,0,0,5.392-.665v4.661a33.548,33.548,0,0,1-6.924.8c-6.924,0-10.385-2.729-10.385-9.986v-20.172h-7.922v-4.793h7.922v-12.982h6.191v12.982h11.784v4.793Z"/>
        <path d="M2902.765,1994.074c0-10.585,6.391-18.108,16.843-18.108s16.776,7.523,16.776,18.108c0,10.518-6.59,18.108-16.776,18.108C2909.156,2012.182,2902.765,2004.592,2902.765,1994.074Zm27.362,0c0-7.723-3.395-13.315-10.519-13.315-7.189,0-10.585,5.592-10.585,13.315,0,7.789,3.4,13.315,10.585,13.315C2926.732,2007.389,2930.127,2001.863,2930.127,1994.074Z"/>
        <path d="M2993.5,1989.813v21.57h-6.192v-20.3c0-7.124-2.131-9.987-6.657-9.987-4.66,0-8.389,4.127-9.454,8.189v22.1h-6.125v-20.3c0-7.124-2.13-9.987-6.724-9.987-4.66,0-8.321,4.127-9.386,8.189v22.1h-6.192v-34.618h6.192v6.724a13.523,13.523,0,0,1,11.849-7.523c5.326,0,8.722,2.6,9.92,8.522,1.931-4.395,6.324-8.522,12.383-8.522C2989.839,1975.966,2993.5,1980.093,2993.5,1989.813Z"/>
      </g>
      <path d="M2851.207,1775.105a1.993,1.993,0,0,1,2,2v45.028a1.992,1.992,0,0,1-2,2l-45.036.009a1.992,1.992,0,0,1-2-2v-45.036a1.992,1.992,0,0,1,2-2h45.036m0-10.031h-45.036a11.981,11.981,0,0,0-12.034,12.034v45.027a11.981,11.981,0,0,0,12.034,12.034H2851.2a11.981,11.981,0,0,0,12.034-12.034l.009-45.027a12.127,12.127,0,0,0-12.034-12.034Zm84.709,69.105H2890.88a11.982,11.982,0,0,1-12.034-12.034v-45.037a11.982,11.982,0,0,1,12.034-12.034h45.027a11.982,11.982,0,0,1,12.035,12.034v45.028a11.971,11.971,0,0,1-12.026,12.042Zm-84.709,25.635a1.993,1.993,0,0,1,2,2v45.028a1.992,1.992,0,0,1-2,2l-45.036.009a1.992,1.992,0,0,1-2-2v-45.036a1.992,1.992,0,0,1,2-2h45.036m0-9.805h-45.036a11.982,11.982,0,0,0-12.034,12.034v45.028a11.982,11.982,0,0,0,12.034,12.034H2851.2a11.982,11.982,0,0,0,12.034-12.034l.009-45.255a11.935,11.935,0,0,0-12.034-11.808Zm84.709,9.805a1.992,1.992,0,0,1,2,2v45.027a1.992,1.992,0,0,1-2,2l-45.036.009a1.992,1.992,0,0,1-2-2v-45.036a1.992,1.992,0,0,1,2-2h45.036m0-9.805H2890.88a11.982,11.982,0,0,0-12.034,12.034v45.028a11.982,11.982,0,0,0,12.034,12.034h45.027a11.982,11.982,0,0,0,12.035-12.034l.008-45.255a11.935,11.935,0,0,0-12.034-11.808Z"/>
    </g>
  </g>
  <line class="e8e26e60-6f94-4f77-8595-616de3bee474" x1="268.693" y1="1687.463" x2="268.693" y2="1591.691"/>
  <line class="e8e26e60-6f94-4f77-8595-616de3bee474" x1="1189.167" y1="1687.463" x2="1189.167" y2="1591.691"/>
  <line class="e8e26e60-6f94-4f77-8595-616de3bee474" x1="2197.431" y1="1687.463" x2="2197.431" y2="1591.691"/>
  <line class="e8e26e60-6f94-4f77-8595-616de3bee474" x1="2871.159" y1="1687.463" x2="2871.159" y2="1591.691"/>
  <line class="e8e26e60-6f94-4f77-8595-616de3bee474" x1="3950.588" y1="1687.463" x2="3950.588" y2="1591.691"/>
  <line class="e8e26e60-6f94-4f77-8595-616de3bee474" x1="266.222" y1="1593.537" x2="3950.588" y2="1593.537"/>
  <line class="e8e26e60-6f94-4f77-8595-616de3bee474" x1="2197.431" y1="1327.171" x2="2197.431" y2="1148.174"/>
  <path d="M3812.07,2628.649l-66.035-38.139a25.88,25.88,0,0,0-25.776,0l-66.045,38.139a25.839,25.839,0,0,0-12.893,22.327v76.251a25.8,25.8,0,0,0,12.893,22.319l66.035,38.128a25.911,25.911,0,0,0,25.786-.009l66.035-38.122a25.839,25.839,0,0,0,12.893-22.327v-76.251a25.846,25.846,0,0,0-12.893-22.319Zm.994,98.569a13.928,13.928,0,0,1-6.943,12.019l-66.035,38.122a13.864,13.864,0,0,1-13.878,0l-66.035-38.129a13.908,13.908,0,0,1-6.944-12.019V2650.96a13.929,13.929,0,0,1,6.944-12.019l66.035-38.122a13.938,13.938,0,0,1,13.878,0l66.035,38.129a13.91,13.91,0,0,1,6.944,12.019l-.01,76.251Z"/>
  <g>
    <g>
      <rect class="e5860003-a141-4674-9f0c-1fa0fb80009b" x="1686.586" y="1316.06" width="1011.594" height="305.214"/>
      <path d="M2696.179,1318.06v301.214H1688.585V1318.06H2696.179m4-4H1684.585v309.214H2700.179V1314.06Z"/>
    </g>
    <g>
      <g>
        <path d="M2052.625,1477.671h-11.283v30.555H2022.3V1424.2h30.557c21.389,0,32.671,9.637,32.671,26.8,0,10.459-5.288,18.8-14.691,23.151l17.747,34.082h-20.8Zm-11.283-14.574h11.047c8.462,0,14.574-3.173,14.574-11.752,0-7.992-6.112-10.812-15.279-10.812h-10.342Z"/>
        <path d="M2153.106,1481.548h-41.721c.941,9.285,5.289,15.161,13.75,15.161,7.052,0,9.755-3.761,10.578-8.814h17.393c-.705,11.4-9.872,21.977-28.323,21.977-20.214,0-31.613-14.1-31.613-32.2s11.4-32.2,31.26-32.2c18.217,0,28.676,11.989,28.676,30.322Zm-41.368-10.224h24.68c-1.175-8.7-5.171-12.81-11.988-12.81C2117.144,1458.514,2113.031,1463.214,2111.738,1471.324Z"/>
        <path d="M2161.1,1464.86c0-12.223,9.99-19.273,26.561-19.273,19.509,0,26.8,10.106,26.8,19.038h-17.276c-.588-3.643-2.938-7.287-10.342-7.287-5.288,0-8.461,1.881-8.461,5.29,0,11.751,37.489,3.172,37.489,27.382,0,13.045-10.342,19.862-27.853,19.862-19.508,0-27.97-10.46-27.97-21.037h17.393c.47,5.876,5.524,8.579,10.93,8.579,5.523,0,9.4-2.233,9.4-6.229C2197.764,1479.433,2161.1,1487.307,2161.1,1464.86Z"/>
        <path d="M2249.356,1460.864v24.562c0,6.935,2.468,9.638,8.344,9.638a31.318,31.318,0,0,0,8.462-1.176v13.281a65.686,65.686,0,0,1-13.986,1.645c-13.985,0-21.036-6.111-21.036-21.742v-26.208h-11.987v-13.75h11.987V1424.2h18.216v22.917h17.982v13.75Z"/>
        <path d="M2348.425,1489.658h-27.618l-5.288,18.568H2296.48l25.385-84.029h25.5l26.325,84.029h-19.979Zm-4.113-14.221-9.755-34.082-9.754,34.082Z"/>
        <path d="M2449.729,1451.932c0,16.806-10.812,27.736-31.967,27.736h-14.807v28.558h-19.039V1424.2h33.846C2438.917,1424.2,2449.729,1435.127,2449.729,1451.932Zm-18.686.236c0-8.344-5.407-11.635-14.808-11.635h-13.28v23.739h13.28C2425.636,1464.272,2431.043,1460.511,2431.043,1452.168Z"/>
        <path d="M2461.009,1424.2h19.039v84.029h-19.039Z"/>
        <path d="M2493.092,1460.159l2.7-35.962h17.98l-8.461,35.962Z"/>
        <path d="M2516.831,1464.86c0-12.223,9.989-19.273,26.56-19.273,19.509,0,26.8,10.106,26.8,19.038h-17.275c-.588-3.643-2.939-7.287-10.343-7.287-5.288,0-8.461,1.881-8.461,5.29,0,11.751,37.489,3.172,37.489,27.382,0,13.045-10.341,19.862-27.852,19.862-19.509,0-27.971-10.46-27.971-21.037h17.394c.469,5.876,5.523,8.579,10.929,8.579,5.524,0,9.4-2.233,9.4-6.229C2553.5,1479.433,2516.831,1487.307,2516.831,1464.86Z"/>
      </g>
      <path d="M1913.952,1451.652a14.56,14.56,0,0,0-14.1,11.474h-56.606a27.931,27.931,0,0,0-3.54-10.737L1875,1426.105a14.533,14.533,0,0,0,9.421,3.644,14.882,14.882,0,1,0-13.482-8.837l-35.128,26.162a28.226,28.226,0,1,0,0,38.691l35.128,26.162a15.71,15.71,0,1,0,4.062-5.192l-35.294-26.285a27.975,27.975,0,0,0,3.539-10.736h56.607a14.556,14.556,0,0,0,14.1,11.474,14.768,14.768,0,0,0,0-29.536Z"/>
    </g>
  </g>
  <g>
    <path d="M3716.482,2698.913h-11.331l-2.17,7.618h-7.811l10.415-34.476h10.463l10.8,34.476h-8.2Zm-1.687-5.835-4-13.983-4,13.983Z"/>
    <path d="M3758.047,2683.434c0,6.9-4.437,11.38-13.116,11.38h-6.076v11.717h-7.81v-34.476h13.886C3753.61,2672.055,3758.047,2676.54,3758.047,2683.434Zm-7.667.1c0-3.424-2.218-4.774-6.076-4.774h-5.449v9.741h5.449C3748.162,2688.5,3750.38,2686.955,3750.38,2683.531Z"/>
    <path d="M3762.675,2672.055h7.811v34.476h-7.811Z"/>
  </g>
  <path d="M3608.78,2627.284l-66.035-38.138a25.88,25.88,0,0,0-25.776,0l-66.044,38.138a25.84,25.84,0,0,0-12.893,22.328v76.251a25.792,25.792,0,0,0,12.893,22.318l66.035,38.129a25.915,25.915,0,0,0,25.785-.009l66.035-38.122a25.838,25.838,0,0,0,12.893-22.328V2649.6a25.844,25.844,0,0,0-12.893-22.319Zm.995,98.57a13.929,13.929,0,0,1-6.944,12.019L3536.8,2776a13.864,13.864,0,0,1-13.878,0l-66.035-38.129a13.91,13.91,0,0,1-6.944-12.019V2649.6a13.928,13.928,0,0,1,6.944-12.019l66.035-38.122a13.938,13.938,0,0,1,13.878,0l66.035,38.129a13.907,13.907,0,0,1,6.944,12.019l-.009,76.251Z"/>
  <g>
    <path d="M3513.193,2697.548h-11.331l-2.17,7.619h-7.812l10.416-34.476h10.463l10.8,34.476h-8.2Zm-1.688-5.835-4-13.982-4,13.982Z"/>
    <path d="M3554.757,2682.07c0,6.895-4.436,11.38-13.115,11.38h-6.076v11.717h-7.811v-34.476h13.887C3550.321,2670.691,3554.757,2675.175,3554.757,2682.07Zm-7.667.1c0-3.423-2.217-4.774-6.075-4.774h-5.449v9.74h5.449C3544.873,2687.133,3547.09,2685.59,3547.09,2682.167Z"/>
    <path d="M3559.386,2670.691h7.811v34.476h-7.811Z"/>
  </g>
  <path d="M3705.65,2801.922l-66.035-38.138a25.88,25.88,0,0,0-25.776,0l-66.045,38.138a25.842,25.842,0,0,0-12.893,22.328V2900.5a25.792,25.792,0,0,0,12.893,22.318l66.035,38.129a25.917,25.917,0,0,0,25.786-.009l66.035-38.122a25.841,25.841,0,0,0,12.893-22.328v-76.251a25.843,25.843,0,0,0-12.893-22.318Zm.995,98.57a13.929,13.929,0,0,1-6.944,12.019l-66.035,38.122a13.864,13.864,0,0,1-13.878,0l-66.035-38.129a13.909,13.909,0,0,1-6.944-12.02v-76.25a13.928,13.928,0,0,1,6.944-12.019l66.035-38.122a13.938,13.938,0,0,1,13.878,0l66.035,38.129a13.909,13.909,0,0,1,6.944,12.019l-.01,76.251Z"/>
  <g>
    <path d="M3610.063,2872.186h-11.331l-2.17,7.618h-7.811l10.415-34.475h10.464l10.8,34.475h-8.2Zm-1.687-5.835-4-13.982-4,13.982Z"/>
    <path d="M3651.628,2856.708c0,6.895-4.437,11.379-13.116,11.379h-6.076V2879.8h-7.81v-34.475h13.886C3647.191,2845.329,3651.628,2849.813,3651.628,2856.708Zm-7.667.1c0-3.424-2.218-4.773-6.076-4.773h-5.449v9.74h5.449C3641.743,2861.771,3643.961,2860.228,3643.961,2856.8Z"/>
    <path d="M3656.256,2845.329h7.811V2879.8h-7.811Z"/>
  </g>
  <path d="M803,2685.239a7.334,7.334,0,0,0-7.344-7.344H604.7a7.342,7.342,0,0,0-7.344,7.344v44.066a7.334,7.334,0,0,0,7.344,7.344H795.651a7.334,7.334,0,0,0,7.344-7.344Zm-22.033,29.377H758.93a7.344,7.344,0,1,1,0-14.688h22.032a7.344,7.344,0,1,1,0,14.688Zm14.689,36.722H604.7a7.342,7.342,0,0,0-7.344,7.344v44.066a7.334,7.334,0,0,0,7.344,7.344H795.651a7.334,7.334,0,0,0,7.344-7.344v-44.066a7.334,7.334,0,0,0-7.344-7.344Zm-14.689,36.721H758.93a7.344,7.344,0,1,1,0-14.688h22.032a7.344,7.344,0,1,1,0,14.688Zm29.378,110.165H707.519v-14.689h88.132a7.334,7.334,0,0,0,7.344-7.344v-44.066a7.334,7.334,0,0,0-7.344-7.344H604.7a7.342,7.342,0,0,0-7.344,7.344v44.066a7.334,7.334,0,0,0,7.344,7.344h88.132v14.689H590.011a7.344,7.344,0,1,0,0,14.688H810.339a7.344,7.344,0,1,0,0-14.688Zm-51.41-51.41h22.032a7.344,7.344,0,1,1,0,14.688H758.93a7.344,7.344,0,1,1,0-14.688Z"/>
  <g>
    <path d="M948.185,2768.3v-98.044a4.821,4.821,0,0,1,4.818-4.817h121.4a4.789,4.789,0,0,1,3.4,1.407l50.415,50.414a4.794,4.794,0,0,1,1.407,3.4v190.129a4.821,4.821,0,0,1-4.818,4.817H952.981a4.821,4.821,0,0,1-4.818-4.817V2867.76H906.5a4.822,4.822,0,0,1-4.818-4.818v-89.856a4.822,4.822,0,0,1,4.818-4.818h41.668Zm131.036-86.416.1,36.655h36.557Zm40.791,46.282h-45.471a4.829,4.829,0,0,1-4.789-4.818l-.127-48.275H957.812V2768.3H1055.3a4.82,4.82,0,0,1,4.817,4.818v89.855a4.821,4.821,0,0,1-4.817,4.818H957.812V2906h162.2Zm-69.53,49.771H911.335v80.229h139.147Z"/>
    <path d="M924.724,2839.273l14.659-22.144-13.3-20.336h10.026l8.365,12.655,8.355-12.655h10.036l-13.329,20.336,14.639,22.144h-10.3l-9.411-14.385-9.43,14.385Z"/>
    <path d="M968.824,2839.273v-42.119h8.609v34.937h21.284v7.182Z"/>
    <path d="M1002.569,2825.514l8.366-.831a10.144,10.144,0,0,0,3.049,6.166,9.215,9.215,0,0,0,6.195,1.964c2.747,0,4.828-.576,6.225-1.749a5.221,5.221,0,0,0,2.1-4.094,3.94,3.94,0,0,0-.879-2.57,7.152,7.152,0,0,0-3.078-1.828c-1-.352-3.274-.967-6.831-1.866q-6.875-1.716-9.646-4.212a11.257,11.257,0,0,1-2.062-14.659,11.472,11.472,0,0,1,5.287-4.309,21.123,21.123,0,0,1,8.346-1.486q7.959,0,11.99,3.548a12.542,12.542,0,0,1,4.232,9.449l-8.6.294a7.288,7.288,0,0,0-2.345-4.72,8.448,8.448,0,0,0-5.385-1.447,9.568,9.568,0,0,0-5.8,1.544,3.14,3.14,0,0,0-1.359,2.649,3.267,3.267,0,0,0,1.271,2.579q1.626,1.378,7.866,2.854a42.207,42.207,0,0,1,9.216,3.049,11.959,11.959,0,0,1,4.69,4.329,13.387,13.387,0,0,1-.342,13.613,12.076,12.076,0,0,1-5.736,4.739,23.983,23.983,0,0,1-9.235,1.554q-8.048,0-12.372-3.714t-5.15-10.817Z"/>
  </g>
  <g>
    <path class="b87a2a29-29ec-4d66-943e-c1f6f5da4eff" d="M1766.123,2808.912v-68.206l-73.625-75.16H1582.687v143.366"/>
    <path class="b87a2a29-29ec-4d66-943e-c1f6f5da4eff" d="M1582.687,2889.077v27.684h183.434v-27.684"/>
    <path class="b87a2a29-29ec-4d66-943e-c1f6f5da4eff" d="M1692.5,2665.545v73.635h73.625"/>
    <path class="b87a2a29-29ec-4d66-943e-c1f6f5da4eff" d="M1561.987,2808.912h224.845v80.165H1561.987Z"/>
    <path d="M1623.533,2851.144a18.125,18.125,0,0,1,18.993-18.537,16.319,16.319,0,0,1,14.9,8.713l-6.51,3.295a9.7,9.7,0,0,0-8.389-5.176,11.707,11.707,0,0,0,0,23.39,9.592,9.592,0,0,0,8.389-5.105l6.51,3.164v.01a16.441,16.441,0,0,1-14.9,8.743,18.123,18.123,0,0,1-18.993-18.5Z"/>
    <path d="M1659.586,2863.909l4.144-5.782a15.673,15.673,0,0,0,11.331,4.822c4.175,0,6.206-1.931,6.206-3.973,0-6.307-20.529-1.961-20.529-15.374,0-5.933,5.024-10.855,13.515-10.855v.01a19.757,19.757,0,0,1,13.9,5.023l-4.326,5.5a15.341,15.341,0,0,0-10.3-3.892c-3.265,0-5.024,1.436-5.024,3.568,0,5.681,20.448,1.881,20.448,15.071,0,6.53-4.65,11.432-14.272,11.432a20.21,20.21,0,0,1-15.091-5.549Z"/>
    <path d="M1704.051,2868.934l-13.8-35.649h8.642l9.9,27.413,9.824-27.413h8.673l-13.747,35.649Z"/>
  </g>
  <g>
    <path d="M1408.1,2860.157h-16.016a5.336,5.336,0,1,0,0,10.671H1408.1a5.336,5.336,0,0,0,0-10.671Z"/>
    <path d="M1239.934,2886.844a16.037,16.037,0,0,0,16.016,16.016h8.008v18.689h24.875l8.008-18.689h105.077l8.008,18.689h24.865V2902.86h8.008a16.037,16.037,0,0,0,16.016-16.016V2681.306a16.037,16.037,0,0,0-16.016-16.016H1255.95a16.031,16.031,0,0,0-16.016,16.016Zm208.21-50.711a5.339,5.339,0,0,1-5.335,5.335h-88.1V2793.42H1442.8a5.339,5.339,0,0,1,5.335,5.335Zm0-96.1V2777.4a5.34,5.34,0,0,1-5.335,5.336h-88.1V2734.69H1442.8a5.357,5.357,0,0,1,5.345,5.345Zm-104.105,42.7H1255.95a5.34,5.34,0,0,1-5.335-5.336l-.01-37.367a5.34,5.34,0,0,1,5.335-5.336h88.089Zm-93.435,16.016a5.34,5.34,0,0,1,5.336-5.335h88.089v48.048H1255.95a5.339,5.339,0,0,1-5.335-5.335Zm197.54-117.449v37.368a5.339,5.339,0,0,1-5.335,5.335l-88.1.01v-48.048H1442.8a5.348,5.348,0,0,1,5.345,5.335Zm-197.54,0a5.34,5.34,0,0,1,5.336-5.335h88.089v48.048H1255.95a5.339,5.339,0,0,1-5.335-5.335Zm31.192,229.562h-7.167v-8.008h10.591Zm-25.846-18.679a5.339,5.339,0,0,1-5.335-5.335l-.01-35.646a15.964,15.964,0,0,0,5.335.931h88.089v40.041Zm168.17,18.679h-7.157l-3.434-8.008h10.591Zm-69.41-18.679v-40.04H1442.8a15.989,15.989,0,0,0,5.335-.931l.01,35.625a5.339,5.339,0,0,1-5.335,5.335Z"/>
    <path d="M1304,2860.157h-16.017a5.336,5.336,0,0,0,0,10.671H1304a5.336,5.336,0,0,0,0-10.671Z"/>
    <path d="M1408.1,2801.428h-16.016a5.335,5.335,0,1,0,0,10.67H1408.1a5.335,5.335,0,1,0,0-10.67Z"/>
    <path d="M1287.982,2812.108H1304a5.335,5.335,0,0,0,0-10.67h-16.017a5.335,5.335,0,0,0,0,10.67Z"/>
    <path d="M1392.088,2753.379H1408.1a5.336,5.336,0,0,0,0-10.671h-16.016a5.336,5.336,0,1,0,0,10.671Z"/>
    <path d="M1287.982,2753.379H1304a5.336,5.336,0,0,0,0-10.671h-16.017a5.336,5.336,0,0,0,0,10.671Z"/>
    <path d="M1392.088,2694.65H1408.1a5.336,5.336,0,0,0,0-10.671h-16.016a5.336,5.336,0,1,0,0,10.671Z"/>
    <path d="M1287.982,2694.65H1304a5.336,5.336,0,0,0,0-10.671h-16.017a5.336,5.336,0,0,0,0,10.671Z"/>
  </g>
  <polyline class="b069a405-64cc-4d7a-8887-3a839937711a" points="1169.214 2475.435 1169.214 2249.308 263.373 2249.308 263.373 2105.65"/>
  <polyline class="b069a405-64cc-4d7a-8887-3a839937711a" points="1169.214 2120.947 1169.214 2249.308 2159.854 2249.308 2862.181 2249.308 2862.181 2114.961"/>
  <line class="b069a405-64cc-4d7a-8887-3a839937711a" x1="2159.854" y1="2249.308" x2="2159.854" y2="2116.956"/>
  <polyline class="b069a405-64cc-4d7a-8887-3a839937711a" points="3620.707 2470.115 3620.042 2253.298 3893.39 2253.963 3894.721 2124.937"/>
  <polyline class="b069a405-64cc-4d7a-8887-3a839937711a" points="3894.721 2250.638 4248.544 2250.638 4248.544 2121.944"/>
  <polyline class="b069a405-64cc-4d7a-8887-3a839937711a" points="3614.056 2251.968 3488.202 2251.968 2902.418 2251.968 2902.418 2116.291"/>
  <line class="b069a405-64cc-4d7a-8887-3a839937711a" x1="3493.676" y1="2116.956" x2="3493.676" y2="2233.346"/>
  <g>
    <g>
      <path d="M2053.531,844.86h15.3v67.533h-15.3Z"/>
      <path d="M2127.105,880.374v32.019H2112.56V884.247c0-7.745-2.834-10.2-7.65-10.2-5.007,0-8.784,3.778-10.107,8.689v29.658h-14.546V863.278H2094.8v8.974a19.185,19.185,0,0,1,17.285-10.3C2121.344,861.956,2127.105,867.812,2127.105,880.374Z"/>
      <path d="M2166.676,879.051v11.712H2137.3V879.051Z"/>
      <path d="M2254.134,880.941v31.452H2239.5V884.718c0-7.839-2.173-10.672-6.99-10.672-4.534,0-8.217,3.778-9.54,8.689v29.658H2208.42V884.718c0-7.839-2.267-10.672-6.99-10.672-4.533,0-8.216,3.778-9.539,8.689v29.658h-14.546V863.278h14.546v8.974c3.023-5.479,8.69-10.3,16.718-10.3,7.178,0,11.995,3.778,13.7,11.618,2.834-6.045,8.785-11.618,17.379-11.618C2248.94,861.956,2254.134,868,2254.134,880.941Z"/>
      <path d="M2308.911,890.953H2275.38c.756,7.462,4.25,12.184,11.051,12.184,5.667,0,7.84-3.022,8.5-7.084h13.979c-.567,9.161-7.934,17.662-22.763,17.662-16.246,0-25.407-11.334-25.407-25.879s9.161-25.88,25.124-25.88c14.64,0,23.046,9.633,23.046,24.369Zm-33.247-8.218H2295.5c-.945-6.989-4.156-10.295-9.634-10.295C2280.008,872.44,2276.7,876.218,2275.664,882.735Z"/>
      <path d="M2393.252,880.941v31.452h-14.64V884.718c0-7.839-2.173-10.672-6.989-10.672-4.534,0-8.218,3.778-9.54,8.689v29.658h-14.546V884.718c0-7.839-2.267-10.672-6.99-10.672-4.533,0-8.216,3.778-9.539,8.689v29.658h-14.545V863.278h14.545v8.974c3.023-5.479,8.69-10.3,16.718-10.3,7.178,0,11.995,3.778,13.7,11.618,2.833-6.045,8.784-11.618,17.378-11.618C2388.057,861.956,2393.252,868,2393.252,880.941Z"/>
      <path d="M2399.858,887.836c0-15.3,10.012-25.88,25.6-25.88,15.49,0,25.6,10.579,25.6,25.88s-10.2,25.879-25.6,25.879C2409.87,913.715,2399.858,903.137,2399.858,887.836Zm36.27,0c0-8.973-3.306-14.83-10.674-14.83-7.461,0-10.673,5.857-10.673,14.83,0,9.35,3.212,14.829,10.673,14.829C2432.822,902.665,2436.128,897.186,2436.128,887.836Z"/>
      <path d="M2491.093,862.617v13.79c-1.888-.189-4.439-.189-6.045-.189-7.178,0-11.05,3.211-12.278,8.878v27.3h-14.546V863.278h14.546v11.807c2.55-7.179,8.5-12.657,15.679-12.657A12.023,12.023,0,0,1,2491.093,862.617Z"/>
      <path d="M2546.25,863.278l-27.3,66.116h-15.585l9.257-20.873-19.174-45.243h15.395l11.807,30.131,10.3-30.131Z"/>
      <path d="M2049.469,1004.381h14.924c.567,6.234,5.95,10.3,14.073,10.3,6.99,0,10.956-2.834,10.956-7.462,0-5.1-3.683-6.989-17-10.484-13.035-3.494-21.347-8.783-21.347-19.929,0-12.089,10.013-19.929,25.786-19.929s25.6,8.311,25.6,21.062h-14.64c-.661-5.762-4.534-9.256-11.807-9.256-6.516,0-10.106,2.833-10.106,6.895,0,4.629,3.967,6.234,15.585,9.35,15.3,4.062,23.141,8.407,23.141,20.591,0,13.79-9.351,21.535-26.164,21.535C2060.8,1027.049,2049.469,1018.077,2049.469,1004.381Z"/>
      <path d="M2132.675,987.663V1007.4c0,5.572,1.984,7.744,6.706,7.744a25.144,25.144,0,0,0,6.8-.944v10.674a52.811,52.811,0,0,1-11.239,1.322c-11.24,0-16.907-4.912-16.907-17.474V987.663H2108.4V976.612h9.634V958.194h14.639v18.418h14.452v11.051Z"/>
      <path d="M2150.809,1001.17c0-15.3,10.012-25.88,25.6-25.88,15.49,0,25.6,10.579,25.6,25.88s-10.2,25.879-25.6,25.879C2160.821,1027.049,2150.809,1016.471,2150.809,1001.17Zm36.27,0c0-8.973-3.306-14.83-10.674-14.83-7.461,0-10.673,5.857-10.673,14.83,0,9.35,3.212,14.829,10.673,14.829C2183.773,1016,2187.079,1010.52,2187.079,1001.17Z"/>
      <path d="M2242.045,975.951v13.79c-1.889-.189-4.44-.189-6.045-.189-7.179,0-11.051,3.211-12.279,8.878v27.3h-14.546V976.612h14.546v11.807c2.55-7.179,8.5-12.657,15.679-12.657A12.037,12.037,0,0,1,2242.045,975.951Z"/>
      <path d="M2294.558,1014.3v11.429h-1.888c-7.651,0-13.129-2.456-15.774-6.989-4.251,5.478-9.823,7.556-16.434,7.556-10.2,0-16.341-5.1-16.341-13.79,0-9.729,7.462-14.829,21.157-15.679l9.823-.661V994.18c0-5.1-.944-8.311-6.894-8.311-4.44,0-7.557,2.266-7.557,6.328h-13.978c0-10.295,8.594-16.813,21.44-16.813,14.451,0,21.535,5.573,21.535,19.835v14.64c0,3.5.944,4.439,3.684,4.439Zm-19.457-5.761v-5.006l-6.328.473c-7.272.471-10.39,1.793-10.39,6.516,0,3.778,2.55,5.951,6.895,5.951A9.635,9.635,0,0,0,2275.1,1008.537Z"/>
      <path d="M2348.2,976.612v41.748c0,16.151-8.407,25.69-24.841,25.69-16.34,0-22.951-8.216-23.424-17h13.979c.472,3.873,3.495,6.612,9.445,6.612,7.367,0,10.3-3.306,10.3-12.09v-6.234a17.283,17.283,0,0,1-14.64,7.746c-13.412,0-20.684-10.39-20.684-23.424,0-13.319,7.461-24.369,20.684-24.369a16.87,16.87,0,0,1,14.64,7.556v-6.234Zm-14.546,22.669c0-7.274-3.4-12.941-10.2-12.941-6.99,0-10.2,5.952-10.2,12.941,0,7.745,3.212,13.317,10.2,13.317C2329.974,1012.6,2333.658,1007.592,2333.658,999.281Z"/>
      <path d="M2403.547,1004.287h-33.53c.756,7.462,4.25,12.184,11.051,12.184,5.667,0,7.84-3.022,8.5-7.084h13.978c-.566,9.161-7.933,17.662-22.762,17.662-16.246,0-25.407-11.334-25.407-25.879s9.161-25.88,25.124-25.88c14.639,0,23.045,9.633,23.045,24.369Zm-33.247-8.218h19.835c-.944-6.989-4.155-10.295-9.633-10.295C2374.645,985.774,2371.339,989.552,2370.3,996.069Z"/>
    </g>
    <g>
      <path d="M1939.775,865.708H1818.612a5.1,5.1,0,0,0-5.105,5.105v128.98a5.1,5.1,0,0,0,5.105,5.105h121.163a5.1,5.1,0,0,0,5.105-5.105V870.813A5.1,5.1,0,0,0,1939.775,865.708Zm-5.105,128.813H1823.717V964.909H1934.67Zm-95.466-51.9v-10.21h19.569v10.21Zm95.466-32.332H1823.717V875.918H1934.67Z"/>
      <path d="M1839.2,888h19.743v10.21H1839.2Z"/>
      <path d="M1839.2,974.614h19.743v10.21H1839.2Z"/>
    </g>
  </g>
  <g>
    <path class="ec3aa39f-d4f8-4bf4-9f9e-92f755276607" d="M2029.968,330.377c0,15.7-8.763,27.438-27.666,27.438H1983.1v-54.5H2002.3C2021.205,303.319,2029.968,315.057,2029.968,330.377Zm-12.88,0c0-10.366-4.725-16.463-14.786-16.463h-6.859V347.22h6.859C2012.363,347.22,2017.088,341.124,2017.088,330.377Z"/>
    <path class="ec3aa39f-d4f8-4bf4-9f9e-92f755276607" d="M2073.562,340.513h-27.057c.61,6.022,3.43,9.832,8.917,9.832,4.574,0,6.327-2.438,6.86-5.716h11.28c-.457,7.393-6.4,14.253-18.368,14.253-13.109,0-20.5-9.146-20.5-20.883s7.394-20.884,20.273-20.884c11.815,0,18.6,7.774,18.6,19.664Zm-26.828-6.631h16.006c-.763-5.639-3.354-8.307-7.776-8.307C2050.24,325.575,2047.572,328.624,2046.734,333.882Z"/>
    <path class="ec3aa39f-d4f8-4bf4-9f9e-92f755276607" d="M2118.071,299.889v57.926h-11.737v-5.869c-2.592,4.192-6.631,6.936-11.815,6.936-10.9,0-16.691-9.146-16.691-20.883s5.793-20.884,16.691-20.884a13.31,13.31,0,0,1,11.815,6.25V299.889ZM2106.334,338c0-6.936-2.516-11.967-8.233-11.967-5.792,0-8.23,5.031-8.23,11.967s2.438,11.965,8.23,11.965C2103.666,349.964,2106.334,344.782,2106.334,338Z"/>
    <path class="ec3aa39f-d4f8-4bf4-9f9e-92f755276607" d="M2137.808,299.889v12.957H2126V299.889ZM2126,318.182h11.812v39.633H2126Z"/>
    <path class="ec3aa39f-d4f8-4bf4-9f9e-92f755276607" d="M2143.675,338c0-11.738,7.242-20.884,20.733-20.884,12.118,0,18.368,7.088,18.6,16.158h-11.2c-.685-4.269-2.9-7.241-7.468-7.241-6.174,0-8.614,5.107-8.614,11.967,0,6.554,2.592,11.965,8.614,11.965,4.877,0,7.088-3.429,7.7-8.079h11.2c-.305,9.452-6.1,17-18.825,17C2150.917,358.882,2143.675,349.736,2143.675,338Z"/>
    <path class="ec3aa39f-d4f8-4bf4-9f9e-92f755276607" d="M2227.209,348.592v9.223h-1.526c-6.174,0-10.594-1.981-12.728-5.64-3.43,4.42-7.926,6.1-13.262,6.1-8.23,0-13.186-4.115-13.186-11.128,0-7.849,6.022-11.966,17.074-12.651l7.926-.534v-1.6c0-4.115-.761-6.707-5.564-6.707-3.582,0-6.1,1.829-6.1,5.106h-11.279c0-8.307,6.936-13.566,17.3-13.566,11.662,0,17.378,4.5,17.378,16.006V345.01c0,2.821.762,3.582,2.972,3.582Zm-15.7-4.649V339.9l-5.107.381c-5.868.381-8.383,1.448-8.383,5.259,0,3.048,2.058,4.8,5.564,4.8A7.773,7.773,0,0,0,2211.507,343.943Z"/>
    <path class="ec3aa39f-d4f8-4bf4-9f9e-92f755276607" d="M2246.643,327.1v15.93c0,4.5,1.6,6.25,5.411,6.25a20.286,20.286,0,0,0,5.489-.763v8.613a42.579,42.579,0,0,1-9.071,1.067c-9.07,0-13.642-3.963-13.642-14.1v-17h-7.776v-8.917h7.776V303.319h11.813v14.863H2258.3V327.1Z"/>
    <path class="ec3aa39f-d4f8-4bf4-9f9e-92f755276607" d="M2300.679,340.513h-27.056c.609,6.022,3.429,9.832,8.918,9.832,4.572,0,6.326-2.438,6.859-5.716h11.279c-.457,7.393-6.4,14.253-18.367,14.253-13.109,0-20.5-9.146-20.5-20.883s7.395-20.884,20.275-20.884c11.813,0,18.6,7.774,18.6,19.664Zm-26.828-6.631h16.006c-.762-5.639-3.353-8.307-7.774-8.307C2277.357,325.575,2274.689,328.624,2273.851,333.882Z"/>
    <path class="ec3aa39f-d4f8-4bf4-9f9e-92f755276607" d="M2345.189,299.889v57.926h-11.738v-5.869c-2.592,4.192-6.631,6.936-11.814,6.936-10.9,0-16.692-9.146-16.692-20.883s5.793-20.884,16.692-20.884a13.309,13.309,0,0,1,11.814,6.25V299.889ZM2333.451,338c0-6.936-2.516-11.967-8.232-11.967-5.792,0-8.231,5.031-8.231,11.967s2.439,11.965,8.231,11.965C2330.783,349.964,2333.451,344.782,2333.451,338Z"/>
    <path class="ec3aa39f-d4f8-4bf4-9f9e-92f755276607" d="M2393.048,327.48h25.305v25.305a47.012,47.012,0,0,1-22.865,6.1c-18.14,0-27.743-11.89-27.743-28.353,0-16.311,9.527-28.276,27.134-28.276,14.862,0,23.7,8.079,24.007,18.749H2406.54c-.839-4.5-4.954-8.156-11.661-8.156-8.766,0-14.253,6.479-14.253,17.531,0,12.195,6.25,18.139,16.158,18.139,4.573,0,8.688-.99,10.823-2.21v-8.688h-14.559Z"/>
    <path class="ec3aa39f-d4f8-4bf4-9f9e-92f755276607" d="M2454.172,317.648v11.128c-1.524-.152-3.582-.152-4.877-.152-5.793,0-8.918,2.591-9.909,7.164v22.027h-11.737V318.182h11.737v9.527c2.059-5.792,6.86-10.213,12.653-10.213A9.737,9.737,0,0,1,2454.172,317.648Z"/>
    <path class="ec3aa39f-d4f8-4bf4-9f9e-92f755276607" d="M2496.548,348.592v9.223h-1.523c-6.174,0-10.6-1.981-12.728-5.64-3.43,4.42-7.927,6.1-13.262,6.1-8.233,0-13.186-4.115-13.186-11.128,0-7.849,6.021-11.966,17.073-12.651l7.926-.534v-1.6c0-4.115-.762-6.707-5.563-6.707-3.583,0-6.1,1.829-6.1,5.106h-11.281c0-8.307,6.936-13.566,17.3-13.566,11.66,0,17.377,4.5,17.377,16.006V345.01c0,2.821.761,3.582,2.972,3.582Zm-15.7-4.649V339.9l-5.106.381c-5.869.381-8.385,1.448-8.385,5.259,0,3.048,2.059,4.8,5.565,4.8A7.775,7.775,0,0,0,2480.848,343.943Z"/>
    <path class="ec3aa39f-d4f8-4bf4-9f9e-92f755276607" d="M2542.125,338c0,11.737-5.869,20.883-16.768,20.883a13.209,13.209,0,0,1-11.813-6.326v18.978h-11.738V318.182h11.738v5.945c2.59-4.268,6.63-7.012,11.813-7.012C2536.256,317.115,2542.125,326.261,2542.125,338Zm-12.119,0c0-6.936-2.438-11.967-8.231-11.967-5.564,0-8.231,5.183-8.231,11.967,0,6.935,2.514,11.965,8.231,11.965C2527.568,349.964,2530.006,344.934,2530.006,338Z"/>
    <path class="ec3aa39f-d4f8-4bf4-9f9e-92f755276607" d="M2585.871,331.977v25.838h-11.813V335.1c0-6.25-2.211-8.231-6.1-8.231-4.04,0-7.088,3.049-8.157,7.011v23.933h-11.812V299.889H2559.8v25.533a15.485,15.485,0,0,1,13.95-8.307C2581.222,317.115,2585.871,321.84,2585.871,331.977Z"/>
    <path class="ec3aa39f-d4f8-4bf4-9f9e-92f755276607" d="M2007.714,450.339c-17.074,0-27.287-11.356-27.287-28.277,0-16.158,9.3-28.352,27.134-28.352,16.082,0,24.466,9.832,24.847,21.493H2020.06c-.533-6.1-4.953-10.9-12.651-10.9-8.765,0-14.1,6.631-14.1,17.607,0,11.2,5.412,17.835,14.253,17.835,7.546,0,11.966-4.574,12.575-10.594h12.348C2032.027,440.66,2023.566,450.339,2007.714,450.339Z"/>
    <path class="ec3aa39f-d4f8-4bf4-9f9e-92f755276607" d="M2076.763,409.639v39.633h-11.738v-7.316a15.4,15.4,0,0,1-13.947,8.383c-7.469,0-12.119-4.725-12.119-14.862V409.639h11.814v22.713c0,6.249,2.21,8.232,6.1,8.232,4.039,0,7.088-3.049,8.154-7.013V409.639Z"/>
    <path class="ec3aa39f-d4f8-4bf4-9f9e-92f755276607" d="M2124.853,429.456c0,11.737-5.868,20.883-16.691,20.883a13.31,13.31,0,0,1-11.814-6.25v5.183h-11.813V391.346h11.813v24.161c2.592-4.191,6.632-6.935,11.814-6.935C2118.985,408.572,2124.853,417.718,2124.853,429.456Zm-12.041,0c0-6.936-2.439-11.967-8.232-11.967-5.564,0-8.232,5.183-8.232,11.967,0,6.935,2.439,11.965,8.232,11.965S2112.812,436.391,2112.812,429.456Z"/>
    <path class="ec3aa39f-d4f8-4bf4-9f9e-92f755276607" d="M2167.685,431.97h-27.056c.609,6.022,3.429,9.832,8.918,9.832,4.572,0,6.326-2.438,6.859-5.715h11.279c-.457,7.392-6.4,14.252-18.367,14.252-13.109,0-20.5-9.146-20.5-20.883s7.395-20.884,20.275-20.884c11.813,0,18.6,7.774,18.6,19.664Zm-26.828-6.631h16.006c-.762-5.639-3.354-8.307-7.774-8.307C2144.363,417.032,2141.7,420.081,2140.857,425.339Z"/>
    <path class="ec3aa39f-d4f8-4bf4-9f9e-92f755276607" d="M2187.88,432.046h12.042c.457,5.031,4.8,8.309,11.356,8.309,5.64,0,8.841-2.287,8.841-6.021,0-4.117-2.972-5.641-13.719-8.46-10.518-2.821-17.225-7.089-17.225-16.082,0-9.756,8.079-16.082,20.807-16.082s20.655,6.707,20.655,17h-11.813c-.533-4.65-3.658-7.469-9.527-7.469-5.26,0-8.156,2.286-8.156,5.563,0,3.735,3.2,5.031,12.575,7.546,12.348,3.278,18.674,6.783,18.674,16.616,0,11.127-7.545,17.377-21.112,17.377C2197.025,450.339,2187.88,443.1,2187.88,432.046Z"/>
    <path class="ec3aa39f-d4f8-4bf4-9f9e-92f755276607" d="M2275.908,431.97h-27.057c.61,6.022,3.43,9.832,8.917,9.832,4.573,0,6.326-2.438,6.86-5.715h11.28c-.457,7.392-6.4,14.252-18.368,14.252-13.11,0-20.5-9.146-20.5-20.883s7.393-20.884,20.273-20.884c11.815,0,18.6,7.774,18.6,19.664Zm-26.828-6.631h16.006c-.763-5.639-3.354-8.307-7.776-8.307C2252.586,417.032,2249.918,420.081,2249.08,425.339Z"/>
    <path class="ec3aa39f-d4f8-4bf4-9f9e-92f755276607" d="M2308.527,409.105v11.128c-1.524-.152-3.582-.152-4.878-.152-5.792,0-8.917,2.591-9.908,7.164v22.027H2282V409.639h11.737v9.527c2.057-5.792,6.86-10.213,12.652-10.213A9.737,9.737,0,0,1,2308.527,409.105Z"/>
    <path class="ec3aa39f-d4f8-4bf4-9f9e-92f755276607" d="M2349.607,409.639l-12.119,39.633h-14.862l-12.2-39.633h12.347l7.241,31.478,7.24-31.478Z"/>
    <path class="ec3aa39f-d4f8-4bf4-9f9e-92f755276607" d="M2390.076,431.97h-27.057c.61,6.022,3.43,9.832,8.918,9.832,4.572,0,6.326-2.438,6.86-5.715h11.279c-.457,7.392-6.4,14.252-18.367,14.252-13.11,0-20.5-9.146-20.5-20.883s7.394-20.884,20.274-20.884c11.814,0,18.6,7.774,18.6,19.664Zm-26.828-6.631h16.006c-.762-5.639-3.354-8.307-7.775-8.307C2366.754,417.032,2364.086,420.081,2363.248,425.339Z"/>
    <path class="ec3aa39f-d4f8-4bf4-9f9e-92f755276607" d="M2422.7,409.105v11.128c-1.524-.152-3.582-.152-4.878-.152-5.792,0-8.917,2.591-9.908,7.164v22.027h-11.737V409.639h11.737v9.527c2.057-5.792,6.86-10.213,12.652-10.213A9.737,9.737,0,0,1,2422.7,409.105Z"/>
  </g>
</svg>
