<svg width="2558" height="1337" viewBox="0 0 2558 1337" fill="none" xmlns="http://www.w3.org/2000/svg">
<path fill-rule="evenodd" clip-rule="evenodd" d="M2444.87 1112.95C2451.92 1112.92 2458.67 1110.11 2463.66 1105.13C2468.64 1100.15 2471.46 1093.39 2471.49 1086.35C2470.46 1080.04 2468.25 1068.38 2451.89 1068.38C2434 1068.38 2428.06 1093.39 2413.5 1109.5C2412.31 1118.67 2403.65 1126.87 2392.81 1128.25C2395.47 1131.03 2401.37 1132.52 2408.41 1132.52C2421.32 1132.52 2436.94 1128.64 2445.11 1120.57C2434.21 1120.71 2427.2 1113.71 2426.5 1104C2431.82 1110.44 2437.83 1112.95 2444.87 1112.95" fill="#12ABDB"/>
<path fill-rule="evenodd" clip-rule="evenodd" d="M2330.11 1073.16C2330.11 1065.23 2329.64 1059.92 2324.44 1059.92C2322.52 1059.94 2320.62 1060.34 2318.84 1061.08C2320.68 1087.93 2314.62 1111.57 2307.21 1111.57C2297.5 1111.57 2302.35 1054.03 2281.78 1054.03C2262.82 1054.03 2260.09 1099.96 2257.94 1099.96C2256.46 1099.96 2256.24 1087.9 2256.32 1078.7C2257.05 1074.95 2257.46 1071.15 2257.55 1067.33C2257.55 1063.05 2255.81 1055.65 2246.09 1059.35C2246.44 1092.19 2239.86 1112.04 2232.46 1112.04C2221.59 1112.04 2221.48 1082.26 2221.48 1074.06C2221.48 1066.04 2222.05 1055.33 2210.15 1059.15C2208.37 1087.8 2200.86 1109.42 2196.12 1109.42C2189.06 1109.42 2190.49 1059.92 2175.22 1059.92C2161.51 1059.92 2157.26 1106.8 2154.4 1106.8C2149.29 1106.8 2156 1054.02 2136.19 1054.02C2125.79 1054.02 2121.66 1071.65 2117.59 1091.37C2116.8 1095.19 2115.97 1095.3 2115.84 1091C2115.73 1087.31 2115.7 1083.63 2115.74 1079.94C2120.75 1060.12 2114.64 1052.8 2105.46 1058.08C2108.42 1094.66 2091.63 1112.54 2078.74 1112.54C2076.63 1112.56 2074.55 1112.12 2072.64 1111.23C2070.72 1110.35 2069.03 1109.05 2067.68 1107.44C2083.13 1097.97 2090 1087.09 2090 1076.47C2090 1064.95 2083.38 1058.33 2072.4 1058.33C2057.07 1058.33 2048.51 1074.11 2048.51 1087.52C2048.4 1093.84 2049.62 1100.11 2052.07 1105.93C2046.8 1108.44 2041.84 1110.61 2037.23 1112.72C2036.82 1098.92 2035.26 1084.42 2034.08 1071.06C2025.92 1068.81 2023.54 1072.73 2022.91 1079.99C2021.47 1096.56 2015.33 1106.84 2009.91 1106.84C2005.82 1106.84 2003.33 1101.87 2003.03 1096.59C2001.52 1070.04 2023.08 1062.65 2034.35 1066.5C2036.69 1060.64 2034.12 1056.42 2023.95 1056.42C2011.61 1056.42 2002.39 1063.92 1995.63 1073.53C1991.12 1079.95 1985.9 1084.49 1978.98 1089.99C1979.15 1088.43 1979.25 1086.85 1979.25 1085.27C1979.25 1066.55 1969.1 1058.33 1959.41 1058.33C1951.39 1058.33 1946.36 1063.14 1943.43 1070.51C1942.71 1063.12 1941.24 1059.92 1936.94 1059.92C1934.45 1060.01 1932.01 1060.64 1929.79 1061.77C1931.05 1065.9 1931.54 1075.06 1931.54 1081.08C1931.54 1103.6 1925.09 1113.69 1918.88 1113.69C1911.79 1113.69 1910.66 1086.98 1910.06 1076.59C1908.95 1076.16 1907.77 1075.94 1906.59 1075.95C1900.17 1075.95 1899.33 1084.57 1897.75 1092.5C1895.99 1101.28 1890.93 1112.33 1883.44 1112.33C1878.91 1112.33 1876.09 1107.96 1875.74 1100.11C1875 1084.19 1888.25 1065.32 1908.97 1071.19C1911.69 1064.84 1907.43 1060.02 1898.82 1060.02C1883.67 1060.02 1871.15 1071.36 1865.69 1084.78C1860.15 1097.08 1850.44 1115.15 1830.69 1115.15C1816.75 1115.15 1806.08 1102.99 1806.08 1077.47C1806.08 1055.47 1819.94 1034.58 1834.74 1034.58C1845.09 1034.58 1847.49 1044.75 1846.58 1054.31C1851.94 1058.62 1860.74 1054.62 1860.74 1043.86C1860.74 1036.45 1854.72 1023.88 1835.29 1023.88C1811.25 1023.88 1790 1047.86 1790 1079.37C1790 1109.88 1805.48 1127.91 1827.4 1127.91C1841.23 1127.91 1854.28 1120.01 1863.28 1105.46C1865.55 1118.2 1874.24 1123.57 1880.74 1123.57C1891.28 1123.57 1898.16 1116.75 1901.91 1107.51C1904.26 1116.77 1909.21 1123.6 1917.42 1123.6C1923.21 1123.6 1927.73 1120.68 1931.13 1115.97C1929.79 1148.12 1928.08 1168.61 1947.08 1164.57C1944.14 1155.44 1943.21 1138.8 1943.21 1123.86C1943.21 1082.97 1949.95 1069.52 1958.41 1069.52C1964.53 1069.52 1966.51 1077.33 1966.51 1085.66C1966.55 1090.44 1966.02 1095.21 1964.95 1099.87C1954.57 1106.42 1946.27 1111.59 1946.27 1118.16C1946.27 1123.35 1950.13 1123.84 1953.47 1123.84C1961.44 1123.84 1971.04 1116.01 1976.34 1101.25C1981.32 1098.34 1985.93 1094.85 1990.08 1090.84C1989.93 1092.34 1989.84 1093.85 1989.84 1095.39C1989.84 1110.05 1996.27 1118.9 2006.51 1118.9C2014.54 1118.9 2020.56 1113.21 2024.81 1104.69C2025.07 1109.6 2025.24 1114.13 2025.31 1118.29C2009.03 1125.81 1991.01 1133.47 1991.01 1154.7C1991.01 1165.69 1998.95 1173.97 2009.29 1173.97C2031.97 1173.97 2037.14 1150.03 2037.35 1122.22C2044.73 1119.01 2050.23 1116.55 2056.58 1113.41C2062.01 1120.2 2069.38 1123.61 2076.15 1123.61C2088.95 1123.61 2098.56 1116.82 2106.28 1103.07C2107.65 1113.54 2110.36 1123.61 2115.92 1123.61C2126.07 1123.61 2128.13 1070.55 2135.68 1070.55C2141.45 1070.55 2136.71 1127.96 2151.96 1127.96C2165.03 1127.96 2167.48 1077.44 2173.84 1077.44C2178.35 1077.44 2178.69 1123.61 2192.91 1123.61C2199.91 1123.61 2207.5 1115.21 2211.3 1097.59C2213.09 1109.31 2219.01 1123.61 2230.57 1123.61C2237.31 1123.61 2243.11 1116.79 2247.59 1107.72C2248.82 1117.05 2251.47 1123.61 2256.57 1123.61C2269.87 1123.61 2269.42 1070.67 2279.94 1070.67C2288.15 1070.67 2285.61 1123.61 2305.15 1123.61C2314.44 1123.61 2318.85 1115.69 2321.47 1105.75C2325.07 1120.37 2330.88 1123.61 2335.65 1123.61C2338.68 1123.61 2340.97 1122.55 2343.97 1118.97C2328.86 1112.42 2330.13 1088.57 2330.13 1073.16L2330.11 1073.16ZM2010.22 1164.07C2005.53 1164.07 2003.05 1159.62 2003.05 1154.57C2003.05 1141 2013.02 1133.79 2025.3 1127.6C2024.74 1157.28 2017.85 1164.06 2010.22 1164.06L2010.22 1164.07ZM2071.25 1067.86C2075.82 1067.86 2078.43 1072.06 2077.98 1078.09C2077.45 1085.18 2072.29 1093.28 2063.32 1099.66C2058.64 1086.34 2062.12 1067.86 2071.25 1067.86H2071.25ZM2216 1047.79C2220.35 1047.64 2223.39 1043.9 2223.41 1039.46C2223.43 1035.01 2220.42 1031.52 2216.06 1031.67C2213.93 1031.78 2211.92 1032.71 2210.44 1034.26C2208.97 1035.81 2208.14 1037.87 2208.14 1040C2208.11 1041.04 2208.3 1042.07 2208.69 1043.03C2209.08 1043.99 2209.66 1044.86 2210.39 1045.59C2211.13 1046.32 2212 1046.89 2212.97 1047.27C2213.93 1047.65 2214.96 1047.82 2216 1047.79ZM2324.27 1050.05C2326.26 1049.89 2328.11 1048.99 2329.45 1047.51C2330.8 1046.04 2331.52 1044.11 2331.49 1042.11C2331.53 1041.15 2331.38 1040.19 2331.04 1039.28C2330.7 1038.38 2330.18 1037.56 2329.51 1036.86C2328.84 1036.17 2328.03 1035.62 2327.14 1035.24C2326.25 1034.87 2325.3 1034.68 2324.33 1034.69C2322.34 1034.84 2320.49 1035.75 2319.15 1037.23C2317.81 1038.7 2317.08 1040.64 2317.12 1042.63C2317.07 1043.59 2317.23 1044.55 2317.57 1045.46C2317.91 1046.36 2318.43 1047.18 2319.1 1047.88C2319.77 1048.57 2320.57 1049.12 2321.46 1049.49C2322.35 1049.87 2323.31 1050.06 2324.27 1050.05ZM2471.47 1085.28C2471.14 1068.5 2463.16 1054.34 2450.85 1043.04C2441.37 1034.63 2430.52 1027.9 2418.76 1023.15C2417.83 1022.75 2416.89 1022.37 2415.94 1022C2401.61 1039.17 2351.98 1051.98 2351.98 1087.98C2352.04 1094.96 2354.15 1101.76 2358.05 1107.54C2361.95 1113.32 2367.47 1117.83 2373.91 1120.5C2381.18 1123.35 2389.24 1123.52 2396.62 1120.97C2403.15 1118.69 2408.97 1114.73 2413.49 1109.5C2428.07 1093.38 2434 1068.38 2451.89 1068.38C2468.25 1068.38 2470.45 1080.03 2471.5 1086.34C2471.5 1086.32 2471.49 1085.88 2471.47 1085.28" fill="#0070AD"/>
<path d="M86 524.004H173.184V560.804H149.316V668.205H173.184V705.005H86V668.205H108.874V560.8H86V524V524.004ZM340.924 524.004H411.845L444.322 609.288L477.73 524.004H547.565V560.804L524.956 560.835L524.979 668.279L547.565 668.209V705.009L484.822 705.001L484.911 606.388L444.072 710.972L404.153 604.16L404.134 705.246L340.924 705.001V668.201H363.916V560.8H340.924V524V524.004ZM248.434 631.223V668.205H285.561V631.105L248.434 631.221V631.223ZM248.487 560.737L248.434 596.87L285.561 596.927V560.8L248.487 560.737ZM278.645 524.004C305.337 524.004 328.316 544.41 328.795 570.748C329.214 593.759 316.334 607.048 304.017 614.921C318.385 619.703 329.54 641.085 329.274 658.249C328.938 679.932 311.663 704.998 289.638 705.001L183.583 705.016L183.464 668.205H206.006L205.906 560.877L183.461 560.8V524L278.645 524.004ZM541.545 719.176C542.948 719.185 544.325 719.546 545.552 720.226C546.838 720.914 547.896 721.961 548.596 723.241C549.307 724.486 549.682 725.894 549.687 727.328C549.684 728.747 549.313 730.142 548.61 731.375C547.917 732.649 546.872 733.697 545.599 734.393C544.365 735.099 542.967 735.47 541.545 735.47C540.123 735.47 538.726 735.099 537.491 734.393C536.216 733.698 535.168 732.65 534.473 731.375C533.768 730.143 533.395 728.748 533.393 727.328C533.397 725.894 533.774 724.485 534.487 723.241C535.19 721.961 536.25 720.913 537.539 720.226C538.765 719.546 540.143 719.185 541.545 719.176ZM541.545 720.525C540.374 720.532 539.224 720.835 538.202 721.406C537.13 721.982 536.247 722.854 535.659 723.919C535.061 724.948 534.744 726.117 534.742 727.308C534.74 728.499 535.051 729.669 535.645 730.701C536.229 731.762 537.103 732.635 538.165 733.218C539.193 733.81 540.359 734.121 541.545 734.121C542.731 734.121 543.897 733.81 544.925 733.218C545.985 732.635 546.857 731.762 547.439 730.701C548.028 729.667 548.337 728.498 548.334 727.308C548.331 726.118 548.018 724.95 547.424 723.919C546.838 722.853 545.954 721.98 544.881 721.406C543.861 720.837 542.713 720.534 541.545 720.525ZM537.97 731.825V723.06H540.981C541.735 723.025 542.489 723.106 543.218 723.3C543.667 723.456 544.053 723.753 544.318 724.147C544.582 724.525 544.724 724.973 544.727 725.434C544.73 725.744 544.67 726.052 544.552 726.34C544.435 726.627 544.261 726.888 544.041 727.107C543.557 727.594 542.906 727.88 542.22 727.907C542.495 728.014 542.748 728.171 542.965 728.371C543.46 728.902 543.896 729.486 544.265 730.111L545.334 731.825H543.606L542.828 730.442C542.461 729.68 541.961 728.989 541.35 728.404C541.015 728.181 540.616 728.076 540.215 728.104H539.386V731.827L537.97 731.825ZM539.386 726.893H541.103C541.687 726.951 542.274 726.822 542.78 726.525C543.019 726.325 543.175 726.043 543.218 725.735C543.261 725.426 543.188 725.112 543.012 724.855C542.862 724.647 542.653 724.488 542.412 724.399C541.949 724.27 541.468 724.219 540.989 724.247H539.383V726.893H539.386Z" fill="black"/>
<path d="M1025.08 1105.73L1020.58 1118.46H1020.21C1019.06 1114.2 1017.6 1110.03 1015.84 1105.98L991.755 1045.45H968.169V1141.92H983.769V1082.39C983.769 1078.65 983.769 1074.4 983.644 1069.16C983.519 1066.54 983.27 1064.54 983.144 1063.05H983.519C984.066 1065.84 984.817 1068.6 985.765 1071.28L1014.72 1141.67H1025.7L1054.41 1070.65C1055.16 1068.15 1055.79 1065.61 1056.28 1063.04H1056.65C1056.28 1070.15 1056.03 1076.52 1055.9 1080.39V1141.54H1072.5V1045.2H1049.79L1025.08 1105.73ZM1088.22 1072.41H1104.45V1141.55H1088.22V1072.41ZM1096.46 1043.2C1093.9 1043.18 1091.43 1044.16 1089.6 1045.95C1088.69 1046.81 1087.97 1047.84 1087.47 1048.99C1086.98 1050.14 1086.73 1051.38 1086.73 1052.62C1086.73 1053.87 1086.98 1055.11 1087.47 1056.26C1087.97 1057.41 1088.69 1058.44 1089.6 1059.3C1091.45 1061.05 1093.92 1061.99 1096.46 1061.92C1099 1061.96 1101.46 1061.02 1103.33 1059.3C1104.25 1058.47 1104.98 1057.44 1105.47 1056.3C1105.97 1055.16 1106.21 1053.93 1106.2 1052.69C1106.2 1051.43 1105.95 1050.18 1105.46 1049.02C1104.96 1047.86 1104.24 1046.82 1103.33 1045.95C1102.44 1045.04 1101.37 1044.32 1100.18 1043.85C1099 1043.37 1097.73 1043.15 1096.46 1043.2ZM1161.98 1071.78C1158.99 1071.14 1155.93 1070.81 1152.87 1070.78C1145.98 1070.64 1139.18 1072.32 1133.15 1075.65C1127.62 1078.75 1123.11 1083.39 1120.17 1089.01C1117.07 1095.2 1115.53 1102.05 1115.68 1108.97C1115.61 1115.19 1117.12 1121.33 1120.05 1126.82C1122.81 1132.06 1127.07 1136.36 1132.28 1139.18C1137.75 1142.15 1143.9 1143.66 1150.13 1143.54C1157.86 1143.54 1164.48 1141.92 1169.72 1138.93L1169.84 1138.8V1123.82L1169.22 1124.32C1166.84 1126.11 1164.18 1127.5 1161.36 1128.44C1158.88 1129.36 1156.26 1129.87 1153.62 1129.94C1147.13 1129.94 1142.01 1128.07 1138.39 1123.95C1134.65 1119.96 1132.78 1114.46 1132.78 1107.6C1132.78 1100.49 1134.65 1094.87 1138.52 1090.75C1140.47 1088.69 1142.84 1087.07 1145.46 1086C1148.09 1084.92 1150.91 1084.41 1153.74 1084.51C1159.33 1084.59 1164.74 1086.42 1169.22 1089.75L1169.84 1090.25V1074.4L1169.72 1074.28C1167.24 1073.17 1164.64 1072.33 1161.98 1071.78H1161.98ZM1215.52 1071.28C1211.52 1071.25 1207.64 1072.62 1204.54 1075.15C1201.79 1077.4 1199.92 1080.64 1198.3 1084.51H1198.18V1072.41H1181.95V1141.55H1198.18V1106.23C1198.18 1100.24 1199.43 1095.25 1202.18 1091.63C1203.32 1089.9 1204.88 1088.48 1206.71 1087.5C1208.54 1086.52 1210.58 1086.01 1212.66 1086.01C1214.29 1086.12 1215.92 1086.33 1217.52 1086.64C1218.89 1086.96 1220.2 1087.51 1221.39 1088.26L1222.02 1088.76V1072.53L1221.64 1072.41C1220.52 1071.66 1218.27 1071.28 1215.53 1071.28H1215.52ZM1259.71 1070.91C1248.35 1070.91 1239.24 1074.28 1232.88 1080.89C1226.39 1087.51 1223.27 1096.62 1223.27 1108.1C1223.27 1118.83 1226.51 1127.57 1232.75 1133.93C1238.99 1140.17 1247.48 1143.42 1258.09 1143.42C1269.2 1143.42 1278.06 1140.05 1284.42 1133.31C1290.91 1126.57 1294.03 1117.59 1294.03 1106.48C1294.03 1095.49 1291.04 1086.76 1284.92 1080.39C1279.05 1074.03 1270.44 1070.91 1259.71 1070.91ZM1272.69 1124.07C1269.69 1127.94 1264.95 1129.81 1259.09 1129.81C1253.22 1129.81 1248.48 1127.94 1245.11 1123.82C1241.74 1119.95 1240.12 1114.34 1240.12 1107.23C1240.12 1099.86 1241.86 1094.25 1245.11 1090.25C1248.48 1086.26 1253.1 1084.26 1258.96 1084.26C1264.7 1084.26 1269.2 1086.13 1272.44 1090C1275.69 1093.87 1277.43 1099.49 1277.43 1106.85C1277.18 1114.34 1275.81 1120.2 1272.69 1124.07ZM1330.22 1101.11C1325.11 1098.99 1321.86 1097.37 1320.37 1095.99C1319.72 1095.29 1319.22 1094.46 1318.9 1093.56C1318.57 1092.66 1318.44 1091.71 1318.5 1090.75C1318.47 1089.76 1318.7 1088.79 1319.16 1087.92C1319.62 1087.04 1320.29 1086.3 1321.12 1085.76C1323.23 1084.41 1325.72 1083.75 1328.23 1083.89C1331.06 1083.94 1333.87 1084.36 1336.59 1085.14C1339.19 1085.8 1341.65 1086.94 1343.83 1088.51L1344.45 1089V1073.78L1344.08 1073.65C1341.69 1072.74 1339.23 1072.03 1336.72 1071.53C1334.08 1071.07 1331.41 1070.82 1328.73 1070.78C1320.99 1070.78 1314.63 1072.66 1309.63 1076.77C1307.28 1078.54 1305.39 1080.85 1304.11 1083.49C1302.82 1086.14 1302.2 1089.06 1302.27 1092C1302.18 1094.91 1302.74 1097.81 1303.89 1100.49C1305.06 1102.99 1306.77 1105.2 1308.89 1106.98C1311.95 1109.28 1315.31 1111.17 1318.87 1112.59C1322.61 1114.21 1325.48 1115.46 1327.23 1116.46C1328.61 1117.27 1329.88 1118.28 1330.98 1119.45C1331.67 1120.62 1332.02 1121.96 1331.97 1123.32C1331.97 1127.94 1328.48 1130.19 1321.36 1130.19C1318.3 1130.14 1315.27 1129.59 1312.38 1128.56C1309.13 1127.48 1306.06 1125.93 1303.27 1123.95L1302.64 1123.45V1139.3L1303.02 1139.42C1305.84 1140.61 1308.76 1141.53 1311.76 1142.17C1314.84 1142.8 1317.97 1143.18 1321.12 1143.29C1329.48 1143.29 1336.34 1141.42 1341.21 1137.3C1343.64 1135.47 1345.59 1133.09 1346.92 1130.36C1348.24 1127.62 1348.89 1124.61 1348.82 1121.57C1349 1117.27 1347.57 1113.04 1344.83 1109.72C1340.48 1106.05 1335.54 1103.14 1330.23 1101.11L1330.22 1101.11ZM1391.62 1070.91C1380.26 1070.91 1371.15 1074.28 1364.79 1080.89C1358.42 1087.51 1355.18 1096.62 1355.18 1108.1C1355.18 1118.83 1358.42 1127.57 1364.66 1133.93C1370.9 1140.17 1379.39 1143.42 1390 1143.42C1401.1 1143.42 1409.97 1140.05 1416.33 1133.31C1422.82 1126.57 1425.94 1117.59 1425.94 1106.48C1425.94 1095.49 1422.95 1086.76 1416.83 1080.39C1410.96 1074.03 1402.35 1070.91 1391.62 1070.91ZM1404.48 1124.07C1401.49 1127.94 1396.74 1129.81 1390.87 1129.81C1384.88 1129.81 1380.26 1127.94 1376.89 1123.82C1373.53 1119.95 1371.9 1114.34 1371.9 1107.23C1371.9 1099.86 1373.65 1094.25 1376.89 1090.25C1380.26 1086.26 1384.88 1084.26 1390.75 1084.26C1396.36 1084.26 1400.98 1086.13 1404.23 1090C1407.47 1093.87 1409.22 1099.49 1409.22 1106.85C1409.22 1114.34 1407.6 1120.2 1404.48 1124.07ZM1512.68 1085.76V1072.41H1496.33V1051.94L1495.83 1052.06L1480.35 1056.68L1479.98 1056.81V1072.41H1455.52V1063.67C1455.52 1059.68 1456.51 1056.56 1458.26 1054.56C1459.24 1053.54 1460.42 1052.74 1461.74 1052.22C1463.05 1051.7 1464.47 1051.48 1465.88 1051.56C1468.38 1051.6 1470.84 1052.15 1473.12 1053.19L1473.74 1053.56V1039.46L1473.36 1039.33C1466.03 1037.2 1458.18 1037.82 1451.27 1041.08C1447.51 1043.1 1444.43 1046.18 1442.42 1049.94C1440.22 1053.87 1439.1 1058.3 1439.17 1062.8V1072.4H1427.81V1085.64H1439.17V1141.55H1455.52V1085.76H1479.98V1121.33C1479.98 1135.93 1486.84 1143.29 1500.57 1143.29C1502.88 1143.23 1505.18 1142.98 1507.44 1142.54C1509.2 1142.21 1510.92 1141.67 1512.56 1140.92L1512.68 1140.8V1127.44L1512.06 1127.94C1511.03 1128.64 1509.89 1129.14 1508.69 1129.44C1507.64 1129.76 1506.54 1129.93 1505.44 1129.94C1502.2 1129.94 1499.95 1129.19 1498.33 1127.32C1496.83 1125.57 1496.08 1122.7 1496.08 1118.46V1085.76L1512.68 1085.76Z" fill="#737373"/>
<path d="M759 1013H835.503V1089.5H759V1013Z" fill="#F25022"/>
<path d="M843.491 1013H919.994V1089.5H843.491V1013Z" fill="#7FBA00"/>
<path d="M759 1097.49H835.503V1174H759V1097.49Z" fill="#00A4EF"/>
<path d="M843.491 1097.49H919.994V1174H843.491V1097.49Z" fill="#FFB900"/>
<path d="M648.894 230.381C648.893 227.265 649.816 224.219 651.546 221.628C653.277 219.037 655.737 217.017 658.615 215.824C661.493 214.632 664.661 214.319 667.717 214.926C670.773 215.533 673.58 217.033 675.784 219.236C677.987 221.439 679.488 224.245 680.096 227.301C680.705 230.357 680.393 233.524 679.201 236.403C678.01 239.282 675.991 241.743 673.4 243.474C670.81 245.205 667.764 246.13 664.649 246.13C660.472 246.128 656.466 244.469 653.512 241.516C650.558 238.563 648.897 234.558 648.894 230.381Z" fill="#86BC24"/>
<path d="M146.466 188.659C146.466 178.68 144.538 171.28 140.681 166.459C136.824 161.638 130.967 159.23 123.108 159.234H114.743V220.254H121.143C129.876 220.254 136.28 217.659 140.353 212.468C144.426 207.277 146.464 199.344 146.466 188.668V188.659ZM176.296 187.628C176.296 205.808 171.409 219.815 161.636 229.649C151.863 239.483 138.122 244.402 120.414 244.405H86V135.465H122.815C139.891 135.465 153.074 139.935 162.364 148.876C171.654 157.817 176.299 170.731 176.3 187.619" fill="#0F0B0B"/>
<path d="M271.618 244.394H299V135.004H271.618V244.394Z" fill="#0F0B0B"/>
<path d="M337.468 203.591C337.468 210.566 338.378 215.883 340.199 219.542C342.02 223.201 345.077 225.031 349.37 225.03C353.619 225.03 356.619 223.201 358.37 219.542C360.122 215.883 360.995 210.566 360.991 203.591C360.991 196.653 360.105 191.42 358.334 187.891C356.556 184.349 353.52 182.577 349.226 182.576C345.022 182.576 342.012 184.334 340.195 187.85C338.378 191.366 337.468 196.614 337.464 203.595L337.468 203.591ZM388.864 203.595C388.864 216.883 385.375 227.244 378.398 234.679C371.421 242.114 361.652 245.832 349.091 245.834C337.048 245.834 327.466 242.034 320.345 234.434C313.224 226.834 309.663 216.553 309.66 203.591C309.66 190.344 313.151 180.051 320.132 172.712C327.114 165.373 336.908 161.704 349.515 161.703C356.729 161.559 363.853 163.318 370.17 166.803C376.133 170.182 380.949 175.266 384 181.403C387.246 187.73 388.868 195.128 388.864 203.598" fill="#0F0B0B"/>
<path d="M399.74 244.395H427.127V163.14H399.74V244.395Z" fill="#0F0B0B"/>
<path d="M399.739 153.311H427.126V135H399.739V153.311Z" fill="#0F0B0B"/>
<path d="M482.613 223.67C487.152 223.498 491.629 222.551 495.85 220.87V241.315C492.468 242.839 488.936 244.003 485.311 244.789C481.445 245.534 477.513 245.884 473.577 245.833C464.383 245.833 457.752 243.525 453.684 238.908C449.632 234.295 447.603 227.21 447.599 217.652V184.152H438.008V163.152H447.6V142.396L475.2 137.596V163.147H492.673V184.147H475.2V215.774C475.2 221.036 477.672 223.666 482.617 223.665" fill="#0F0B0B"/>
<path d="M546 223.67C550.539 223.498 555.016 222.551 559.237 220.87V241.315C555.856 242.838 552.324 244.001 548.7 244.785C544.834 245.531 540.902 245.88 536.966 245.829C527.771 245.829 521.143 243.521 517.082 238.904C513.02 234.288 510.989 227.202 510.988 217.648V184.148H501.388V163.148H510.988V142.082L538.58 137.596V163.147H556.062V184.147H538.576V215.774C538.576 221.036 541.049 223.666 545.997 223.665" fill="#0F0B0B"/>
<path d="M593.792 193.692C594.166 189.243 595.437 185.979 597.607 183.901C598.681 182.873 599.95 182.067 601.338 181.532C602.726 180.997 604.206 180.742 605.693 180.783C607.262 180.712 608.827 180.99 610.275 181.599C611.722 182.208 613.016 183.131 614.063 184.302C616.146 186.641 617.231 189.771 617.318 193.693H593.792V193.692ZM632.411 171.283C625.901 164.901 616.671 161.708 604.719 161.705C592.159 161.705 582.493 165.375 575.719 172.714C568.945 180.053 565.559 190.583 565.563 204.304C565.563 217.592 569.217 227.835 576.526 235.033C583.834 242.231 594.095 245.829 607.308 245.828C612.798 245.898 618.282 245.465 623.692 244.533C628.304 243.657 632.76 242.101 636.916 239.916L632.708 221.604C625.72 224.571 618.185 226.033 610.594 225.894C605.316 225.894 601.149 224.604 598.094 222.024C596.561 220.698 595.332 219.056 594.492 217.211C593.652 215.366 593.22 213.361 593.227 211.334H642.175V198.857C642.175 186.857 638.919 177.666 632.407 171.283" fill="#0F0B0B"/>
<path d="M212.64 193.692C213.014 189.243 214.286 185.979 216.455 183.901C217.531 182.872 218.8 182.066 220.189 181.531C221.578 180.996 223.059 180.742 224.547 180.783C226.115 180.713 227.679 180.992 229.125 181.601C230.572 182.21 231.865 183.132 232.911 184.302C234.995 186.641 236.082 189.771 236.171 193.693H212.64V193.692ZM251.265 171.283C244.751 164.901 235.518 161.708 223.565 161.705C211.002 161.705 201.338 165.375 194.573 172.714C187.808 180.053 184.421 190.583 184.412 204.304C184.412 217.592 188.068 227.835 195.38 235.033C202.692 242.231 212.952 245.829 226.159 245.828C231.648 245.898 237.132 245.465 242.542 244.533C247.156 243.657 251.613 242.101 255.77 239.916L251.558 221.604C244.57 224.572 237.035 226.034 229.444 225.894C224.17 225.894 220.003 224.604 216.944 222.024C215.41 220.699 214.18 219.057 213.34 217.212C212.499 215.367 212.068 213.362 212.075 211.334H261.025V198.857C261.025 186.857 257.77 177.666 251.261 171.283" fill="#0F0B0B"/>
<path d="M1335.04 601.964C1334.95 605.187 1335.37 608.405 1336.27 611.5C1337.27 614.159 1338.47 616.738 1339.86 619.215C1340.36 619.942 1340.63 620.798 1340.64 621.679C1340.64 622.75 1339.97 623.821 1338.51 624.893L1331.44 629.393C1330.58 629.982 1329.57 630.316 1328.53 630.357C1327.26 630.278 1326.07 629.746 1325.16 628.858C1323.66 627.313 1322.3 625.626 1321.12 623.821C1320 621.997 1318.88 619.965 1317.65 617.5C1313.59 622.251 1308.52 626.042 1302.82 628.599C1297.12 631.156 1290.92 632.415 1284.67 632.286C1275.25 632.286 1267.74 629.714 1262.24 624.571C1256.75 619.429 1253.94 612.572 1253.94 604C1253.94 594.893 1257.31 587.5 1264.15 581.929C1270.99 576.358 1280.07 573.572 1291.63 573.572C1295.6 573.602 1299.58 573.888 1303.52 574.428C1307.67 574.964 1311.93 575.822 1316.42 576.786V568.964C1316.42 560.822 1314.62 555.143 1311.14 551.822C1307.55 548.5 1301.5 546.893 1292.86 546.893C1288.78 546.892 1284.72 547.36 1280.75 548.286C1276.63 549.221 1272.59 550.437 1268.64 551.926C1267.36 552.471 1266.05 552.936 1264.71 553.318C1264.13 553.501 1263.53 553.609 1262.92 553.639C1261.35 553.639 1260.56 552.568 1260.56 550.318V545.073C1260.44 543.772 1260.72 542.466 1261.35 541.323C1262.2 540.337 1263.28 539.567 1264.49 539.073C1269 536.941 1273.74 535.323 1278.62 534.251C1284.34 532.849 1290.22 532.166 1296.12 532.216C1309.46 532.216 1319.22 535.108 1325.5 540.894C1331.67 546.679 1334.81 555.465 1334.81 567.252V601.965L1335.04 601.964ZM1289.5 618.25C1293.43 618.21 1297.32 617.559 1301.05 616.322C1305.13 614.985 1308.8 612.624 1311.71 609.464C1313.5 607.512 1314.81 605.162 1315.52 602.607C1316.29 599.56 1316.67 596.428 1316.64 593.286V588.786C1313.24 587.994 1309.79 587.385 1306.32 586.962C1302.82 586.537 1299.3 586.323 1295.78 586.319C1288.26 586.319 1282.77 587.712 1279.07 590.605C1275.37 593.498 1273.57 597.569 1273.57 602.926C1273.57 607.962 1274.92 611.706 1277.72 614.283C1280.41 616.965 1284.34 618.25 1289.5 618.25ZM1379.56 629.821C1378.06 629.971 1376.55 629.593 1375.3 628.75C1374.14 627.607 1373.32 626.159 1372.95 624.571L1346.59 541.75C1346.08 540.368 1345.74 538.929 1345.58 537.464C1345.53 537.1 1345.57 536.731 1345.69 536.385C1345.81 536.038 1346.01 535.724 1346.27 535.465C1346.53 535.207 1346.84 535.011 1347.19 534.893C1347.54 534.775 1347.91 534.739 1348.27 534.786H1359.26C1361.39 534.786 1362.85 535.107 1363.64 535.857C1364.53 536.501 1365.21 538 1365.88 540.035L1384.72 610.958L1402.22 540.035C1402.78 537.893 1403.45 536.501 1404.35 535.857C1405.71 535.067 1407.27 534.694 1408.84 534.786H1417.81C1419.94 534.786 1421.4 535.107 1422.3 535.857C1423.46 536.969 1424.21 538.442 1424.43 540.035L1442.15 611.821L1461.55 540.035C1461.92 538.468 1462.69 537.027 1463.8 535.857C1465.11 535.065 1466.64 534.691 1468.17 534.786H1478.6C1480.4 534.786 1481.41 535.643 1481.41 537.464C1481.38 538.04 1481.3 538.612 1481.18 539.174C1481 540.09 1480.74 540.987 1480.39 541.853L1453.36 624.674C1453.01 626.272 1452.19 627.729 1451.01 628.853C1449.73 629.631 1448.24 630.004 1446.74 629.924H1437.1C1434.97 629.924 1433.51 629.602 1432.61 628.853C1431.45 627.697 1430.7 626.191 1430.48 624.567L1413.1 555.46L1395.83 624.461C1395.56 626.069 1394.82 627.561 1393.7 628.747C1392.36 629.586 1390.78 629.962 1389.21 629.818L1379.56 629.821ZM1523.69 632.714C1517.88 632.721 1512.08 632.074 1506.42 630.786C1501.95 629.921 1497.61 628.48 1493.52 626.5C1492.09 625.864 1490.88 624.82 1490.04 623.5C1489.61 622.559 1489.38 621.536 1489.37 620.5V615.036C1489.37 612.786 1490.27 611.714 1491.95 611.714C1492.63 611.716 1493.31 611.825 1493.97 612.036C1494.64 612.25 1495.65 612.679 1496.77 613.107C1500.74 614.775 1504.88 616.032 1509.11 616.858C1513.51 617.709 1517.98 618.14 1522.46 618.143C1529.53 618.143 1535.02 616.965 1538.83 614.608C1540.63 613.597 1542.13 612.117 1543.15 610.325C1544.18 608.533 1544.7 606.495 1544.66 604.43C1544.7 603.039 1544.45 601.656 1543.93 600.366C1543.41 599.076 1542.63 597.907 1541.63 596.93C1539.62 594.894 1535.8 593.072 1530.31 591.359L1514.04 586.536C1505.86 584.072 1499.8 580.429 1496.1 575.608C1492.51 571.223 1490.53 565.74 1490.49 560.073C1490.4 555.907 1491.45 551.797 1493.52 548.18C1495.55 544.707 1498.3 541.712 1501.59 539.4C1505.12 536.859 1509.07 534.972 1513.26 533.828C1517.86 532.562 1522.62 531.948 1527.39 532.003C1529.9 531.986 1532.41 532.129 1534.91 532.432C1537.49 532.754 1539.84 533.182 1542.2 533.61C1544.44 534.146 1546.57 534.682 1548.59 535.32C1550.22 535.802 1551.8 536.448 1553.3 537.249C1554.61 537.876 1555.76 538.791 1556.66 539.927C1557.39 540.958 1557.75 542.203 1557.67 543.462V548.505C1557.67 550.755 1556.78 551.934 1555.09 551.934C1553.61 551.773 1552.16 551.337 1550.83 550.647C1544.02 547.779 1536.69 546.356 1529.3 546.468C1522.9 546.468 1517.86 547.433 1514.38 549.468C1512.69 550.401 1511.3 551.79 1510.37 553.477C1509.44 555.164 1509 557.08 1509.11 559.004C1509.08 560.44 1509.37 561.865 1509.95 563.178C1510.53 564.492 1511.39 565.664 1512.47 566.612C1514.72 568.647 1518.87 570.683 1524.81 572.505L1540.74 577.326C1548.81 579.791 1554.65 583.218 1558.12 587.612C1561.53 591.864 1563.35 597.165 1563.28 602.612C1563.34 606.93 1562.34 611.196 1560.37 615.04C1558.35 618.738 1555.56 621.954 1552.18 624.469C1548.44 627.237 1544.22 629.273 1539.73 630.469C1534.52 631.995 1529.12 632.752 1523.69 632.714Z" fill="#252F3E"/>
<path fill-rule="evenodd" clip-rule="evenodd" d="M1544.89 684.786C1507.99 710.821 1454.37 724.643 1408.28 724.643C1343.67 724.643 1285.46 701.821 1241.49 663.892C1238.02 660.892 1241.16 656.823 1245.31 659.179C1292.86 685.535 1351.52 701.5 1412.2 701.5C1455.82 701.3 1499.01 692.866 1539.5 676.642C1545.67 673.964 1550.94 680.5 1544.89 684.786Z" fill="#FF9900"/>
<path fill-rule="evenodd" clip-rule="evenodd" d="M1560.25 668.071C1555.54 662.286 1529.07 665.286 1517.07 666.679C1513.48 667.107 1512.92 664.107 1516.17 661.857C1537.26 647.718 1571.92 651.785 1575.96 656.498C1579.99 661.319 1574.83 694.427 1555.09 710.283C1552.06 712.748 1549.15 711.462 1550.49 708.247C1554.98 697.648 1564.96 673.75 1560.25 668.071Z" fill="#FF9900"/>
<path d="M481.316 1049.86H338.616V1013.33H481.316V1049.86Z" fill="#E669A2"/>
<path d="M462.781 1049.86H338.617V958.506H462.781V1049.86Z" fill="#F3BE26"/>
<path d="M411.483 1049.86H338.617V922H411.483V1049.86Z" fill="#EE9C34"/>
<path d="M425.818 1049.86H338.618V936.267H425.818V1049.86Z" fill="#F3BC87"/>
<path d="M338.597 936.283V1049.85H411.475V936.283H338.597Z" fill="#E3721C"/>
<path d="M265.549 1049.86H338.617V1068.12H265.549V1049.86Z" fill="#AD1B02"/>
<path d="M338.597 958.483V1049.84H425.858V958.483H338.597Z" fill="#E88D14"/>
<path d="M338.597 958.483V1049.84H411.475V958.483H338.597Z" fill="#D85604"/>
<path d="M384.184 1049.86H338.617V995.026H384.184V1049.86Z" fill="#C14303"/>
<path d="M338.597 1013.36V1049.84H462.823V1013.36H338.597Z" fill="#DB4E18"/>
<path d="M338.597 1013.36V1049.84H425.858V1013.36H338.597Z" fill="#D1390D"/>
<path d="M338.597 1013.36V1049.84H411.475V1013.36H338.597Z" fill="#C22303"/>
<path d="M338.597 1013.36V1049.84H384.229V1013.36H338.597Z" fill="#AD1B02"/>
<path d="M354.504 1118.65C342.071 1120.86 335.441 1130.25 335.441 1146.55C335.441 1163.13 344.282 1174.18 357.267 1174.18C363.621 1174.18 369.147 1171.97 380.75 1166.16V1179.7C366.66 1186.33 358.372 1187.99 347.321 1187.99C334.888 1187.99 326.047 1184.95 319.14 1177.49C315.555 1173.91 312.729 1169.64 310.83 1164.94C308.932 1160.24 307.999 1155.21 308.089 1150.14C308.089 1126.66 325.771 1110.35 351.465 1110.35C368.318 1110.35 380.198 1118.37 380.198 1129.69C380.198 1137.15 374.672 1142.4 366.66 1142.4C362.516 1142.4 359.201 1141.02 354.504 1138.54" fill="black"/>
<path d="M292.341 1150.14C303.669 1136.05 307.813 1130.25 307.813 1123.34C307.807 1121.62 307.458 1119.91 306.786 1118.32C306.114 1116.73 305.133 1115.28 303.899 1114.08C302.665 1112.87 301.203 1111.92 299.598 1111.28C297.993 1110.64 296.278 1110.33 294.551 1110.36C292.578 1110.41 290.634 1110.85 288.833 1111.66C287.031 1112.47 285.406 1113.62 284.051 1115.06V1144.07L265.54 1168.93V1112.57H247.858L218.573 1160.92V1112.57H208.627L181.827 1118.65V1125.55L196.47 1126.94V1186.89H214.98L243.161 1140.47V1186.89H263.882" fill="black"/>
<path d="M125.745 1177.5H129.889C144.808 1177.5 153.097 1168.38 153.097 1150.14C153.097 1134.95 146.466 1126.66 134.033 1126.66C131.242 1126.77 128.467 1127.14 125.745 1127.77V1177.5ZM125.745 1210.1L137.901 1212.86V1219.77H90.101V1212.86L101.158 1210.1V1126.66H89V1119.75L118.009 1110.91H125.745V1120.86C139.283 1112.57 143.98 1111.19 151.163 1111.19C167.187 1111.19 179.343 1126.11 179.343 1146.83C179.343 1170.59 163.043 1186.89 138.178 1186.89C135.415 1186.89 130.718 1186.61 125.745 1186.34" fill="black"/>
<path d="M928.86 565.789L937.511 565.937L961.025 542.424L962.164 532.465C948.724 520.499 932.45 512.167 914.885 508.259C897.32 504.351 879.047 504.998 861.802 510.137C844.557 515.276 828.912 524.737 816.352 537.622C803.791 550.508 794.732 566.39 790.035 583.76C792.601 581.971 798.087 583.312 798.087 583.312L845.056 575.59C845.056 575.59 847.47 571.594 848.694 571.793C858.753 560.73 872.666 553.938 887.576 552.812C902.486 551.686 917.261 556.311 928.867 565.737L928.86 565.789Z" fill="#E84436"/>
<path d="M994.027 583.86C988.624 563.996 977.544 546.14 962.145 532.479L928.861 565.763C935.693 571.252 941.206 578.203 944.995 586.106C948.783 594.008 950.75 602.66 950.751 611.424V617.299C958.534 617.299 965.999 620.391 971.503 625.895C977.006 631.398 980.098 638.863 980.098 646.647C980.098 654.43 977.006 661.895 971.503 667.399C965.999 672.903 958.534 675.995 950.751 675.995H892.055L886.182 681.903V717.124L892.055 722.969H950.751C967.029 722.982 982.884 717.786 995.997 708.14C1009.11 698.495 1018.79 684.907 1023.63 669.363C1028.47 653.82 1028.2 637.137 1022.87 621.755C1017.55 606.373 1007.44 593.098 994.027 583.874V583.86Z" fill="#517CBE"/>
<path d="M833.304 723H891.972V675.986H833.304C829.137 675.986 825.018 675.091 821.227 673.361L812.757 675.956L789.244 699.469L787.184 707.403C800.431 717.508 816.633 722.978 833.294 722.97L833.304 723Z" fill="#32A853"/>
<path d="M833.305 570.356C817.323 570.353 801.743 575.368 788.765 584.696C775.788 594.023 766.067 607.19 760.975 622.34C755.883 637.489 755.678 653.855 760.388 669.127C765.098 684.399 774.486 697.806 787.226 707.456L821.259 673.424C816.927 671.474 813.134 668.501 810.205 664.761C807.276 661.021 805.298 656.626 804.443 651.954C803.587 647.281 803.879 642.47 805.292 637.935C806.706 633.4 809.2 629.276 812.56 625.917C815.919 622.558 820.044 620.066 824.58 618.653C829.115 617.24 833.926 616.95 838.598 617.807C843.271 618.664 847.666 620.642 851.405 623.573C855.144 626.503 858.116 630.297 860.065 634.629L894.094 600.598C886.989 591.201 877.803 583.58 867.256 578.333C856.709 573.086 845.089 570.355 833.308 570.356H833.305Z" fill="#FBBC0C"/>
<path d="M1982.5 558.634L1939.7 588.289L1897.92 559.308L1855.8 588.289L1813 558.634L1897.92 500L1982.5 558.634Z" fill="#EC5F6E"/>
<path d="M1855.8 646.923V588.289L1813 558.634V676.578L1897.92 735.212V675.904L1855.8 646.923Z" fill="#66C7EC"/>
<path d="M1940.04 617.606H1897.92V675.904H1940.04V617.606Z" fill="#66C7EC"/>
<path d="M1897.92 735.212L1982.5 676.578V617.606L1897.92 675.904V735.212Z" fill="#004E85"/>
<path d="M1940.04 646.923L1897.92 617.606L1939.7 588.289L1982.5 617.606L1940.04 646.923Z" fill="#EC5F6E"/>
<path d="M2055.63 649.619C2056.92 652.199 2058.88 654.379 2061.32 655.924C2063.75 657.468 2066.56 658.317 2069.45 658.381C2078.21 658.381 2084.95 650.63 2084.95 641.532V640.858H2084.61C2082.24 643.285 2079.41 645.22 2076.28 646.55C2073.16 647.88 2069.8 648.579 2066.41 648.608C2051.58 648.608 2039.45 634.792 2039.45 617.943C2039.45 600.757 2051.58 587.278 2066.41 587.278C2073.49 587.278 2079.55 590.311 2084.61 595.365H2084.95V588.965H2098.76V641.534C2098.76 658.046 2086.3 671.525 2069.78 671.525C2064.5 671.542 2059.3 670.145 2054.74 667.478C2050.18 664.811 2046.41 660.972 2043.83 656.359L2055.63 649.619ZM2069.78 635.466C2078.55 635.466 2085.96 627.715 2085.96 617.943C2085.96 608.171 2078.55 600.42 2069.78 600.42C2061.02 600.42 2053.61 608.171 2053.61 617.943C2053.94 627.715 2061.02 635.466 2069.78 635.466H2069.78Z" fill="#66C7EC"/>
<path d="M2147.62 629.737L2157.39 639.173C2153.08 643.493 2147.59 646.444 2141.61 647.655C2135.63 648.866 2129.42 648.283 2123.77 645.979C2118.12 643.675 2113.27 639.753 2109.84 634.705C2106.41 629.658 2104.55 623.709 2104.49 617.606C2104.49 600.757 2117.63 586.941 2134.48 586.941C2150.99 586.941 2164.47 600.757 2164.47 617.606C2164.56 618.74 2164.45 619.883 2164.13 620.976H2118.3C2118.3 627.376 2126.05 635.129 2134.48 635.129C2139.87 635.466 2144.25 633.106 2147.62 629.737ZM2149.31 609.855C2146.27 603.79 2140.88 600.083 2134.48 600.083C2127.74 600.083 2122.69 603.79 2119.32 609.518V609.855H2149.31Z" fill="#66C7EC"/>
<path d="M2184.02 617.943V646.923H2170.2V588.963H2184.02V596.039H2184.35C2186.44 593.37 2189.1 591.199 2192.13 589.684C2195.16 588.169 2198.49 587.347 2201.88 587.278C2226.81 587.278 2227.49 609.855 2227.49 616.932V647.26H2213.67V618.28C2213.67 611.203 2213.67 600.757 2199.18 600.757C2190.76 600.42 2184.02 608.171 2184.02 617.943Z" fill="#66C7EC"/>
<path d="M2266.57 648.606C2263.14 648.634 2259.74 647.928 2256.6 646.533C2253.46 645.138 2250.66 643.087 2248.37 640.519H2248.04V669.836H2234.22V588.963H2248.04V595.028H2248.38C2253.43 590.311 2259.5 587.278 2266.58 587.278C2281.4 587.278 2293.54 601.094 2293.54 617.943C2293.54 634.792 2281.4 648.606 2266.57 648.606ZM2263.54 600.418C2254.44 600.418 2247.37 608.169 2247.37 617.941C2247.37 627.713 2254.44 635.464 2263.54 635.464C2272.3 635.464 2279.72 627.713 2279.72 617.941C2279.72 608.169 2272.3 600.42 2263.54 600.42V600.418Z" fill="#66C7EC"/>
<path d="M2325.21 587.278C2332.29 587.278 2338.35 590.311 2343.41 595.365H2343.75V588.965H2357.56V647.265H2343.74V641.2L2343.41 640.863C2341.03 643.29 2338.2 645.225 2335.08 646.555C2331.96 647.885 2328.6 648.584 2325.21 648.613C2310.38 648.613 2298.25 634.797 2298.25 617.948C2298.25 601.099 2310.38 587.278 2325.21 587.278ZM2328.24 635.466C2337 635.466 2344.42 627.715 2344.42 617.943C2344.42 608.171 2337.34 600.42 2328.24 600.42C2319.48 600.42 2312.07 608.171 2312.07 617.943C2312.07 627.715 2319.48 635.466 2328.24 635.466Z" fill="#66C7EC"/>
<path d="M2415.52 639.506C2411.97 643.165 2407.58 645.888 2402.72 647.429C2397.86 648.971 2392.7 649.284 2387.7 648.34C2382.69 647.397 2377.99 645.226 2374.03 642.022C2370.07 638.818 2366.97 634.681 2365 629.983C2363.03 625.284 2362.25 620.17 2362.74 615.099C2363.24 610.028 2364.98 605.158 2367.82 600.926C2370.65 596.694 2374.49 593.231 2379 590.848C2383.5 588.466 2388.53 587.238 2393.62 587.274C2397.7 587.238 2401.74 588.025 2405.5 589.589C2409.26 591.153 2412.67 593.461 2415.52 596.374L2405.75 605.474C2404.22 603.775 2402.35 602.417 2400.26 601.488C2398.17 600.559 2395.9 600.08 2393.62 600.082C2384.18 600.082 2376.77 608.17 2376.77 617.605C2376.77 627.377 2384.18 635.128 2393.62 635.128C2395.95 635.131 2398.27 634.655 2400.41 633.727C2402.56 632.799 2404.49 631.441 2406.09 629.736L2415.52 639.506Z" fill="#66C7EC"/>
<path d="M2443.49 602.106V646.924H2429.67V602.106H2419.9V588.626H2429.67V562.678H2443.49V588.963H2453.26V602.442H2443.49V602.106Z" fill="#66C7EC"/>
<path d="M1809.18 243.668C1789.33 243.668 1785.6 231.976 1786.44 218.655H1802.51C1802.51 226.018 1802.81 232.181 1811.65 232.181C1817.06 232.181 1819.71 228.661 1819.71 223.456C1819.71 209.644 1787.41 208.785 1787.41 185.912C1787.41 173.916 1793.16 164.332 1812.68 164.332C1828.33 164.332 1836.08 171.36 1835.01 187.411H1819.39C1819.39 181.664 1818.44 175.819 1811.97 175.819C1806.75 175.819 1803.66 178.685 1803.66 184.021C1803.66 198.58 1835.98 197.299 1835.98 221.435C1835.98 241.329 1821.41 243.668 1809.18 243.668" fill="#0C4DA2"/>
<path d="M1872.01 180.401H1871.79L1864.47 213.579H1879.77L1872.01 180.401ZM1841.08 242.367L1862.33 165.612H1883.47L1904.33 242.367H1887.4L1883.18 225.371H1861.27L1856.91 242.367" fill="#0C4DA2"/>
<path d="M1911.01 242.375V165.614H1936.83L1948.84 217.835H1949.04L1961.8 165.614H1986.78V242.375H1971.15V183.152H1970.95L1956.18 242.375H1940.86L1926.83 183.152H1926.62V242.375" fill="#0C4DA2"/>
<path d="M2020.16 243.668C2000.27 243.668 1996.56 231.976 1997.4 218.655H2013.46C2013.46 226.018 2013.78 232.181 2022.6 232.181C2028.02 232.181 2030.68 228.661 2030.68 223.456C2030.68 209.644 1998.35 208.785 1998.35 185.912C1998.35 173.916 2004.12 164.332 2023.65 164.332C2039.27 164.332 2047.04 171.36 2045.97 187.411H2030.36C2030.36 181.664 2029.38 175.819 2022.92 175.819C2017.71 175.819 2014.63 178.685 2014.63 184.021C2014.63 198.58 2046.94 197.299 2046.94 221.435C2046.94 241.329 2032.37 243.668 2020.16 243.668" fill="#0C4DA2"/>
<path d="M2109.74 165.612V220.053C2109.74 231.546 2103.25 243.667 2083.71 243.667C2066.05 243.667 2057.55 234.525 2057.55 220.053V165.612H2073.59V218.99C2073.59 228.455 2077.63 232.18 2083.49 232.18C2090.51 232.18 2093.69 227.498 2093.69 218.99V165.612" fill="#0C4DA2"/>
<path d="M2122.39 242.375V165.614H2144.07L2164.47 218.78H2164.69V165.614H2179.66V242.375H2158.52L2137.6 186.249H2137.38V242.375" fill="#0C4DA2"/>
<path d="M2227.73 189.215C2227.82 182.107 2226.65 175.825 2218.14 175.825C2208.15 175.825 2208.15 189.333 2208.15 204.221C2208.15 228.239 2210.5 232.505 2219.63 232.505C2222.29 232.505 2225.15 231.865 2227.61 231.019V213.991H2218.89V202.2H2243.66V241.131C2239.29 241.971 2228.34 243.668 2221.97 243.668C2194.97 243.668 2191.89 232.505 2191.89 203.363C2191.89 184.028 2192.84 164.339 2219.1 164.339C2234.82 164.339 2244.6 173.176 2243.66 189.215" fill="#0C4DA2"/>
<path d="M2300.92 243.668C2281.07 243.668 2277.34 231.976 2278.19 218.655H2294.23C2294.23 226.018 2294.55 232.181 2303.38 232.181C2308.8 232.181 2311.45 228.661 2311.45 223.456C2311.45 209.644 2279.14 208.785 2279.14 185.912C2279.14 173.916 2284.89 164.332 2304.44 164.332C2320.06 164.332 2327.81 171.36 2326.74 187.411H2311.13C2311.13 181.664 2310.19 175.819 2303.68 175.819C2298.48 175.819 2295.39 178.685 2295.39 184.021C2295.39 198.58 2327.73 197.299 2327.73 221.435C2327.73 241.329 2313.16 243.668 2300.92 243.668Z" fill="#0C4DA2"/>
<path d="M2355.03 230.584H2362.78C2372.56 230.584 2374.47 223.239 2374.47 204.004C2374.47 189.856 2374.47 177.424 2363.3 177.424H2355.03V230.584ZM2338.98 165.614H2365.75C2386.8 165.614 2390.72 179.651 2390.72 203.581C2390.72 215.391 2392.55 242.375 2365.12 242.375H2338.98" fill="#0C4DA2"/>
<path d="M2423.89 243.668C2404.03 243.668 2400.31 231.976 2401.13 218.655H2417.18C2417.18 226.018 2417.53 232.181 2426.32 232.181C2431.74 232.181 2434.42 228.661 2434.42 223.456C2434.42 209.644 2402.09 208.785 2402.09 185.912C2402.09 173.916 2407.84 164.332 2427.39 164.332C2443.01 164.332 2450.78 171.36 2449.71 187.411H2434.1C2434.1 181.664 2433.13 175.819 2426.66 175.819C2421.45 175.819 2418.36 178.685 2418.36 184.021C2418.36 198.58 2450.67 197.299 2450.67 221.435C2450.67 241.329 2436.11 243.668 2423.89 243.668" fill="#0C4DA2"/>
<g clip-path="url(#clip0)">
<path d="M1289.32 121.349L1329.58 106.372L1289.32 90.9674V70L1358.28 97.814V114.93L1289.32 142.744V121.349Z" fill="#A100FF"/>
<path d="M908.555 254C893.993 254 882 246.726 882 230.466V229.61C882 209.926 899.132 203.08 920.119 203.08H929.971V199.228C929.971 191.098 926.544 186.391 917.978 186.391C910.268 186.391 906.414 190.67 905.985 196.661H884.57C886.283 178.689 900.417 170.131 919.263 170.131C938.537 170.131 952.671 178.261 952.671 198.373V252.289H930.827V242.875C926.544 248.866 919.263 254 908.555 254ZM929.971 225.759V218.056H920.976C909.84 218.056 904.272 221.052 904.272 228.326V229.182C904.272 234.745 907.699 238.596 915.408 238.596C923.118 238.168 929.971 233.889 929.971 225.759ZM1003.64 254C981.368 254 965.092 240.307 965.092 212.921V211.638C965.092 184.252 982.224 169.703 1003.64 169.703C1022.06 169.703 1037.05 179.117 1038.76 200.084H1017.35C1016.06 192.382 1011.78 187.247 1004.07 187.247C994.645 187.247 987.792 194.949 987.792 210.782V213.349C987.792 229.61 993.789 236.884 1004.07 236.884C1011.78 236.884 1017.35 231.321 1018.63 222.335H1039.19C1037.9 241.163 1025.48 254 1003.64 254ZM1087.59 254C1065.32 254 1049.04 240.307 1049.04 212.921V211.638C1049.04 184.252 1066.17 169.703 1087.59 169.703C1106.01 169.703 1121 179.117 1122.71 200.084H1101.29C1100.01 192.382 1095.73 187.247 1088.02 187.247C1078.59 187.247 1071.74 194.949 1071.74 210.782V213.349C1071.74 229.61 1077.74 236.884 1088.02 236.884C1095.73 236.884 1101.29 231.321 1102.58 222.335H1123.14C1121.85 241.163 1109.43 254 1087.59 254ZM1171.97 254C1148.84 254 1132.99 240.307 1132.99 213.349V211.638C1132.99 184.68 1149.69 169.703 1171.54 169.703C1191.67 169.703 1208.37 180.828 1208.37 207.787V217.628H1155.69C1156.55 232.177 1162.97 237.74 1172.39 237.74C1180.96 237.74 1185.67 233.033 1187.38 227.47H1208.37C1205.8 242.447 1192.95 254 1171.97 254ZM1156.12 202.652H1186.1C1185.67 190.67 1180.1 185.535 1171.11 185.535C1164.26 185.963 1157.83 189.814 1156.12 202.652ZM1222.08 171.842H1244.78V183.824C1248.63 176.121 1256.77 170.131 1269.19 170.131C1283.75 170.131 1293.6 179.117 1293.6 198.373V252.289H1270.9V201.796C1270.9 192.382 1267.05 188.103 1258.91 188.103C1251.2 188.103 1244.78 192.81 1244.78 203.08V252.289H1222.08V171.842V171.842ZM1335.15 147.452V171.842H1350.57V188.531H1335.15V226.614C1335.15 232.605 1337.72 235.6 1343.29 235.6C1346.72 235.6 1348.86 235.173 1351 234.317V251.861C1348.43 252.717 1343.72 253.573 1338.15 253.573C1320.59 253.573 1312.45 245.442 1312.45 229.182V188.531H1303.03V171.842H1312.45V156.866L1335.15 147.452ZM1435.38 252.289H1413.1V240.307C1409.25 248.01 1401.54 254 1389.55 254C1374.98 254 1364.28 245.014 1364.28 226.187V171.842H1386.98V223.191C1386.98 232.605 1390.83 236.884 1398.54 236.884C1406.25 236.884 1412.67 231.749 1412.67 221.907V171.842H1435.38V252.289ZM1452.08 171.842H1474.78V186.819C1479.49 176.121 1487.2 170.987 1499.19 170.987V193.238C1483.77 193.238 1474.78 197.945 1474.78 211.21V252.717H1452.08V171.842ZM1545.02 254C1521.89 254 1506.05 240.307 1506.05 213.349V211.638C1506.05 184.68 1522.75 169.703 1544.59 169.703C1564.72 169.703 1581.43 180.828 1581.43 207.787V217.628H1529.17C1530.03 232.177 1536.46 237.74 1545.88 237.74C1554.44 237.74 1559.16 233.033 1560.87 227.47H1581.86C1578.43 242.447 1566.01 254 1545.02 254ZM1528.75 202.652H1559.16C1558.73 190.67 1553.16 185.535 1544.17 185.535C1537.31 185.963 1530.89 189.814 1528.75 202.652Z" fill="black"/>
</g>
<defs>
<clipPath id="clip0">
<rect width="699" height="184" fill="white" transform="translate(882 70)"/>
</clipPath>
</defs>
</svg>
