<svg id="ae0c0ec9-2c26-4846-924e-5bba036fa5e0" data-name="Layer 1" xmlns="http://www.w3.org/2000/svg" viewBox="0 0 2048 858">
  <defs>
    <style>
      .a9b0e11c-14f2-46d3-b968-7d31449b9328, .a9e68745-924e-4cd0-9779-c74222c0e981, .b633436c-deac-4bdb-af20-655dec84d4fd, .bbf24096-f204-4552-80e3-07c9e3348711, .f611fcef-1caf-430d-b792-70b7c7cf49a2 {
        fill: none;
      }

      .a9b0e11c-14f2-46d3-b968-7d31449b9328, .a9e68745-924e-4cd0-9779-c74222c0e981, .b633436c-deac-4bdb-af20-655dec84d4fd, .bbf24096-f204-4552-80e3-07c9e3348711 {
        stroke: #fff;
      }

      .a9b0e11c-14f2-46d3-b968-7d31449b9328, .b633436c-deac-4bdb-af20-655dec84d4fd, .bbf24096-f204-4552-80e3-07c9e3348711 {
        stroke-linecap: round;
      }

      .a9b0e11c-14f2-46d3-b968-7d31449b9328, .a9e68745-924e-4cd0-9779-c74222c0e981, .aa20a325-053f-4703-a5d4-2398ab2648c6, .b633436c-deac-4bdb-af20-655dec84d4fd, .bbf24096-f204-4552-80e3-07c9e3348711, .f611fcef-1caf-430d-b792-70b7c7cf49a2 {
        stroke-miterlimit: 10;
      }

      .b633436c-deac-4bdb-af20-655dec84d4fd {
        stroke-width: 2.2564px;
        stroke-dasharray: 0 9.0257;
      }

      .aa20a325-053f-4703-a5d4-2398ab2648c6 {
        fill: #d2d2d2;
        stroke: #231f20;
      }

      .f611fcef-1caf-430d-b792-70b7c7cf49a2 {
        stroke: #ff1e39;
      }

      .b7ef89f5-6c2c-4eef-a58d-a54e75ad403c {
        fill: #fff;
      }

      .f4aa6c0e-2e85-4a84-a027-2d87ac2c3758 {
        fill: #b5b5b5;
      }

      .a9b0e11c-14f2-46d3-b968-7d31449b9328, .f4aa6c0e-2e85-4a84-a027-2d87ac2c3758 {
        fill-rule: evenodd;
      }

      .a9b0e11c-14f2-46d3-b968-7d31449b9328, .bbf24096-f204-4552-80e3-07c9e3348711 {
        stroke-width: 2.327px;
        stroke-dasharray: 0 9.3081;
      }
    </style>
  </defs>
  <rect y="-1.3763" width="2048" height="859.9794"/>
  <rect class="b633436c-deac-4bdb-af20-655dec84d4fd" x="547.9213" y="217.4418" width="943.8478" height="500.1394"/>
  <g>
    <rect class="aa20a325-053f-4703-a5d4-2398ab2648c6" x="580.2841" y="251.1273" width="438.7155" height="96.8309" rx="48.4154"/>
    <g>
      <path d="M654.7709,305.7344h-1.8457l-4.29-8.0606h-4.1866v8.0606H642.811V287.1436h5.2255c4.1084,0,6.2666,2.0019,6.2666,5.2519a4.81,4.81,0,0,1-4.082,5.0967Zm-10.3223-17.1865v7.7744h3.9786c3.042,0,4.2636-1.5606,4.2636-3.9,0-2.21-1.2216-3.874-4.706-3.874Z"/>
      <path d="M668.9672,299.26H658.6186c.0781,3.0429,1.5595,5.4609,4.8623,5.4609a3.5928,3.5928,0,0,0,3.9-3.12h1.5859a5.1718,5.1718,0,0,1-5.5645,4.42c-4.16,0-6.3964-3.12-6.3964-7.0459s2.2617-7.0469,6.1884-7.0469c3.9,0,5.7725,3.0166,5.7725,6.5528ZM658.67,298.0117h8.7364c-.1563-2.6777-1.3516-4.7842-4.212-4.7842C660.3861,293.2275,658.93,295.2559,658.67,298.0117Z"/>
      <path d="M680.8236,292.2139h1.6377l-4.8877,13.52h-2.1582l-4.8886-13.52h1.6386l4.3418,12.5068Z"/>
      <path d="M695.7475,299.26H685.3988c.0782,3.0429,1.56,5.4609,4.8623,5.4609a3.5913,3.5913,0,0,0,3.8995-3.12h1.5869a5.1725,5.1725,0,0,1-5.5645,4.42c-4.16,0-6.3965-3.12-6.3965-7.0459s2.2627-7.0469,6.1885-7.0469c3.9,0,5.7725,3.0166,5.7725,6.5528Zm-10.2969-1.2481h8.7363c-.1562-2.6777-1.3515-4.7842-4.2119-4.7842C687.1664,293.2275,685.71,295.2559,685.4506,298.0117Z"/>
      <path d="M709.474,296.998v8.7364h-1.6113v-8.4239c0-3.0166-1.1709-4.03-3.1982-4.03a4.8513,4.8513,0,0,0-4.4463,3.5879v8.8662h-1.6123v-13.52h1.6123v2.73a5.53,5.53,0,0,1,4.914-3.0166C707.81,291.9277,709.474,293.3574,709.474,296.998Z"/>
      <path d="M722.059,292.2139H723.67v13.52H722.059v-2.7305a5.4911,5.4911,0,0,1-4.8887,3.0166c-2.6777,0-4.3681-1.4307-4.3681-5.07v-8.7363h1.6123v8.4248c0,3.0156,1.1953,4.0293,3.1982,4.0293a4.8535,4.8535,0,0,0,4.4463-3.5879Z"/>
      <path d="M738.4125,299.26H728.0639c.0781,3.0429,1.56,5.4609,4.8623,5.4609a3.5928,3.5928,0,0,0,3.9-3.12h1.5859a5.1717,5.1717,0,0,1-5.5644,4.42c-4.16,0-6.3965-3.12-6.3965-7.0459s2.2617-7.0469,6.1885-7.0469c3.9,0,5.7724,3.0166,5.7724,6.5528Zm-10.2969-1.2481h8.7364c-.1563-2.6777-1.3516-4.7842-4.2119-4.7842C729.8315,293.2275,728.3754,295.2559,728.1156,298.0117Z"/>
      <path d="M754.766,298.0381v-1.4043h8.1905v7.0986a11.4409,11.4409,0,0,1-7.2286,2.2881c-5.5644,0-8.9707-3.7705-8.9707-9.6465,0-5.6162,3.4063-9.5166,8.6846-9.5166,4.2119,0,7.15,2.4961,7.54,6.1621h-1.6376c-.3379-2.7812-2.6524-4.7314-5.9541-4.7314-4.1866,0-6.9424,3.1982-6.9424,8.0859,0,5.2,2.8086,8.2158,7.3847,8.2158a8.9474,8.9474,0,0,0,5.4854-1.5078v-5.0439Z"/>
      <path d="M774.5258,292.1621v1.4561a7.26,7.26,0,0,0-1.3789-.1045,4.4056,4.4056,0,0,0-4.3936,3.4062v8.8145H767.141v-13.52h1.6123V295.1a5.0483,5.0483,0,0,1,4.6026-3.042A5.2925,5.2925,0,0,1,774.5258,292.1621Z"/>
      <path d="M775.2533,298.9746c0-4.083,2.34-7.0469,6.3184-7.0469s6.3184,2.9639,6.3184,7.0469-2.4444,7.0459-6.3184,7.0459C777.5932,306.0205,775.2533,303.0566,775.2533,298.9746Zm10.9991,0c0-3.2764-1.5088-5.7471-4.6807-5.7471s-4.7061,2.4707-4.7061,5.7471c0,3.3018,1.5342,5.7461,4.7061,5.7461S786.2524,302.2764,786.2524,298.9746Z"/>
      <path d="M806.5063,292.2139h1.6377l-3.8741,13.52h-2.1582L798.68,293.54l-3.4326,12.1944h-2.1582l-3.8741-13.52h1.6387l3.4063,12.3506,3.4316-12.3506h1.9766L803.1,304.5645Z"/>
      <path d="M818.933,293.4883h-4.914v8.8144c0,1.7676.8056,2.2618,2.4179,2.2618a9.8817,9.8817,0,0,0,2.2364-.26v1.2734a13.5675,13.5675,0,0,1-2.5225.2862c-2.5215,0-3.7441-.91-3.7441-3.4581v-8.9179h-3.3282v-1.2744h3.3282v-5.07h1.6123v5.07h4.914Z"/>
      <path d="M832.6615,296.998v8.7364h-1.5859v-8.4239c0-3.0166-1.1963-4.03-3.1982-4.03a4.8512,4.8512,0,0,0-4.4454,3.5879v8.8662H821.82V285.9736h1.6123v8.9444a5.483,5.483,0,0,1,4.8877-2.99C830.9975,291.9277,832.6615,293.3574,832.6615,296.998Z"/>
      <path d="M854.9692,292.5518c0,3.3544-2.0284,5.4082-6.2139,5.4082h-4.2647v7.7744h-1.6377V287.1436h5.9024C852.9408,287.1436,854.9692,289.1973,854.9692,292.5518Zm-6.292,4.03c3.5879,0,4.68-1.69,4.68-4.03,0-2.3135-1.0917-4.0039-4.68-4.0039h-4.1866v8.0341Z"/>
      <path d="M857.9584,305.7344V285.9736h1.6123v19.7608Z"/>
      <path d="M875.3266,304.4346v1.3h-.52c-1.794,0-2.6524-.7539-2.7823-2.4444a5.3094,5.3094,0,0,1-4.8877,2.6788c-2.6787,0-4.3945-1.3262-4.3945-3.7188,0-2.626,1.9766-4.1855,6.1367-4.3936l3.12-.13v-.7022c0-2.4961-.5469-3.7969-3.3545-3.7969-2.1319,0-3.6924.91-3.6924,2.7823h-1.56c0-2.5743,2.1055-4.0557,5.2256-4.0557,3.5889,0,4.9922,1.5342,4.9922,5.1221v5.46c0,1.378.2607,1.8985,1.248,1.8985Zm-3.3281-3.9268v-1.5859l-2.8868.1562c-2.2881.1035-4.7578.5459-4.7578,3.042,0,1.6641,1.1182,2.5742,3.042,2.5742A4.5167,4.5167,0,0,0,871.9985,300.5078Z"/>
      <path d="M888.7162,296.998v8.7364h-1.6113v-8.4239c0-3.0166-1.1709-4.03-3.1982-4.03a4.8512,4.8512,0,0,0-4.4463,3.5879v8.8662h-1.6123v-13.52H879.46v2.73a5.53,5.53,0,0,1,4.914-3.0166C887.0522,291.9277,888.7162,293.3574,888.7162,296.998Z"/>
      <path d="M903.0414,296.998v8.7364H901.43v-8.4239c0-3.0166-1.17-4.03-3.1983-4.03a4.8512,4.8512,0,0,0-4.4462,3.5879v8.8662h-1.6123v-13.52h1.6123v2.73a5.53,5.53,0,0,1,4.914-3.0166C901.3774,291.9277,903.0414,293.3574,903.0414,296.998Z"/>
      <path d="M906.6293,285.9736h1.5859v3.9258h-1.5859Zm0,19.7608v-13.52h1.5859v13.52Z"/>
      <path d="M922.8022,296.998v8.7364h-1.6114v-8.4239c0-3.0166-1.1709-4.03-3.1982-4.03a4.8513,4.8513,0,0,0-4.4463,3.5879v8.8662H911.934v-13.52h1.6123v2.73a5.53,5.53,0,0,1,4.9141-3.0166C921.1381,291.9277,922.8022,293.3574,922.8022,296.998Z"/>
      <path d="M936.1918,292.2139h1.5859v11.4922c0,4.6025-2.0283,6.9941-6.3437,6.9941-4.1348,0-5.5908-2.1055-6.0068-3.874h1.5605c.4414,1.248,1.56,2.6259,4.4463,2.6259,3.3535,0,4.7578-1.7158,4.7578-5.59v-1.6377A5.2242,5.2242,0,0,1,931.33,305.37c-3.7441,0-5.9023-2.86-5.9023-6.5781,0-3.77,2.2627-6.8643,5.9023-6.8643a5.0582,5.0582,0,0,1,4.8623,3.1465Zm0,6.5517c0-2.9892-1.5342-5.5381-4.5762-5.5381-2.9638,0-4.5507,2.5743-4.5507,5.5381,0,2.99,1.5869,5.3047,4.5507,5.3047C934.45,304.07,936.1918,301.6777,936.1918,298.7656Z"/>
    </g>
  </g>
  <g>
    <rect class="aa20a325-053f-4703-a5d4-2398ab2648c6" x="727.4362" y="362.6022" width="438.7155" height="96.8309" rx="48.4154"/>
    <g>
      <path d="M823.3315,401.2988h-1.8457l-4.29-8.0605h-4.1865v8.0605h-1.6377V382.708h5.2256c4.1084,0,6.2666,2.002,6.2666,5.252a4.81,4.81,0,0,1-4.082,5.0966Zm-10.3223-17.1865v7.7744h3.9785c3.042,0,4.2637-1.5605,4.2637-3.9,0-2.21-1.2217-3.874-4.7061-3.874Z"/>
      <path d="M837.5277,394.8242H827.1791c.0781,3.043,1.56,5.461,4.8623,5.461a3.5912,3.5912,0,0,0,3.8994-3.12h1.5869a5.1724,5.1724,0,0,1-5.5644,4.42c-4.16,0-6.3965-3.12-6.3965-7.0459s2.2627-7.0469,6.1885-7.0469c3.9,0,5.7724,3.0166,5.7724,6.5527Zm-10.2968-1.248h8.7363c-.1562-2.6778-1.3516-4.7842-4.2119-4.7842C828.9467,388.792,827.4906,390.82,827.2309,393.5762Z"/>
      <path d="M849.3842,387.7783h1.6377l-4.8877,13.5205H843.976l-4.8887-13.5205h1.6387l4.3418,12.5069Z"/>
      <path d="M864.308,394.8242H853.9594c.0781,3.043,1.56,5.461,4.8623,5.461a3.5929,3.5929,0,0,0,3.9-3.12h1.5859a5.1718,5.1718,0,0,1-5.5644,4.42c-4.16,0-6.3965-3.12-6.3965-7.0459s2.2617-7.0469,6.1885-7.0469c3.9,0,5.7724,3.0166,5.7724,6.5527Zm-10.2969-1.248h8.7364c-.1563-2.6778-1.3516-4.7842-4.2119-4.7842C855.727,388.792,854.2709,390.82,854.0111,393.5762Z"/>
      <path d="M878.0346,392.5625v8.7363h-1.6113V392.875c0-3.0166-1.17-4.03-3.1983-4.03a4.8515,4.8515,0,0,0-4.4463,3.5879v8.8662h-1.6123V387.7783h1.6123v2.7305a5.53,5.53,0,0,1,4.9141-3.0166C876.3705,387.4922,878.0346,388.9219,878.0346,392.5625Z"/>
      <path d="M890.6186,387.7783h1.6123v13.5205h-1.6123v-2.73a5.49,5.49,0,0,1-4.8877,3.0166c-2.6778,0-4.3682-1.4307-4.3682-5.07v-8.7363h1.6123v8.4248c0,3.0157,1.1963,4.0293,3.1983,4.0293a4.8512,4.8512,0,0,0,4.4453-3.5879Z"/>
      <path d="M906.9731,394.8242H896.6244c.0782,3.043,1.56,5.461,4.8623,5.461a3.5912,3.5912,0,0,0,3.8994-3.12h1.587a5.1726,5.1726,0,0,1-5.5645,4.42c-4.16,0-6.3965-3.12-6.3965-7.0459s2.2627-7.0469,6.1885-7.0469c3.9,0,5.7725,3.0166,5.7725,6.5527Zm-10.2969-1.248h8.7363c-.1562-2.6778-1.3515-4.7842-4.2119-4.7842C898.392,388.792,896.936,390.82,896.6762,393.5762Z"/>
      <path d="M916.54,401.2988V382.708h1.6377v18.5908Z"/>
      <path d="M933.2582,392.5625v8.7363h-1.6113V392.875c0-3.0166-1.1709-4.03-3.1983-4.03a4.8513,4.8513,0,0,0-4.4462,3.5879v8.8662H922.39V387.7783h1.6123v2.7305a5.53,5.53,0,0,1,4.914-3.0166C931.5942,387.4922,933.2582,388.9219,933.2582,392.5625Z"/>
      <path d="M936.8451,381.5381h1.586v3.9258h-1.586Zm0,19.7607V387.7783h1.586v13.5205Z"/>
      <path d="M950.47,389.0527h-4.914v8.8145c0,1.7676.8056,2.2617,2.4179,2.2617a9.876,9.876,0,0,0,2.2364-.26v1.2735a13.5657,13.5657,0,0,1-2.5225.2861c-2.5215,0-3.7441-.91-3.7441-3.458v-8.918h-3.3282v-1.2744h3.3282v-5.07h1.6123v5.07h4.914Z"/>
      <path d="M953.2514,381.5381h1.5859v3.9258h-1.5859Zm0,19.7607V387.7783h1.5859v13.5205Z"/>
      <path d="M970.517,399.999v1.3h-.5205c-1.7939,0-2.6523-.7539-2.7822-2.4443a5.31,5.31,0,0,1-4.8877,2.6787c-2.6787,0-4.3946-1.3262-4.3946-3.7187,0-2.626,1.9766-4.1856,6.1368-4.3936l3.12-.13v-.7021c0-2.4961-.5469-3.7969-3.3545-3.7969-2.1318,0-3.6924.91-3.6924,2.7822h-1.56c0-2.5742,2.1055-4.0556,5.2256-4.0556,3.5889,0,4.9922,1.5341,4.9922,5.122v5.46c0,1.3779.2608,1.8984,1.2481,1.8984Zm-3.3281-3.9267v-1.586l-2.8867.1563c-2.2881.1035-4.7579.5459-4.7579,3.042,0,1.664,1.1182,2.5742,3.042,2.5742A4.5167,4.5167,0,0,0,967.1889,396.0723Z"/>
      <path d="M980.9154,389.0527h-4.914v8.8145c0,1.7676.8056,2.2617,2.4179,2.2617a9.8753,9.8753,0,0,0,2.2364-.26v1.2735a13.5657,13.5657,0,0,1-2.5225.2861c-2.5215,0-3.7441-.91-3.7441-3.458v-8.918H971.061v-1.2744h3.3281v-5.07h1.6123v5.07h4.914Z"/>
      <path d="M983.6977,381.5381h1.5859v3.9258h-1.5859Zm0,19.7607V387.7783h1.5859v13.5205Z"/>
      <path d="M998.18,387.7783h1.6377L994.93,401.2988h-2.1582l-4.8887-13.5205h1.6387l4.3418,12.5069Z"/>
      <path d="M1013.1039,394.8242h-10.3486c.0781,3.043,1.56,5.461,4.8623,5.461a3.5912,3.5912,0,0,0,3.8994-3.12h1.5869a5.1725,5.1725,0,0,1-5.5644,4.42c-4.16,0-6.3965-3.12-6.3965-7.0459s2.2627-7.0469,6.1885-7.0469c3.9,0,5.7724,3.0166,5.7724,6.5527Zm-10.2969-1.248h8.7364c-.1563-2.6778-1.3516-4.7842-4.2119-4.7842C1004.5229,388.792,1003.0668,390.82,1002.807,393.5762Z"/>
      <path d="M1015.73,391.2627c0-2.3408,2.0273-3.7441,5.0176-3.7441,3.7959,0,5.0439,2.288,5.0439,3.8476h-1.56c-.13-1.3779-1.1445-2.5742-3.5361-2.5742-1.8467,0-3.38.65-3.38,2.3408,0,3.7178,8.7881,1.5078,8.7881,6.5781,0,2.5215-2.1064,3.8741-5.1221,3.8741-3.9785,0-5.8242-2.2364-5.8242-4.5762h1.56c.13,2.626,2.5479,3.2764,4.2646,3.2764,1.43,0,3.5362-.4942,3.5362-2.5225C1024.518,394.0449,1015.73,396.28,1015.73,391.2627Z"/>
      <path d="M1050.8549,391.0283l-4.3936,6.11,3.9258,4.16H1048.49l-2.86-3.042a7.9579,7.9579,0,0,1-6.292,3.3282c-2.8086,0-4.7851-1.6377-4.7851-4.1338,0-2.419,1.69-4.1866,4.7588-6.0069-2.002-2.3134-2.5225-3.458-2.5225-4.914,0-2.418,1.7939-4.1084,4.6543-4.1084,2.7558,0,4.3682,1.5078,4.3682,3.6924,0,1.9755-1.6641,3.874-4.4463,5.6425l4.16,4.3936,3.6406-5.1221Zm-6.1621,6.24-2.9375-3.12c-.5986-.624-1.1182-1.1963-1.586-1.7158-2.8349,1.7158-4.03,3.1455-4.03,4.9141,0,1.8457,1.456,2.9121,3.3281,2.9121C1041.4428,400.2588,1043.1332,399.2451,1044.6928,397.2686Zm-6.4219-10.66c0,1.17.5459,2.2617,2.21,4.1865l.0517-.0263c2.5225-1.4825,3.8223-3.12,3.8223-4.628,0-1.4824-1.0664-2.4707-2.9121-2.4707A2.84,2.84,0,0,0,1038.2709,386.6084Z"/>
      <path d="M823.3315,432.499h-1.8457l-4.29-8.0605h-4.1865v8.0605h-1.6377V413.9082h5.2256c4.1084,0,6.2666,2.002,6.2666,5.252a4.81,4.81,0,0,1-4.082,5.0966Zm-10.3223-17.1865v7.7744h3.9785c3.042,0,4.2637-1.56,4.2637-3.9,0-2.21-1.2217-3.874-4.7061-3.874Z"/>
      <path d="M837.5277,426.0244H827.1791c.0781,3.042,1.56,5.461,4.8623,5.461a3.5912,3.5912,0,0,0,3.8994-3.12h1.5869a5.1724,5.1724,0,0,1-5.5644,4.42c-4.16,0-6.3965-3.12-6.3965-7.0469s2.2627-7.0459,6.1885-7.0459c3.9,0,5.7724,3.0166,5.7724,6.5527Zm-10.2968-1.248h8.7363c-.1562-2.6778-1.3516-4.7842-4.2119-4.7842C828.9467,419.9922,827.4906,422.0205,827.2309,424.7764Z"/>
      <path d="M840.1537,422.4629c0-2.34,2.0274-3.7441,5.0176-3.7441,3.7959,0,5.0439,2.288,5.0439,3.8476h-1.5595c-.13-1.3779-1.1446-2.5742-3.5362-2.5742-1.8466,0-3.38.65-3.38,2.3408,0,3.7178,8.788,1.5078,8.788,6.5781,0,2.5215-2.1064,3.8741-5.122,3.8741-3.9785,0-5.8242-2.2364-5.8242-4.5762h1.5595c.13,2.626,2.5479,3.2764,4.2647,3.2764,1.43,0,3.5361-.4942,3.5361-2.5225C848.9418,425.2451,840.1537,427.4805,840.1537,422.4629Z"/>
      <path d="M852.5287,425.7383c0-4.0821,2.34-7.0459,6.3184-7.0459s6.3183,2.9638,6.3183,7.0459-2.4443,7.0469-6.3183,7.0469C854.8686,432.7852,852.5287,429.8213,852.5287,425.7383Zm10.9981,0c0-3.2754-1.5078-5.7461-4.68-5.7461s-4.7061,2.4707-4.7061,5.7461c0,3.3027,1.5342,5.7471,4.7061,5.7471S863.5268,429.041,863.5268,425.7383Z"/>
      <path d="M877.0463,418.9785h1.6123V432.499h-1.6123v-2.73a5.4877,5.4877,0,0,1-4.8877,3.0166c-2.6777,0-4.3682-1.43-4.3682-5.07v-8.7363h1.6123v8.4238c0,3.0166,1.1963,4.03,3.1983,4.03a4.8511,4.8511,0,0,0,4.4453-3.5879Z"/>
      <path d="M889.6567,418.9268v1.456a7.2571,7.2571,0,0,0-1.378-.1045,4.4051,4.4051,0,0,0-4.3945,3.4063v8.8144h-1.6123V418.9785h1.6123v2.8858a5.0477,5.0477,0,0,1,4.6016-3.042A5.2961,5.2961,0,0,1,889.6567,418.9268Z"/>
      <path d="M890.4106,425.7383c0-3.9258,2.2627-7.0459,6.4228-7.0459a5.118,5.118,0,0,1,5.5117,4.7588h-1.5605a3.7692,3.7692,0,0,0-4.0557-3.459c-3.1982,0-4.706,2.6006-4.706,5.7461,0,3.1211,1.6123,5.7471,4.706,5.7471,2.7041,0,3.9522-1.6641,4.29-3.8487H902.58a5.4659,5.4659,0,0,1-5.7461,5.1485C892.6733,432.7852,890.4106,429.665,890.4106,425.7383Z"/>
      <path d="M916.4633,426.0244H906.1147c.0781,3.042,1.56,5.461,4.8623,5.461a3.5912,3.5912,0,0,0,3.8994-3.12h1.5869a5.1725,5.1725,0,0,1-5.5645,4.42c-4.16,0-6.3964-3.12-6.3964-7.0469s2.2627-7.0459,6.1884-7.0459c3.9,0,5.7725,3.0166,5.7725,6.5527Zm-10.2969-1.248h8.7363c-.1562-2.6778-1.3515-4.7842-4.2119-4.7842C907.8822,419.9922,906.4262,422.0205,906.1664,424.7764Z"/>
      <path d="M940.6938,413.9082H942.93V432.499h-1.6123V416.2744l-6.292,16.3291H933.934l-6.3184-16.3291V432.499H926.03V413.9082h2.21l6.24,16.1465Z"/>
      <path d="M959.1283,431.1992v1.3h-.52c-1.7939,0-2.6523-.7539-2.7822-2.4443a5.3076,5.3076,0,0,1-4.8877,2.6787c-2.6787,0-4.3945-1.3262-4.3945-3.7188,0-2.6259,1.9765-4.1855,6.1367-4.3935l3.12-.1309v-.7011c0-2.4961-.5469-3.7969-3.3545-3.7969-2.1318,0-3.6924.91-3.6924,2.7822h-1.5595c0-2.5742,2.1054-4.0556,5.2255-4.0556,3.5889,0,4.9922,1.5341,4.9922,5.122v5.46c0,1.3779.2608,1.8984,1.2481,1.8984ZM955.8,427.2725v-1.586l-2.8867.1563c-2.2881.1045-4.7578.5459-4.7578,3.042,0,1.664,1.1181,2.5742,3.042,2.5742A4.5166,4.5166,0,0,0,955.8,427.2725Z"/>
      <path d="M972.517,423.7627v8.7363h-1.6113v-8.4248c0-3.0156-1.17-4.0293-3.1983-4.0293a4.8515,4.8515,0,0,0-4.4463,3.5879v8.8662h-1.6123V418.9785h1.6123v2.7305a5.5316,5.5316,0,0,1,4.9141-3.0166C970.8529,418.6924,972.517,420.123,972.517,423.7627Z"/>
      <path d="M987.936,431.1992v1.3h-.5206c-1.7939,0-2.6523-.7539-2.7822-2.4443a5.3076,5.3076,0,0,1-4.8877,2.6787c-2.6787,0-4.3945-1.3262-4.3945-3.7188,0-2.6259,1.9766-4.1855,6.1367-4.3935l3.12-.1309v-.7011c0-2.4961-.5459-3.7969-3.3545-3.7969-2.1318,0-3.6923.91-3.6923,2.7822h-1.56c0-2.5742,2.1054-4.0556,5.2256-4.0556,3.5888,0,4.9922,1.5341,4.9922,5.122v5.46c0,1.3779.2607,1.8984,1.248,1.8984Zm-3.3282-3.9267v-1.586l-2.8867.1563c-2.2881.1045-4.7578.5459-4.7578,3.042,0,1.664,1.1182,2.5742,3.042,2.5742A4.5166,4.5166,0,0,0,984.6078,427.2725Z"/>
      <path d="M1000.26,418.9785h1.5859v11.4922c0,4.6025-2.0283,6.9941-6.3447,6.9941-4.1338,0-5.59-2.1054-6.0059-3.874h1.5606c.4414,1.2481,1.5595,2.626,4.4453,2.626,3.3545,0,4.7588-1.7158,4.7588-5.59v-1.6377a5.2244,5.2244,0,0,1-4.8623,3.1455c-3.7442,0-5.9024-2.8594-5.9024-6.5782,0-3.7695,2.2617-6.8642,5.9024-6.8642a5.0572,5.0572,0,0,1,4.8623,3.1465Zm0,6.5527c0-2.99-1.5342-5.539-4.5762-5.539-2.9639,0-4.55,2.5742-4.55,5.539,0,2.9893,1.5859,5.3038,4.55,5.3038C998.518,430.835,1000.26,428.4434,1000.26,425.5312Z"/>
      <path d="M1016.5873,426.0244h-10.3486c.0781,3.042,1.56,5.461,4.8623,5.461a3.5929,3.5929,0,0,0,3.9-3.12h1.5859a5.1718,5.1718,0,0,1-5.5644,4.42c-4.16,0-6.3965-3.12-6.3965-7.0469s2.2617-7.0459,6.1885-7.0459c3.9,0,5.7724,3.0166,5.7724,6.5527Zm-10.2969-1.248h8.7364c-.1563-2.6778-1.3516-4.7842-4.2119-4.7842C1008.0063,419.9922,1006.55,422.0205,1006.29,424.7764Z"/>
      <path d="M1038.61,424.2051v8.2939h-1.6123v-8.0605c0-3.12-.9356-4.3936-2.9385-4.3936-2.1318,0-3.7695,1.9239-4.2119,3.6133v8.8408h-1.6123v-8.0605c0-3.12-.9356-4.3936-2.9639-4.3936-2.1318,0-3.7441,1.8975-4.2119,3.5879v8.8662h-1.6123V418.9785h1.6123v2.7305a5.41,5.41,0,0,1,4.6543-3.0166c2.1582,0,3.4834,1.0146,3.9521,3.38a5.4091,5.4091,0,0,1,4.836-3.38C1037.1791,418.6924,1038.61,420.2783,1038.61,424.2051Z"/>
      <path d="M1053.2211,426.0244h-10.3486c.0781,3.042,1.56,5.461,4.8623,5.461a3.5912,3.5912,0,0,0,3.8994-3.12h1.5869a5.1725,5.1725,0,0,1-5.5644,4.42c-4.16,0-6.3965-3.12-6.3965-7.0469s2.2627-7.0459,6.1884-7.0459c3.9,0,5.7725,3.0166,5.7725,6.5527Zm-10.2969-1.248h8.7364c-.1563-2.6778-1.3516-4.7842-4.212-4.7842C1044.64,419.9922,1043.184,422.0205,1042.9242,424.7764Z"/>
      <path d="M1066.9486,423.7627v8.7363h-1.6113v-8.4248c0-3.0156-1.17-4.0293-3.1982-4.0293a4.8514,4.8514,0,0,0-4.4463,3.5879v8.8662h-1.6123V418.9785h1.6123v2.7305a5.5313,5.5313,0,0,1,4.914-3.0166C1065.2846,418.6924,1066.9486,420.123,1066.9486,423.7627Z"/>
      <path d="M1078.726,420.2529h-4.9141v8.8135c0,1.7686.8057,2.2627,2.418,2.2627a9.8745,9.8745,0,0,0,2.2363-.26v1.2735a13.5647,13.5647,0,0,1-2.5224.2861c-2.5215,0-3.7442-.91-3.7442-3.458v-8.918h-3.3281v-1.2744H1072.2v-5.07h1.6123v5.07h4.9141Z"/>
    </g>
  </g>
  <g>
    <rect class="aa20a325-053f-4703-a5d4-2398ab2648c6" x="874.5882" y="474.077" width="438.7155" height="96.8309" rx="48.4154"/>
    <g>
      <path d="M981.6508,528.6846h-1.8457l-4.29-8.0606h-4.1866v8.0606h-1.6377V510.0938h5.2256c4.1084,0,6.2666,2.0019,6.2666,5.2519a4.81,4.81,0,0,1-4.082,5.0967ZM971.3285,511.498v7.7745h3.9785c3.042,0,4.2637-1.5606,4.2637-3.9,0-2.21-1.2217-3.8741-4.706-3.8741Z"/>
      <path d="M995.8471,522.21H985.4985c.0781,3.0429,1.5595,5.4609,4.8623,5.4609a3.5912,3.5912,0,0,0,3.8994-3.12h1.5869a5.1724,5.1724,0,0,1-5.5645,4.42c-4.16,0-6.3965-3.12-6.3965-7.0459s2.2627-7.0469,6.1885-7.0469c3.9,0,5.7725,3.0166,5.7725,6.5528ZM985.55,520.9619h8.7363c-.1562-2.6777-1.3515-4.7842-4.2119-4.7842C987.266,516.1777,985.81,518.2061,985.55,520.9619Z"/>
      <path d="M1007.7035,515.1641h1.6377l-4.8877,13.5205h-2.1582l-4.8886-13.5205h1.6386l4.3418,12.5068Z"/>
      <path d="M1022.6274,522.21h-10.3487c.0781,3.0429,1.56,5.4609,4.8623,5.4609a3.5928,3.5928,0,0,0,3.9-3.12h1.586a5.1718,5.1718,0,0,1-5.5645,4.42c-4.16,0-6.3965-3.12-6.3965-7.0459s2.2617-7.0469,6.1885-7.0469c3.9,0,5.7725,3.0166,5.7725,6.5528Zm-10.2969-1.2481h8.7363c-.1562-2.6777-1.3516-4.7842-4.2119-4.7842C1014.0463,516.1777,1012.59,518.2061,1012.3305,520.9619Z"/>
      <path d="M1036.3539,519.9482v8.7364h-1.6113v-8.4239c0-3.0166-1.17-4.03-3.1983-4.03a4.8512,4.8512,0,0,0-4.4462,3.5879v8.8662h-1.6123V515.1641h1.6123v2.73a5.53,5.53,0,0,1,4.914-3.0166C1034.69,514.8779,1036.3539,516.3076,1036.3539,519.9482Z"/>
      <path d="M1048.9379,515.1641h1.6123v13.5205h-1.6123v-2.7305a5.49,5.49,0,0,1-4.8877,3.0166c-2.6777,0-4.3682-1.4307-4.3682-5.07v-8.7363h1.6123v8.4248c0,3.0156,1.1963,4.0293,3.1983,4.0293a4.8512,4.8512,0,0,0,4.4453-3.5879Z"/>
      <path d="M1065.2924,522.21h-10.3486c.0781,3.0429,1.56,5.4609,4.8623,5.4609a3.5912,3.5912,0,0,0,3.8994-3.12h1.5869a5.1724,5.1724,0,0,1-5.5645,4.42c-4.16,0-6.3964-3.12-6.3964-7.0459s2.2627-7.0469,6.1884-7.0469c3.9,0,5.7725,3.0166,5.7725,6.5528Zm-10.2969-1.2481h8.7363c-.1562-2.6777-1.3515-4.7842-4.2119-4.7842C1056.7113,516.1777,1055.2553,518.2061,1054.9955,520.9619Z"/>
      <path d="M1081.6459,520.9883V519.584h8.19v7.0986a11.44,11.44,0,0,1-7.2285,2.2881c-5.5644,0-8.9707-3.77-8.9707-9.6465,0-5.6162,3.4063-9.5166,8.6846-9.5166,4.2119,0,7.15,2.4961,7.54,6.1621h-1.6377c-.3379-2.7812-2.6523-4.7314-5.9541-4.7314-4.1865,0-6.9423,3.1982-6.9423,8.0859,0,5.2,2.8076,8.2158,7.3837,8.2158a8.9486,8.9486,0,0,0,5.4864-1.5078v-5.0439Z"/>
      <path d="M1105.9818,527.3848v1.3h-.5205c-1.7939,0-2.6523-.7539-2.7822-2.4444a5.3093,5.3093,0,0,1-4.8877,2.6787c-2.6787,0-4.3945-1.3261-4.3945-3.7187,0-2.626,1.9766-4.1856,6.1367-4.3936l3.12-.13v-.7022c0-2.4961-.5459-3.7969-3.3545-3.7969-2.1318,0-3.6924.91-3.6924,2.7823h-1.56c0-2.5743,2.1054-4.0557,5.2256-4.0557,3.5888,0,4.9922,1.5342,4.9922,5.1221v5.46c0,1.378.2607,1.8985,1.248,1.8985Zm-3.3281-3.9268v-1.5859l-2.8867.1562c-2.2881.1035-4.7578.5459-4.7578,3.042,0,1.6641,1.1182,2.5742,3.042,2.5742A4.5166,4.5166,0,0,0,1102.6537,523.458Z"/>
      <path d="M1120.8793,521.9248c0,3.9258-2.1064,7.0459-5.9287,7.0459a5.0746,5.0746,0,0,1-4.8359-3.12v7.5137h-1.6123v-18.2h1.6123v3.042a5.2742,5.2742,0,0,1,4.8359-3.3282C1118.7729,514.8779,1120.8793,517.998,1120.8793,521.9248Zm-1.6387,0c0-3.1465-1.5078-5.7471-4.55-5.7471-2.8857,0-4.5761,2.7305-4.5761,5.7471,0,3.1455,1.5078,5.7461,4.5761,5.7461C1117.7328,527.6709,1119.2406,525.07,1119.2406,521.9248Z"/>
      <path d="M1145.5268,522.7041c-.4424,3.3809-3.12,6.2666-7.6963,6.2666-5.4346,0-8.711-4.1084-8.711-9.5947,0-5.4082,3.1983-9.5684,8.6846-9.5684,4.6807,0,7.2549,2.99,7.6182,6.3965h-1.6641c-.2861-2.7559-2.47-4.9658-6.0322-4.9658-4.3936,0-6.916,3.4316-6.916,8.0859,0,4.7842,2.5224,8.2158,6.9424,8.2158,3.5361,0,5.72-2.1572,6.11-4.8359Z"/>
      <path d="M1148.8022,528.6846V508.9238h1.6123v19.7608Z"/>
      <path d="M1153.3783,521.9248c0-4.083,2.34-7.0469,6.3184-7.0469s6.3184,2.9639,6.3184,7.0469-2.4444,7.0459-6.3184,7.0459C1155.7182,528.9707,1153.3783,526.0068,1153.3783,521.9248Zm10.9991,0c0-3.2764-1.5088-5.7471-4.6807-5.7471s-4.7061,2.4707-4.7061,5.7471c0,3.3018,1.5342,5.7461,4.7061,5.7461S1164.3774,525.2266,1164.3774,521.9248Z"/>
      <path d="M1168.5356,518.6484c0-2.3408,2.0283-3.7441,5.0185-3.7441,3.7959,0,5.044,2.2881,5.044,3.8477h-1.56c-.13-1.378-1.1445-2.5743-3.5361-2.5743-1.8457,0-3.38.65-3.38,2.3409,0,3.7177,8.7881,1.5078,8.7881,6.5781,0,2.5215-2.1065,3.874-5.1221,3.874-3.9785,0-5.8242-2.2363-5.8242-4.5762h1.5595c.13,2.626,2.5489,3.2764,4.2647,3.2764,1.43,0,3.5361-.4941,3.5361-2.5225C1177.3246,521.4307,1168.5356,523.666,1168.5356,518.6484Z"/>
      <path d="M1190.87,515.1641h1.6123v13.5205H1190.87v-2.7305a5.4894,5.4894,0,0,1-4.8877,3.0166c-2.6777,0-4.3681-1.4307-4.3681-5.07v-8.7363h1.6123v8.4248c0,3.0156,1.1963,4.0293,3.1982,4.0293a4.8511,4.8511,0,0,0,4.4453-3.5879Z"/>
      <path d="M1203.48,515.1123v1.4561a7.2561,7.2561,0,0,0-1.3779-.1045,4.4051,4.4051,0,0,0-4.3946,3.4062v8.8145h-1.6123V515.1641h1.6123V518.05a5.0479,5.0479,0,0,1,4.6016-3.042A5.2961,5.2961,0,0,1,1203.48,515.1123Z"/>
      <path d="M1216.1947,522.21h-10.3486c.0781,3.0429,1.56,5.4609,4.8623,5.4609a3.5912,3.5912,0,0,0,3.8994-3.12h1.5869a5.1723,5.1723,0,0,1-5.5644,4.42c-4.16,0-6.3965-3.12-6.3965-7.0459s2.2627-7.0469,6.1885-7.0469c3.9,0,5.7724,3.0166,5.7724,6.5528Zm-10.2968-1.2481h8.7363c-.1563-2.6777-1.3516-4.7842-4.2119-4.7842C1207.6137,516.1777,1206.1576,518.2061,1205.8979,520.9619Z"/>
    </g>
  </g>
  <g>
    <rect class="aa20a325-053f-4703-a5d4-2398ab2648c6" x="1021.7402" y="585.5519" width="438.7155" height="96.8309" rx="48.4154"/>
    <g>
      <path d="M1135.9721,626.9775c0,3.3545-2.0283,5.4082-6.2139,5.4082h-4.2646V640.16h-1.6377V621.5693h5.9023C1133.9438,621.5693,1135.9721,623.623,1135.9721,626.9775Zm-6.292,4.03c3.5879,0,4.68-1.69,4.68-4.03,0-2.3134-1.0918-4.0039-4.68-4.0039h-4.1865v8.0342Z"/>
      <path d="M1137.4008,633.4c0-4.083,2.34-7.0469,6.3184-7.0469s6.3183,2.9639,6.3183,7.0469-2.4443,7.0459-6.3183,7.0459C1139.7406,640.4463,1137.4008,637.4824,1137.4008,633.4Zm10.999,0c0-3.2764-1.5088-5.7471-4.6806-5.7471s-4.7061,2.4707-4.7061,5.7471c0,3.3017,1.5342,5.7461,4.7061,5.7461S1148.4,636.7021,1148.4,633.4Z"/>
      <path d="M1152.56,630.124c0-2.3408,2.0273-3.7441,5.0176-3.7441,3.7959,0,5.0439,2.2881,5.0439,3.8476h-1.56c-.13-1.3779-1.1445-2.5742-3.5361-2.5742-1.8467,0-3.38.65-3.38,2.3408,0,3.7178,8.7881,1.5079,8.7881,6.5782,0,2.5215-2.1064,3.874-5.1221,3.874-3.9785,0-5.8242-2.2363-5.8242-4.5762h1.56c.13,2.626,2.5478,3.2764,4.2646,3.2764,1.43,0,3.5362-.4942,3.5362-2.5225C1161.3481,632.9062,1152.56,635.1416,1152.56,630.124Z"/>
      <path d="M1174.0873,627.9141h-4.914v8.8144c0,1.7676.8056,2.2617,2.4179,2.2617a9.8813,9.8813,0,0,0,2.2364-.26v1.2734a13.5666,13.5666,0,0,1-2.5225.2861c-2.5215,0-3.7441-.91-3.7441-3.458v-8.9179h-3.3282V626.64h3.3282v-5.07h1.6123v5.07h4.914Z"/>
      <path d="M1190.2328,632.4639V631.06h8.19v7.0986a11.4409,11.4409,0,0,1-7.2286,2.2881c-5.5644,0-8.9707-3.77-8.9707-9.6465,0-5.6162,3.4063-9.5166,8.6846-9.5166,4.2119,0,7.15,2.4961,7.54,6.1621h-1.6376c-.3379-2.7812-2.6524-4.7314-5.9542-4.7314-4.1865,0-6.9423,3.1982-6.9423,8.0859,0,5.2,2.8076,8.2158,7.3838,8.2158a8.9485,8.9485,0,0,0,5.4863-1.5078v-5.0439Z"/>
      <path d="M1214.5688,638.86v1.3h-.5205c-1.794,0-2.6524-.754-2.7823-2.4444a5.31,5.31,0,0,1-4.8877,2.6787c-2.6787,0-4.3945-1.3261-4.3945-3.7187,0-2.626,1.9766-4.1856,6.1367-4.3936l3.12-.13V631.45c0-2.4961-.5459-3.7969-3.3545-3.7969-2.1318,0-3.6923.91-3.6923,2.7822h-1.56c0-2.5742,2.1055-4.0556,5.2256-4.0556,3.5888,0,4.9922,1.5342,4.9922,5.1221v5.46c0,1.3779.2607,1.8985,1.248,1.8985Zm-3.3282-3.9268v-1.5859l-2.8867.1562c-2.2881.1035-4.7578.5459-4.7578,3.042,0,1.6641,1.1182,2.5742,3.042,2.5742A4.5166,4.5166,0,0,0,1211.2406,634.9336Z"/>
      <path d="M1236.2533,631.8662v8.294h-1.6123V632.1c0-3.12-.9365-4.3935-2.9384-4.3935-2.1319,0-3.77,1.9238-4.212,3.6142v8.84h-1.6123V632.1c0-3.12-.9355-4.3935-2.9638-4.3935-2.1319,0-3.7442,1.8974-4.2119,3.5878V640.16H1217.09V626.64h1.6124V629.37a5.4067,5.4067,0,0,1,4.6542-3.0166c2.1583,0,3.4844,1.0137,3.9522,3.38a5.4091,5.4091,0,0,1,4.8359-3.38C1234.8227,626.3535,1236.2533,627.94,1236.2533,631.8662Z"/>
      <path d="M1250.8647,633.6855H1240.516c.0782,3.043,1.56,5.461,4.8623,5.461a3.5929,3.5929,0,0,0,3.9-3.12h1.586a5.1718,5.1718,0,0,1-5.5645,4.42c-4.16,0-6.3965-3.12-6.3965-7.0459s2.2617-7.0469,6.1885-7.0469c3.9,0,5.7725,3.0166,5.7725,6.5527Zm-10.2969-1.248h8.7363c-.1562-2.6777-1.3515-4.7842-4.2119-4.7842C1242.2836,627.6533,1240.8276,629.6816,1240.5678,632.4375Z"/>
      <path d="M1262.07,638.7559h8.6065V640.16H1260.432V621.5693h1.6377Z"/>
      <path d="M1284.3783,633.6855H1274.03c.0781,3.043,1.56,5.461,4.8623,5.461a3.5929,3.5929,0,0,0,3.9-3.12h1.5859a5.1716,5.1716,0,0,1-5.5644,4.42c-4.16,0-6.3965-3.12-6.3965-7.0459s2.2617-7.0469,6.1885-7.0469c3.9,0,5.7724,3.0166,5.7724,6.5527Zm-10.2968-1.248h8.7363c-.1563-2.6777-1.3516-4.7842-4.2119-4.7842C1275.7973,627.6533,1274.3412,629.6816,1274.0815,632.4375Z"/>
      <path d="M1299.1977,638.86v1.3h-.52c-1.794,0-2.6524-.754-2.7823-2.4444a5.31,5.31,0,0,1-4.8877,2.6787c-2.6787,0-4.3945-1.3261-4.3945-3.7187,0-2.626,1.9766-4.1856,6.1367-4.3936l3.12-.13V631.45c0-2.4961-.5459-3.7969-3.3544-3.7969-2.1319,0-3.6924.91-3.6924,2.7822h-1.56c0-2.5742,2.1055-4.0556,5.2256-4.0556,3.5889,0,4.9922,1.5342,4.9922,5.1221v5.46c0,1.3779.2607,1.8985,1.248,1.8985Zm-3.3282-3.9268v-1.5859l-2.8867.1562c-2.2881.1035-4.7578.5459-4.7578,3.042,0,1.6641,1.1182,2.5742,3.042,2.5742A4.5166,4.5166,0,0,0,1295.87,634.9336Z"/>
      <path d="M1309.1029,626.5879v1.456a7.2666,7.2666,0,0,0-1.3789-.1044,4.4056,4.4056,0,0,0-4.3935,3.4062V640.16h-1.6123V626.64h1.6123v2.8858a5.0481,5.0481,0,0,1,4.6025-3.042A5.2916,5.2916,0,0,1,1309.1029,626.5879Z"/>
      <path d="M1322.2328,631.4238V640.16h-1.6113v-8.4239c0-3.0166-1.1709-4.03-3.1982-4.03a4.8512,4.8512,0,0,0-4.4463,3.5878V640.16h-1.6123V626.64h1.6123V629.37a5.53,5.53,0,0,1,4.914-3.0166C1320.5688,626.3535,1322.2328,627.7832,1322.2328,631.4238Z"/>
      <path d="M1325.82,620.3994h1.586v3.9258h-1.586Zm0,19.7608V626.64h1.586V640.16Z"/>
      <path d="M1341.9926,631.4238V640.16h-1.6113v-8.4239c0-3.0166-1.1709-4.03-3.1983-4.03a4.8514,4.8514,0,0,0-4.4463,3.5878V640.16h-1.6123V626.64h1.6123V629.37a5.53,5.53,0,0,1,4.9141-3.0166C1340.3285,626.3535,1341.9926,627.7832,1341.9926,631.4238Z"/>
      <path d="M1355.3822,626.64h1.586v11.4922c0,4.6026-2.0283,6.9942-6.3438,6.9942-4.1347,0-5.5908-2.1055-6.0068-3.874h1.5605c.4414,1.248,1.56,2.6259,4.4463,2.6259,3.3535,0,4.7578-1.7158,4.7578-5.59V636.65a5.2241,5.2241,0,0,1-4.8623,3.1455c-3.7441,0-5.9023-2.86-5.9023-6.5781,0-3.77,2.2627-6.8643,5.9023-6.8643a5.0582,5.0582,0,0,1,4.8623,3.1465Zm0,6.5518c0-2.9893-1.5341-5.5381-4.5761-5.5381-2.9639,0-4.5508,2.5742-4.5508,5.5381,0,2.99,1.5869,5.3047,4.5508,5.3047C1353.64,638.4961,1355.3822,636.1035,1355.3822,633.1914Z"/>
    </g>
  </g>
  <rect class="a9e68745-924e-4cd0-9779-c74222c0e981" x="547.9273" y="749.5449" width="943.8452" height="93.4542"/>
  <line class="f611fcef-1caf-430d-b792-70b7c7cf49a2" x1="1491.7725" y1="842.9991" x2="547.9273" y2="842.9991"/>
  <g>
    <path class="b7ef89f5-6c2c-4eef-a58d-a54e75ad403c" d="M797.4887,793.2969c0,3.4843-2.1582,5.6679-6.5274,5.6679h-3.9257v7.2813H784.54V787.6543h6.4218C795.3305,787.6543,797.4887,789.84,797.4887,793.2969Zm-6.6563,3.6152c3.0684,0,4.1856-1.4043,4.1856-3.59,0-2.1582-1.1172-3.5352-4.1856-3.5352h-3.7968v7.125Z"/>
    <path class="b7ef89f5-6c2c-4eef-a58d-a54e75ad403c" d="M807.9125,792.6211v2.2363a10.4584,10.4584,0,0,0-1.4824-.0781,3.9166,3.9166,0,0,0-4.0293,3.0937v8.3731h-2.418V792.7246h2.418v2.99a4.9134,4.9134,0,0,1,4.498-3.1718A5.0326,5.0326,0,0,1,807.9125,792.6211Z"/>
    <path class="b7ef89f5-6c2c-4eef-a58d-a54e75ad403c" d="M808.6156,799.4844c0-4.1328,2.4961-7.0723,6.5782-7.0723s6.5507,2.9395,6.5507,7.0723c0,4.1094-2.5742,7.0722-6.5507,7.0722C811.1117,806.5566,808.6156,803.5938,808.6156,799.4844Zm10.6856,0c0-3.0156-1.3262-5.1992-4.1074-5.1992-2.8086,0-4.1348,2.1836-4.1348,5.1992,0,3.0429,1.3262,5.2011,4.1348,5.2011C817.975,804.6855,819.3012,802.5273,819.3012,799.4844Z"/>
    <path class="b7ef89f5-6c2c-4eef-a58d-a54e75ad403c" d="M833.8871,786.4844H836.28v19.7617h-2.3926V803.541a5.0447,5.0447,0,0,1-4.5761,3.0156c-3.77,0-5.85-3.1191-5.85-7.0722,0-3.9512,2.08-7.0723,5.85-7.0723a4.9033,4.9033,0,0,1,4.5761,2.7832Zm0,13c0-2.8848-1.2988-5.1992-3.9765-5.1992-2.7051,0-4.0059,2.3144-4.0059,5.1992,0,2.8867,1.3008,5.2011,4.0059,5.2011C832.432,804.6855,833.8871,802.2676,833.8871,799.4844Z"/>
    <path class="b7ef89f5-6c2c-4eef-a58d-a54e75ad403c" d="M848.7582,792.7246h2.3926v13.5215h-2.3926v-2.627a5.51,5.51,0,0,1-4.8613,2.9375c-2.627,0-4.291-1.48-4.291-5.0683v-8.7637h2.4179v8.1914c0,2.7285,1.0411,3.6133,2.834,3.6133a4.2137,4.2137,0,0,0,3.9-3.1719Z"/>
    <path class="b7ef89f5-6c2c-4eef-a58d-a54e75ad403c" d="M853.6469,799.4844c0-3.9512,2.34-7.0723,6.6562-7.0723,3.7442,0,5.5645,2.3145,5.7989,5.0195h-2.34a3.3089,3.3089,0,0,0-3.5371-3.1464c-2.834,0-4.1348,2.3144-4.1348,5.1992,0,2.8359,1.379,5.2011,4.1348,5.2011,2.34,0,3.4317-1.5078,3.7188-3.4843h2.3144a5.5248,5.5248,0,0,1-5.9551,5.3554C855.9867,806.5566,853.6469,803.4375,853.6469,799.4844Z"/>
    <path class="b7ef89f5-6c2c-4eef-a58d-a54e75ad403c" d="M877.4887,794.5977h-4.6016v7.67c0,1.7168.7266,2.2363,2.2344,2.2363a9.7168,9.7168,0,0,0,2.1074-.26v1.82a13.16,13.16,0,0,1-2.7051.3105c-2.7031,0-4.0546-1.0664-4.0546-3.9v-7.8769h-3.0957v-1.8731h3.0957v-5.07h2.4179v5.07h4.6016Z"/>
    <path class="b7ef89f5-6c2c-4eef-a58d-a54e75ad403c" d="M888.8246,804.1133H897.17v2.1328H886.3285V787.6543h2.4961Z"/>
    <path class="b7ef89f5-6c2c-4eef-a58d-a54e75ad403c" d="M899.7953,786.4844h2.418v4.082h-2.418Zm0,19.7617V792.7246h2.418v13.5215Z"/>
    <path class="b7ef89f5-6c2c-4eef-a58d-a54e75ad403c" d="M917.1117,797.4824v8.7637h-2.4179v-8.1914c0-2.7305-1.0391-3.6387-2.834-3.6387a4.1835,4.1835,0,0,0-3.875,3.1973v8.6328h-2.418V792.7246h2.418v2.627a5.3936,5.3936,0,0,1,4.8379-2.9395C915.4731,792.4121,917.1117,793.8945,917.1117,797.4824Z"/>
    <path class="b7ef89f5-6c2c-4eef-a58d-a54e75ad403c" d="M931.8793,800.1094H921.92c.1563,2.6777,1.4824,4.5761,4.2129,4.5761a3.0761,3.0761,0,0,0,3.4063-2.705h2.34c-.3379,2.3672-2.0547,4.5761-5.7988,4.5761-4.2891,0-6.6035-3.1191-6.6035-7.0722,0-3.9512,2.3652-7.0723,6.4492-7.0723,3.9258,0,5.9531,2.8867,5.9531,6.6055Zm-9.9062-1.82h7.6191c-.209-2.3926-1.3008-4.0039-3.666-4.0039C923.559,794.2852,922.2856,795.8965,921.9731,798.2891Z"/>
    <path class="b7ef89f5-6c2c-4eef-a58d-a54e75ad403c" d="M934.2973,796.3125c0-2.4687,2.08-3.8477,5.2265-3.8477,4.0039,0,5.33,2.2364,5.33,3.9532H942.54c-.1309-1.1973-.9883-2.08-3.1211-2.08-1.5586,0-2.7813.4668-2.7813,1.7148,0,3.3028,8.58,1.2754,8.58,6.5,0,2.5743-2.1836,4.0039-5.4863,4.0039-4.0567,0-5.9532-2.2617-5.9532-4.6015H936.09c.1309,2.2109,2.1856,2.73,3.6407,2.73,1.6133,0,3.1465-.625,3.1465-2.0273C942.8774,799.3555,934.2973,801.3574,934.2973,796.3125Z"/>
    <path class="b7ef89f5-6c2c-4eef-a58d-a54e75ad403c" d="M965.1078,806.2461h-2.73l-3.6661-5.3574-3.5878,5.3574h-2.5743l4.7832-7.0215-4.5234-6.5h2.6777l3.4063,4.9414,3.2246-4.9414h2.4961l-4.3692,6.5Z"/>
    <path class="b7ef89f5-6c2c-4eef-a58d-a54e75ad403c" d="M988.143,787.6543h3.4316v18.5918h-2.4179V791.0605l-5.6153,15.2637h-1.7422l-5.6172-15.2637v15.1856h-2.4179V787.6543h3.4316l5.4863,14.8477Z"/>
    <path class="b7ef89f5-6c2c-4eef-a58d-a54e75ad403c" d="M1007.85,804.3223v1.9238h-.5195c-1.82,0-2.9375-.65-3.3281-2.002a5.4571,5.4571,0,0,1-4.68,2.209c-2.7305,0-4.4473-1.4043-4.4473-3.8222,0-2.6524,2.0293-4.1856,5.9805-4.3946l2.99-.1543v-.4687c0-1.7676-.0781-3.2754-2.8594-3.2754-1.7695,0-3.1992.7266-3.1992,2.34h-2.3144c0-2.6523,2.3144-4.2129,5.4355-4.2129,3.9,0,5.3555,1.5079,5.3555,5.2793v4.7579c0,1.3515.26,1.82,1.17,1.82Zm-4.0039-3.043v-1.5078l-2.4707.1289c-2.834.1308-4.1074.6777-4.1074,2.4961,0,1.4316.9355,2.2363,2.6269,2.2363A3.8645,3.8645,0,0,0,1003.8461,801.2793Z"/>
    <path class="b7ef89f5-6c2c-4eef-a58d-a54e75ad403c" d="M1018.0688,792.6211v2.2363a10.4871,10.4871,0,0,0-1.4825-.0781,3.9187,3.9187,0,0,0-4.0312,3.0937v8.3731h-2.418V792.7246h2.418v2.99a4.9183,4.9183,0,0,1,4.5-3.1718A5.0424,5.0424,0,0,1,1018.0688,792.6211Z"/>
    <path class="b7ef89f5-6c2c-4eef-a58d-a54e75ad403c" d="M1029.8461,806.2461l-5.0176-6.8125-2.1074,2.0019v4.8106h-2.418V786.4844h2.418v12.2734l6.2676-6.0332h2.9375l-5.3555,5.2012,6.0313,8.32Z"/>
    <path class="b7ef89f5-6c2c-4eef-a58d-a54e75ad403c" d="M1045.2641,800.1094h-9.959c.1562,2.6777,1.4824,4.5761,4.2129,4.5761a3.0759,3.0759,0,0,0,3.4062-2.705h2.34c-.3379,2.3672-2.0547,4.5761-5.7989,4.5761-4.289,0-6.6035-3.1191-6.6035-7.0722,0-3.9512,2.3653-7.0723,6.4493-7.0723,3.9257,0,5.9531,2.8867,5.9531,6.6055Zm-9.9063-1.82h7.6192c-.209-2.3926-1.3008-4.0039-3.666-4.0039C1036.9438,794.2852,1035.67,795.8965,1035.3578,798.2891Z"/>
    <path class="b7ef89f5-6c2c-4eef-a58d-a54e75ad403c" d="M1056.6254,794.5977h-4.6016v7.67c0,1.7168.7286,2.2363,2.2364,2.2363a9.6837,9.6837,0,0,0,2.1054-.26v1.82a13.142,13.142,0,0,1-2.7031.3105c-2.7051,0-4.0566-1.0664-4.0566-3.9v-7.8769h-3.0938v-1.8731h3.0938v-5.07h2.4179v5.07h4.6016Z"/>
    <path class="b7ef89f5-6c2c-4eef-a58d-a54e75ad403c" d="M1058.8344,796.3125c0-2.4687,2.08-3.8477,5.2266-3.8477,4.0039,0,5.33,2.2364,5.33,3.9532h-2.3144c-.1289-1.1973-.9864-2.08-3.1192-2.08-1.5605,0-2.7812.4668-2.7812,1.7148,0,3.3028,8.58,1.2754,8.58,6.5,0,2.5743-2.1856,4.0039-5.4864,4.0039-4.0566,0-5.955-2.2617-5.955-4.6015h2.3144c.1309,2.2109,2.1836,2.73,3.6406,2.73,1.6114,0,3.1465-.625,3.1465-2.0273C1067.4164,799.3555,1058.8344,801.3574,1058.8344,796.3125Z"/>
    <path class="b7ef89f5-6c2c-4eef-a58d-a54e75ad403c" d="M1089.6449,806.2461h-2.7285l-3.6679-5.3574-3.5879,5.3574h-2.5743l4.7852-7.0215-4.5234-6.5h2.6777l3.4062,4.9414,3.2227-4.9414h2.4961l-4.3672,6.5Z"/>
    <path class="b7ef89f5-6c2c-4eef-a58d-a54e75ad403c" d="M1097.186,796.8848c0-5.4864,3.1445-9.541,8.6835-9.541,5.5645,0,8.6055,4.0546,8.6055,9.541,0,5.6172-3.041,9.6718-8.6055,9.6718C1100.3305,806.5566,1097.186,802.502,1097.186,796.8848Zm14.6894,0c0-4.4453-2.1582-7.3848-6.0059-7.3848-3.8222,0-6.0839,2.9395-6.0839,7.3848,0,4.5761,2.2617,7.5156,6.0839,7.5156C1109.7172,804.4,1111.8754,801.4609,1111.8754,796.8848Z"/>
    <path class="b7ef89f5-6c2c-4eef-a58d-a54e75ad403c" d="M1137.0434,797.82v8.4258h-2.418v-7.9316c0-2.7813-.832-3.8985-2.6-3.8985a4.1526,4.1526,0,0,0-3.6934,3.1973v8.6328h-2.3906v-7.9316c0-2.7813-.832-3.8985-2.6269-3.8985a4.1207,4.1207,0,0,0-3.6661,3.1973v8.6328h-2.4179V792.7246h2.4179v2.627a5.2839,5.2839,0,0,1,4.6289-2.9395c2.08,0,3.4063,1.0156,3.8731,3.3281a5.3661,5.3661,0,0,1,4.8359-3.3281C1135.6137,792.4121,1137.0434,794.0254,1137.0434,797.82Z"/>
    <path class="b7ef89f5-6c2c-4eef-a58d-a54e75ad403c" d="M1151.7328,797.4824v8.7637h-2.4179v-8.1914c0-2.7305-1.0391-3.6387-2.834-3.6387a4.1835,4.1835,0,0,0-3.875,3.1973v8.6328h-2.418V792.7246h2.418v2.627a5.3936,5.3936,0,0,1,4.8379-2.9395C1150.0942,792.4121,1151.7328,793.8945,1151.7328,797.4824Z"/>
    <path class="b7ef89f5-6c2c-4eef-a58d-a54e75ad403c" d="M1154.9555,786.4844h2.418v4.082h-2.418Zm0,19.7617V792.7246h2.418v13.5215Z"/>
    <path class="b7ef89f5-6c2c-4eef-a58d-a54e75ad403c" d="M1182.9067,799.9785c-.3379,3.5625-3.1211,6.5781-7.9571,6.5781-5.5644,0-8.9179-4.0293-8.9179-9.6191,0-5.4336,3.1992-9.5937,8.8925-9.5937,4.94,0,7.6192,3.1191,7.8789,6.707h-2.4961c-.2343-2.5215-2.2109-4.5508-5.4609-4.5508-3.9258,0-6.2148,3.043-6.2148,7.4121,0,4.4453,2.289,7.4883,6.24,7.4883,3.2246,0,5.2012-1.9512,5.5137-4.4219Z"/>
    <path class="b7ef89f5-6c2c-4eef-a58d-a54e75ad403c" d="M1197.4145,797.4824v8.7637h-2.3926v-8.1914c0-2.7305-1.0664-3.6387-2.834-3.6387a4.1892,4.1892,0,0,0-3.9,3.1973v8.6328h-2.418V786.4844h2.418v8.8672a5.4811,5.4811,0,0,1,4.8633-2.9395C1195.7758,792.4121,1197.4145,793.8945,1197.4145,797.4824Z"/>
    <path class="b7ef89f5-6c2c-4eef-a58d-a54e75ad403c" d="M1212.936,804.3223v1.9238h-.52c-1.82,0-2.9375-.65-3.3281-2.002a5.4571,5.4571,0,0,1-4.68,2.209c-2.73,0-4.4473-1.4043-4.4473-3.8222,0-2.6524,2.0293-4.1856,5.9805-4.3946l2.99-.1543v-.4687c0-1.7676-.0781-3.2754-2.8593-3.2754-1.77,0-3.1992.7266-3.1992,2.34h-2.3145c0-2.6523,2.3145-4.2129,5.4355-4.2129,3.9,0,5.3555,1.5079,5.3555,5.2793v4.7579c0,1.3515.26,1.82,1.17,1.82Zm-4.004-3.043v-1.5078l-2.4707.1289c-2.8339.1308-4.1074.6777-4.1074,2.4961,0,1.4316.9356,2.2363,2.627,2.2363A3.8645,3.8645,0,0,0,1208.932,801.2793Z"/>
    <path class="b7ef89f5-6c2c-4eef-a58d-a54e75ad403c" d="M1226.768,797.4824v8.7637h-2.418v-8.1914c0-2.7305-1.039-3.6387-2.834-3.6387a4.1836,4.1836,0,0,0-3.875,3.1973v8.6328h-2.4179V792.7246h2.4179v2.627a5.3937,5.3937,0,0,1,4.8379-2.9395C1225.1293,792.4121,1226.768,793.8945,1226.768,797.4824Z"/>
    <path class="b7ef89f5-6c2c-4eef-a58d-a54e75ad403c" d="M1241.4574,797.4824v8.7637H1239.04v-8.1914c0-2.7305-1.0391-3.6387-2.834-3.6387a4.1835,4.1835,0,0,0-3.875,3.1973v8.6328h-2.418V792.7246h2.418v2.627a5.3936,5.3936,0,0,1,4.8379-2.9395C1239.8188,792.4121,1241.4574,793.8945,1241.4574,797.4824Z"/>
    <path class="b7ef89f5-6c2c-4eef-a58d-a54e75ad403c" d="M1256.225,800.1094h-9.959c.1563,2.6777,1.4825,4.5761,4.2129,4.5761a3.0761,3.0761,0,0,0,3.4063-2.705h2.34c-.3379,2.3672-2.0547,4.5761-5.7988,4.5761-4.2891,0-6.6035-3.1191-6.6035-7.0722,0-3.9512,2.3652-7.0723,6.4492-7.0723,3.9258,0,5.9531,2.8867,5.9531,6.6055Zm-9.9062-1.82h7.6191c-.209-2.3926-1.3008-4.0039-3.666-4.0039C1247.9047,794.2852,1246.6313,795.8965,1246.3188,798.2891Z"/>
    <path class="b7ef89f5-6c2c-4eef-a58d-a54e75ad403c" d="M1259.0063,806.2461V786.4844h2.4179v19.7617Z"/>
  </g>
  <path class="f4aa6c0e-2e85-4a84-a027-2d87ac2c3758" d="M999.5775,102.0476a20.1345,20.1345,0,0,1,9.7506-19.0782,21.169,21.169,0,0,1,21.826-.0078,20.124,20.124,0,0,1,9.7537,19.0714Z"/>
  <g>
    <path class="b7ef89f5-6c2c-4eef-a58d-a54e75ad403c" d="M942.2016,147.0537h2.4443c.0781,2.4707,1.9756,4.083,4.9658,4.083,2.7041,0,4.2119-1.1963,4.2119-3.0947,0-1.95-1.0918-2.73-4.9921-3.6914-4.29-1.041-6.0059-2.5225-6.0059-5.1748,0-3.12,2.4961-5.0957,6.4746-5.0957,3.8994,0,6.4483,2.21,6.4483,5.5635h-2.3926c-.1035-2.0538-1.4043-3.4063-4.2119-3.4063-2.626,0-3.9268,1.1709-3.9268,2.7051,0,1.6894,1.1182,2.3916,4.8887,3.4053,4.3681,1.1709,6.2138,2.4707,6.2138,5.4863,0,3.4326-2.4179,5.46-6.7334,5.46C945.0873,153.2939,942.2016,150.8506,942.2016,147.0537Z"/>
    <path class="b7ef89f5-6c2c-4eef-a58d-a54e75ad403c" d="M971.5043,151.0586v1.9238h-.52c-1.8193,0-2.9375-.65-3.3281-2.0019a5.4543,5.4543,0,0,1-4.68,2.21c-2.7305,0-4.4463-1.4043-4.4463-3.8222,0-2.6524,2.0283-4.1856,5.9805-4.3946l2.99-.1552v-.4678c0-1.7686-.0781-3.2764-2.86-3.2764-1.7686,0-3.1983.7276-3.1983,2.34h-2.3144c0-2.6524,2.3144-4.212,5.4345-4.212,3.9,0,5.3565,1.5079,5.3565,5.2784v4.7578c0,1.3525.26,1.82,1.17,1.82Zm-4.0039-3.042v-1.5088l-2.4707.13c-2.834.1309-4.1074.6768-4.1074,2.4961,0,1.4307.9355,2.2363,2.626,2.2363A3.8663,3.8663,0,0,0,967.5,148.0166Z"/>
    <path class="b7ef89f5-6c2c-4eef-a58d-a54e75ad403c" d="M973.9477,152.9824V133.2217h2.4179v19.7607Z"/>
    <path class="b7ef89f5-6c2c-4eef-a58d-a54e75ad403c" d="M991.42,146.8467h-9.959c.1563,2.6777,1.4825,4.5762,4.2129,4.5762a3.0773,3.0773,0,0,0,3.4063-2.7051h2.34c-.3379,2.3662-2.0547,4.5761-5.7988,4.5761-4.29,0-6.6035-3.1191-6.6035-7.0722,0-3.9512,2.3652-7.0723,6.4482-7.0723,3.9258,0,5.9541,2.8867,5.9541,6.6045Zm-9.9062-1.82h7.6181c-.208-2.3926-1.3-4.0039-3.666-4.0039S981.8256,142.6338,981.5141,145.0264Z"/>
    <path class="b7ef89f5-6c2c-4eef-a58d-a54e75ad403c" d="M993.8363,143.05c0-2.47,2.08-3.8477,5.2266-3.8477,4.0039,0,5.33,2.2364,5.33,3.9522h-2.3145c-.13-1.1963-.9873-2.08-3.1191-2.08-1.5606,0-2.7822.4678-2.7822,1.7158,0,3.3018,8.58,1.2745,8.58,6.5,0,2.5743-2.1845,4.0039-5.4863,4.0039-4.0557,0-5.9541-2.2617-5.9541-4.6015h2.3145c.13,2.21,2.1836,2.7305,3.64,2.7305,1.6123,0,3.1465-.625,3.1465-2.0284C1002.4174,146.0918,993.8363,148.0947,993.8363,143.05Z"/>
    <path class="b7ef89f5-6c2c-4eef-a58d-a54e75ad403c" d="M1025.7133,136.5234h-9.49v6.293h7.93v2.1318h-7.93v8.0342h-2.4961V134.3916h11.9863Z"/>
    <path class="b7ef89f5-6c2c-4eef-a58d-a54e75ad403c" d="M1028.4945,133.2217h2.418v4.082h-2.418Zm0,19.7607v-13.52h2.418v13.52Z"/>
    <path class="b7ef89f5-6c2c-4eef-a58d-a54e75ad403c" d="M1045.811,144.22v8.7627h-2.418v-8.19c0-2.7305-1.04-3.64-2.834-3.64a4.1834,4.1834,0,0,0-3.875,3.1983v8.6318h-2.418v-13.52h2.418v2.626a5.3942,5.3942,0,0,1,4.8369-2.9385C1044.1723,139.1494,1045.811,140.6318,1045.811,144.22Z"/>
    <path class="b7ef89f5-6c2c-4eef-a58d-a54e75ad403c" d="M1061.3324,151.0586v1.9238h-.5205c-1.8193,0-2.9375-.65-3.3281-2.0019a5.4543,5.4543,0,0,1-4.68,2.21c-2.7305,0-4.4463-1.4043-4.4463-3.8222,0-2.6524,2.0283-4.1856,5.98-4.3946l2.99-.1552v-.4678c0-1.7686-.0781-3.2764-2.86-3.2764-1.7686,0-3.1983.7276-3.1983,2.34h-2.3144c0-2.6524,2.3144-4.212,5.4346-4.212,3.9,0,5.3564,1.5079,5.3564,5.2784v4.7578c0,1.3525.26,1.82,1.17,1.82Zm-4.0039-3.042v-1.5088l-2.4707.13c-2.834.1309-4.1074.6768-4.1074,2.4961,0,1.4307.9356,2.2363,2.626,2.2363A3.8663,3.8663,0,0,0,1057.3285,148.0166Z"/>
    <path class="b7ef89f5-6c2c-4eef-a58d-a54e75ad403c" d="M1075.1645,144.22v8.7627h-2.418v-8.19c0-2.7305-1.04-3.64-2.834-3.64a4.1835,4.1835,0,0,0-3.875,3.1983v8.6318h-2.418v-13.52h2.418v2.626a5.3943,5.3943,0,0,1,4.8369-2.9385C1073.5258,139.1494,1075.1645,140.6318,1075.1645,144.22Z"/>
    <path class="b7ef89f5-6c2c-4eef-a58d-a54e75ad403c" d="M1077.53,146.2217c0-3.9512,2.34-7.0723,6.6563-7.0723,3.7441,0,5.5634,2.3145,5.7978,5.0186h-2.34a3.3073,3.3073,0,0,0-3.5362-3.1455c-2.834,0-4.1347,2.3134-4.1347,5.1992,0,2.8349,1.3789,5.2012,4.1347,5.2012,2.34,0,3.4317-1.5088,3.7178-3.4844h2.3145a5.5245,5.5245,0,0,1-5.9541,5.3554C1079.87,153.2939,1077.53,150.1748,1077.53,146.2217Z"/>
    <path class="b7ef89f5-6c2c-4eef-a58d-a54e75ad403c" d="M1104.2582,146.8467h-9.959c.1563,2.6777,1.4825,4.5762,4.2129,4.5762a3.0773,3.0773,0,0,0,3.4063-2.7051h2.34c-.3379,2.3662-2.0547,4.5761-5.7988,4.5761-4.29,0-6.6035-3.1191-6.6035-7.0722,0-3.9512,2.3652-7.0723,6.4482-7.0723,3.9258,0,5.9541,2.8867,5.9541,6.6045Zm-9.9062-1.82h7.6181c-.208-2.3926-1.3-4.0039-3.666-4.0039S1094.6635,142.6338,1094.352,145.0264Z"/>
  </g>
  <g>
    <path class="f4aa6c0e-2e85-4a84-a027-2d87ac2c3758" d="M133.9557,387.4992a20.1343,20.1343,0,0,1,9.7506-19.0781,21.169,21.169,0,0,1,21.826-.0078,20.1241,20.1241,0,0,1,9.7537,19.0713Z"/>
    <path class="f4aa6c0e-2e85-4a84-a027-2d87ac2c3758" d="M143.3212,353.5336h0a11.21,11.21,0,0,1,11.338-11.0783,11.4749,11.4749,0,0,1,8.0175,3.2447,10.95,10.95,0,0,1,3.3212,7.8336,11.3414,11.3414,0,0,1-22.6767,0Z"/>
  </g>
  <g>
    <path class="b7ef89f5-6c2c-4eef-a58d-a54e75ad403c" d="M118.6205,419.0107h3.4326v18.5909h-2.4179V422.417L114.019,437.68h-1.7422l-5.6162-15.2627v15.1846h-2.418V419.0107h3.4316l5.4864,14.8467Z"/>
    <path class="b7ef89f5-6c2c-4eef-a58d-a54e75ad403c" d="M138.3285,435.6777v1.9239h-.52c-1.8193,0-2.9375-.65-3.3281-2.002a5.4541,5.4541,0,0,1-4.68,2.21c-2.73,0-4.4463-1.4043-4.4463-3.8223,0-2.6523,2.0283-4.1855,5.98-4.3945l2.99-.1553V428.97c0-1.7685-.0781-3.2763-2.86-3.2763-1.7686,0-3.1983.7275-3.1983,2.34h-2.3144c0-2.6523,2.3144-4.2119,5.4345-4.2119,3.9,0,5.3565,1.5078,5.3565,5.2783v4.7578c0,1.3526.26,1.82,1.17,1.82Zm-4.0039-3.042V431.127l-2.4707.13c-2.834.1309-4.1084.6768-4.1084,2.4961,0,1.4307.9365,2.2364,2.627,2.2364A3.8663,3.8663,0,0,0,134.3246,432.6357Z"/>
    <path class="b7ef89f5-6c2c-4eef-a58d-a54e75ad403c" d="M148.5463,423.9775v2.2354a10.4655,10.4655,0,0,0-1.4824-.0781,3.9173,3.9173,0,0,0-4.0293,3.0947v8.3721h-2.419V424.0811h2.419v2.99a4.9134,4.9134,0,0,1,4.498-3.1719A5.037,5.037,0,0,1,148.5463,423.9775Z"/>
    <path class="b7ef89f5-6c2c-4eef-a58d-a54e75ad403c" d="M160.3236,437.6016l-5.0175-6.8125L153.2,432.791v4.8106h-2.4179V417.8408H153.2v12.2725l6.2666-6.0322h2.9375l-5.3554,5.2,6.0322,8.32Z"/>
    <path class="b7ef89f5-6c2c-4eef-a58d-a54e75ad403c" d="M175.7426,431.4658h-9.959c.1563,2.6778,1.4824,4.5762,4.2129,4.5762a3.0757,3.0757,0,0,0,3.4053-2.7051h2.3408c-.3379,2.3662-2.0547,4.5762-5.7988,4.5762-4.29,0-6.6036-3.1192-6.6036-7.0723,0-3.9512,2.3663-7.0722,6.4483-7.0722,3.9258,0,5.9541,2.8867,5.9541,6.6044Zm-9.9063-1.82h7.6182c-.208-2.3926-1.3008-4.0039-3.666-4.0039S166.1479,427.2529,165.8363,429.6455Z"/>
    <path class="b7ef89f5-6c2c-4eef-a58d-a54e75ad403c" d="M187.1029,425.9531h-4.6015v7.67c0,1.7168.7275,2.2364,2.2363,2.2364a9.7,9.7,0,0,0,2.1055-.26v1.82a13.0886,13.0886,0,0,1-2.7041.3115c-2.7041,0-4.0557-1.0664-4.0557-3.9v-7.878h-3.0947v-1.872h3.0947v-5.07h2.418v5.07h4.6015Z"/>
    <path class="b7ef89f5-6c2c-4eef-a58d-a54e75ad403c" d="M189.599,417.8408h2.418v4.0821h-2.418Zm0,19.7608V424.0811h2.418v13.5205Z"/>
    <path class="b7ef89f5-6c2c-4eef-a58d-a54e75ad403c" d="M206.9154,428.8389v8.7627h-2.4179v-8.1905c0-2.73-1.04-3.64-2.834-3.64a4.1833,4.1833,0,0,0-3.875,3.1982v8.6319h-2.418V424.0811h2.418v2.6259a5.3943,5.3943,0,0,1,4.8369-2.9384C205.2768,423.7686,206.9154,425.251,206.9154,428.8389Z"/>
    <path class="b7ef89f5-6c2c-4eef-a58d-a54e75ad403c" d="M219.7065,424.0811h2.3925v11.57c0,4.498-2.1328,6.9424-6.6308,6.9424-4.2383,0-5.85-2.1583-6.1875-4.1338h2.34c.3379,1.1953,1.4043,2.3652,3.8477,2.3652,3.0429,0,4.2383-1.4551,4.2383-4.8613V434.43a5.1538,5.1538,0,0,1-4.5762,2.6777c-3.7178,0-5.85-2.86-5.85-6.5263,0-3.7442,2.21-6.8125,5.85-6.8125a4.9914,4.9914,0,0,1,4.5762,2.6787Zm0,6.4482c0-2.6523-1.3262-4.8877-3.9776-4.8877-2.626,0-3.9785,2.2617-3.9785,4.8877,0,2.7041,1.3525,4.7061,3.9785,4.7061C218.1986,435.2354,219.7065,433.2334,219.7065,430.5293Z"/>
  </g>
  <g>
    <path class="f4aa6c0e-2e85-4a84-a027-2d87ac2c3758" d="M1711.68,77.3164a20.1345,20.1345,0,0,1,9.7506-19.0781,21.169,21.169,0,0,1,21.826-.0078,20.1239,20.1239,0,0,1,9.7537,19.0713Z"/>
    <path class="f4aa6c0e-2e85-4a84-a027-2d87ac2c3758" d="M1721.0455,43.3507h0a11.21,11.21,0,0,1,11.338-11.0782,11.4751,11.4751,0,0,1,8.0176,3.2446,10.95,10.95,0,0,1,3.3212,7.8336,11.3415,11.3415,0,0,1-22.6768,0Z"/>
  </g>
  <g>
    <path class="b7ef89f5-6c2c-4eef-a58d-a54e75ad403c" d="M1589.66,127.8848l-6.916-8.5547-2.2881,2.3926v6.1621h-2.4961V109.2939h2.4961v9.2823l8.6836-9.2823h3.1728l-7.956,8.32,8.3974,10.27Z"/>
    <path class="b7ef89f5-6c2c-4eef-a58d-a54e75ad403c" d="M1606.04,121.748h-9.9589c.1562,2.6788,1.4824,4.5762,4.2128,4.5762a3.0749,3.0749,0,0,0,3.4053-2.7031h2.3408c-.3378,2.3652-2.0546,4.5762-5.7988,4.5762-4.29,0-6.6035-3.1211-6.6035-7.0723,0-3.9531,2.3662-7.0723,6.4482-7.0723,3.9258,0,5.9541,2.8858,5.9541,6.6035Zm-9.9062-1.8193h7.6182c-.2081-2.3926-1.3008-4.0049-3.6661-4.0049S1596.4457,117.5361,1596.1342,119.9287Z"/>
    <path class="b7ef89f5-6c2c-4eef-a58d-a54e75ad403c" d="M1618.1039,114.3643h2.5215l-7.67,18.2h-2.5479l2.47-5.668-5.5381-12.5322h2.5224l4.3164,10.0888Z"/>
    <path class="b7ef89f5-6c2c-4eef-a58d-a54e75ad403c" d="M1640.62,127.8848l-1.6113-5.07H1631.78l-1.5859,5.07h-2.5225l6.0322-18.5909h3.3545l6.1621,18.5909Zm-8.1894-7.2022h5.9023l-2.9648-9.4121Z"/>
    <path class="b7ef89f5-6c2c-4eef-a58d-a54e75ad403c" d="M1644.5717,121.125c0-3.9531,2.34-7.0723,6.6562-7.0723,3.7442,0,5.5635,2.3135,5.7979,5.0176h-2.34a3.3082,3.3082,0,0,0-3.5362-3.1465c-2.834,0-4.1347,2.3145-4.1347,5.2012,0,2.834,1.3779,5.1992,4.1347,5.1992,2.34,0,3.4317-1.5078,3.7178-3.4834h2.3144a5.5251,5.5251,0,0,1-5.9541,5.3565C1646.9115,128.1973,1644.5717,125.0762,1644.5717,121.125Z"/>
    <path class="b7ef89f5-6c2c-4eef-a58d-a54e75ad403c" d="M1658.8979,121.125c0-3.9531,2.34-7.0723,6.6562-7.0723,3.7442,0,5.5635,2.3135,5.7979,5.0176h-2.34a3.3081,3.3081,0,0,0-3.5361-3.1465c-2.834,0-4.1348,2.3145-4.1348,5.2012,0,2.834,1.378,5.1992,4.1348,5.1992,2.34,0,3.4316-1.5078,3.7178-3.4834h2.3144a5.5252,5.5252,0,0,1-5.9541,5.3565C1661.2377,128.1973,1658.8979,125.0762,1658.8979,121.125Z"/>
    <path class="b7ef89f5-6c2c-4eef-a58d-a54e75ad403c" d="M1673.2231,121.125c0-4.1348,2.4961-7.0723,6.5781-7.0723s6.5517,2.9375,6.5517,7.0723c0,4.1074-2.5742,7.0723-6.5517,7.0723C1675.7192,128.1973,1673.2231,125.2324,1673.2231,121.125Zm10.6855,0c0-3.0166-1.3252-5.2012-4.1074-5.2012-2.8086,0-4.1348,2.1846-4.1348,5.2012,0,3.042,1.3262,5.1992,4.1348,5.1992C1682.5834,126.3242,1683.9086,124.167,1683.9086,121.125Z"/>
    <path class="b7ef89f5-6c2c-4eef-a58d-a54e75ad403c" d="M1697.8715,114.3643h2.3926v13.52h-2.3926v-2.626a5.5128,5.5128,0,0,1-4.8623,2.9385c-2.626,0-4.29-1.4825-4.29-5.07v-8.7627h2.4179v8.19c0,2.7305,1.04,3.6142,2.834,3.6142a4.2145,4.2145,0,0,0,3.9-3.1728Z"/>
    <path class="b7ef89f5-6c2c-4eef-a58d-a54e75ad403c" d="M1715.0834,119.1221v8.7627h-2.418v-8.19c0-2.73-1.04-3.64-2.8339-3.64a4.1816,4.1816,0,0,0-3.8741,3.1973v8.6328h-2.4189v-13.52h2.4189V116.99a5.3922,5.3922,0,0,1,4.836-2.9375C1713.4457,114.0527,1715.0834,115.5342,1715.0834,119.1221Z"/>
    <path class="b7ef89f5-6c2c-4eef-a58d-a54e75ad403c" d="M1726.9643,116.2363h-4.6016v7.67c0,1.7168.7275,2.2364,2.2354,2.2364a9.7,9.7,0,0,0,2.1064-.26v1.82a13.0886,13.0886,0,0,1-2.7041.3115c-2.7041,0-4.0557-1.0654-4.0557-3.9v-7.878H1716.85v-1.872h3.0947v-5.07h2.418v5.07h4.6016Z"/>
    <path class="b7ef89f5-6c2c-4eef-a58d-a54e75ad403c" d="M1751.561,121.6182c-.3389,3.5625-3.1211,6.5791-7.9571,6.5791-5.5644,0-8.9179-4.03-8.9179-9.6211,0-5.4336,3.1982-9.5938,8.8925-9.5938,4.9395,0,7.6182,3.12,7.878,6.708H1748.96c-.2344-2.5224-2.21-4.55-5.46-4.55-3.9268,0-6.2148,3.042-6.2148,7.41,0,4.4453,2.288,7.4883,6.24,7.4883,3.2246,0,5.2-1.95,5.5127-4.4209Z"/>
    <path class="b7ef89f5-6c2c-4eef-a58d-a54e75ad403c" d="M1763.39,114.3643h2.3925v13.52H1763.39v-2.626a5.513,5.513,0,0,1-4.8624,2.9385c-2.6259,0-4.29-1.4825-4.29-5.07v-8.7627h2.418v8.19c0,2.7305,1.04,3.6142,2.8349,3.6142a4.2144,4.2144,0,0,0,3.8995-3.1728Z"/>
    <path class="b7ef89f5-6c2c-4eef-a58d-a54e75ad403c" d="M1768.849,117.9521c0-2.47,2.08-3.8476,5.2266-3.8476,4.0039,0,5.33,2.2353,5.33,3.9521h-2.3135c-.1309-1.1962-.9883-2.08-3.1211-2.08-1.56,0-2.7812.4677-2.7812,1.7158,0,3.3017,8.58,1.2744,8.58,6.5,0,2.5742-2.1845,4.0049-5.4863,4.0049-4.0566,0-5.9541-2.2627-5.9541-4.6026h2.3135c.1308,2.21,2.1846,2.73,3.6406,2.73,1.6123,0,3.1465-.623,3.1465-2.0273C1777.43,120.9941,1768.849,122.9961,1768.849,117.9521Z"/>
    <path class="b7ef89f5-6c2c-4eef-a58d-a54e75ad403c" d="M1791.0531,116.2363h-4.6015v7.67c0,1.7168.7275,2.2364,2.2363,2.2364a9.7,9.7,0,0,0,2.1055-.26v1.82a13.0886,13.0886,0,0,1-2.7041.3115c-2.7041,0-4.0557-1.0654-4.0557-3.9v-7.878h-3.0947v-1.872h3.0947v-5.07h2.418v5.07h4.6015Z"/>
    <path class="b7ef89f5-6c2c-4eef-a58d-a54e75ad403c" d="M1792.3539,121.125c0-4.1348,2.4961-7.0723,6.5781-7.0723s6.5518,2.9375,6.5518,7.0723c0,4.1074-2.5742,7.0723-6.5518,7.0723C1794.85,128.1973,1792.3539,125.2324,1792.3539,121.125Zm10.6856,0c0-3.0166-1.3252-5.2012-4.1075-5.2012-2.8085,0-4.1347,2.1846-4.1347,5.2012,0,3.042,1.3262,5.1992,4.1347,5.1992C1801.7143,126.3242,1803.04,124.167,1803.04,121.125Z"/>
    <path class="b7ef89f5-6c2c-4eef-a58d-a54e75ad403c" d="M1827.7924,119.4609v8.4239h-2.4189v-7.9307c0-2.7822-.8321-3.8994-2.6-3.8994a4.1512,4.1512,0,0,0-3.6923,3.1973v8.6328H1816.69v-7.9307c0-2.7822-.8321-3.8994-2.626-3.8994a4.1218,4.1218,0,0,0-3.667,3.1973v8.6328h-2.418v-13.52h2.418V116.99a5.2841,5.2841,0,0,1,4.6289-2.9375c2.08,0,3.4062,1.0137,3.874,3.3282a5.362,5.362,0,0,1,4.836-3.3282C1826.3617,114.0527,1827.7924,115.6641,1827.7924,119.4609Z"/>
    <path class="b7ef89f5-6c2c-4eef-a58d-a54e75ad403c" d="M1842.56,121.748h-9.959c.1562,2.6788,1.4824,4.5762,4.2129,4.5762a3.075,3.075,0,0,0,3.4053-2.7031h2.3408c-.3379,2.3652-2.0547,4.5762-5.7989,4.5762-4.29,0-6.6035-3.1211-6.6035-7.0723,0-3.9531,2.3662-7.0723,6.4483-7.0723,3.9258,0,5.9541,2.8858,5.9541,6.6035Zm-9.9063-1.8193h7.6182c-.208-2.3926-1.3008-4.0049-3.666-4.0049S1832.9652,117.5361,1832.6537,119.9287Z"/>
    <path class="b7ef89f5-6c2c-4eef-a58d-a54e75ad403c" d="M1853.1156,114.26v2.2363a10.4648,10.4648,0,0,0-1.4824-.0781,3.9183,3.9183,0,0,0-4.0293,3.0947v8.3721h-2.4189v-13.52h2.4189v2.99a4.9134,4.9134,0,0,1,4.4981-3.1719A5.0941,5.0941,0,0,1,1853.1156,114.26Z"/>
    <path class="b7ef89f5-6c2c-4eef-a58d-a54e75ad403c" d="M1854.9867,117.9521c0-2.47,2.08-3.8476,5.2266-3.8476,4.0039,0,5.33,2.2353,5.33,3.9521h-2.3145c-.13-1.1962-.9873-2.08-3.1191-2.08-1.5606,0-2.7822.4677-2.7822,1.7158,0,3.3017,8.58,1.2744,8.58,6.5,0,2.5742-2.1845,4.0049-5.4863,4.0049-4.0557,0-5.9541-2.2627-5.9541-4.6026h2.3145c.13,2.21,2.1835,2.73,3.64,2.73,1.6123,0,3.1465-.623,3.1465-2.0273C1863.5678,120.9941,1854.9867,122.9961,1854.9867,117.9521Z"/>
  </g>
  <g>
    <path class="f4aa6c0e-2e85-4a84-a027-2d87ac2c3758" d="M277.6767,77.3164a20.1344,20.1344,0,0,1,9.7505-19.0781,21.1692,21.1692,0,0,1,21.8261-.0078,20.1241,20.1241,0,0,1,9.7537,19.0713Z"/>
    <path class="f4aa6c0e-2e85-4a84-a027-2d87ac2c3758" d="M287.0422,43.3507h0A11.21,11.21,0,0,1,298.38,32.2725a11.4748,11.4748,0,0,1,8.0175,3.2446,10.95,10.95,0,0,1,3.3212,7.8336,11.3414,11.3414,0,0,1-22.6767,0Z"/>
  </g>
  <path class="f4aa6c0e-2e85-4a84-a027-2d87ac2c3758" d="M1008.9819,68.4921h0a11.21,11.21,0,0,1,11.338-11.0783,11.4752,11.4752,0,0,1,8.0176,3.2447,10.95,10.95,0,0,1,3.3212,7.8336,11.3415,11.3415,0,0,1-22.6768,0Z"/>
  <g>
    <path class="b7ef89f5-6c2c-4eef-a58d-a54e75ad403c" d="M175.6205,114.9365c0,3.4834-2.1582,5.668-6.5263,5.668h-3.9258v7.28h-2.4961V109.2939h6.4219C173.4623,109.2939,175.6205,111.4785,175.6205,114.9365Zm-6.6562,3.6143c3.0683,0,4.1865-1.4043,4.1865-3.5889,0-2.1572-1.1182-3.5361-4.1865-3.5361h-3.7959v7.125Z"/>
    <path class="b7ef89f5-6c2c-4eef-a58d-a54e75ad403c" d="M186.0463,114.26v2.2363a10.4655,10.4655,0,0,0-1.4824-.0781,3.9183,3.9183,0,0,0-4.0293,3.0947v8.3721h-2.419v-13.52h2.419v2.99a4.9134,4.9134,0,0,1,4.498-3.1719A5.0945,5.0945,0,0,1,186.0463,114.26Z"/>
    <path class="b7ef89f5-6c2c-4eef-a58d-a54e75ad403c" d="M186.7485,121.125c0-4.1348,2.496-7.0723,6.5781-7.0723s6.5517,2.9375,6.5517,7.0723c0,4.1074-2.5742,7.0723-6.5517,7.0723C189.2445,128.1973,186.7485,125.2324,186.7485,121.125Zm10.6865,0c0-3.0166-1.3262-5.2012-4.1084-5.2012-2.8086,0-4.1348,2.1846-4.1348,5.2012,0,3.042,1.3262,5.1992,4.1348,5.1992C196.1088,126.3242,197.435,124.167,197.435,121.125Z"/>
    <path class="b7ef89f5-6c2c-4eef-a58d-a54e75ad403c" d="M212.02,108.124h2.3926v19.7608H212.02v-2.7041a5.0484,5.0484,0,0,1-4.5761,3.0166c-3.77,0-5.85-3.1211-5.85-7.0723,0-3.9531,2.08-7.0723,5.85-7.0723a4.9036,4.9036,0,0,1,4.5761,2.7813Zm0,13.001c0-2.8867-1.3-5.2012-3.9775-5.2012-2.7041,0-4.0049,2.3145-4.0049,5.2012s1.3008,5.1992,4.0049,5.1992C210.5639,126.3242,212.02,123.9062,212.02,121.125Z"/>
    <path class="b7ef89f5-6c2c-4eef-a58d-a54e75ad403c" d="M226.892,114.3643h2.3926v13.52H226.892v-2.626a5.5128,5.5128,0,0,1-4.8623,2.9385c-2.626,0-4.29-1.4825-4.29-5.07v-8.7627h2.4179v8.19c0,2.7305,1.04,3.6142,2.834,3.6142a4.2145,4.2145,0,0,0,3.9-3.1728Z"/>
    <path class="b7ef89f5-6c2c-4eef-a58d-a54e75ad403c" d="M231.78,121.125c0-3.9531,2.34-7.0723,6.6563-7.0723,3.7441,0,5.5634,2.3135,5.7978,5.0176h-2.34a3.3082,3.3082,0,0,0-3.5362-3.1465c-2.834,0-4.1347,2.3145-4.1347,5.2012,0,2.834,1.3779,5.1992,4.1347,5.1992,2.34,0,3.4317-1.5078,3.7178-3.4834H244.39a5.5253,5.5253,0,0,1-5.9541,5.3565C234.12,128.1973,231.78,125.0762,231.78,121.125Z"/>
    <path class="b7ef89f5-6c2c-4eef-a58d-a54e75ad403c" d="M255.6215,116.2363H251.02v7.67c0,1.7168.7276,2.2364,2.2354,2.2364a9.7,9.7,0,0,0,2.1064-.26v1.82a13.0871,13.0871,0,0,1-2.7041.3115c-2.7041,0-4.0556-1.0654-4.0556-3.9v-7.878h-3.0948v-1.872h3.0948v-5.07H251.02v5.07h4.6016Z"/>
    <path class="b7ef89f5-6c2c-4eef-a58d-a54e75ad403c" d="M278.8393,109.2939h3.4326v18.5909h-2.418V112.7l-5.6162,15.2627h-1.7422L266.8793,112.7v15.1846h-2.418V109.2939h3.4317l5.4863,14.8467Z"/>
    <path class="b7ef89f5-6c2c-4eef-a58d-a54e75ad403c" d="M298.5473,125.9609v1.9239h-.5205c-1.8194,0-2.9375-.65-3.3282-2.002a5.4516,5.4516,0,0,1-4.68,2.21c-2.7305,0-4.4463-1.4043-4.4463-3.8223,0-2.6523,2.0283-4.1865,5.98-4.3935l2.99-.1563v-.4687c0-1.7676-.0782-3.2754-2.86-3.2754-1.7685,0-3.1982.7275-3.1982,2.34H286.17c0-2.6523,2.3145-4.2119,5.4346-4.2119,3.9,0,5.3564,1.5078,5.3564,5.2783v4.7578c0,1.3516.26,1.82,1.17,1.82Zm-4.0039-3.042V121.41l-2.4707.1308c-2.834.13-4.1084.6758-4.1084,2.4961,0,1.43.9365,2.2354,2.6269,2.2354A3.8664,3.8664,0,0,0,294.5434,122.9189Z"/>
    <path class="b7ef89f5-6c2c-4eef-a58d-a54e75ad403c" d="M312.3783,119.1221v8.7627H309.96v-8.19c0-2.73-1.04-3.64-2.834-3.64a4.1835,4.1835,0,0,0-3.875,3.1973v8.6328h-2.418v-13.52h2.418V116.99a5.3936,5.3936,0,0,1,4.8369-2.9375C310.74,114.0527,312.3783,115.5342,312.3783,119.1221Z"/>
    <path class="b7ef89f5-6c2c-4eef-a58d-a54e75ad403c" d="M327.9008,125.9609v1.9239H327.38c-1.8193,0-2.9375-.65-3.3281-2.002a5.4519,5.4519,0,0,1-4.68,2.21c-2.7305,0-4.4463-1.4043-4.4463-3.8223,0-2.6523,2.0283-4.1865,5.9805-4.3935l2.99-.1563v-.4687c0-1.7676-.0781-3.2754-2.86-3.2754-1.7685,0-3.1982.7275-3.1982,2.34h-2.3145c0-2.6523,2.3145-4.2119,5.4346-4.2119,3.9,0,5.3565,1.5078,5.3565,5.2783v4.7578c0,1.3516.26,1.82,1.17,1.82Zm-4.0039-3.042V121.41l-2.4707.1308c-2.834.13-4.1084.6758-4.1084,2.4961,0,1.43.9365,2.2354,2.6269,2.2354A3.8664,3.8664,0,0,0,323.8969,122.9189Z"/>
    <path class="b7ef89f5-6c2c-4eef-a58d-a54e75ad403c" d="M339.7045,114.3643h2.3926v11.57c0,4.498-2.1328,6.9424-6.6309,6.9424-4.2383,0-5.85-2.1582-6.1875-4.1338h2.34c.3379,1.1953,1.4043,2.3662,3.8476,2.3662,3.043,0,4.2383-1.4571,4.2383-4.8623v-1.5342a5.1556,5.1556,0,0,1-4.5762,2.6777c-3.7177,0-5.85-2.86-5.85-6.5263,0-3.7442,2.21-6.8116,5.85-6.8116a4.9889,4.9889,0,0,1,4.5762,2.6778Zm0,6.4482c0-2.6523-1.3262-4.8887-3.9775-4.8887-2.626,0-3.9785,2.2627-3.9785,4.8887,0,2.7041,1.3525,4.7061,3.9785,4.7061C338.1967,125.5186,339.7045,123.5166,339.7045,120.8125Z"/>
    <path class="b7ef89f5-6c2c-4eef-a58d-a54e75ad403c" d="M356.9945,121.748h-9.9589c.1562,2.6788,1.4824,4.5762,4.2129,4.5762a3.0749,3.0749,0,0,0,3.4052-2.7031h2.3408c-.3378,2.3652-2.0546,4.5762-5.7988,4.5762-4.29,0-6.6035-3.1211-6.6035-7.0723,0-3.9531,2.3662-7.0723,6.4482-7.0723,3.9258,0,5.9541,2.8858,5.9541,6.6035Zm-9.9062-1.8193h7.6182c-.208-2.3926-1.3008-4.0049-3.6661-4.0049S347.4,117.5361,347.0883,119.9287Z"/>
    <path class="b7ef89f5-6c2c-4eef-a58d-a54e75ad403c" d="M379.433,119.4609v8.4239h-2.4179v-7.9307c0-2.7822-.8321-3.8994-2.6006-3.8994a4.1513,4.1513,0,0,0-3.6924,3.1973v8.6328h-2.3916v-7.9307c0-2.7822-.832-3.8994-2.626-3.8994a4.1206,4.1206,0,0,0-3.666,3.1973v8.6328H359.62v-13.52h2.419V116.99a5.2814,5.2814,0,0,1,4.6279-2.9375c2.08,0,3.4063,1.0137,3.874,3.3282a5.3621,5.3621,0,0,1,4.836-3.3282C378.0024,114.0527,379.433,115.6641,379.433,119.4609Z"/>
    <path class="b7ef89f5-6c2c-4eef-a58d-a54e75ad403c" d="M394.2,121.748h-9.959c.1563,2.6788,1.4825,4.5762,4.2129,4.5762a3.0749,3.0749,0,0,0,3.4053-2.7031H394.2c-.3379,2.3652-2.0547,4.5762-5.7988,4.5762-4.29,0-6.6035-3.1211-6.6035-7.0723,0-3.9531,2.3662-7.0723,6.4482-7.0723,3.9258,0,5.9541,2.8858,5.9541,6.6035Zm-9.9062-1.8193h7.6181c-.208-2.3926-1.3007-4.0049-3.666-4.0049S384.6049,117.5361,384.2934,119.9287Z"/>
    <path class="b7ef89f5-6c2c-4eef-a58d-a54e75ad403c" d="M408.37,119.1221v8.7627h-2.4179v-8.19c0-2.73-1.04-3.64-2.834-3.64a4.1815,4.1815,0,0,0-3.874,3.1973v8.6328h-2.419v-13.52h2.419V116.99a5.392,5.392,0,0,1,4.8359-2.9375C406.7318,114.0527,408.37,115.5342,408.37,119.1221Z"/>
    <path class="b7ef89f5-6c2c-4eef-a58d-a54e75ad403c" d="M420.25,116.2363h-4.6016v7.67c0,1.7168.7276,2.2364,2.2354,2.2364a9.7,9.7,0,0,0,2.1064-.26v1.82a13.0871,13.0871,0,0,1-2.7041.3115c-2.7041,0-4.0556-1.0654-4.0556-3.9v-7.878h-3.0948v-1.872h3.0948v-5.07h2.4179v5.07H420.25Z"/>
  </g>
  <g>
    <path class="f4aa6c0e-2e85-4a84-a027-2d87ac2c3758" d="M1842.43,397.5a20.1345,20.1345,0,0,1,9.7506-19.0781,21.169,21.169,0,0,1,21.826-.0078,20.1239,20.1239,0,0,1,9.7537,19.0713Z"/>
    <path class="f4aa6c0e-2e85-4a84-a027-2d87ac2c3758" d="M1851.795,363.5339h0a11.21,11.21,0,0,1,11.338-11.0782,11.4755,11.4755,0,0,1,8.0176,3.2446,10.95,10.95,0,0,1,3.3211,7.8336,11.3414,11.3414,0,0,1-22.6767,0Z"/>
  </g>
  <g>
    <path class="b7ef89f5-6c2c-4eef-a58d-a54e75ad403c" d="M1793.8236,437.6016l-1.6113-5.07h-7.2285l-1.5859,5.07h-2.5225l6.0322-18.5909h3.3545l6.1621,18.5909Zm-8.1894-7.2022h5.9023l-2.9648-9.4121Z"/>
    <path class="b7ef89f5-6c2c-4eef-a58d-a54e75ad403c" d="M1797.7758,430.8408c0-3.9512,2.34-7.0722,6.6562-7.0722,3.7442,0,5.5635,2.3144,5.7979,5.0185h-2.34a3.3074,3.3074,0,0,0-3.5362-3.1455c-2.834,0-4.1347,2.3135-4.1347,5.1992,0,2.835,1.3779,5.2012,4.1347,5.2012,2.34,0,3.4317-1.5088,3.7178-3.4844h2.3144a5.5244,5.5244,0,0,1-5.9541,5.3555C1800.1156,437.9131,1797.7758,434.7939,1797.7758,430.8408Z"/>
    <path class="b7ef89f5-6c2c-4eef-a58d-a54e75ad403c" d="M1812.102,430.8408c0-3.9512,2.34-7.0722,6.6562-7.0722,3.7442,0,5.5635,2.3144,5.7979,5.0185h-2.34a3.3073,3.3073,0,0,0-3.5361-3.1455c-2.834,0-4.1348,2.3135-4.1348,5.1992,0,2.835,1.378,5.2012,4.1348,5.2012,2.34,0,3.4316-1.5088,3.7178-3.4844h2.3144a5.5245,5.5245,0,0,1-5.9541,5.3555C1814.4418,437.9131,1812.102,434.7939,1812.102,430.8408Z"/>
    <path class="b7ef89f5-6c2c-4eef-a58d-a54e75ad403c" d="M1826.4281,430.8408c0-4.1338,2.4961-7.0722,6.5782-7.0722s6.5517,2.9384,6.5517,7.0722c0,4.1084-2.5742,7.0723-6.5517,7.0723C1828.9242,437.9131,1826.4281,434.9492,1826.4281,430.8408Zm10.6866,0c0-3.0156-1.3262-5.1992-4.1084-5.1992-2.8086,0-4.1348,2.1836-4.1348,5.1992,0,3.043,1.3262,5.2012,4.1348,5.2012C1835.7885,436.042,1837.1147,433.8838,1837.1147,430.8408Z"/>
    <path class="b7ef89f5-6c2c-4eef-a58d-a54e75ad403c" d="M1851.0756,424.0811h2.3926v13.5205h-2.3926v-2.626a5.5121,5.5121,0,0,1-4.8623,2.9375c-2.626,0-4.29-1.4815-4.29-5.0693v-8.7627h2.4179v8.19c0,2.7295,1.04,3.6142,2.834,3.6142a4.2148,4.2148,0,0,0,3.9-3.1718Z"/>
    <path class="b7ef89f5-6c2c-4eef-a58d-a54e75ad403c" d="M1868.2875,428.8389v8.7627h-2.418v-8.1905c0-2.73-1.04-3.64-2.8339-3.64a4.1814,4.1814,0,0,0-3.8741,3.1982v8.6319h-2.4189V424.0811h2.4189v2.6259a5.3929,5.3929,0,0,1,4.836-2.9384C1866.65,423.7686,1868.2875,425.251,1868.2875,428.8389Z"/>
    <path class="b7ef89f5-6c2c-4eef-a58d-a54e75ad403c" d="M1880.1684,425.9531h-4.6016v7.67c0,1.7168.7275,2.2364,2.2354,2.2364a9.7,9.7,0,0,0,2.1064-.26v1.82a13.0886,13.0886,0,0,1-2.7041.3115c-2.7041,0-4.0557-1.0664-4.0557-3.9v-7.878h-3.0947v-1.872h3.0947v-5.07h2.418v5.07h4.6016Z"/>
    <path class="b7ef89f5-6c2c-4eef-a58d-a54e75ad403c" d="M1887.8129,431.6729h2.4443c.0782,2.4707,1.9756,4.083,4.9659,4.083,2.7041,0,4.2119-1.1963,4.2119-3.0948,0-1.95-1.0918-2.7295-4.9922-3.6914-4.29-1.041-6.0059-2.5224-6.0059-5.1748,0-3.12,2.4961-5.0957,6.4746-5.0957,3.8995,0,6.4483,2.21,6.4483,5.5635h-2.3926c-.1035-2.0537-1.4043-3.4063-4.2119-3.4063-2.626,0-3.9258,1.1709-3.9258,2.7051,0,1.6895,1.1172,2.3916,4.8877,3.4053,4.3682,1.1709,6.2139,2.4707,6.2139,5.4863,0,3.4326-2.418,5.46-6.7344,5.46C1890.6986,437.9131,1887.8129,435.47,1887.8129,431.6729Z"/>
    <path class="b7ef89f5-6c2c-4eef-a58d-a54e75ad403c" d="M1917.1156,435.6777v1.9239h-.5205c-1.8193,0-2.9375-.65-3.3281-2.002a5.4541,5.4541,0,0,1-4.68,2.21c-2.73,0-4.4463-1.4043-4.4463-3.8223,0-2.6523,2.0283-4.1855,5.98-4.3945l2.99-.1553V428.97c0-1.7685-.0781-3.2763-2.86-3.2763-1.7686,0-3.1983.7275-3.1983,2.34h-2.3144c0-2.6523,2.3144-4.2119,5.4346-4.2119,3.9,0,5.3564,1.5078,5.3564,5.2783v4.7578c0,1.3526.26,1.82,1.17,1.82Zm-4.0039-3.042V431.127l-2.4707.13c-2.834.1309-4.1084.6768-4.1084,2.4961,0,1.4307.9366,2.2364,2.627,2.2364A3.8663,3.8663,0,0,0,1913.1117,432.6357Z"/>
    <path class="b7ef89f5-6c2c-4eef-a58d-a54e75ad403c" d="M1919.558,437.6016V417.8408h2.418v19.7608Z"/>
    <path class="b7ef89f5-6c2c-4eef-a58d-a54e75ad403c" d="M1937.0307,431.4658h-9.959c.1562,2.6778,1.4824,4.5762,4.2129,4.5762a3.0771,3.0771,0,0,0,3.4062-2.7051h2.34c-.3379,2.3662-2.0547,4.5762-5.7989,4.5762-4.29,0-6.6035-3.1192-6.6035-7.0723,0-3.9512,2.3653-7.0722,6.4483-7.0722,3.9258,0,5.9541,2.8867,5.9541,6.6044Zm-9.9063-1.82h7.6182c-.208-2.3926-1.3-4.0039-3.666-4.0039S1927.436,427.2529,1927.1244,429.6455Z"/>
    <path class="b7ef89f5-6c2c-4eef-a58d-a54e75ad403c" d="M1939.4477,427.6689c0-2.47,2.08-3.8476,5.2265-3.8476,4.0039,0,5.33,2.2363,5.33,3.9521h-2.3135c-.1308-1.1963-.9882-2.08-3.1211-2.08-1.56,0-2.7812.4677-2.7812,1.7158,0,3.3017,8.58,1.2744,8.58,6.5,0,2.5742-2.1846,4.0039-5.4864,4.0039-4.0566,0-5.9541-2.2617-5.9541-4.6016h2.3135c.1309,2.21,2.1846,2.73,3.6406,2.73,1.6123,0,3.1465-.625,3.1465-2.0283C1948.0287,430.7109,1939.4477,432.7139,1939.4477,427.6689Z"/>
  </g>
  <g>
    <path class="f4aa6c0e-2e85-4a84-a027-2d87ac2c3758" d="M1761.91,694.2456a20.1347,20.1347,0,0,1,9.7506-19.0782,21.169,21.169,0,0,1,21.826-.0077,20.124,20.124,0,0,1,9.7538,19.0713Z"/>
    <path class="f4aa6c0e-2e85-4a84-a027-2d87ac2c3758" d="M1771.2753,660.28h0a11.21,11.21,0,0,1,11.3379-11.0783,11.475,11.475,0,0,1,8.0176,3.2447,10.95,10.95,0,0,1,3.3212,7.8336,11.3414,11.3414,0,0,1-22.6767,0Z"/>
  </g>
  <g>
    <path class="b7ef89f5-6c2c-4eef-a58d-a54e75ad403c" d="M1613.0385,724.59h3.4326v18.5909h-2.418V727.9961l-5.6162,15.2627h-1.7422l-5.6162-15.2627v15.1846h-2.4179V724.59h3.4316l5.4863,14.8467Z"/>
    <path class="b7ef89f5-6c2c-4eef-a58d-a54e75ad403c" d="M1632.7465,741.2568v1.9239h-.52c-1.8193,0-2.9375-.65-3.3281-2.002a5.4541,5.4541,0,0,1-4.68,2.21c-2.7305,0-4.4463-1.4043-4.4463-3.8223,0-2.6523,2.0283-4.1855,5.9805-4.3945l2.99-.1553v-.4678c0-1.7685-.0781-3.2763-2.86-3.2763-1.7685,0-3.1982.7275-3.1982,2.34H1620.37c0-2.6523,2.3145-4.2119,5.4346-4.2119,3.9,0,5.3565,1.5078,5.3565,5.2783v4.7578c0,1.3526.26,1.82,1.17,1.82Zm-4.0039-3.042v-1.5087l-2.4707.13c-2.834.1309-4.1074.6768-4.1074,2.4961,0,1.4307.9355,2.2364,2.6259,2.2364A3.8664,3.8664,0,0,0,1628.7426,738.2148Z"/>
    <path class="b7ef89f5-6c2c-4eef-a58d-a54e75ad403c" d="M1642.9643,729.5566v2.2354a10.4731,10.4731,0,0,0-1.4825-.0781,3.9184,3.9184,0,0,0-4.03,3.0947v8.3721h-2.418V729.66h2.418v2.99a4.9167,4.9167,0,0,1,4.499-3.1719A5.0375,5.0375,0,0,1,1642.9643,729.5566Z"/>
    <path class="b7ef89f5-6c2c-4eef-a58d-a54e75ad403c" d="M1654.7426,743.1807l-5.0186-6.8125-2.1064,2.0019v4.8106H1645.2V723.42h2.418v12.2725l6.2666-6.0322h2.9385l-5.3565,5.2,6.0323,8.32Z"/>
    <path class="b7ef89f5-6c2c-4eef-a58d-a54e75ad403c" d="M1670.1606,737.0449h-9.959c.1562,2.6778,1.4824,4.5762,4.2129,4.5762a3.0771,3.0771,0,0,0,3.4062-2.7051h2.34c-.3379,2.3662-2.0547,4.5762-5.7989,4.5762-4.29,0-6.6035-3.1192-6.6035-7.0723,0-3.9511,2.3653-7.0722,6.4483-7.0722,3.9257,0,5.9541,2.8867,5.9541,6.6044Zm-9.9063-1.82h7.6182c-.208-2.3926-1.3-4.0039-3.666-4.0039S1660.5658,732.832,1660.2543,735.2246Z"/>
    <path class="b7ef89f5-6c2c-4eef-a58d-a54e75ad403c" d="M1681.5209,731.5322h-4.6016v7.67c0,1.7168.7276,2.2364,2.2354,2.2364a9.7,9.7,0,0,0,2.1064-.26v1.82a13.0871,13.0871,0,0,1-2.7041.3115c-2.7041,0-4.0556-1.0664-4.0556-3.9v-7.878h-3.0947V729.66h3.0947v-5.07h2.4179v5.07h4.6016Z"/>
    <path class="b7ef89f5-6c2c-4eef-a58d-a54e75ad403c" d="M1690.3608,743.1807V724.59h2.496v18.5909Z"/>
    <path class="b7ef89f5-6c2c-4eef-a58d-a54e75ad403c" d="M1708.2748,734.418v8.7627h-2.418V734.99c0-2.73-1.04-3.64-2.8339-3.64a4.1814,4.1814,0,0,0-3.8741,3.1982v8.6319H1696.73V729.66h2.4189v2.6259a5.3929,5.3929,0,0,1,4.836-2.9384C1706.6371,729.3477,1708.2748,730.83,1708.2748,734.418Z"/>
    <path class="b7ef89f5-6c2c-4eef-a58d-a54e75ad403c" d="M1720.1567,731.5322h-4.6016v7.67c0,1.7168.7275,2.2364,2.2363,2.2364a9.7,9.7,0,0,0,2.1055-.26v1.82a13.0886,13.0886,0,0,1-2.7041.3115c-2.7041,0-4.0557-1.0664-4.0557-3.9v-7.878h-3.0947V729.66h3.0947v-5.07h2.418v5.07h4.6016Z"/>
    <path class="b7ef89f5-6c2c-4eef-a58d-a54e75ad403c" d="M1733.9369,737.0449h-9.959c.1563,2.6778,1.4825,4.5762,4.2129,4.5762a3.0756,3.0756,0,0,0,3.4053-2.7051h2.3408c-.3379,2.3662-2.0547,4.5762-5.7988,4.5762-4.29,0-6.6035-3.1192-6.6035-7.0723,0-3.9511,2.3662-7.0722,6.4482-7.0722,3.9258,0,5.9541,2.8867,5.9541,6.6044Zm-9.9062-1.82h7.6181c-.208-2.3926-1.3007-4.0039-3.666-4.0039S1724.3422,732.832,1724.0307,735.2246Z"/>
    <path class="b7ef89f5-6c2c-4eef-a58d-a54e75ad403c" d="M1736.7182,743.1807V723.42h2.4179v19.7608Z"/>
    <path class="b7ef89f5-6c2c-4eef-a58d-a54e75ad403c" d="M1742.7231,743.1807V723.42h2.4179v19.7608Z"/>
    <path class="b7ef89f5-6c2c-4eef-a58d-a54e75ad403c" d="M1748.6508,723.42h2.418v4.0821h-2.418Zm0,19.7608V729.66h2.418v13.52Z"/>
    <path class="b7ef89f5-6c2c-4eef-a58d-a54e75ad403c" d="M1764.0688,729.66h2.3925v11.57c0,4.498-2.1328,6.9424-6.6308,6.9424-4.2383,0-5.85-2.1583-6.1875-4.1338h2.34c.3379,1.1953,1.4043,2.3652,3.8477,2.3652,3.043,0,4.2383-1.4551,4.2383-4.8613v-1.5342a5.1538,5.1538,0,0,1-4.5762,2.6777c-3.7178,0-5.85-2.86-5.85-6.5263,0-3.7442,2.21-6.8125,5.85-6.8125a4.9914,4.9914,0,0,1,4.5762,2.6787Zm0,6.4482c0-2.6523-1.3262-4.8877-3.9776-4.8877-2.626,0-3.9785,2.2617-3.9785,4.8877,0,2.7041,1.3525,4.7061,3.9785,4.7061C1762.561,740.8145,1764.0688,738.8125,1764.0688,736.1084Z"/>
    <path class="b7ef89f5-6c2c-4eef-a58d-a54e75ad403c" d="M1781.36,737.0449h-9.959c.1562,2.6778,1.4824,4.5762,4.2129,4.5762a3.0771,3.0771,0,0,0,3.4062-2.7051h2.34c-.3379,2.3662-2.0547,4.5762-5.7988,4.5762-4.29,0-6.6036-3.1192-6.6036-7.0723,0-3.9511,2.3653-7.0722,6.4483-7.0722,3.9258,0,5.9541,2.8867,5.9541,6.6044Zm-9.9063-1.82h7.6182c-.208-2.3926-1.3-4.0039-3.666-4.0039S1771.7651,732.832,1771.4535,735.2246Z"/>
    <path class="b7ef89f5-6c2c-4eef-a58d-a54e75ad403c" d="M1795.5287,734.418v8.7627h-2.4179V734.99c0-2.73-1.04-3.64-2.834-3.64a4.1814,4.1814,0,0,0-3.8741,3.1982v8.6319h-2.4189V729.66h2.4189v2.6259a5.3929,5.3929,0,0,1,4.836-2.9384C1793.891,729.3477,1795.5287,730.83,1795.5287,734.418Z"/>
    <path class="b7ef89f5-6c2c-4eef-a58d-a54e75ad403c" d="M1797.894,736.42c0-3.9511,2.34-7.0722,6.6562-7.0722,3.7441,0,5.5635,2.3144,5.7979,5.0185h-2.34a3.3073,3.3073,0,0,0-3.5361-3.1455c-2.834,0-4.1348,2.3135-4.1348,5.1992,0,2.835,1.3779,5.2012,4.1348,5.2012,2.34,0,3.4316-1.5088,3.7178-3.4844h2.3144a5.5245,5.5245,0,0,1-5.9541,5.3555C1800.2338,743.4922,1797.894,740.373,1797.894,736.42Z"/>
    <path class="b7ef89f5-6c2c-4eef-a58d-a54e75ad403c" d="M1824.6225,737.0449h-9.959c.1562,2.6778,1.4824,4.5762,4.2129,4.5762a3.0757,3.0757,0,0,0,3.4053-2.7051h2.3408c-.3379,2.3662-2.0547,4.5762-5.7989,4.5762-4.29,0-6.6035-3.1192-6.6035-7.0723,0-3.9511,2.3662-7.0722,6.4483-7.0722,3.9258,0,5.9541,2.8867,5.9541,6.6044Zm-9.9063-1.82h7.6182c-.208-2.3926-1.3008-4.0039-3.666-4.0039S1815.0277,732.832,1814.7162,735.2246Z"/>
    <path class="b7ef89f5-6c2c-4eef-a58d-a54e75ad403c" d="M1845.059,743.1807l-1.6123-5.07h-7.2285l-1.586,5.07H1832.11l6.0322-18.5909h3.3545l6.1621,18.5909Zm-8.19-7.2022h5.9013l-2.9638-9.4121Z"/>
    <path class="b7ef89f5-6c2c-4eef-a58d-a54e75ad403c" d="M1861.516,734.418v8.7627h-2.4179V734.99c0-2.73-1.04-3.64-2.834-3.64a4.1833,4.1833,0,0,0-3.875,3.1982v8.6319h-2.418V729.66h2.418v2.6259a5.3943,5.3943,0,0,1,4.8369-2.9384C1859.8774,729.3477,1861.516,730.83,1861.516,734.418Z"/>
    <path class="b7ef89f5-6c2c-4eef-a58d-a54e75ad403c" d="M1877.0375,741.2568v1.9239h-.52c-1.8193,0-2.9375-.65-3.3281-2.002a5.4541,5.4541,0,0,1-4.68,2.21c-2.73,0-4.4463-1.4043-4.4463-3.8223,0-2.6523,2.0283-4.1855,5.9805-4.3945l2.99-.1553v-.4678c0-1.7685-.0781-3.2763-2.86-3.2763-1.7686,0-3.1983.7275-3.1983,2.34h-2.3144c0-2.6523,2.3144-4.2119,5.4345-4.2119,3.9,0,5.3565,1.5078,5.3565,5.2783v4.7578c0,1.3526.26,1.82,1.17,1.82Zm-4.0039-3.042v-1.5087l-2.4707.13c-2.834.1309-4.1074.6768-4.1074,2.4961,0,1.4307.9355,2.2364,2.626,2.2364A3.8663,3.8663,0,0,0,1873.0336,738.2148Z"/>
    <path class="b7ef89f5-6c2c-4eef-a58d-a54e75ad403c" d="M1879.4809,743.1807V723.42h2.4179v19.7608Z"/>
    <path class="b7ef89f5-6c2c-4eef-a58d-a54e75ad403c" d="M1895.0033,729.66h2.5225l-7.6709,18.2011h-2.5479l2.47-5.6689-5.5381-12.5322h2.5224l4.3155,10.0878Z"/>
    <path class="b7ef89f5-6c2c-4eef-a58d-a54e75ad403c" d="M1899.3959,733.248c0-2.47,2.08-3.8476,5.2266-3.8476,4.0039,0,5.33,2.2363,5.33,3.9521h-2.3135c-.1309-1.1963-.9883-2.08-3.1211-2.08-1.56,0-2.7813.4677-2.7813,1.7158,0,3.3017,8.58,1.2744,8.58,6.5,0,2.5742-2.1846,4.0039-5.4863,4.0039-4.0567,0-5.9541-2.2617-5.9541-4.6016h2.3135c.1308,2.21,2.1845,2.7305,3.6406,2.7305,1.6123,0,3.1465-.625,3.1465-2.0283C1907.977,736.29,1899.3959,738.293,1899.3959,733.248Z"/>
    <path class="b7ef89f5-6c2c-4eef-a58d-a54e75ad403c" d="M1921.6,731.5322h-4.6015v7.67c0,1.7168.7275,2.2364,2.2363,2.2364a9.6988,9.6988,0,0,0,2.1054-.26v1.82a13.0871,13.0871,0,0,1-2.7041.3115c-2.7041,0-4.0556-1.0664-4.0556-3.9v-7.878h-3.0947V729.66h3.0947v-5.07h2.418v5.07H1921.6Z"/>
    <path class="b7ef89f5-6c2c-4eef-a58d-a54e75ad403c" d="M1923.81,733.248c0-2.47,2.08-3.8476,5.2265-3.8476,4.0039,0,5.33,2.2363,5.33,3.9521h-2.3135c-.1308-1.1963-.9882-2.08-3.1211-2.08-1.56,0-2.7812.4677-2.7812,1.7158,0,3.3017,8.58,1.2744,8.58,6.5,0,2.5742-2.1846,4.0039-5.4864,4.0039-4.0566,0-5.9541-2.2617-5.9541-4.6016h2.3135c.1309,2.21,2.1846,2.7305,3.6406,2.7305,1.6123,0,3.1465-.625,3.1465-2.0283C1932.391,736.29,1923.81,738.293,1923.81,733.248Z"/>
  </g>
  <g>
    <path class="f4aa6c0e-2e85-4a84-a027-2d87ac2c3758" d="M240.96,694.2456a20.1345,20.1345,0,0,1,9.7506-19.0782,21.169,21.169,0,0,1,21.826-.0077A20.1239,20.1239,0,0,1,282.29,694.231Z"/>
    <path class="f4aa6c0e-2e85-4a84-a027-2d87ac2c3758" d="M250.3256,660.28h0a11.21,11.21,0,0,1,11.338-11.0783,11.4752,11.4752,0,0,1,8.0176,3.2447,10.95,10.95,0,0,1,3.3212,7.8336,11.3415,11.3415,0,0,1-22.6768,0Z"/>
  </g>
  <g>
    <path class="b7ef89f5-6c2c-4eef-a58d-a54e75ad403c" d="M107.392,733.82c0,5.4082-2.9893,9.36-9.2041,9.36H92.26V724.59h5.9277C104.4027,724.59,107.392,728.542,107.392,733.82Zm-9.2041,7.2285c4.5508,0,6.6045-2.834,6.6045-7.2285,0-4.2637-2.0537-7.0986-6.6045-7.0986H94.7563v14.3271Z"/>
    <path class="b7ef89f5-6c2c-4eef-a58d-a54e75ad403c" d="M121.7709,737.0449h-9.959c.1563,2.6778,1.4824,4.5762,4.2129,4.5762a3.0772,3.0772,0,0,0,3.4063-2.7051h2.34c-.3379,2.3662-2.0547,4.5762-5.7988,4.5762-4.29,0-6.6035-3.1192-6.6035-7.0723,0-3.9511,2.3652-7.0722,6.4482-7.0722,3.9258,0,5.9541,2.8867,5.9541,6.6044Zm-9.9062-1.82h7.6181c-.208-2.3926-1.3-4.0039-3.666-4.0039S112.1762,732.832,111.8647,735.2246Z"/>
    <path class="b7ef89f5-6c2c-4eef-a58d-a54e75ad403c" d="M144.2084,734.7559v8.4248H141.79V735.25c0-2.7812-.832-3.8994-2.6005-3.8994a4.151,4.151,0,0,0-3.6924,3.1982v8.6319h-2.3916V735.25c0-2.7812-.8321-3.8994-2.626-3.8994a4.12,4.12,0,0,0-3.666,3.1982v8.6319h-2.419V729.66h2.419v2.6259a5.2821,5.2821,0,0,1,4.6279-2.9384c2.08,0,3.4063,1.0146,3.874,3.3281a5.3636,5.3636,0,0,1,4.836-3.3281C142.7777,729.3477,144.2084,730.96,144.2084,734.7559Z"/>
    <path class="b7ef89f5-6c2c-4eef-a58d-a54e75ad403c" d="M159.73,741.2568v1.9239h-.52c-1.8193,0-2.9375-.65-3.3281-2.002a5.4541,5.4541,0,0,1-4.68,2.21c-2.7305,0-4.4463-1.4043-4.4463-3.8223,0-2.6523,2.0283-4.1855,5.9805-4.3945l2.99-.1553v-.4678c0-1.7685-.0781-3.2763-2.86-3.2763-1.7685,0-3.1982.7275-3.1982,2.34h-2.3145c0-2.6523,2.3145-4.2119,5.4346-4.2119,3.9,0,5.3565,1.5078,5.3565,5.2783v4.7578c0,1.3526.26,1.82,1.17,1.82Zm-4.0039-3.042v-1.5087l-2.4707.13c-2.834.1309-4.1074.6768-4.1074,2.4961,0,1.4307.9355,2.2364,2.6259,2.2364A3.8664,3.8664,0,0,0,155.726,738.2148Z"/>
    <path class="b7ef89f5-6c2c-4eef-a58d-a54e75ad403c" d="M173.5619,734.418v8.7627H171.144V734.99c0-2.73-1.04-3.64-2.834-3.64a4.1833,4.1833,0,0,0-3.875,3.1982v8.6319h-2.418V729.66h2.418v2.6259a5.3943,5.3943,0,0,1,4.8369-2.9384C171.9233,729.3477,173.5619,730.83,173.5619,734.418Z"/>
    <path class="b7ef89f5-6c2c-4eef-a58d-a54e75ad403c" d="M186.3529,723.42h2.3926v19.7608h-2.3926v-2.7041a5.0475,5.0475,0,0,1-4.5761,3.0156c-3.77,0-5.85-3.1192-5.85-7.0723,0-3.9511,2.08-7.0722,5.85-7.0722a4.9043,4.9043,0,0,1,4.5761,2.7822Zm0,13c0-2.8857-1.3-5.1992-3.9775-5.1992-2.7041,0-4.0049,2.3135-4.0049,5.1992s1.3008,5.2012,4.0049,5.2012C184.8969,741.6211,186.3529,739.2021,186.3529,736.42Z"/>
    <path class="b7ef89f5-6c2c-4eef-a58d-a54e75ad403c" d="M197.1693,745.001l8.086-21.5811h2.1582l-8.1123,21.5811Z"/>
    <path class="b7ef89f5-6c2c-4eef-a58d-a54e75ad403c" d="M215.0307,737.252h2.4443c.0781,2.4707,1.9756,4.083,4.9658,4.083,2.7041,0,4.2119-1.1963,4.2119-3.0948,0-1.95-1.0917-2.7295-4.9921-3.6914-4.29-1.041-6.0059-2.5224-6.0059-5.1748,0-3.12,2.4961-5.0957,6.4746-5.0957,3.8994,0,6.4483,2.21,6.4483,5.5635H226.185c-.1035-2.0537-1.4043-3.4063-4.2119-3.4063-2.626,0-3.9268,1.1709-3.9268,2.7051,0,1.69,1.1182,2.3916,4.8887,3.4053,4.3681,1.1709,6.2138,2.4707,6.2138,5.4863,0,3.4326-2.4179,5.46-6.7334,5.46C217.9164,743.4922,215.0307,741.0488,215.0307,737.252Z"/>
    <path class="b7ef89f5-6c2c-4eef-a58d-a54e75ad403c" d="M241.0561,729.66h2.3925v13.52h-2.3925v-2.626a5.5122,5.5122,0,0,1-4.8623,2.9375c-2.626,0-4.29-1.4815-4.29-5.0693V729.66h2.418v8.19c0,2.73,1.04,3.6142,2.834,3.6142a4.2148,4.2148,0,0,0,3.9-3.1718Z"/>
    <path class="b7ef89f5-6c2c-4eef-a58d-a54e75ad403c" d="M259.5424,736.42c0,3.9531-2.08,7.0723-5.85,7.0723a4.8945,4.8945,0,0,1-4.5508-2.73v7.0986h-2.418V729.66h2.418v2.6523a5.0349,5.0349,0,0,1,4.5508-2.9648C257.4623,729.3477,259.5424,732.4688,259.5424,736.42Zm-2.4434,0c0-2.8857-1.3007-5.1992-3.9785-5.1992-2.5478,0-3.9785,2.418-3.9785,5.1992,0,2.8867,1.2744,5.2012,3.9785,5.2012C255.7983,741.6211,257.099,739.3066,257.099,736.42Z"/>
    <path class="b7ef89f5-6c2c-4eef-a58d-a54e75ad403c" d="M274.8568,736.42c0,3.9531-2.08,7.0723-5.8505,7.0723a4.8918,4.8918,0,0,1-4.55-2.73v7.0986h-2.419V729.66h2.419v2.6523a5.0322,5.0322,0,0,1,4.55-2.9648C272.7768,729.3477,274.8568,732.4688,274.8568,736.42Zm-2.4443,0c0-2.8857-1.3-5.1992-3.9785-5.1992-2.5479,0-3.9775,2.418-3.9775,5.1992,0,2.8867,1.2734,5.2012,3.9775,5.2012C271.1127,741.6211,272.4125,739.3066,272.4125,736.42Z"/>
    <path class="b7ef89f5-6c2c-4eef-a58d-a54e75ad403c" d="M277.5072,743.1807V723.42h2.418v19.7608Z"/>
    <path class="b7ef89f5-6c2c-4eef-a58d-a54e75ad403c" d="M293.03,729.66h2.5225l-7.6709,18.2011h-2.5479l2.47-5.6689-5.538-12.5322h2.5224l4.3154,10.0878Z"/>
    <path class="b7ef89f5-6c2c-4eef-a58d-a54e75ad403c" d="M317.1059,730.2324c0,3.4844-2.1582,5.668-6.5264,5.668h-3.9258v7.28h-2.4961V724.59H310.58C314.9477,724.59,317.1059,726.7744,317.1059,730.2324Zm-6.6563,3.6143c3.0684,0,4.1865-1.4043,4.1865-3.5889,0-2.1582-1.1181-3.5361-4.1865-3.5361h-3.7959v7.125Z"/>
    <path class="b7ef89f5-6c2c-4eef-a58d-a54e75ad403c" d="M319.7563,743.1807V723.42h2.4179v19.7608Z"/>
    <path class="b7ef89f5-6c2c-4eef-a58d-a54e75ad403c" d="M337.9828,741.2568v1.9239h-.52c-1.8193,0-2.9375-.65-3.3281-2.002a5.4541,5.4541,0,0,1-4.68,2.21c-2.7305,0-4.4463-1.4043-4.4463-3.8223,0-2.6523,2.0283-4.1855,5.9805-4.3945l2.99-.1553v-.4678c0-1.7685-.0781-3.2763-2.86-3.2763-1.7686,0-3.1983.7275-3.1983,2.34h-2.3144c0-2.6523,2.3144-4.2119,5.4345-4.2119,3.9,0,5.3565,1.5078,5.3565,5.2783v4.7578c0,1.3526.26,1.82,1.17,1.82Zm-4.0039-3.042v-1.5087l-2.4707.13c-2.834.1309-4.1084.6768-4.1084,2.4961,0,1.4307.9365,2.2364,2.627,2.2364A3.8663,3.8663,0,0,0,333.9789,738.2148Z"/>
    <path class="b7ef89f5-6c2c-4eef-a58d-a54e75ad403c" d="M351.8149,734.418v8.7627h-2.418V734.99c0-2.73-1.04-3.64-2.834-3.64a4.1813,4.1813,0,0,0-3.874,3.1982v8.6319H340.27V729.66h2.419v2.6259a5.3927,5.3927,0,0,1,4.8359-2.9384C350.1772,729.3477,351.8149,730.83,351.8149,734.418Z"/>
    <path class="b7ef89f5-6c2c-4eef-a58d-a54e75ad403c" d="M366.5043,734.418v8.7627h-2.418V734.99c0-2.73-1.04-3.64-2.8339-3.64a4.1813,4.1813,0,0,0-3.8741,3.1982v8.6319h-2.4189V729.66h2.4189v2.6259a5.3929,5.3929,0,0,1,4.836-2.9384C364.8666,729.3477,366.5043,730.83,366.5043,734.418Z"/>
    <path class="b7ef89f5-6c2c-4eef-a58d-a54e75ad403c" d="M381.2719,737.0449h-9.959c.1563,2.6778,1.4824,4.5762,4.2129,4.5762a3.0757,3.0757,0,0,0,3.4053-2.7051h2.3408c-.3379,2.3662-2.0547,4.5762-5.7988,4.5762-4.29,0-6.6036-3.1192-6.6036-7.0723,0-3.9511,2.3663-7.0722,6.4483-7.0722,3.9258,0,5.9541,2.8867,5.9541,6.6044Zm-9.9063-1.82h7.6182c-.208-2.3926-1.3008-4.0039-3.666-4.0039S371.6772,732.832,371.3656,735.2246Z"/>
    <path class="b7ef89f5-6c2c-4eef-a58d-a54e75ad403c" d="M391.8276,729.5566v2.2354a10.4668,10.4668,0,0,0-1.4825-.0781,3.9173,3.9173,0,0,0-4.0293,3.0947v8.3721h-2.4189V729.66h2.4189v2.99a4.9134,4.9134,0,0,1,4.4981-3.1719A5.038,5.038,0,0,1,391.8276,729.5566Z"/>
    <path class="b7ef89f5-6c2c-4eef-a58d-a54e75ad403c" d="M393.6986,733.248c0-2.47,2.08-3.8476,5.2266-3.8476,4.0039,0,5.33,2.2363,5.33,3.9521h-2.3145c-.13-1.1963-.9873-2.08-3.1191-2.08-1.5606,0-2.7822.4677-2.7822,1.7158,0,3.3017,8.58,1.2744,8.58,6.5,0,2.5742-2.1845,4.0039-5.4863,4.0039-4.0556,0-5.9541-2.2617-5.9541-4.6016h2.3145c.13,2.21,2.1836,2.7305,3.64,2.7305,1.6123,0,3.1465-.625,3.1465-2.0283C402.28,736.29,393.6986,738.293,393.6986,733.248Z"/>
  </g>
  <line class="bbf24096-f204-4552-80e3-07c9e3348711" x1="1019.8452" y1="210.441" x2="1019.8452" y2="160.0739"/>
  <polyline class="a9b0e11c-14f2-46d3-b968-7d31449b9328" points="1496.769 292.017 1743.722 292.017 1743.722 162.438"/>
  <line class="bbf24096-f204-4552-80e3-07c9e3348711" x1="1496.7728" y1="421.0114" x2="1721.0455" y2="421.0114"/>
  <polyline class="a9b0e11c-14f2-46d3-b968-7d31449b9328" points="1496.773 559.574 1782.575 559.574 1782.575 612.564"/>
  <polyline class="a9b0e11c-14f2-46d3-b968-7d31449b9328" points="542.918 292.017 295.965 292.017 295.965 162.438"/>
  <line class="bbf24096-f204-4552-80e3-07c9e3348711" x1="542.9141" y1="421.0114" x2="268.6382" y2="421.0114"/>
  <polyline class="a9b0e11c-14f2-46d3-b968-7d31449b9328" points="542.914 559.574 257.112 559.574 257.112 612.564"/>
</svg>
