<svg id="ff2854d9-2171-44f3-8d82-eb24c76479bd" data-name="Layer 1" xmlns="http://www.w3.org/2000/svg" viewBox="0 0 1920.17 975.9"><defs><style>.a8242dde-1121-4d00-ae61-d493d2702ae6,.f80bf6bb-f4f1-40ce-8290-2574873875fa{fill:none;stroke:#1d1d1b;stroke-miterlimit:10;}.a8242dde-1121-4d00-ae61-d493d2702ae6{stroke-linecap:round;stroke-dasharray:0 9.11;}.ae7fa486-5879-478a-a960-460369cd02e7{fill:#ff7311;}.e3a6978c-91b1-498a-8987-e17a239a4719{fill:#194bff;}.a212fc94-9331-4cdb-b2ef-b0a70bea55c9{fill:#6d6e71;}.add59f1a-a699-487d-aaef-0dfeede7a798{fill:#fff;}</style></defs><line class="a8242dde-1121-4d00-ae61-d493d2702ae6" x1="1919.67" y1="136.05" x2="157.43" y2="136.05"/><line class="a8242dde-1121-4d00-ae61-d493d2702ae6" x1="1919.67" y1="33.2" x2="157.43" y2="33.2"/><line class="a8242dde-1121-4d00-ae61-d493d2702ae6" x1="1919.67" y1="341.74" x2="157.43" y2="341.74"/><line class="a8242dde-1121-4d00-ae61-d493d2702ae6" x1="1919.67" y1="444.58" x2="157.43" y2="444.58"/><line class="a8242dde-1121-4d00-ae61-d493d2702ae6" x1="1919.67" y1="238.89" x2="157.43" y2="238.89"/><line class="a8242dde-1121-4d00-ae61-d493d2702ae6" x1="1919.67" y1="547.43" x2="157.43" y2="547.43"/><line class="a8242dde-1121-4d00-ae61-d493d2702ae6" x1="1919.67" y1="650.27" x2="157.43" y2="650.27"/><line class="a8242dde-1121-4d00-ae61-d493d2702ae6" x1="1919.67" y1="753.12" x2="157.43" y2="753.12"/><line class="f80bf6bb-f4f1-40ce-8290-2574873875fa" x1="1919.67" y1="855.96" x2="157.43" y2="855.96"/><rect class="ae7fa486-5879-478a-a960-460369cd02e7" x="394.17" y="271.03" width="111.9" height="135.91" transform="translate(111.14 789.11) rotate(-90)"/><rect class="e3a6978c-91b1-498a-8987-e17a239a4719" x="619.54" y="300.25" width="53.46" height="135.91" transform="translate(278.06 1014.47) rotate(-90)"/><rect class="ae7fa486-5879-478a-a960-460369cd02e7" x="1028.76" y="283.83" width="19.59" height="135.91" transform="translate(686.77 1390.33) rotate(-90)"/><rect class="e3a6978c-91b1-498a-8987-e17a239a4719" x="1121.94" y="180.87" width="225.51" height="135.91" transform="translate(1483.51 -985.87) rotate(90)"/><rect class="ae7fa486-5879-478a-a960-460369cd02e7" x="1391.76" y="107.18" width="78.14" height="135.91" transform="translate(1255.7 1605.97) rotate(-90)"/><rect class="a212fc94-9331-4cdb-b2ef-b0a70bea55c9" x="1464.08" y="427.17" width="718.07" height="135.86" transform="translate(1328.02 2318.22) rotate(-90)"/><rect class="e3a6978c-91b1-498a-8987-e17a239a4719" x="1605.75" y="46.89" width="42.45" height="135.91" transform="translate(1512.14 1741.82) rotate(-90)"/><rect class="e3a6978c-91b1-498a-8987-e17a239a4719" x="836.16" y="267.29" width="12.49" height="135.91" transform="translate(507.16 1177.65) rotate(-90)"/><rect class="e3a6978c-91b1-498a-8987-e17a239a4719" x="-32.48" y="501.55" width="572.93" height="135.91" transform="translate(-315.52 823.48) rotate(-90)"/><path d="M1764.66,888.91h-8.76v5.81h7.32v2h-7.32v7.42h-2.31V887h11.07Z"/><path d="M1767.23,885.87h2.23v3.76h-2.23Zm0,18.24V891.63h2.23v12.48Z"/><path d="M1783.21,896v8.09H1781v-7.56c0-2.52-1-3.36-2.62-3.36a3.84,3.84,0,0,0-3.57,2.95v8h-2.24V891.63h2.24v2.42a5,5,0,0,1,4.46-2.71C1781.7,891.34,1783.21,892.71,1783.21,896Z"/><path d="M1797.54,902.33v1.78h-.48c-1.68,0-2.71-.6-3.07-1.85a5,5,0,0,1-4.32,2c-2.53,0-4.11-1.3-4.11-3.53,0-2.45,1.87-3.86,5.52-4.06l2.76-.14v-.43c0-1.63-.07-3-2.64-3-1.63,0-3,.68-3,2.16h-2.14c0-2.44,2.14-3.88,5-3.88,3.6,0,4.94,1.39,4.94,4.87v4.39c0,1.25.24,1.68,1.08,1.68Zm-3.7-2.81v-1.39l-2.28.12c-2.61.12-3.79.62-3.79,2.3,0,1.32.86,2.07,2.42,2.07A3.57,3.57,0,0,0,1793.84,899.52Z"/><path d="M1799.79,904.11V885.87H1802v18.24Z"/><path d="M1822.19,888.91h-8.76v5.81h7.32v2h-7.32v7.42h-2.31V887h11.07Z"/><path d="M1823.14,897.87c0-3.82,2.31-6.53,6.08-6.53s6,2.71,6,6.53-2.38,6.52-6,6.52S1823.14,901.66,1823.14,897.87Zm9.87,0c0-2.79-1.22-4.8-3.79-4.8s-3.82,2-3.82,4.8,1.22,4.8,3.82,4.8S1833,900.67,1833,897.87Z"/><path d="M1844.89,891.53v2.06a9.94,9.94,0,0,0-1.37-.07,3.62,3.62,0,0,0-3.72,2.86v7.73h-2.23V891.63h2.23v2.76a4.54,4.54,0,0,1,4.15-2.93A4.83,4.83,0,0,1,1844.89,891.53Z"/><path d="M1857,898.44h-9.19c.14,2.47,1.37,4.23,3.89,4.23a2.84,2.84,0,0,0,3.14-2.5H1857c-.31,2.18-1.89,4.22-5.35,4.22-4,0-6.1-2.88-6.1-6.52s2.19-6.53,6-6.53,5.49,2.66,5.49,6.09Zm-9.14-1.68h7c-.19-2.21-1.2-3.69-3.38-3.69S1848.18,894.55,1847.89,896.76Z"/><path d="M1858.74,897.87c0-3.65,2.16-6.53,6.14-6.53,3.46,0,5.14,2.13,5.35,4.63h-2.16a3,3,0,0,0-3.26-2.9c-2.62,0-3.82,2.13-3.82,4.8s1.28,4.8,3.82,4.8c2.16,0,3.17-1.4,3.43-3.22h2.14a5.11,5.11,0,0,1-5.5,4.94C1860.9,904.39,1858.74,901.51,1858.74,897.87Z"/><path d="M1884.11,902.33v1.78h-.49c-1.67,0-2.71-.6-3.07-1.85a5,5,0,0,1-4.32,2c-2.52,0-4.1-1.3-4.1-3.53,0-2.45,1.87-3.86,5.52-4.06l2.76-.14v-.43c0-1.63-.07-3-2.64-3-1.63,0-3,.68-3,2.16h-2.14c0-2.44,2.14-3.88,5-3.88,3.6,0,4.94,1.39,4.94,4.87v4.39c0,1.25.24,1.68,1.08,1.68Zm-3.7-2.81v-1.39l-2.28.12c-2.62.12-3.79.62-3.79,2.3,0,1.32.86,2.07,2.42,2.07A3.57,3.57,0,0,0,1880.41,899.52Z"/><path d="M1886,894.94c0-2.28,1.92-3.55,4.82-3.55,3.69,0,4.92,2.06,4.92,3.64h-2.14c-.12-1.1-.91-1.92-2.88-1.92-1.44,0-2.56.44-2.56,1.59,0,3,7.92,1.17,7.92,6,0,2.37-2,3.69-5.07,3.69-3.74,0-5.5-2.08-5.5-4.24h2.14c.12,2,2,2.52,3.36,2.52,1.49,0,2.91-.58,2.91-1.88C1894,897.75,1886,899.59,1886,894.94Z"/><path d="M1906.4,893.35h-4.25v7.08c0,1.59.67,2.07,2.07,2.07a9.19,9.19,0,0,0,1.94-.24v1.68a12.24,12.24,0,0,1-2.5.29c-2.49,0-3.74-1-3.74-3.6v-7.28h-2.86v-1.72h2.86V887h2.23v4.68h4.25Z"/><path d="M5.39,688.5v8.76H11.2v-7.32h2v7.32h7.42v2.3H3.42V688.5Z"/><path d="M14.34,687.54c-3.82,0-6.53-2.31-6.53-6.08s2.71-6,6.53-6,6.53,2.37,6.53,6S18.13,687.54,14.34,687.54Zm0-9.87c-2.78,0-4.8,1.23-4.8,3.79s2,3.82,4.8,3.82,4.8-1.22,4.8-3.82S17.15,677.67,14.34,677.67Z"/><path d="M8,665.79h2.07a9.94,9.94,0,0,0-.07,1.37,3.61,3.61,0,0,0,2.85,3.72h7.73v2.23H8.1v-2.23h2.76a4.53,4.53,0,0,1-2.93-4.15A4.83,4.83,0,0,1,8,665.79Z"/><path d="M14.92,653.65v9.19c2.47-.14,4.22-1.37,4.22-3.89a2.84,2.84,0,0,0-2.5-3.14v-2.16c2.19.31,4.23,1.89,4.23,5.35,0,4-2.88,6.1-6.53,6.1s-6.53-2.19-6.53-6,2.67-5.49,6.1-5.49Zm-1.68,9.14v-7c-2.21.19-3.7,1.2-3.7,3.38S11,662.5,13.24,662.79Z"/><path d="M14.34,652c-3.65,0-6.53-2.16-6.53-6.15,0-3.46,2.14-5.14,4.63-5.35v2.16a3.05,3.05,0,0,0-2.9,3.26c0,2.62,2.14,3.82,4.8,3.82s4.8-1.27,4.8-3.82c0-2.16-1.39-3.17-3.22-3.43V640.3a5.11,5.11,0,0,1,5,5.5C20.87,649.79,18,652,14.34,652Z"/><path d="M18.8,626.58h1.78v.48c0,1.68-.6,2.71-1.85,3.07a5,5,0,0,1,2,4.32c0,2.52-1.29,4.1-3.53,4.1-2.44,0-3.86-1.87-4-5.52L13,630.27h-.43c-1.63,0-3,.07-3,2.64,0,1.63.67,3,2.16,3V638c-2.45,0-3.89-2.13-3.89-5,0-3.61,1.39-5,4.87-5h4.39c1.25,0,1.68-.24,1.68-1.08ZM16,630.27H14.6l.12,2.28c.12,2.62.63,3.8,2.31,3.8,1.32,0,2.06-.87,2.06-2.43A3.57,3.57,0,0,0,16,630.27Z"/><path d="M11.41,624.66c-2.28,0-3.55-1.92-3.55-4.83,0-3.69,2.06-4.92,3.65-4.92v2.14c-1.11.12-1.92.91-1.92,2.88,0,1.44.43,2.57,1.58,2.57,3.05,0,1.18-7.92,6-7.92,2.38,0,3.7,2,3.7,5.06,0,3.75-2.09,5.5-4.25,5.5V623c2-.12,2.52-2,2.52-3.36s-.58-2.9-1.87-2.9C14.22,616.74,16.07,624.66,11.41,624.66Z"/><path d="M9.83,604.28v4.25h7.08c1.58,0,2.06-.67,2.06-2.07a8.58,8.58,0,0,0-.24-1.94h1.68a12.24,12.24,0,0,1,.29,2.5c0,2.49-1,3.74-3.6,3.74H9.83v2.86H8.1v-2.86H3.42v-2.23H8.1v-4.25Z"/><path d="M24.18,593.31A20.44,20.44,0,0,1,12.54,597,20.4,20.4,0,0,1,1,593.31v-1.8a23.28,23.28,0,0,0,11.52,3.27,23.86,23.86,0,0,0,11.64-3.27Z"/><path d="M3.42,578.29V576H13.69c4.75,0,7.18,2.16,7.18,6.39s-2.43,6.48-7.18,6.48H3.42v-2.3H13.64c3.65,0,5.33-1.49,5.33-4.18s-1.68-4.08-5.33-4.08Z"/><path d="M12.49,561.75h8.09V564H13c-2.52,0-3.36,1-3.36,2.61a3.87,3.87,0,0,0,2.95,3.58h8v2.23H8.1v-2.23h2.42a5,5,0,0,1-2.71-4.47C7.81,563.26,9.18,561.75,12.49,561.75Z"/><path d="M2.34,558.78v-2.23H6.11v2.23Zm18.24,0H8.1v-2.23H20.58Z"/><path d="M9.83,545.51v4.24h7.08c1.58,0,2.06-.67,2.06-2.06a8.58,8.58,0,0,0-.24-1.94h1.68a12.15,12.15,0,0,1,.29,2.49c0,2.5-1,3.75-3.6,3.75H9.83v2.85H8.1V552H3.42v-2.24H8.1v-4.24Z"/><path d="M11.41,543.47c-2.28,0-3.55-1.92-3.55-4.83,0-3.69,2.06-4.92,3.65-4.92v2.14c-1.11.12-1.92.91-1.92,2.88,0,1.44.43,2.57,1.58,2.57,3.05,0,1.18-7.92,6-7.92,2.38,0,3.7,2,3.7,5.06,0,3.75-2.09,5.5-4.25,5.5v-2.14c2-.12,2.52-2,2.52-3.36,0-1.49-.58-2.9-1.87-2.9C14.22,535.55,16.07,543.47,11.41,543.47Z"/><path d="M24.18,532a23.86,23.86,0,0,0-11.64-3.27A23.28,23.28,0,0,0,1,532v-1.8a20.4,20.4,0,0,1,11.52-3.65,20.44,20.44,0,0,1,11.64,3.65Z"/><circle cx="253.98" cy="855.96" r="10.31"/><circle cx="450.12" cy="855.96" r="10.31"/><circle cx="646.27" cy="855.96" r="10.31"/><circle cx="842.41" cy="855.96" r="10.31"/><circle cx="1038.55" cy="855.96" r="10.31"/><circle cx="1234.69" cy="855.96" r="10.31"/><circle cx="1430.84" cy="855.96" r="10.31"/><circle cx="1626.98" cy="855.96" r="10.31"/><circle cx="1823.12" cy="855.96" r="10.31"/><circle class="e3a6978c-91b1-498a-8987-e17a239a4719" cx="252.84" cy="213.95" r="21.81"/><path class="add59f1a-a699-487d-aaef-0dfeede7a798" d="M241.44,214.63l-1.88-1.93,13.3-13.16,13.31,13.16-1.89,1.93-10.11-10.37v22.29h-2.61V204.26Z"/><circle class="e3a6978c-91b1-498a-8987-e17a239a4719" cx="647.4" cy="268.68" r="21.81"/><path class="add59f1a-a699-487d-aaef-0dfeede7a798" d="M636,269.35l-1.88-1.92,13.3-13.16,13.31,13.16-1.89,1.92L648.73,259v22.29h-2.61V259Z"/><circle class="e3a6978c-91b1-498a-8987-e17a239a4719" cx="844.68" cy="258.7" r="21.81"/><path class="add59f1a-a699-487d-aaef-0dfeede7a798" d="M833.28,259.38l-1.88-1.93,13.3-13.16L858,257.45l-1.89,1.93L846,249V271.3H843.4V249Z"/><circle class="e3a6978c-91b1-498a-8987-e17a239a4719" cx="1234.69" cy="64.62" r="21.81"/><path class="add59f1a-a699-487d-aaef-0dfeede7a798" d="M1223.29,65.3l-1.88-1.92,13.3-13.17L1248,63.38l-1.89,1.92L1236,54.93V77.22h-2.61V54.93Z"/><circle class="e3a6978c-91b1-498a-8987-e17a239a4719" cx="1626.98" cy="21.81" r="21.81"/><path class="add59f1a-a699-487d-aaef-0dfeede7a798" d="M1615.58,22.49l-1.88-1.93L1627,7.4l13.3,13.16-1.88,1.93L1628.3,12.12V34.41h-2.61V12.12Z"/><circle class="ae7fa486-5879-478a-a960-460369cd02e7" cx="450.12" cy="464.58" r="21.81"/><path class="add59f1a-a699-487d-aaef-0dfeede7a798" d="M461.52,463.91l1.88,1.92L450.1,479l-13.3-13.16,1.89-1.92,10.11,10.37V452h2.61v22.29Z"/><circle class="ae7fa486-5879-478a-a960-460369cd02e7" cx="1038.55" cy="436.75" r="21.81"/><path class="add59f1a-a699-487d-aaef-0dfeede7a798" d="M1050,436.07l1.88,1.93-13.3,13.16L1025.23,438l1.88-1.93,10.11,10.37V424.15h2.61v22.29Z"/><circle class="ae7fa486-5879-478a-a960-460369cd02e7" cx="1430.84" cy="286.04" r="21.81"/><path class="add59f1a-a699-487d-aaef-0dfeede7a798" d="M1442.23,285.36l1.89,1.93-13.3,13.16-13.31-13.16,1.89-1.93,10.11,10.37V273.44h2.61v22.29Z"/><path d="M907.6,955.82c0,7.06-3.9,12.21-12,12.21h-7.73V943.79h7.73C903.7,943.79,907.6,948.94,907.6,955.82Zm-12,9.43c5.93,0,8.61-3.7,8.61-9.43,0-5.56-2.68-9.25-8.61-9.25h-4.48v18.68Z"/><path d="M921.54,950.26v2.92a13.91,13.91,0,0,0-1.93-.1,5.11,5.11,0,0,0-5.26,4V968H911.2V950.4h3.15v3.9a6.41,6.41,0,0,1,5.87-4.14A6.67,6.67,0,0,1,921.54,950.26Z"/><path d="M924.35,942.26h3.16v5.32h-3.16Zm0,25.77V950.4h3.16V968Z"/><path d="M943.55,950.4h3.25L940.66,968H936.6l-6.14-17.63h3.25l4.92,15.76Z"/><path d="M964.37,960h-13c.21,3.49,1.93,6,5.5,6,2.91,0,4-1.5,4.44-3.53h3c-.44,3.08-2.68,6-7.56,6-5.6,0-8.61-4.07-8.61-9.23s3.08-9.22,8.4-9.22c5.12,0,7.77,3.76,7.77,8.61Zm-12.92-2.38h9.93c-.27-3.11-1.69-5.22-4.78-5.22S951.86,954.54,951.45,957.65Z"/><path d="M978.14,950.26v2.92a14,14,0,0,0-1.94-.1,5.1,5.1,0,0,0-5.25,4V968h-3.16V950.4H971v3.9a6.4,6.4,0,0,1,5.86-4.14A6.77,6.77,0,0,1,978.14,950.26Z"/><path d="M980.58,955.08c0-3.22,2.71-5,6.81-5,5.23,0,7,2.92,7,5.15h-3c-.17-1.56-1.29-2.71-4.07-2.71-2,0-3.63.61-3.63,2.24,0,4.3,11.19,1.66,11.19,8.47,0,3.36-2.85,5.23-7.15,5.23-5.29,0-7.77-3-7.77-6h3c.17,2.89,2.85,3.57,4.75,3.57,2.1,0,4.1-.82,4.1-2.65C991.77,959,980.58,961.66,980.58,955.08Z"/><path d="M103,755c0,4-2.47,6.63-6.92,6.63-4,0-6.81-2.21-6.89-5.81h2.45c.08,2.42,1.84,3.87,4.44,3.87,2.82,0,4.35-1.79,4.35-4.53s-1.53-4.5-4.27-4.5a7.44,7.44,0,0,0-4.73,1.95H90v-10.1h11.66v2.08H92.25v5.65a9,9,0,0,1,4.68-1.34A5.71,5.71,0,0,1,103,755Z"/><path d="M105.12,751.88c0-5.87,2.5-9.66,7.49-9.66s7.34,3.71,7.34,9.66-2.36,9.78-7.34,9.78S105.12,757.88,105.12,751.88Zm12.31,0c0-5-1.53-7.66-4.82-7.66s-4.94,2.63-4.94,7.66,1.55,7.78,4.94,7.78S117.43,757,117.43,751.88Z"/><path d="M122.33,751.88c0-5.87,2.49-9.66,7.49-9.66s7.34,3.71,7.34,9.66-2.37,9.78-7.34,9.78S122.33,757.88,122.33,751.88Zm12.31,0c0-5-1.53-7.66-4.82-7.66s-4.94,2.63-4.94,7.66,1.55,7.78,4.94,7.78S134.64,757,134.64,751.88Z"/><path d="M83.49,639.69V658.5H81v-15h-3.9v-2.08h2.82c.86,0,1.08-.29,1.08-1.69Z"/><path d="M87.91,649c0-5.86,2.5-9.65,7.5-9.65s7.34,3.71,7.34,9.65-2.37,9.79-7.34,9.79S87.91,655,87.91,649Zm12.31,0c0-5-1.52-7.65-4.81-7.65s-5,2.63-5,7.65,1.55,7.79,5,7.79S100.22,654.19,100.22,649Z"/><path d="M105.12,649c0-5.86,2.5-9.65,7.49-9.65S120,643.09,120,649s-2.36,9.79-7.34,9.79S105.12,655,105.12,649Zm12.31,0c0-5-1.53-7.65-4.82-7.65s-4.94,2.63-4.94,7.65,1.55,7.79,4.94,7.79S117.43,654.19,117.43,649Z"/><path d="M122.33,649c0-5.86,2.49-9.65,7.49-9.65s7.34,3.71,7.34,9.65-2.37,9.79-7.34,9.79S122.33,655,122.33,649Zm12.31,0c0-5-1.53-7.65-4.82-7.65s-4.94,2.63-4.94,7.65,1.55,7.79,4.94,7.79S134.64,654.19,134.64,649Z"/><path d="M84.65,536.85v18.81H82.17v-15H78.28v-2.08h2.81c.87,0,1.08-.29,1.08-1.68Z"/><path d="M103,549.34c0,3.95-2.47,6.63-6.92,6.63-4,0-6.81-2.21-6.89-5.81h2.45c.08,2.42,1.84,3.87,4.44,3.87,2.82,0,4.35-1.79,4.35-4.53s-1.53-4.5-4.27-4.5a7.44,7.44,0,0,0-4.73,2H90v-10.1h11.66v2.08H92.25v5.65a9,9,0,0,1,4.68-1.34A5.71,5.71,0,0,1,103,549.34Z"/><path d="M105.12,546.19c0-5.87,2.5-9.66,7.49-9.66s7.34,3.71,7.34,9.66-2.36,9.78-7.34,9.78S105.12,552.18,105.12,546.19Zm12.31,0c0-5-1.53-7.66-4.82-7.66s-4.94,2.63-4.94,7.66,1.55,7.78,4.94,7.78S117.43,551.34,117.43,546.19Z"/><path d="M122.33,546.19c0-5.87,2.49-9.66,7.49-9.66s7.34,3.71,7.34,9.66-2.37,9.78-7.34,9.78S122.33,552.18,122.33,546.19Zm12.31,0c0-5-1.53-7.66-4.82-7.66s-4.94,2.63-4.94,7.66,1.55,7.78,4.94,7.78S134.64,551.34,134.64,546.19Z"/><path d="M76.73,450.73h8.81v2.08H73v-1.34l4.79-4.92c2.1-2.16,4.94-5.08,4.94-7.76,0-1.79-1.13-3.16-3.52-3.16-2.61,0-4,1.42-4.21,4.08H72.6c.15-3.89,2.65-6,6.7-6,3.79,0,5.87,2,5.87,4.92s-2.21,5.52-5,8.49Z"/><path d="M87.91,443.34c0-5.86,2.5-9.65,7.5-9.65s7.34,3.71,7.34,9.65-2.37,9.79-7.34,9.79S87.91,449.34,87.91,443.34Zm12.31,0c0-5-1.52-7.65-4.81-7.65s-5,2.63-5,7.65,1.55,7.79,5,7.79S100.22,448.5,100.22,443.34Z"/><path d="M105.12,443.34c0-5.86,2.5-9.65,7.49-9.65s7.34,3.71,7.34,9.65-2.36,9.79-7.34,9.79S105.12,449.34,105.12,443.34Zm12.31,0c0-5-1.53-7.65-4.82-7.65s-4.94,2.63-4.94,7.65,1.55,7.79,4.94,7.79S117.43,448.5,117.43,443.34Z"/><path d="M122.33,443.34c0-5.86,2.49-9.65,7.49-9.65s7.34,3.71,7.34,9.65-2.37,9.79-7.34,9.79S122.33,449.34,122.33,443.34Zm12.31,0c0-5-1.53-7.65-4.82-7.65s-4.94,2.63-4.94,7.65,1.55,7.79,4.94,7.79S134.64,448.5,134.64,443.34Z"/><path d="M77.94,347.89h8.81V350H74.2v-1.34L79,343.71c2.1-2.16,5-5.08,5-7.76,0-1.79-1.14-3.16-3.53-3.16-2.6,0-4,1.42-4.21,4.08H73.81c.15-3.9,2.65-6,6.71-6,3.78,0,5.86,2,5.86,4.92s-2.21,5.53-5,8.5Z"/><path d="M103,343.65c0,4-2.47,6.63-6.91,6.63-4,0-6.82-2.21-6.9-5.81h2.45c.08,2.42,1.84,3.87,4.45,3.87,2.81,0,4.34-1.79,4.34-4.53s-1.53-4.5-4.27-4.5a7.44,7.44,0,0,0-4.73,1.95H90v-10.1h11.66v2.08H92.25v5.65a9,9,0,0,1,4.68-1.34A5.71,5.71,0,0,1,103,343.65Z"/><path d="M105.12,340.5c0-5.87,2.5-9.66,7.5-9.66s7.34,3.71,7.34,9.66-2.37,9.78-7.34,9.78S105.12,346.49,105.12,340.5Zm12.31,0c0-5-1.53-7.66-4.81-7.66s-5,2.63-5,7.66,1.55,7.78,5,7.78S117.43,345.65,117.43,340.5Z"/><path d="M122.33,340.5c0-5.87,2.49-9.66,7.49-9.66s7.34,3.71,7.34,9.66-2.37,9.78-7.34,9.78S122.33,346.49,122.33,340.5Zm12.31,0c0-5-1.53-7.66-4.82-7.66s-4.94,2.63-4.94,7.66,1.55,7.78,4.94,7.78S134.64,345.65,134.64,340.5Z"/><path d="M85.7,242c0,3.11-2.27,5.45-6.53,5.45-4.47,0-7-2.34-7-5.74h2.42c.08,2.29,1.68,3.79,4.47,3.79s4.08-1.53,4.08-3.68-1.47-3.47-3.92-3.47h-2v-1.82h2.21a3,3,0,0,0,3.27-3.34c0-1.92-1.08-3.24-3.48-3.24s-3.81,1.37-4,3.87H72.75c.16-3.58,2.5-5.81,6.53-5.81,3.73,0,5.84,2,5.84,5a4.35,4.35,0,0,1-3.37,4.42C84.28,238,85.7,239.57,85.7,242Z"/><path d="M87.91,237.65c0-5.86,2.5-9.65,7.5-9.65s7.34,3.71,7.34,9.65-2.37,9.79-7.34,9.79S87.91,243.65,87.91,237.65Zm12.31,0c0-5-1.52-7.65-4.81-7.65s-5,2.63-5,7.65,1.55,7.79,5,7.79S100.22,242.81,100.22,237.65Z"/><path d="M105.12,237.65c0-5.86,2.5-9.65,7.49-9.65s7.34,3.71,7.34,9.65-2.36,9.79-7.34,9.79S105.12,243.65,105.12,237.65Zm12.31,0c0-5-1.53-7.65-4.82-7.65s-4.94,2.63-4.94,7.65,1.55,7.79,4.94,7.79S117.43,242.81,117.43,237.65Z"/><path d="M122.33,237.65c0-5.86,2.49-9.65,7.49-9.65s7.34,3.71,7.34,9.65-2.37,9.79-7.34,9.79S122.33,243.65,122.33,237.65Zm12.31,0c0-5-1.53-7.65-4.82-7.65s-4.94,2.63-4.94,7.65,1.55,7.79,4.94,7.79S134.64,242.81,134.64,237.65Z"/><path d="M227.92,271h8.81V273H224.18v-1.34l4.79-4.92c2.11-2.15,4.95-5.07,4.95-7.76,0-1.79-1.13-3.15-3.53-3.15-2.6,0-4,1.42-4.21,4.07h-2.39c.16-3.89,2.66-6,6.71-6,3.79,0,5.86,2,5.86,4.92s-2.21,5.52-5,8.5Z"/><path d="M253,266.72c0,3.95-2.48,6.63-6.92,6.63-4,0-6.81-2.21-6.89-5.81h2.44c.08,2.42,1.84,3.86,4.45,3.86,2.81,0,4.34-1.79,4.34-4.52s-1.53-4.5-4.26-4.5a7.39,7.39,0,0,0-4.74,1.95H240v-10.1H251.6v2.07h-9.37V262a9,9,0,0,1,4.69-1.34A5.71,5.71,0,0,1,253,266.72Z"/><path d="M269,266.64c0,3.82-2.82,6.71-7,6.71a6.46,6.46,0,0,1-6.87-6.68,9.52,9.52,0,0,1,2.4-5.87l5.39-6.57h2.87l-5.48,6.39a5.71,5.71,0,0,1,2.16-.37A6.24,6.24,0,0,1,269,266.64Zm-2.45.13a4.51,4.51,0,1,0-4.55,4.69A4.44,4.44,0,0,0,266.57,266.77Z"/><path d="M274.89,271h8.81V273H271.15v-1.34l4.79-4.92c2.1-2.15,4.94-5.07,4.94-7.76,0-1.79-1.13-3.15-3.52-3.15-2.61,0-4.05,1.42-4.21,4.07h-2.39c.15-3.89,2.65-6,6.7-6,3.79,0,5.87,2,5.87,4.92s-2.21,5.52-5,8.5Z"/><path d="M628.35,329.4h8.81v2.08H624.61v-1.34l4.79-4.92c2.1-2.16,5-5.08,5-7.76,0-1.79-1.14-3.16-3.53-3.16-2.6,0-4.05,1.42-4.21,4.08h-2.39c.16-3.9,2.65-6,6.71-6,3.78,0,5.86,2,5.86,4.92s-2.21,5.53-5,8.5Z"/><path d="M653.39,325.16c0,3.95-2.47,6.63-6.91,6.63-4,0-6.82-2.21-6.9-5.81H642c.08,2.42,1.84,3.87,4.45,3.87,2.81,0,4.34-1.79,4.34-4.53s-1.53-4.5-4.27-4.5a7.44,7.44,0,0,0-4.73,1.95h-1.45v-10.1H652v2.08h-9.37v5.65a9,9,0,0,1,4.68-1.34A5.71,5.71,0,0,1,653.39,325.16Z"/><path d="M655.53,322c0-5.87,2.5-9.66,7.5-9.66s7.34,3.71,7.34,9.66-2.37,9.78-7.34,9.78S655.53,328,655.53,322Zm12.31,0c0-5-1.53-7.66-4.81-7.66s-4.95,2.63-4.95,7.66,1.55,7.78,4.95,7.78S667.84,327.16,667.84,322Z"/><path d="M1613.18,64.8V83.61h-2.48v-15h-3.89V66.49h2.81c.87,0,1.08-.29,1.08-1.69Z"/><path d="M1631,78.48c0,3.11-2.26,5.45-6.52,5.45-4.47,0-7-2.34-7-5.74h2.42c.07,2.29,1.68,3.79,4.47,3.79s4.07-1.52,4.07-3.68-1.47-3.47-3.91-3.47h-2V73h2.21c2.18,0,3.26-1.29,3.26-3.34s-1.08-3.24-3.47-3.24-3.82,1.37-4,3.87h-2.45c.16-3.58,2.5-5.81,6.52-5.81,3.74,0,5.84,2,5.84,5a4.35,4.35,0,0,1-3.36,4.42C1629.59,74.46,1631,76.06,1631,78.48Z"/><path d="M1647.25,71.17a9.55,9.55,0,0,1-2.4,5.87l-5.39,6.57h-2.87l5.48-6.39a5.91,5.91,0,0,1-2.16.37,6.24,6.24,0,0,1-6.53-6.39c0-3.82,2.82-6.71,7-6.71A6.46,6.46,0,0,1,1647.25,71.17Zm-2.4-.13a4.35,4.35,0,0,0-4.47-4.66,4.44,4.44,0,0,0-4.55,4.68,4.51,4.51,0,1,0,9,0Z"/><path d="M1225.24,121c0,3.16-2.79,5.42-7,5.42s-6.94-2.23-6.94-5.42c0-2.31,1.45-4,3.89-4.81a4.62,4.62,0,0,1-3-4.37c0-2.81,2.34-4.84,6.07-4.84s6.08,2,6.08,4.84a4.62,4.62,0,0,1-3,4.34C1223.79,116.91,1225.24,118.65,1225.24,121Zm-2.53-.21c0-2.13-1.68-3.66-4.42-3.66s-4.41,1.56-4.41,3.66,1.6,3.68,4.41,3.68S1222.71,122.83,1222.71,120.75Zm-8.18-8.71c0,1.79,1.32,3.29,3.76,3.29s3.77-1.5,3.77-3.29-1.4-3.21-3.77-3.21S1214.53,110.26,1214.53,112Z"/><path d="M1227.29,116.6c0-5.87,2.5-9.66,7.5-9.66s7.34,3.71,7.34,9.66-2.37,9.78-7.34,9.78S1227.29,122.59,1227.29,116.6Zm12.32,0c0-5-1.53-7.66-4.82-7.66s-4.94,2.63-4.94,7.66,1.55,7.78,4.94,7.78S1239.61,121.75,1239.61,116.6Z"/><path d="M1257.92,120.94c0,3.1-2.26,5.44-6.52,5.44-4.48,0-7-2.34-7-5.73h2.42c.08,2.28,1.69,3.78,4.47,3.78s4.08-1.52,4.08-3.68-1.47-3.47-3.92-3.47h-2v-1.82h2.21c2.18,0,3.26-1.29,3.26-3.34s-1.08-3.23-3.47-3.23-3.82,1.37-4,3.86H1245c.15-3.57,2.5-5.81,6.52-5.81,3.74,0,5.84,2,5.84,5a4.35,4.35,0,0,1-3.37,4.42C1256.5,116.91,1257.92,118.52,1257.92,120.94Z"/><path d="M836.68,316.92h8.82V319H833v-1.34l4.79-4.92c2.1-2.16,4.94-5.08,4.94-7.76,0-1.79-1.13-3.16-3.52-3.16-2.61,0-4,1.42-4.21,4.08h-2.4c.16-3.89,2.66-6,6.71-6,3.79,0,5.87,2,5.87,4.91s-2.21,5.53-5,8.5Z"/><path d="M854.5,300.19V319H852V304h-3.89v-2.07h2.81c.87,0,1.08-.3,1.08-1.69Z"/><path d="M1013.17,384.14v-2h7.68v2Z"/><path d="M1037.56,378.38a9.57,9.57,0,0,1-2.39,5.86l-5.4,6.58h-2.86l5.47-6.39a5.91,5.91,0,0,1-2.16.37,6.24,6.24,0,0,1-6.52-6.4c0-3.81,2.81-6.7,7-6.7A6.45,6.45,0,0,1,1037.56,378.38Zm-2.39-.13a4.36,4.36,0,0,0-4.47-4.66,4.45,4.45,0,0,0-4.56,4.68,4.52,4.52,0,1,0,9,0Z"/><path d="M1053.61,384.51c0,3.94-2.47,6.63-6.92,6.63-4,0-6.81-2.21-6.89-5.82h2.45c.08,2.42,1.84,3.87,4.44,3.87,2.82,0,4.34-1.79,4.34-4.52s-1.52-4.5-4.26-4.5a7.44,7.44,0,0,0-4.73,1.94h-1.45V372h11.65v2.08h-9.36v5.66a9,9,0,0,1,4.68-1.35A5.72,5.72,0,0,1,1053.61,384.51Z"/><path d="M1398.31,236.87v-2H1406v2Z"/><path d="M1423.64,236.5v2h-3.1v5.05H1418V238.5h-9.41v-1.37l8.49-12.39h3.45V236.5Zm-12.36,0H1418v-9.84Z"/><path d="M1439.12,238.42c0,3.1-2.27,5.44-6.53,5.44-4.47,0-7-2.34-7-5.73H1428c.08,2.29,1.68,3.79,4.47,3.79s4.08-1.53,4.08-3.69-1.48-3.47-3.92-3.47h-2V233h2.21c2.19,0,3.26-1.29,3.26-3.35s-1.07-3.23-3.47-3.23-3.81,1.37-4,3.87h-2.45c.16-3.58,2.5-5.82,6.53-5.82,3.73,0,5.84,2,5.84,5a4.35,4.35,0,0,1-3.37,4.42C1437.7,234.39,1439.12,236,1439.12,238.42Z"/><path d="M1448,224.74v18.81h-2.47V228.5h-3.9v-2.08h2.82c.87,0,1.08-.29,1.08-1.68Z"/><path d="M416.52,417.3v-2h7.68v2Z"/><path d="M441,417.59a6.6,6.6,0,0,1-7,6.71,6.46,6.46,0,0,1-6.87-6.68,9.57,9.57,0,0,1,2.39-5.87l5.4-6.58h2.86l-5.47,6.4a5.71,5.71,0,0,1,2.16-.37A6.23,6.23,0,0,1,441,417.59Zm-2.44.13a4.52,4.52,0,1,0-9,0A4.35,4.35,0,0,0,434,422.4,4.44,4.44,0,0,0,438.52,417.72Z"/><path d="M457.17,418.88c0,3.16-2.79,5.42-6.94,5.42s-7-2.24-7-5.42c0-2.32,1.45-4.05,3.89-4.81a4.63,4.63,0,0,1-3-4.37c0-2.82,2.34-4.84,6.08-4.84s6.07,2,6.07,4.84a4.63,4.63,0,0,1-3,4.34C455.72,414.83,457.17,416.56,457.17,418.88Zm-2.52-.21c0-2.13-1.69-3.66-4.42-3.66s-4.42,1.55-4.42,3.66,1.6,3.68,4.42,3.68S454.65,420.75,454.65,418.67ZM446.46,410c0,1.79,1.32,3.29,3.77,3.29S454,411.75,454,410s-1.4-3.21-3.76-3.21S446.46,408.17,446.46,410Z"/><path d="M459.23,414.51c0-5.86,2.5-9.65,7.49-9.65s7.34,3.71,7.34,9.65-2.36,9.79-7.34,9.79S459.23,420.51,459.23,414.51Zm12.31,0c0-5-1.53-7.65-4.82-7.65s-4.94,2.63-4.94,7.65,1.55,7.79,4.94,7.79S471.54,419.67,471.54,414.51Z"/><path d="M87,139.15c0,3.1-2.26,5.44-6.52,5.44-4.48,0-7-2.34-7-5.73h2.42c.08,2.29,1.69,3.79,4.47,3.79s4.08-1.53,4.08-3.69-1.47-3.47-3.92-3.47h-2v-1.82h2.21c2.18,0,3.26-1.28,3.26-3.34s-1.08-3.23-3.47-3.23-3.82,1.37-4,3.87H74c.16-3.58,2.5-5.82,6.52-5.82,3.74,0,5.84,2,5.84,5A4.35,4.35,0,0,1,83,134.54C85.54,135.12,87,136.73,87,139.15Z"/><path d="M103,138c0,3.95-2.47,6.63-6.91,6.63-4,0-6.82-2.21-6.9-5.81h2.45c.08,2.42,1.84,3.87,4.45,3.87,2.81,0,4.34-1.79,4.34-4.53s-1.53-4.5-4.27-4.5a7.44,7.44,0,0,0-4.73,1.95H90v-10.1h11.66v2.08H92.25v5.65a9,9,0,0,1,4.68-1.34A5.71,5.71,0,0,1,103,138Z"/><path d="M105.12,134.81c0-5.87,2.5-9.66,7.5-9.66s7.34,3.71,7.34,9.66-2.37,9.78-7.34,9.78S105.12,140.8,105.12,134.81Zm12.31,0c0-5-1.53-7.66-4.81-7.66s-5,2.63-5,7.66,1.55,7.78,5,7.78S117.43,140,117.43,134.81Z"/><path d="M122.33,134.81c0-5.87,2.49-9.66,7.49-9.66s7.34,3.71,7.34,9.66-2.37,9.78-7.34,9.78S122.33,140.8,122.33,134.81Zm12.31,0c0-5-1.53-7.66-4.82-7.66s-4.94,2.63-4.94,7.66,1.55,7.78,4.94,7.78S134.64,140,134.64,134.81Z"/><path d="M85.86,34.38v2H82.75v5H80.23v-5H70.81V35L79.3,22.62h3.45V34.38Zm-12.37,0h6.74V24.54Z"/><path d="M87.91,32c0-5.87,2.5-9.65,7.5-9.65S102.75,26,102.75,32s-2.37,9.79-7.34,9.79S87.91,38,87.91,32Zm12.31,0c0-5-1.52-7.65-4.81-7.65s-5,2.63-5,7.65,1.55,7.79,5,7.79S100.22,37.12,100.22,32Z"/><path d="M105.12,32c0-5.87,2.5-9.65,7.5-9.65S120,26,120,32s-2.37,9.79-7.34,9.79S105.12,38,105.12,32Zm12.31,0c0-5-1.53-7.65-4.81-7.65s-5,2.63-5,7.65,1.55,7.79,5,7.79S117.43,37.12,117.43,32Z"/><path d="M122.33,32c0-5.87,2.5-9.65,7.49-9.65S137.16,26,137.16,32s-2.36,9.79-7.34,9.79S122.33,38,122.33,32Zm12.31,0c0-5-1.53-7.65-4.82-7.65s-4.94,2.63-4.94,7.65,1.55,7.79,4.94,7.79S134.64,37.12,134.64,32Z"/></svg>