<svg id="aaab8485-4cb4-411d-9478-16f7e3a27b51" data-name="Layer 1" xmlns="http://www.w3.org/2000/svg" viewBox="0 0 1817.08 824.2"><defs><style>.aab00d89-e1d2-4900-9ffa-fc8cb128538c{fill:#f5f5f5;}.a44038db-3027-4451-a18a-7549d5db7fcd,.a4fa4f21-e406-46c5-8495-7a746baf281a,.ba828f4d-25c4-433a-9519-9a28651a2462{fill:#fff;}.a281f11a-4533-461e-af66-3b9f612c318c,.a3c4d32b-c7d8-4ca5-9f60-bfe655f89498,.a44038db-3027-4451-a18a-7549d5db7fcd,.a4fa4f21-e406-46c5-8495-7a746baf281a,.a5dc4dd9-4695-40a3-8c73-1cd48606519b,.a74ec850-eda2-4008-84b4-eca9058e7b21,.a8d59e09-d82f-437e-a638-9d444ca638f4,.af38ce7e-27ab-4090-a6fc-a8f9f6fd8761,.b22c1a7c-5a29-4ca3-89f5-6b6dd3f57e14,.b6f2b24b-42d9-4173-ade5-3174ff8055f1,.ba828f4d-25c4-433a-9519-9a28651a2462,.babe1f16-4e43-4048-8f8d-2179633fe19e,.bac469dc-73a1-47f2-873f-ed54eddcab2f,.e9d373e0-e6da-4e47-bcd2-09d32e345d65,.ec57d3f2-b618-464f-884f-676386ab7850,.f6da75e8-458c-4d01-b4f0-361a3be8fc0f{stroke:#000;stroke-miterlimit:10;}.a3c4d32b-c7d8-4ca5-9f60-bfe655f89498,.a44038db-3027-4451-a18a-7549d5db7fcd,.a4fa4f21-e406-46c5-8495-7a746baf281a,.a5dc4dd9-4695-40a3-8c73-1cd48606519b,.a8d59e09-d82f-437e-a638-9d444ca638f4,.b22c1a7c-5a29-4ca3-89f5-6b6dd3f57e14,.b6f2b24b-42d9-4173-ade5-3174ff8055f1,.ba828f4d-25c4-433a-9519-9a28651a2462,.f6da75e8-458c-4d01-b4f0-361a3be8fc0f{stroke-linecap:round;}.a4fa4f21-e406-46c5-8495-7a746baf281a{stroke-width:0.97px;}.ba828f4d-25c4-433a-9519-9a28651a2462{stroke-width:0.94px;}.a3c4d32b-c7d8-4ca5-9f60-bfe655f89498,.a44038db-3027-4451-a18a-7549d5db7fcd,.a74ec850-eda2-4008-84b4-eca9058e7b21,.a8d59e09-d82f-437e-a638-9d444ca638f4,.b22c1a7c-5a29-4ca3-89f5-6b6dd3f57e14,.b6f2b24b-42d9-4173-ade5-3174ff8055f1{stroke-width:1.15px;}.a3c4d32b-c7d8-4ca5-9f60-bfe655f89498,.a5dc4dd9-4695-40a3-8c73-1cd48606519b,.a74ec850-eda2-4008-84b4-eca9058e7b21,.a8d59e09-d82f-437e-a638-9d444ca638f4,.b22c1a7c-5a29-4ca3-89f5-6b6dd3f57e14,.b6f2b24b-42d9-4173-ade5-3174ff8055f1,.f6da75e8-458c-4d01-b4f0-361a3be8fc0f{fill:none;}.af38ce7e-27ab-4090-a6fc-a8f9f6fd8761,.babe1f16-4e43-4048-8f8d-2179633fe19e,.bac469dc-73a1-47f2-873f-ed54eddcab2f{fill:#ff7311;}.bac469dc-73a1-47f2-873f-ed54eddcab2f{stroke-width:0.78px;}.a281f11a-4533-461e-af66-3b9f612c318c,.e9d373e0-e6da-4e47-bcd2-09d32e345d65,.ec57d3f2-b618-464f-884f-676386ab7850{fill:#ffe400;}.ec57d3f2-b618-464f-884f-676386ab7850{stroke-width:1.11px;}.a8d59e09-d82f-437e-a638-9d444ca638f4{stroke-dasharray:0 2.76;}.a3c4d32b-c7d8-4ca5-9f60-bfe655f89498{stroke-dasharray:0 2.77;}.b6f2b24b-42d9-4173-ade5-3174ff8055f1{stroke-dasharray:0 2.76;}.a5dc4dd9-4695-40a3-8c73-1cd48606519b,.f6da75e8-458c-4d01-b4f0-361a3be8fc0f{stroke-width:1.41px;}.a281f11a-4533-461e-af66-3b9f612c318c,.e9d373e0-e6da-4e47-bcd2-09d32e345d65{stroke-width:1.22px;}.babe1f16-4e43-4048-8f8d-2179633fe19e,.e9d373e0-e6da-4e47-bcd2-09d32e345d65{fill-rule:evenodd;}.af38ce7e-27ab-4090-a6fc-a8f9f6fd8761,.babe1f16-4e43-4048-8f8d-2179633fe19e{stroke-width:1.13px;}.f6da75e8-458c-4d01-b4f0-361a3be8fc0f{stroke-dasharray:0 2.76;}</style></defs><rect class="aab00d89-e1d2-4900-9ffa-fc8cb128538c" y="145.62" width="507.82" height="351.5"/><rect class="aab00d89-e1d2-4900-9ffa-fc8cb128538c" x="800.57" y="145.62" width="1016.51" height="676.97"/><rect class="a4fa4f21-e406-46c5-8495-7a746baf281a" x="1056.18" y="519.39" width="505.29" height="119.19"/><rect class="ba828f4d-25c4-433a-9519-9a28651a2462" x="1150" y="690.95" width="323.71" height="90.57"/><rect class="a44038db-3027-4451-a18a-7549d5db7fcd" x="920.44" y="336.56" width="71.93" height="71.93"/><rect class="a44038db-3027-4451-a18a-7549d5db7fcd" x="1155.89" y="336.56" width="71.93" height="71.93"/><rect class="a44038db-3027-4451-a18a-7549d5db7fcd" x="1391.34" y="336.56" width="71.93" height="71.93"/><rect class="a44038db-3027-4451-a18a-7549d5db7fcd" x="1626.79" y="336.56" width="71.93" height="71.93"/><line class="a74ec850-eda2-4008-84b4-eca9058e7b21" x1="1309.58" y1="241.08" x2="1309.58" y2="274.01"/><polyline class="a74ec850-eda2-4008-84b4-eca9058e7b21" points="956.4 335.95 956.4 274.01 1662.76 274.01 1662.76 335.95"/><line class="a74ec850-eda2-4008-84b4-eca9058e7b21" x1="1191.85" y1="274.01" x2="1191.85" y2="335.95"/><polyline class="a74ec850-eda2-4008-84b4-eca9058e7b21" points="1191.85 408.49 1191.85 471.03 956.4 471.03 956.4 408.49"/><polyline class="a74ec850-eda2-4008-84b4-eca9058e7b21" points="1662.76 408.49 1662.76 471.03 1427.31 471.03 1427.31 408.49"/><line class="a74ec850-eda2-4008-84b4-eca9058e7b21" x1="1427.31" y1="274.01" x2="1427.31" y2="335.95"/><rect class="bac469dc-73a1-47f2-873f-ed54eddcab2f" x="1091.8" y="537.53" width="41.87" height="16.32"/><rect class="bac469dc-73a1-47f2-873f-ed54eddcab2f" x="1091.8" y="553.85" width="41.87" height="16.32"/><rect class="bac469dc-73a1-47f2-873f-ed54eddcab2f" x="1091.8" y="570.17" width="41.87" height="16.32"/><rect class="bac469dc-73a1-47f2-873f-ed54eddcab2f" x="1091.8" y="586.48" width="41.87" height="16.32"/><rect class="bac469dc-73a1-47f2-873f-ed54eddcab2f" x="1133.67" y="537.53" width="41.87" height="16.32"/><rect class="bac469dc-73a1-47f2-873f-ed54eddcab2f" x="1133.67" y="553.85" width="41.87" height="16.32"/><rect class="bac469dc-73a1-47f2-873f-ed54eddcab2f" x="1133.67" y="570.17" width="41.87" height="16.32"/><rect class="bac469dc-73a1-47f2-873f-ed54eddcab2f" x="1133.67" y="586.48" width="41.87" height="16.32"/><rect class="bac469dc-73a1-47f2-873f-ed54eddcab2f" x="1103.23" y="548.97" width="41.87" height="16.32"/><rect class="bac469dc-73a1-47f2-873f-ed54eddcab2f" x="1103.23" y="565.28" width="41.87" height="16.32"/><rect class="bac469dc-73a1-47f2-873f-ed54eddcab2f" x="1103.23" y="581.6" width="41.87" height="16.32"/><rect class="bac469dc-73a1-47f2-873f-ed54eddcab2f" x="1103.23" y="597.92" width="41.87" height="16.32"/><rect class="bac469dc-73a1-47f2-873f-ed54eddcab2f" x="1145.11" y="548.97" width="41.87" height="16.32"/><rect class="bac469dc-73a1-47f2-873f-ed54eddcab2f" x="1145.11" y="565.28" width="41.87" height="16.32"/><rect class="bac469dc-73a1-47f2-873f-ed54eddcab2f" x="1145.11" y="581.6" width="41.87" height="16.32"/><rect class="bac469dc-73a1-47f2-873f-ed54eddcab2f" x="1145.11" y="597.92" width="41.87" height="16.32"/><rect class="ec57d3f2-b618-464f-884f-676386ab7850" x="1435.48" y="537.53" width="41.87" height="16.32"/><rect class="ec57d3f2-b618-464f-884f-676386ab7850" x="1435.48" y="553.85" width="41.87" height="16.32"/><rect class="ec57d3f2-b618-464f-884f-676386ab7850" x="1435.48" y="570.17" width="41.87" height="16.32"/><rect class="ec57d3f2-b618-464f-884f-676386ab7850" x="1435.48" y="586.48" width="41.87" height="16.32"/><rect class="ec57d3f2-b618-464f-884f-676386ab7850" x="1477.36" y="537.53" width="41.87" height="16.32"/><rect class="ec57d3f2-b618-464f-884f-676386ab7850" x="1477.36" y="553.85" width="41.87" height="16.32"/><rect class="ec57d3f2-b618-464f-884f-676386ab7850" x="1477.36" y="570.17" width="41.87" height="16.32"/><rect class="ec57d3f2-b618-464f-884f-676386ab7850" x="1477.36" y="586.48" width="41.87" height="16.32"/><rect class="ec57d3f2-b618-464f-884f-676386ab7850" x="1446.91" y="548.97" width="41.87" height="16.32"/><rect class="ec57d3f2-b618-464f-884f-676386ab7850" x="1446.91" y="565.28" width="41.87" height="16.32"/><rect class="ec57d3f2-b618-464f-884f-676386ab7850" x="1446.91" y="581.6" width="41.87" height="16.32"/><rect class="ec57d3f2-b618-464f-884f-676386ab7850" x="1446.91" y="597.92" width="41.87" height="16.32"/><rect class="ec57d3f2-b618-464f-884f-676386ab7850" x="1488.79" y="548.97" width="41.87" height="16.32"/><rect class="ec57d3f2-b618-464f-884f-676386ab7850" x="1488.79" y="565.28" width="41.87" height="16.32"/><rect class="ec57d3f2-b618-464f-884f-676386ab7850" x="1488.79" y="581.6" width="41.87" height="16.32"/><rect class="ec57d3f2-b618-464f-884f-676386ab7850" x="1488.79" y="597.92" width="41.87" height="16.32"/><polyline class="a74ec850-eda2-4008-84b4-eca9058e7b21" points="1193.1 581.6 1309.58 581.6 1309.58 471.03"/><polygon points="1196.91 586.3 1197.7 585.46 1193.54 581.6 1197.7 577.74 1196.91 576.9 1191.85 581.6 1196.91 586.3"/><polyline class="a8d59e09-d82f-437e-a638-9d444ca638f4" points="113.57 408.78 113.57 461.69 365.9 461.69 365.9 399.87"/><line class="b22c1a7c-5a29-4ca3-89f5-6b6dd3f57e14" x1="239.69" y1="461.69" x2="239.69" y2="461.69"/><line class="a3c4d32b-c7d8-4ca5-9f60-bfe655f89498" x1="239.69" y1="464.47" x2="239.69" y2="734.85"/><line class="b22c1a7c-5a29-4ca3-89f5-6b6dd3f57e14" x1="239.69" y1="736.23" x2="239.69" y2="736.23"/><line class="b6f2b24b-42d9-4173-ade5-3174ff8055f1" x1="242.45" y1="736.23" x2="1130.89" y2="736.23"/><line class="b22c1a7c-5a29-4ca3-89f5-6b6dd3f57e14" x1="1132.27" y1="736.23" x2="1132.27" y2="736.23"/><polygon points="1128.46 740.93 1127.67 740.09 1131.83 736.23 1127.67 732.37 1128.46 731.53 1133.52 736.23 1128.46 740.93"/><path d="M155.88,23.29V20H169V32a20.18,20.18,0,0,1-11.62,3.47c-9.05,0-14.34-6.08-14.34-15.12,0-8.81,5.29-15,13.93-15,7.06,0,11.7,4,12.15,9.78h-3.91c-.49-3.71-3.67-6.4-8.32-6.4-5.91,0-9.78,4.48-9.78,11.58,0,7.62,4,11.77,10.6,11.77,3.26,0,5.91-.69,7.37-1.71v-7Z"/><path d="M187.54,13.59V17.1a15.39,15.39,0,0,0-2.32-.13,6.14,6.14,0,0,0-6.32,4.85V35h-3.79V13.75h3.79v4.69a7.7,7.7,0,0,1,7-5A8,8,0,0,1,187.54,13.59Z"/><path d="M209.47,31.93v3h-.82c-2.85,0-4.6-1-5.21-3.14a8.56,8.56,0,0,1-7.34,3.46c-4.28,0-7-2.2-7-6,0-4.15,3.18-6.56,9.37-6.88l4.69-.25v-.73c0-2.77-.12-5.14-4.48-5.14-2.77,0-5,1.14-5,3.67h-3.63c0-4.16,3.63-6.6,8.52-6.6,6.11,0,8.39,2.36,8.39,8.27v7.46c0,2.12.41,2.85,1.84,2.85Zm-6.28-4.77V24.8l-3.87.2c-4.44.21-6.44,1.06-6.44,3.92,0,2.24,1.47,3.5,4.12,3.5A6.06,6.06,0,0,0,203.19,27.16Z"/><path d="M233.15,24.35c0,6.2-3.26,11.09-9.17,11.09a7.68,7.68,0,0,1-7.14-4.28V42.28h-3.79V13.75h3.79v4.16A7.89,7.89,0,0,1,224,13.27C229.89,13.27,233.15,18.16,233.15,24.35Zm-3.84,0c0-4.52-2-8.15-6.23-8.15-4,0-6.24,3.79-6.24,8.15,0,4.53,2,8.15,6.24,8.15S229.31,28.88,229.31,24.35Z"/><path d="M255.4,21.21V35h-3.75V22.11c0-4.28-1.67-5.71-4.44-5.71a6.57,6.57,0,0,0-6.12,5V35H237.3V4h3.79v13.9a8.6,8.6,0,0,1,7.62-4.6C252.83,13.27,255.4,15.59,255.4,21.21Z"/><path d="M295.09,25.13c-.53,5.58-4.89,10.31-12.47,10.31-8.72,0-14-6.32-14-15.08,0-8.52,5-15,13.94-15,7.74,0,11.94,4.89,12.35,10.51H291c-.37-3.95-3.47-7.13-8.56-7.13-6.16,0-9.74,4.77-9.74,11.62s3.58,11.73,9.78,11.73c5.05,0,8.15-3,8.64-6.92Z"/><path d="M313.64,13.75h3.75V35h-3.75V30.83A8.65,8.65,0,0,1,306,35.44c-4.11,0-6.72-2.33-6.72-7.95V13.75h3.79V26.59c0,4.28,1.63,5.67,4.44,5.67a6.63,6.63,0,0,0,6.12-5Z"/><path d="M342.9,24.35c0,6.2-3.26,11.09-9.17,11.09a7.69,7.69,0,0,1-7.18-4.36V35h-3.79V4h3.79V18a7.92,7.92,0,0,1,7.18-4.72C339.64,13.27,342.9,18.16,342.9,24.35Zm-3.87,0c0-4.52-2-8.15-6.24-8.15-4,0-6.24,3.79-6.24,8.15,0,4.53,2,8.15,6.24,8.15S339,28.88,339,24.35Z"/><path d="M365,25.33H349.42c.24,4.2,2.32,7.17,6.6,7.17,3.5,0,4.77-1.79,5.34-4.24H365c-.53,3.71-3.22,7.18-9.09,7.18-6.73,0-10.35-4.89-10.35-11.09s3.7-11.08,10.1-11.08c6.16,0,9.34,4.52,9.34,10.35ZM349.5,22.48h11.94c-.33-3.75-2-6.28-5.75-6.28S350,18.73,349.5,22.48Z"/><path d="M164.72,58.06H148.66v9.41h13.61v3.34H148.66v9.66h16.06v3.38h-20V54.71h20Z"/><path d="M187.66,70.12V83.85h-3.79V71c0-4.28-1.63-5.71-4.44-5.71a6.55,6.55,0,0,0-6.07,5V83.85h-3.79V62.66h3.79v4.12a8.44,8.44,0,0,1,7.58-4.61C185.1,62.17,187.66,64.49,187.66,70.12Z"/><path d="M206.41,62.66h3.91L203,83.85h-4.9l-7.37-21.19h3.91l5.91,19Z"/><path d="M213.91,52.88h3.79v6.4h-3.79Zm0,31V62.66h3.79V83.85Z"/><path d="M235.39,62.5V66a16.87,16.87,0,0,0-2.33-.12,6.14,6.14,0,0,0-6.31,4.85V83.85H223V62.66h3.79v4.69a7.69,7.69,0,0,1,7.05-5A8.14,8.14,0,0,1,235.39,62.5Z"/><path d="M236.49,73.26c0-6.48,3.91-11.09,10.31-11.09s10.27,4.61,10.27,11.09-4,11.08-10.27,11.08C240.4,84.34,236.49,79.7,236.49,73.26Zm16.75,0c0-4.73-2.08-8.15-6.44-8.15s-6.48,3.42-6.48,8.15,2.08,8.15,6.48,8.15S253.24,78,253.24,73.26Z"/><path d="M292,70.65v13.2h-3.79V71.42c0-4.36-1.31-6.11-4.08-6.11s-5.13,2.53-5.79,5V83.85h-3.75V71.42c0-4.36-1.3-6.11-4.11-6.11s-5.1,2.53-5.75,5V83.85H261V62.66h3.79v4.12A8.27,8.27,0,0,1,272,62.17c3.27,0,5.34,1.59,6.08,5.22a8.41,8.41,0,0,1,7.58-5.22C289.79,62.17,292,64.7,292,70.65Z"/><path d="M315.18,74.24H299.57c.25,4.19,2.33,7.17,6.61,7.17,3.5,0,4.77-1.79,5.34-4.24h3.66c-.53,3.71-3.22,7.17-9.08,7.17-6.73,0-10.36-4.89-10.36-11.08s3.71-11.09,10.11-11.09c6.15,0,9.33,4.53,9.33,10.35Zm-15.52-2.86H311.6c-.33-3.75-2-6.27-5.75-6.27S300.15,67.63,299.66,71.38Z"/><path d="M337.39,70.12V83.85H333.6V71c0-4.28-1.63-5.71-4.44-5.71a6.55,6.55,0,0,0-6.07,5V83.85H319.3V62.66h3.79v4.12a8.44,8.44,0,0,1,7.58-4.61C334.83,62.17,337.39,64.49,337.39,70.12Z"/><path d="M355.81,65.6H348.6v12c0,2.69,1.14,3.5,3.51,3.5a15.5,15.5,0,0,0,3.3-.4v2.85a21,21,0,0,1-4.24.49c-4.24,0-6.36-1.67-6.36-6.12V65.6H340V62.66h4.85V54.71h3.79v7.95h7.21Z"/><path d="M1229.69,722.88h4V752h-4V738.61h-14V752h-3.91V722.88h3.91v12.39h14Z"/><path d="M1258.51,752l-2.53-7.95h-11.33l-2.49,7.95h-4l9.46-29.14h5.25l9.66,29.14Zm-12.84-11.29h9.25L1250.27,726Z"/><path d="M1274.4,742.72h3.83c.12,3.88,3.1,6.4,7.79,6.4,4.23,0,6.6-1.87,6.6-4.85s-1.71-4.28-7.83-5.78c-6.72-1.63-9.41-4-9.41-8.11,0-4.9,3.91-8,10.15-8s10.1,3.46,10.1,8.72h-3.75c-.16-3.22-2.2-5.34-6.6-5.34-4.11,0-6.15,1.83-6.15,4.24,0,2.65,1.75,3.75,7.66,5.34,6.85,1.83,9.74,3.87,9.74,8.6,0,5.38-3.79,8.56-10.56,8.56C1278.92,752.51,1274.4,748.67,1274.4,742.72Z"/><path d="M1314.54,733.76h-7.21v12c0,2.69,1.14,3.51,3.5,3.51a15.61,15.61,0,0,0,3.31-.41v2.85a20.31,20.31,0,0,1-4.24.49c-4.24,0-6.36-1.67-6.36-6.11V733.76h-4.85v-2.94h4.85v-7.94h3.79v7.94h7.21Z"/><path d="M1316.58,741.42c0-6.48,3.91-11.09,10.31-11.09s10.27,4.61,10.27,11.09-4,11.09-10.27,11.09C1320.49,752.51,1316.58,747.86,1316.58,741.42Zm16.75,0c0-4.73-2.08-8.15-6.44-8.15s-6.48,3.42-6.48,8.15,2.08,8.15,6.48,8.15S1333.33,746.19,1333.33,741.42Z"/><path d="M1353.5,730.66v3.51a15.39,15.39,0,0,0-2.32-.13,6.14,6.14,0,0,0-6.31,4.85V752h-3.8v-21.2h3.8v4.69a7.68,7.68,0,0,1,7.05-5A8,8,0,0,1,1353.5,730.66Z"/><path d="M1375.43,749v3h-.81c-2.86,0-4.61-1-5.22-3.14a8.56,8.56,0,0,1-7.34,3.46c-4.28,0-7-2.2-7-6,0-4.16,3.18-6.56,9.38-6.89l4.69-.24v-.73c0-2.78-.13-5.14-4.49-5.14-2.77,0-5,1.14-5,3.67H1356c0-4.16,3.63-6.6,8.52-6.6,6.11,0,8.4,2.36,8.4,8.27v7.46c0,2.12.4,2.85,1.83,2.85Zm-6.27-4.77v-2.36l-3.88.2c-4.44.21-6.44,1.06-6.44,3.91,0,2.25,1.47,3.51,4.12,3.51A6.07,6.07,0,0,0,1369.16,744.23Z"/><path d="M1393.93,730.82h3.75V749c0,7-3.34,10.88-10.39,10.88-6.64,0-9.17-3.38-9.7-6.48h3.67c.53,1.88,2.2,3.71,6,3.71,4.77,0,6.64-2.28,6.64-7.62V747a8.06,8.06,0,0,1-7.17,4.2c-5.83,0-9.17-4.48-9.17-10.23s3.47-10.68,9.17-10.68a7.81,7.81,0,0,1,7.17,4.2Zm0,10.11c0-4.16-2.07-7.66-6.23-7.66s-6.24,3.54-6.24,7.66,2.12,7.38,6.24,7.38C1391.57,748.31,1393.93,745.17,1393.93,740.93Z"/><path d="M1421,742.4h-15.61c.24,4.2,2.32,7.17,6.6,7.17,3.5,0,4.77-1.79,5.34-4.24H1421c-.53,3.71-3.22,7.18-9.09,7.18-6.73,0-10.35-4.89-10.35-11.09s3.7-11.09,10.1-11.09c6.16,0,9.34,4.53,9.34,10.36Zm-15.53-2.86h11.94c-.33-3.74-2-6.27-5.75-6.27S1406,735.8,1405.51,739.54Z"/><path d="M1211,198.63h4v29.15h-4V214.37h-14v13.41h-3.92V198.63H1197V211h14Z"/><path d="M1239.79,227.78l-2.53-7.95h-11.33l-2.48,7.95h-4l9.46-29.15h5.26l9.66,29.15ZM1227,216.49h9.25l-4.64-14.76Z"/><path d="M1282.26,218c-.53,5.59-4.89,10.31-12.47,10.31-8.73,0-14-6.31-14-15.08,0-8.51,5-15,13.94-15,7.74,0,11.94,4.89,12.34,10.51h-3.91c-.37-3.95-3.46-7.13-8.56-7.13-6.15,0-9.74,4.77-9.74,11.61s3.59,11.74,9.78,11.74c5.06,0,8.15-3,8.64-6.93Z"/><path d="M1285.43,217.18c0-6.48,3.92-11.09,10.32-11.09S1306,210.7,1306,217.18s-4,11.08-10.27,11.08C1289.35,228.26,1285.43,223.62,1285.43,217.18Zm16.76,0c0-4.73-2.08-8.15-6.44-8.15s-6.48,3.42-6.48,8.15,2.07,8.15,6.48,8.15S1302.19,222,1302.19,217.18Z"/><path d="M1341,214.57v13.21h-3.79V215.34c0-4.36-1.3-6.11-4.07-6.11s-5.14,2.53-5.79,5v13.54h-3.75V215.34c0-4.36-1.3-6.11-4.12-6.11s-5.09,2.53-5.74,5v13.54h-3.79v-21.2h3.79v4.12a8.27,8.27,0,0,1,7.25-4.61c3.26,0,5.34,1.59,6.08,5.22a8.41,8.41,0,0,1,7.58-5.22C1338.74,206.09,1341,208.62,1341,214.57Z"/><path d="M1366,217.18c0,6.19-3.26,11.08-9.17,11.08a7.65,7.65,0,0,1-7.13-4.28v11.13h-3.8V206.58h3.8v4.16a7.89,7.89,0,0,1,7.13-4.65C1362.75,206.09,1366,211,1366,217.18Zm-3.83,0c0-4.53-2-8.15-6.24-8.15-4,0-6.23,3.79-6.23,8.15,0,4.52,2,8.15,6.23,8.15S1362.18,221.7,1362.18,217.18Z"/><path d="M1384.06,206.58h3.75v21.2h-3.75v-4.12a8.64,8.64,0,0,1-7.62,4.6c-4.12,0-6.72-2.32-6.72-7.94V206.58h3.79v12.84c0,4.28,1.63,5.67,4.44,5.67a6.6,6.6,0,0,0,6.11-5Z"/><path d="M1406.43,209.52h-7.21v12c0,2.69,1.14,3.5,3.51,3.5a15.5,15.5,0,0,0,3.3-.4v2.85a20.31,20.31,0,0,1-4.24.49c-4.24,0-6.36-1.67-6.36-6.11V209.52h-4.85v-2.94h4.85v-8h3.79v8h7.21Z"/><path d="M1428,218.16h-15.61c.24,4.2,2.32,7.17,6.6,7.17,3.5,0,4.77-1.79,5.34-4.24H1428c-.53,3.71-3.22,7.17-9.09,7.17-6.73,0-10.36-4.89-10.36-11.08s3.71-11.09,10.11-11.09c6.16,0,9.34,4.53,9.34,10.36Zm-15.53-2.86h11.94c-.33-3.75-2-6.27-5.75-6.27S1413,211.55,1412.51,215.3Z"/><path d="M155.88,216.12v-3.34H169v12a20.24,20.24,0,0,1-11.62,3.46c-9.05,0-14.34-6.07-14.34-15.12,0-8.8,5.29-15,13.93-15,7.06,0,11.7,4,12.15,9.78h-3.91c-.49-3.71-3.67-6.4-8.32-6.4-5.91,0-9.78,4.48-9.78,11.57,0,7.62,4,11.78,10.6,11.78,3.26,0,5.91-.69,7.37-1.71v-7Z"/><path d="M187.54,206.42v3.5a16.66,16.66,0,0,0-2.32-.12,6.14,6.14,0,0,0-6.32,4.85v13.13h-3.79v-21.2h3.79v4.69a7.7,7.7,0,0,1,7-5A8,8,0,0,1,187.54,206.42Z"/><path d="M209.47,224.76v3h-.82c-2.85,0-4.6-1-5.21-3.14a8.56,8.56,0,0,1-7.34,3.46c-4.28,0-7-2.2-7-6,0-4.16,3.18-6.56,9.37-6.89l4.69-.24v-.74c0-2.77-.12-5.13-4.48-5.13-2.77,0-5,1.14-5,3.67h-3.63c0-4.16,3.63-6.61,8.52-6.61,6.11,0,8.39,2.37,8.39,8.28v7.46c0,2.12.41,2.85,1.84,2.85ZM203.19,220v-2.36l-3.87.2c-4.44.2-6.44,1.06-6.44,3.91,0,2.24,1.47,3.51,4.12,3.51A6.06,6.06,0,0,0,203.19,220Z"/><path d="M233.15,217.18c0,6.19-3.26,11.08-9.17,11.08a7.68,7.68,0,0,1-7.14-4.28v11.13h-3.79V206.58h3.79v4.16a7.9,7.9,0,0,1,7.14-4.65C229.89,206.09,233.15,211,233.15,217.18Zm-3.84,0c0-4.53-2-8.15-6.23-8.15-4,0-6.24,3.79-6.24,8.15,0,4.52,2,8.15,6.24,8.15S229.31,221.7,229.31,217.18Z"/><path d="M255.4,214v13.74h-3.75V214.94c0-4.28-1.67-5.71-4.44-5.71a6.57,6.57,0,0,0-6.12,5v13.54H237.3v-31h3.79v13.9a8.59,8.59,0,0,1,7.62-4.61C252.83,206.09,255.4,208.42,255.4,214Z"/><path d="M295.09,218c-.53,5.59-4.89,10.31-12.47,10.31-8.72,0-14-6.31-14-15.08,0-8.51,5-15,13.94-15,7.74,0,11.94,4.89,12.35,10.51H291c-.37-3.95-3.47-7.13-8.56-7.13-6.16,0-9.74,4.77-9.74,11.61s3.58,11.74,9.78,11.74c5.05,0,8.15-3,8.64-6.93Z"/><path d="M313.64,206.58h3.75v21.2h-3.75v-4.12a8.67,8.67,0,0,1-7.63,4.6c-4.11,0-6.72-2.32-6.72-7.94V206.58h3.79v12.84c0,4.28,1.63,5.67,4.44,5.67a6.62,6.62,0,0,0,6.12-5Z"/><path d="M342.9,217.18c0,6.19-3.26,11.08-9.17,11.08a7.69,7.69,0,0,1-7.18-4.36v3.88h-3.79v-31h3.79v14a7.93,7.93,0,0,1,7.18-4.73C339.64,206.09,342.9,211,342.9,217.18Zm-3.87,0c0-4.53-2-8.15-6.24-8.15-4,0-6.24,3.79-6.24,8.15,0,4.52,2,8.15,6.24,8.15S339,221.7,339,217.18Z"/><path d="M365,218.16H349.42c.24,4.2,2.32,7.17,6.6,7.17,3.5,0,4.77-1.79,5.34-4.24H365c-.53,3.71-3.22,7.17-9.09,7.17-6.73,0-10.35-4.89-10.35-11.08s3.7-11.09,10.1-11.09c6.16,0,9.34,4.53,9.34,10.36ZM349.5,215.3h11.94c-.33-3.75-2-6.27-5.75-6.27S350,211.55,349.5,215.3Z"/><path d="M1203,24.35c0-6.48,3.91-11.08,10.31-11.08s10.27,4.6,10.27,11.08-4,11.09-10.27,11.09C1206.94,35.44,1203,30.79,1203,24.35Zm16.75,0c0-4.73-2.08-8.15-6.44-8.15s-6.48,3.42-6.48,8.15,2.08,8.15,6.48,8.15S1219.78,29.12,1219.78,24.35Z"/><path d="M1247.29,15.67c0,3.71-1.91,6.89-3.71,9.09L1235.23,35h-4.45l8.48-9.91a9,9,0,0,1-3.34.58,9.68,9.68,0,0,1-10.11-9.91c0-5.91,4.36-10.39,10.84-10.39S1247.29,9.8,1247.29,15.67Zm-3.71-.2c0-3.88-2.44-7.22-6.93-7.22s-7.05,3.34-7.05,7.26,2.61,7.17,6.93,7.17C1241.09,22.68,1243.58,19.38,1243.58,15.47Z"/><path d="M1282,14.65c0,5.46-3.38,8.89-10.23,8.89h-6.15V35h-3.91V5.81h10.06C1278.59,5.81,1282,9.23,1282,14.65Zm-10.43,5.67c4.81,0,6.56-2.2,6.56-5.63s-1.75-5.54-6.56-5.54h-6V20.32Z"/><path d="M1301.33,13.75h4l-12,28.53h-4l3.87-8.88-8.68-19.65h4l6.77,15.82Z"/><path d="M1322.2,16.69H1315v12c0,2.69,1.14,3.51,3.51,3.51a15.52,15.52,0,0,0,3.3-.41v2.85a20.31,20.31,0,0,1-4.24.49c-4.24,0-6.36-1.67-6.36-6.11V16.69h-4.85V13.75h4.85V5.81H1315v7.94h7.22Z"/><path d="M1344.33,21.21V35h-3.75V22.11c0-4.28-1.67-5.71-4.45-5.71a6.57,6.57,0,0,0-6.11,5V35h-3.79V4H1330v13.9a8.59,8.59,0,0,1,7.62-4.6C1341.76,13.27,1344.33,15.59,1344.33,21.21Z"/><path d="M1348,24.35c0-6.48,3.92-11.08,10.31-11.08s10.28,4.6,10.28,11.08-4,11.09-10.28,11.09S1348,30.79,1348,24.35Zm16.75,0c0-4.73-2.07-8.15-6.44-8.15s-6.48,3.42-6.48,8.15,2.08,8.15,6.48,8.15S1364.78,29.12,1364.78,24.35Z"/><path d="M1390.62,21.21V35h-3.79V22.11c0-4.28-1.63-5.71-4.44-5.71a6.55,6.55,0,0,0-6.07,5V35h-3.79V13.75h3.79v4.12a8.45,8.45,0,0,1,7.58-4.6C1388.06,13.27,1390.62,15.59,1390.62,21.21Z"/><path d="M1225.16,58.06H1209.1v9.41h13.61v3.34H1209.1v9.66h16.06v3.38h-20V54.71h20Z"/><path d="M1248.1,70.12V83.85h-3.79V71c0-4.28-1.63-5.71-4.44-5.71a6.55,6.55,0,0,0-6.07,5V83.85H1230V62.66h3.79v4.12a8.44,8.44,0,0,1,7.58-4.61C1245.54,62.17,1248.1,64.49,1248.1,70.12Z"/><path d="M1266.85,62.66h3.91l-7.37,21.19h-4.89l-7.38-21.19H1255l5.91,19Z"/><path d="M1274.35,52.88h3.79v6.4h-3.79Zm0,31V62.66h3.79V83.85Z"/><path d="M1295.83,62.5V66a16.79,16.79,0,0,0-2.33-.12,6.14,6.14,0,0,0-6.31,4.85V83.85h-3.79V62.66h3.79v4.69a7.69,7.69,0,0,1,7-5A8,8,0,0,1,1295.83,62.5Z"/><path d="M1296.93,73.26c0-6.48,3.91-11.09,10.31-11.09s10.27,4.61,10.27,11.09-4,11.08-10.27,11.08C1300.84,84.34,1296.93,79.7,1296.93,73.26Zm16.75,0c0-4.73-2.08-8.15-6.44-8.15s-6.48,3.42-6.48,8.15,2.08,8.15,6.48,8.15S1313.68,78,1313.68,73.26Z"/><path d="M1352.48,70.65v13.2h-3.79V71.42c0-4.36-1.31-6.11-4.08-6.11s-5.13,2.53-5.79,5V83.85h-3.75V71.42c0-4.36-1.3-6.11-4.11-6.11s-5.1,2.53-5.75,5V83.85h-3.79V62.66h3.79v4.12a8.27,8.27,0,0,1,7.26-4.61c3.26,0,5.33,1.59,6.07,5.22a8.41,8.41,0,0,1,7.58-5.22C1350.24,62.17,1352.48,64.7,1352.48,70.65Z"/><path d="M1375.63,74.24H1360c.24,4.19,2.32,7.17,6.6,7.17,3.5,0,4.77-1.79,5.34-4.24h3.67c-.53,3.71-3.22,7.17-9.09,7.17-6.73,0-10.36-4.89-10.36-11.08s3.71-11.09,10.11-11.09c6.16,0,9.34,4.53,9.34,10.35Zm-15.53-2.86H1372c-.33-3.75-2-6.27-5.75-6.27S1360.59,67.63,1360.1,71.38Z"/><path d="M1397.84,70.12V83.85h-3.79V71c0-4.28-1.63-5.71-4.45-5.71a6.55,6.55,0,0,0-6.07,5V83.85h-3.79V62.66h3.79v4.12a8.44,8.44,0,0,1,7.58-4.61C1395.27,62.17,1397.84,64.49,1397.84,70.12Z"/><path d="M1416.26,65.6H1409v12c0,2.69,1.14,3.5,3.51,3.5a15.5,15.5,0,0,0,3.3-.4v2.85a21,21,0,0,1-4.24.49c-4.24,0-6.36-1.67-6.36-6.12V65.6h-4.85V62.66h4.85V54.71H1409v7.95h7.22Z"/><polyline class="a8d59e09-d82f-437e-a638-9d444ca638f4" points="1473.71 736.23 1767.06 736.23 1767.06 372.52 1716.54 372.52"/><polygon points="1720.35 367.82 1721.13 368.66 1716.98 372.52 1721.13 376.38 1720.35 377.22 1715.29 372.52 1720.35 367.82"/><polyline class="a5dc4dd9-4695-40a3-8c73-1cd48606519b" points="137.52 408.78 137.52 666.6 1493.08 666.6 1493.08 624.87"/><polygon points="1498.86 629.55 1497.83 630.51 1493.08 625.41 1488.34 630.51 1487.3 629.55 1493.08 623.33 1498.86 629.55"/><polyline class="a5dc4dd9-4695-40a3-8c73-1cd48606519b" points="1091.8 577.23 383.73 577.23 383.73 446.84"/><polygon points="389.51 451.53 388.47 452.49 383.73 447.39 378.98 452.49 377.95 451.53 383.73 445.31 389.51 451.53"/><line class="b22c1a7c-5a29-4ca3-89f5-6b6dd3f57e14" x1="383.73" y1="213.98" x2="1170.17" y2="213.98"/><polygon points="1166.36 218.69 1165.57 217.84 1169.72 213.98 1165.57 210.12 1166.36 209.28 1171.41 213.98 1166.36 218.69"/><polygon class="e9d373e0-e6da-4e47-bcd2-09d32e345d65" points="163.18 351.46 163.18 438.02 81.03 438.02 81.03 330.92 136.09 330.92 163.18 351.46"/><polyline class="e9d373e0-e6da-4e47-bcd2-09d32e345d65" points="163.18 351.46 136.09 351.46 136.09 330.92"/><line class="a281f11a-4533-461e-af66-3b9f612c318c" x1="136.09" y1="330.92" x2="163.18" y2="351.46"/><polygon class="e9d373e0-e6da-4e47-bcd2-09d32e345d65" points="173.24 341.19 173.24 427.75 91.09 427.75 91.09 320.65 146.15 320.65 173.24 341.19"/><polyline class="e9d373e0-e6da-4e47-bcd2-09d32e345d65" points="173.24 341.19 146.15 341.19 146.15 320.65"/><line class="a281f11a-4533-461e-af66-3b9f612c318c" x1="146.15" y1="320.65" x2="173.24" y2="341.19"/><polygon class="babe1f16-4e43-4048-8f8d-2179633fe19e" points="412.26 351.46 412.26 438.02 330.11 438.02 330.11 330.92 385.17 330.92 412.26 351.46"/><polyline class="babe1f16-4e43-4048-8f8d-2179633fe19e" points="412.26 351.46 385.17 351.46 385.17 330.92"/><line class="af38ce7e-27ab-4090-a6fc-a8f9f6fd8761" x1="385.17" y1="330.92" x2="412.26" y2="351.46"/><polygon class="babe1f16-4e43-4048-8f8d-2179633fe19e" points="422.31 341.19 422.31 427.75 340.17 427.75 340.17 320.65 395.23 320.65 422.31 341.19"/><polyline class="babe1f16-4e43-4048-8f8d-2179633fe19e" points="422.31 341.19 395.23 341.19 395.23 320.65"/><line class="af38ce7e-27ab-4090-a6fc-a8f9f6fd8761" x1="395.23" y1="320.65" x2="422.31" y2="341.19"/><path d="M125.87,266.56V295.7H122V272.38h-6v-3.22h4.36c1.35,0,1.67-.44,1.67-2.6Z"/><path d="M133.58,295.7v-5.79h3.91v5.79Z"/><path d="M388.52,287.75c0,4.81-3.51,8.44-10.11,8.44-6.93,0-10.8-3.63-10.88-8.89h3.75c.12,3.55,2.61,5.87,6.93,5.87,4.11,0,6.31-2.36,6.31-5.71s-2.28-5.38-6.07-5.38h-3.14v-2.81h3.43c3.38,0,5.05-2,5.05-5.17,0-3-1.67-5-5.38-5s-5.91,2.12-6.15,6h-3.79c.24-5.54,3.87-9,10.1-9,5.79,0,9.05,3.05,9.05,7.7a6.74,6.74,0,0,1-5.22,6.85C386.32,281.51,388.52,284,388.52,287.75Z"/><path d="M392.92,295.7v-5.79h3.91v5.79Z"/><path d="M642,182.42h13.65v3.22H636.19v-2.08l7.42-7.62c3.26-3.34,7.66-7.86,7.66-12,0-2.77-1.75-4.89-5.46-4.89-4,0-6.28,2.2-6.52,6.32h-3.71c.24-6,4.11-9.34,10.39-9.34,5.87,0,9.09,3.06,9.09,7.62s-3.42,8.56-7.74,13.17Z"/><path d="M661.05,185.64v-5.79H665v5.79Z"/><line class="a74ec850-eda2-4008-84b4-eca9058e7b21" x1="1191.85" y1="471.03" x2="1427.31" y2="471.03"/><polyline class="f6da75e8-458c-4d01-b4f0-361a3be8fc0f" points="1208.3 424.15 1208.3 485.16 972.84 485.16 972.84 424.15"/><polygon points="1202.52 428.83 1203.55 429.8 1208.29 424.69 1213.04 429.8 1214.07 428.83 1208.29 422.62 1202.52 428.83"/><polygon points="978.62 428.83 977.59 429.8 972.85 424.69 968.1 429.8 967.07 428.83 972.85 422.62 978.62 428.83"/><polyline class="f6da75e8-458c-4d01-b4f0-361a3be8fc0f" points="1679.2 424.15 1679.2 485.16 1443.75 485.16 1443.75 424.15"/><polygon points="1673.42 428.83 1674.45 429.8 1679.2 424.69 1683.94 429.8 1684.98 428.83 1679.2 422.62 1673.42 428.83"/><polygon points="1449.53 428.83 1448.49 429.8 1443.75 424.69 1439 429.8 1437.97 428.83 1443.75 422.62 1449.53 428.83"/><polyline class="f6da75e8-458c-4d01-b4f0-361a3be8fc0f" points="1208.3 485.16 1326.02 485.16 1443.75 485.16"/><polyline class="f6da75e8-458c-4d01-b4f0-361a3be8fc0f" points="1435.48 586.48 1326.02 586.48 1326.02 485.16"/></svg>